<?xml version="1.0" encoding="utf-8"?>
<!-- Generator: Adobe Illustrator 22.0.0, SVG Export Plug-In . SVG Version: 6.00 Build 0)  -->
<svg version="1.1" id="Layer_1" xmlns="http://www.w3.org/2000/svg" xmlns:xlink="http://www.w3.org/1999/xlink" x="0px" y="0px"
	 viewBox="0 0 74.8 71.9" style="enable-background:new 0 0 74.8 71.9;" xml:space="preserve">
<style type="text/css">
	.st0{fill:#FFFFFF;}
	.st1{clip-path:url(#SVGID_2_);fill:#606060;}
	.st2{clip-path:url(#SVGID_4_);}
	.st3{clip-path:url(#SVGID_6_);}
	.st4{clip-path:url(#SVGID_8_);}
	.st5{opacity:0.78;}
	.st6{clip-path:url(#SVGID_12_);}
	.st7{clip-path:url(#SVGID_14_);fill:url(#SVGID_15_);}
	.st8{clip-path:url(#SVGID_17_);}
	.st9{clip-path:url(#SVGID_19_);fill:url(#SVGID_20_);}
	.st10{clip-path:url(#SVGID_22_);}
	.st11{clip-path:url(#SVGID_24_);fill:url(#SVGID_25_);}
	.st12{clip-path:url(#SVGID_27_);}
	.st13{clip-path:url(#SVGID_29_);fill:url(#SVGID_30_);}
	.st14{clip-path:url(#SVGID_32_);}
	.st15{clip-path:url(#SVGID_34_);fill:url(#SVGID_35_);}
	.st16{clip-path:url(#SVGID_37_);}
	.st17{clip-path:url(#SVGID_39_);fill:url(#SVGID_40_);}
	.st18{clip-path:url(#SVGID_42_);}
	.st19{clip-path:url(#SVGID_44_);fill:url(#SVGID_45_);}
	.st20{clip-path:url(#SVGID_47_);}
	.st21{clip-path:url(#SVGID_49_);fill:url(#SVGID_50_);}
	.st22{fill:none;}
	.st23{clip-path:url(#SVGID_52_);}
	.st24{filter:url(#Adobe_OpacityMaskFilter);}
	.st25{clip-path:url(#SVGID_54_);fill:url(#SVGID_56_);}
	.st26{clip-path:url(#SVGID_54_);mask:url(#SVGID_55_);fill:url(#SVGID_57_);}
	.st27{filter:url(#Adobe_OpacityMaskFilter_1_);}
	.st28{clip-path:url(#SVGID_59_);fill:url(#SVGID_61_);}
	.st29{clip-path:url(#SVGID_59_);mask:url(#SVGID_60_);fill:url(#SVGID_62_);}
	.st30{clip-path:url(#SVGID_64_);fill:url(#SVGID_65_);}
	.st31{clip-path:url(#SVGID_67_);fill:url(#SVGID_68_);}
	.st32{clip-path:url(#SVGID_70_);fill:url(#SVGID_71_);}
	.st33{clip-path:url(#SVGID_73_);fill:#FFFFFF;}
	.st34{clip-path:url(#SVGID_73_);fill:#EDEFEF;}
	.st35{clip-path:url(#SVGID_73_);fill:#E4E5E7;}
	.st36{opacity:0.1;clip-path:url(#SVGID_75_);}
	.st37{clip-path:url(#SVGID_77_);}
	.st38{clip-path:url(#SVGID_75_);fill:#FFFFFF;}
	.st39{opacity:0.21;clip-path:url(#SVGID_75_);}
	.st40{clip-path:url(#SVGID_83_);}
	.st41{clip-path:url(#SVGID_87_);fill:url(#SVGID_88_);}
	.st42{clip-path:url(#SVGID_90_);}
	.st43{clip-path:url(#SVGID_94_);fill:url(#SVGID_95_);}
	.st44{clip-path:url(#SVGID_97_);fill:url(#SVGID_98_);}
	.st45{opacity:0.81;clip-path:url(#SVGID_100_);}
	.st46{clip-path:url(#SVGID_102_);}
	.st47{clip-path:url(#SVGID_106_);}
	.st48{clip-path:url(#SVGID_110_);fill:#606060;}
	.st49{clip-path:url(#SVGID_110_);fill:none;stroke:#606060;stroke-miterlimit:10;}
	.st50{clip-path:url(#SVGID_112_);fill:url(#SVGID_113_);}
	.st51{opacity:0.3;clip-path:url(#SVGID_115_);}
	.st52{clip-path:url(#SVGID_117_);}
	.st53{opacity:0.3;}
	.st54{clip-path:url(#SVGID_121_);}
	.st55{opacity:0.3;clip-path:url(#SVGID_125_);}
	.st56{clip-path:url(#SVGID_127_);}
	.st57{clip-path:url(#SVGID_125_);fill:#FFFFFF;}
	.st58{opacity:0.4;}
	.st59{clip-path:url(#SVGID_131_);}
	.st60{clip-path:url(#SVGID_135_);fill:url(#SVGID_136_);}
	.st61{clip-path:url(#SVGID_138_);fill:#FFFFFF;}
	.st62{clip-path:url(#SVGID_140_);fill:url(#SVGID_141_);}
	.st63{clip-path:url(#SVGID_143_);fill:url(#SVGID_144_);}
	.st64{clip-path:url(#SVGID_146_);fill:#FFFFFF;}
	.st65{clip-path:url(#SVGID_148_);fill:url(#SVGID_149_);}
	.st66{clip-path:url(#SVGID_151_);fill:url(#SVGID_152_);}
	.st67{clip-path:url(#SVGID_154_);fill:url(#SVGID_155_);}
	.st68{clip-path:url(#SVGID_157_);fill:#FFFFFF;}
	.st69{clip-path:url(#SVGID_159_);fill:url(#SVGID_160_);}
	.st70{clip-path:url(#SVGID_162_);fill:url(#SVGID_163_);}
	.st71{clip-path:url(#SVGID_165_);fill:#FFFFFF;}
	.st72{clip-path:url(#SVGID_167_);fill:url(#SVGID_168_);}
	.st73{clip-path:url(#SVGID_170_);fill:url(#SVGID_171_);}
	.st74{clip-path:url(#SVGID_173_);fill:#FFFFFF;}
	.st75{clip-path:url(#SVGID_175_);fill:url(#SVGID_176_);}
	.st76{clip-path:url(#SVGID_178_);fill:url(#SVGID_179_);}
	.st77{clip-path:url(#SVGID_181_);fill:url(#SVGID_182_);}
	.st78{clip-path:url(#SVGID_184_);fill:url(#SVGID_185_);}
	.st79{clip-path:url(#SVGID_187_);fill:url(#SVGID_188_);}
	.st80{clip-path:url(#SVGID_190_);fill:#FFFFFF;}
	.st81{clip-path:url(#SVGID_192_);fill:url(#SVGID_193_);}
	.st82{clip-path:url(#SVGID_195_);fill:#FFFFFF;}
</style>
<g>
	<g>
		<defs>
			<path id="SVGID_158_" d="M62.5,42c-4.8,1.4-9,4.1-13.5,6.2c-0.8,0.4-1,1.5-0.6,2.3c0.4,0.9,1.4,1.3,2.3,0.9
				c0.2-0.1,0.4-0.2,0.7-0.3c2.8-1.4,5.6-2.9,8.5-4.3c1.4-0.7,3-1.1,4.5-1.5c0.8-0.2,1.7,0,2.3,0.8c0.5,0.7,0.3,1.5-0.1,2.1
				c-0.5,0.8-1,1.6-1.7,2.2c-1.8,1.4-3.7,2.8-5.7,3.9c-4.5,2.3-9,4.4-13.6,6.6c-6.3,3-13,4.4-20,3.8c-2.6-0.2-5.1-0.2-7.7-0.3
				c-2.3-0.1-4.1,0.8-5.7,2.4c-0.2,0.2-0.3,0.5-0.4,0.7c-2.6-3.1-5.4-5.6-7.2-8.9c2.9-2.9,5.7-5.7,9.2-7.8c3.2-2,6.7-2.9,10.5-2.6
				c2,0.2,3.9,0.4,5.9,0.6c2.9,0.2,5.8,0.3,8.7,0.6c1.2,0.1,2.4,0.5,3.6,0.9c1,0.3,1.3,1.2,1,2.2c-0.4,1.3-1.3,2-2.6,2.2
				c-1.3,0.1-2.5,0.1-3.8,0.1c-1.9-0.1-3.9-0.4-5.8-0.5c-1.1-0.1-1.9,0.8-2,1.8c0,1.1,0.8,1.8,1.9,1.9c0.6,0,1.2,0,1.9,0.1
				c2.2,0.2,4.3,0.4,6.5,0.5c1.5,0,2.9-0.3,4.2-1c2.4-1.3,3.6-3.4,3.4-6.1c-0.2-2.6-1.7-4.2-4.1-5c-1.5-0.4-3-0.7-4.6-0.9
				c-4.2-0.4-8.5-0.7-12.7-1.1c-5.2-0.6-9.9,0.4-14.3,3.3c-3.1,2-5.8,4.3-8.4,6.9c-0.9,0.9-1.7,1.9-2.5,2.9v0.4
				c0,1.4,0.6,2.6,1.4,3.7c2,3.1,4.6,5.7,7,8.4c0.3,0.3,0.7,0.6,1.1,0.8c1.3,0.8,2.5,0.6,3.5-0.4c0.4-0.3,0.7-0.7,1-1.1
				c0.9-1,2-1.5,3.3-1.4c2.8,0.1,5.6,0.2,8.4,0.4c5.6,0.3,11-0.2,16.2-2.4c5-2.1,9.8-4.3,14.7-6.6c3-1.4,6-3.1,8.6-5.1
				c1.9-1.5,3.5-3.1,4.3-5.5c0.9-2.7-0.2-5.3-2.8-6.6c-1-0.5-1.9-0.7-2.9-0.7C63.9,41.7,63.2,41.8,62.5,42"/>
		</defs>
		<clipPath id="SVGID_2_">
			<use xlink:href="#SVGID_158_"  style="overflow:visible;"/>
		</clipPath>
		
			<linearGradient id="SVGID_4_" gradientUnits="userSpaceOnUse" x1="878.1326" y1="2249.0181" x2="879.1326" y2="2249.0181" gradientTransform="matrix(69.9616 0 0 -69.9616 -61434.9531 157401.6406)">
			<stop  offset="0" style="stop-color:#1399C9"/>
			<stop  offset="1" style="stop-color:#00BDA8"/>
		</linearGradient>
		<rect x="0.6" y="41.7" style="clip-path:url(#SVGID_2_);fill:url(#SVGID_4_);" width="70.6" height="30.1"/>
	</g>
	<g>
		<defs>
			<path id="SVGID_161_" d="M19,6.1c2.4,1.3,4.7,2.4,6.9,3.8c1.3,0.8,1.8,2.1,2.1,3.6c0.4,2.2,0.2,4.4-0.4,6.6
				C21.8,19.3,17.8,13,19,6.1 M15.7,2c-0.2,0.4-0.3,0.9-0.4,1.4c-0.1,2.2-0.2,4.3-0.2,6.5c0.1,7,5.2,12.9,12.2,14
				c0.5,0.1,0.7,0.3,0.9,0.7c1.5,3,2.4,6.3,2.7,9.6c0.3,2.6,0.4,5.2,0.5,7.7c0.1,1.2,0.9,2,1.9,2c1.1,0,1.8-0.9,1.8-2.2
				c0-0.8,0-1.5-0.1-2.3c-0.2-1.2,0.1-2.3,0.7-3.3c1.1-2.1,2.4-4,4-5.8c0.6,0.5,1.1,1.1,1.8,1.5c1.7,1.1,3.3,2.3,5.1,3.1
				c3.3,1.6,6.6,0.9,9.8-0.5c3.6-1.7,6.2-4.5,8.2-7.8c1.7-3,3.2-6.1,4.7-9.2c0.8-1.6,1.6-3.1,2.8-4.4c0.2-0.2,0.4-0.4,0.7-0.5
				c1.1-0.5,1.5-1.5,1.2-2.4c-0.4-1-1.4-1.4-2.6-1c-1.3,0.5-2.7,0.6-4,0.4c-2.4-0.3-4.8-0.7-7.2-1c-3.8-0.6-7.6-1.1-11.4-0.8
				c-2.9,0.3-5.7,1-8,3c-3.3,2.7-4.3,6.5-4.7,10.5c-0.1,1,0.8,1.8,1.8,1.9c0.9,0.1,1.8-0.6,2-1.6c0.1-0.7,0.2-1.4,0.3-2.1
				c0.8-4.7,3.4-7.2,8.1-7.9c2.6-0.4,5.2-0.2,7.7,0.1c3.2,0.4,6.4,1,9.7,1.4c0.5,0.1,1.1,0.1,1.6,0.2c-0.6,1.2-1.2,2.4-1.7,3.5
				c-1.2,2.5-2.4,5-3.7,7.4c-1.5,2.7-3.4,5.1-6.3,6.6c-2,1.1-4.2,1.8-6.5,1.2c-2.6-0.7-4.6-2.4-6.6-4.2c0.8-0.6,1.5-1.1,2.2-1.6
				c3-2.1,6.3-3.7,9.7-5.2c1.3-0.6,1.8-1.6,1.3-2.6c-0.5-1-1.6-1.4-2.8-0.8c-1.7,0.8-3.5,1.6-5.2,2.5c-4.4,2.2-8.3,5-11.5,8.9
				c-0.7,0.8-1.3,1.7-1.9,2.5c0-0.2-0.1-0.3-0.1-0.4c-0.6-3-1.5-5.9-3-8.6c-0.1-0.2-0.1-0.6,0-0.8c0.6-2.3,0.9-4.6,0.7-6.9
				c-0.3-3.6-1.7-6.5-4.9-8.4c-1.3-0.8-2.6-1.4-4-2c-1.6-0.7-3.1-1.5-4.5-2.7c-0.4-0.3-0.8-0.5-1.3-0.5C16.7,0.8,16,1.2,15.7,2"/>
		</defs>
		<clipPath id="SVGID_6_">
			<use xlink:href="#SVGID_161_"  style="overflow:visible;"/>
		</clipPath>
		
			<linearGradient id="SVGID_8_" gradientUnits="userSpaceOnUse" x1="874.1959" y1="2248.9082" x2="875.1959" y2="2248.9082" gradientTransform="matrix(59.0782 0 0 -59.0782 -51630.7773 132883.6875)">
			<stop  offset="0" style="stop-color:#1399C9"/>
			<stop  offset="1" style="stop-color:#00BDA8"/>
		</linearGradient>
		<rect x="15.1" y="0.8" style="clip-path:url(#SVGID_6_);fill:url(#SVGID_8_);" width="59.4" height="43.1"/>
	</g>
</g>
</svg>
