<?xml version="1.0" encoding="utf-8"?>
<!-- Generator: Adobe Illustrator 22.0.0, SVG Export Plug-In . SVG Version: 6.00 Build 0)  -->
<svg version="1.1" id="Layer_1" xmlns="http://www.w3.org/2000/svg" xmlns:xlink="http://www.w3.org/1999/xlink" x="0px" y="0px"
	 viewBox="0 0 85.8 44.9" style="enable-background:new 0 0 85.8 44.9;" xml:space="preserve">
<style type="text/css">
	.st0{fill:#FFFFFF;}
	.st1{clip-path:url(#SVGID_2_);fill:#606060;}
	.st2{clip-path:url(#SVGID_4_);}
	.st3{clip-path:url(#SVGID_6_);}
	.st4{clip-path:url(#SVGID_8_);}
	.st5{opacity:0.78;}
	.st6{clip-path:url(#SVGID_12_);}
	.st7{clip-path:url(#SVGID_14_);fill:url(#SVGID_15_);}
	.st8{clip-path:url(#SVGID_17_);}
	.st9{clip-path:url(#SVGID_19_);fill:url(#SVGID_20_);}
	.st10{clip-path:url(#SVGID_22_);}
	.st11{clip-path:url(#SVGID_24_);fill:url(#SVGID_25_);}
	.st12{clip-path:url(#SVGID_27_);}
	.st13{clip-path:url(#SVGID_29_);fill:url(#SVGID_30_);}
	.st14{clip-path:url(#SVGID_32_);}
	.st15{clip-path:url(#SVGID_34_);fill:url(#SVGID_35_);}
	.st16{clip-path:url(#SVGID_37_);}
	.st17{clip-path:url(#SVGID_39_);fill:url(#SVGID_40_);}
	.st18{clip-path:url(#SVGID_42_);}
	.st19{clip-path:url(#SVGID_44_);fill:url(#SVGID_45_);}
	.st20{clip-path:url(#SVGID_47_);}
	.st21{clip-path:url(#SVGID_49_);fill:url(#SVGID_50_);}
	.st22{fill:none;}
	.st23{clip-path:url(#SVGID_52_);}
	.st24{filter:url(#Adobe_OpacityMaskFilter);}
	.st25{clip-path:url(#SVGID_54_);fill:url(#SVGID_56_);}
	.st26{clip-path:url(#SVGID_54_);mask:url(#SVGID_55_);fill:url(#SVGID_57_);}
	.st27{filter:url(#Adobe_OpacityMaskFilter_1_);}
	.st28{clip-path:url(#SVGID_59_);fill:url(#SVGID_61_);}
	.st29{clip-path:url(#SVGID_59_);mask:url(#SVGID_60_);fill:url(#SVGID_62_);}
	.st30{clip-path:url(#SVGID_64_);fill:url(#SVGID_65_);}
	.st31{clip-path:url(#SVGID_67_);fill:url(#SVGID_68_);}
	.st32{clip-path:url(#SVGID_70_);fill:url(#SVGID_71_);}
	.st33{clip-path:url(#SVGID_73_);fill:#FFFFFF;}
	.st34{clip-path:url(#SVGID_73_);fill:#EDEFEF;}
	.st35{clip-path:url(#SVGID_73_);fill:#E4E5E7;}
	.st36{opacity:0.1;clip-path:url(#SVGID_75_);}
	.st37{clip-path:url(#SVGID_77_);}
	.st38{clip-path:url(#SVGID_75_);fill:#FFFFFF;}
	.st39{opacity:0.21;clip-path:url(#SVGID_75_);}
	.st40{clip-path:url(#SVGID_83_);}
	.st41{clip-path:url(#SVGID_87_);fill:url(#SVGID_88_);}
	.st42{clip-path:url(#SVGID_90_);}
	.st43{clip-path:url(#SVGID_94_);fill:url(#SVGID_95_);}
	.st44{clip-path:url(#SVGID_97_);fill:url(#SVGID_98_);}
	.st45{opacity:0.81;clip-path:url(#SVGID_100_);}
	.st46{clip-path:url(#SVGID_102_);}
	.st47{clip-path:url(#SVGID_106_);}
	.st48{clip-path:url(#SVGID_110_);fill:#606060;}
	.st49{clip-path:url(#SVGID_110_);fill:none;stroke:#606060;stroke-miterlimit:10;}
	.st50{clip-path:url(#SVGID_112_);fill:url(#SVGID_113_);}
	.st51{opacity:0.3;clip-path:url(#SVGID_115_);}
	.st52{clip-path:url(#SVGID_117_);}
	.st53{opacity:0.3;}
	.st54{clip-path:url(#SVGID_121_);}
	.st55{opacity:0.3;clip-path:url(#SVGID_125_);}
	.st56{clip-path:url(#SVGID_127_);}
	.st57{clip-path:url(#SVGID_125_);fill:#FFFFFF;}
	.st58{opacity:0.4;}
	.st59{clip-path:url(#SVGID_131_);}
	.st60{clip-path:url(#SVGID_135_);fill:url(#SVGID_136_);}
	.st61{clip-path:url(#SVGID_138_);fill:#FFFFFF;}
	.st62{clip-path:url(#SVGID_140_);fill:url(#SVGID_141_);}
	.st63{clip-path:url(#SVGID_143_);fill:url(#SVGID_144_);}
	.st64{clip-path:url(#SVGID_146_);fill:#FFFFFF;}
	.st65{clip-path:url(#SVGID_148_);fill:url(#SVGID_149_);}
	.st66{clip-path:url(#SVGID_151_);fill:url(#SVGID_152_);}
	.st67{clip-path:url(#SVGID_154_);fill:url(#SVGID_155_);}
	.st68{clip-path:url(#SVGID_157_);fill:#FFFFFF;}
	.st69{clip-path:url(#SVGID_159_);fill:url(#SVGID_160_);}
	.st70{clip-path:url(#SVGID_162_);fill:url(#SVGID_163_);}
	.st71{clip-path:url(#SVGID_165_);fill:#FFFFFF;}
	.st72{clip-path:url(#SVGID_167_);fill:url(#SVGID_168_);}
	.st73{clip-path:url(#SVGID_170_);fill:url(#SVGID_171_);}
	.st74{clip-path:url(#SVGID_173_);fill:#FFFFFF;}
	.st75{clip-path:url(#SVGID_175_);fill:url(#SVGID_176_);}
	.st76{clip-path:url(#SVGID_178_);fill:url(#SVGID_179_);}
	.st77{clip-path:url(#SVGID_181_);fill:url(#SVGID_182_);}
	.st78{clip-path:url(#SVGID_184_);fill:url(#SVGID_185_);}
	.st79{clip-path:url(#SVGID_187_);fill:url(#SVGID_188_);}
	.st80{clip-path:url(#SVGID_190_);fill:#FFFFFF;}
	.st81{clip-path:url(#SVGID_192_);fill:url(#SVGID_193_);}
	.st82{clip-path:url(#SVGID_195_);fill:#FFFFFF;}
</style>
<g>
	<g>
		<defs>
			<path id="SVGID_139_" d="M12.1,35.1c0-3.7,2.9-6.3,6.3-6.2c3.4,0.1,6.1,2.7,6.1,6.2c0,3.8-3.1,6.2-6.3,6.1c0,0,0,0-0.1,0
				C14.9,41.2,12.1,38.6,12.1,35.1 M60.2,35.1c0-3.7,2.9-6.2,6.3-6.1c3.3,0,6.1,2.6,6.1,6.2c0,3.7-2.9,6.2-6.2,6.2c0,0,0,0,0,0
				C63,41.2,60.2,38.6,60.2,35.1 M3.8,30.1c-0.1-1.7,0-3.5,0-5.2c0-1.7,1.1-3.3,2.9-3.9c1-0.3,2-0.6,2.9-0.8c3.5-1,7-1.9,10.5-2.9
				c0.5-0.1,0.9-0.4,1.3-0.9c1.4-1.8,2.8-3.6,4.1-5.4c1.3-1.7,2.6-3.3,3.8-5c0.9-1.2,2.1-1.9,3.6-2.3c0.6-0.1,1.3-0.2,1.9-0.2
				c8.2,0,16.5,0,24.7,0c1,0,2.1,0.1,3.1,0.6c1.2,0.5,2,1.4,2.7,2.5c1.5,2.3,2.9,4.7,4.4,7c0.5,0.8,1.1,1.6,1.5,2.5
				c0.3,0.6,0.8,1,1.4,1.2c2.2,1,4.4,2,6.6,3c0.6,0.3,1.1,0.5,1.5,1c0.8,0.9,1.2,1.9,1.2,3.1c0,1.8,0,3.7,0,5.5
				c0,2.2-1.7,4.2-4.2,4.2c-0.6,0-1.1,0-1.7,0c-0.7-5.2-4.7-8.4-9.2-8.6c-4.1-0.2-9.1,2.3-10.2,8.6H28c-0.4-2.6-1.5-4.8-3.6-6.4
				c-1.8-1.5-4-2.2-6.3-2.1c-4.4,0.2-8.6,3.1-9.4,8.5c-0.3,0.1-0.6,0.1-0.9,0.1C5.7,34.1,3.9,32.4,3.8,30.1 M34.7,0
				c-1,0-2,0.1-3,0.4C29.6,1,27.8,2.2,26.5,4c-2.4,3.1-4.8,6.2-7.1,9.4c-0.3,0.4-0.7,0.7-1.3,0.9c-4,1.1-7.9,2.1-11.9,3.2
				c-1,0.3-2,0.7-2.8,1.3c-2,1.6-3.1,3.7-3.1,6.3c0,1.4,0,2.9,0,4.3c0,1.6,0.3,3.1,1.1,4.4c0.6,1,1.4,1.8,2.3,2.4
				c1.3,0.9,2.8,1.2,4.4,1.3c0.3,0,0.5,0,0.8,0c1.6,5.1,5.6,7.3,9.3,7.2c4.8-0.1,7.9-2.6,9.5-7.2H57c1.8,5.5,6.1,7.3,9.3,7.2
				c4.8-0.1,8-2.6,9.6-7.2c0.5,0,1,0,1.5,0c0.8-0.1,1.6-0.1,2.4-0.3c1.3-0.3,2.5-1,3.4-1.9c0.8-0.8,1.5-1.8,1.9-3
				c0.1-0.5,0.3-1.1,0.5-1.6v-7.6c-0.1-0.1-0.1-0.3-0.2-0.4c-0.2-1.1-0.7-2-1.3-2.9c-0.8-1.2-2-2-3.3-2.6c-1.9-0.9-3.9-1.8-5.8-2.6
				c-0.5-0.2-0.8-0.5-1.1-0.9c-1.7-2.8-3.4-5.5-5.1-8.2c-0.7-1.2-1.5-2.3-2.6-3.1C64.2,0.6,62,0,59.6,0C55.8,0,52,0,48.2,0
				C43.7,0,39.2,0,34.7,0"/>
		</defs>
		<clipPath id="SVGID_2_">
			<use xlink:href="#SVGID_139_"  style="overflow:visible;"/>
		</clipPath>
		
			<linearGradient id="SVGID_4_" gradientUnits="userSpaceOnUse" x1="882.6227" y1="2369.1096" x2="883.6227" y2="2369.1096" gradientTransform="matrix(85.1356 0 0 -85.1356 -75142.3438 201718.0313)">
			<stop  offset="0" style="stop-color:#1399C9"/>
			<stop  offset="1" style="stop-color:#00BDA8"/>
		</linearGradient>
		<rect x="0.3" style="clip-path:url(#SVGID_2_);fill:url(#SVGID_4_);" width="85.1" height="44.8"/>
	</g>
	<g>
		<defs>
			<path id="SVGID_142_" d="M39.5,6.9l-5.4,3.9c-0.6,0.5-0.8,1.4-0.3,2l7.9,10.5c0.6,0.8,1.7,0.8,2.3,0l1.2-1.6
				c0.5-0.7,1.5-0.7,2.1-0.2l5.5,5c1.2,1.1,2.9-0.3,2.3-1.7l-5.8-12.4c-0.5-1-1.9-1.1-2.5-0.2l-0.4,0.5c-0.6,1-2.1,0.8-2.5-0.2
				l-2.2-5.2c-0.2-0.6-0.8-0.9-1.3-0.9C40,6.6,39.7,6.7,39.5,6.9"/>
		</defs>
		<clipPath id="SVGID_6_">
			<use xlink:href="#SVGID_142_"  style="overflow:visible;"/>
		</clipPath>
		
			<linearGradient id="SVGID_8_" gradientUnits="userSpaceOnUse" x1="831.3631" y1="2364.3413" x2="832.3631" y2="2364.3413" gradientTransform="matrix(21.67 0 0 -21.67 -17982.1191 51252.4805)">
			<stop  offset="0" style="stop-color:#1399C9"/>
			<stop  offset="1" style="stop-color:#00BDA8"/>
		</linearGradient>
		<rect x="33.3" y="6.6" style="clip-path:url(#SVGID_6_);fill:url(#SVGID_8_);" width="22.4" height="21.1"/>
	</g>
</g>
</svg>
