<?xml version="1.0" encoding="utf-8"?>
<!-- Generator: Adobe Illustrator 22.0.0, SVG Export Plug-In . SVG Version: 6.00 Build 0)  -->
<svg version="1.1" id="Layer_1" xmlns="http://www.w3.org/2000/svg" xmlns:xlink="http://www.w3.org/1999/xlink" x="0px" y="0px"
	 viewBox="0 0 199.5 201" style="enable-background:new 0 0 199.5 201;" xml:space="preserve">
<style type="text/css">
	.st0{clip-path:url(#SVGID_2_);fill:#606060;}
	.st1{clip-path:url(#SVGID_4_);}
	.st2{clip-path:url(#SVGID_6_);}
	.st3{clip-path:url(#SVGID_8_);}
	.st4{opacity:0.78;}
	.st5{clip-path:url(#SVGID_12_);}
	.st6{clip-path:url(#SVGID_14_);fill:url(#SVGID_15_);}
	.st7{clip-path:url(#SVGID_17_);}
	.st8{clip-path:url(#SVGID_19_);fill:url(#SVGID_20_);}
	.st9{clip-path:url(#SVGID_22_);}
	.st10{clip-path:url(#SVGID_24_);fill:url(#SVGID_25_);}
	.st11{clip-path:url(#SVGID_27_);}
	.st12{clip-path:url(#SVGID_29_);fill:url(#SVGID_30_);}
	.st13{clip-path:url(#SVGID_32_);}
	.st14{clip-path:url(#SVGID_34_);fill:url(#SVGID_35_);}
	.st15{clip-path:url(#SVGID_37_);}
	.st16{clip-path:url(#SVGID_39_);fill:url(#SVGID_40_);}
	.st17{clip-path:url(#SVGID_42_);}
	.st18{clip-path:url(#SVGID_44_);fill:url(#SVGID_45_);}
	.st19{clip-path:url(#SVGID_47_);}
	.st20{clip-path:url(#SVGID_49_);fill:url(#SVGID_50_);}
	.st21{fill:none;}
	.st22{clip-path:url(#SVGID_52_);}
	.st23{filter:url(#Adobe_OpacityMaskFilter);}
	.st24{clip-path:url(#SVGID_54_);fill:url(#SVGID_56_);}
	.st25{clip-path:url(#SVGID_54_);mask:url(#SVGID_55_);fill:url(#SVGID_57_);}
	.st26{filter:url(#Adobe_OpacityMaskFilter_1_);}
	.st27{clip-path:url(#SVGID_59_);fill:url(#SVGID_61_);}
	.st28{clip-path:url(#SVGID_59_);mask:url(#SVGID_60_);fill:url(#SVGID_62_);}
	.st29{clip-path:url(#SVGID_64_);fill:url(#SVGID_65_);}
	.st30{clip-path:url(#SVGID_67_);fill:url(#SVGID_68_);}
	.st31{clip-path:url(#SVGID_70_);fill:url(#SVGID_71_);}
	.st32{clip-path:url(#SVGID_73_);fill:#FFFFFF;}
	.st33{clip-path:url(#SVGID_73_);fill:#EDEFEF;}
	.st34{clip-path:url(#SVGID_73_);fill:#E4E5E7;}
	.st35{opacity:0.1;clip-path:url(#SVGID_75_);}
	.st36{clip-path:url(#SVGID_77_);}
	.st37{clip-path:url(#SVGID_75_);fill:#FFFFFF;}
	.st38{opacity:0.21;clip-path:url(#SVGID_75_);}
	.st39{clip-path:url(#SVGID_83_);}
	.st40{clip-path:url(#SVGID_87_);fill:url(#SVGID_88_);}
	.st41{clip-path:url(#SVGID_90_);}
	.st42{clip-path:url(#SVGID_94_);fill:url(#SVGID_95_);}
	.st43{clip-path:url(#SVGID_97_);fill:url(#SVGID_98_);}
	.st44{opacity:0.81;clip-path:url(#SVGID_100_);}
	.st45{clip-path:url(#SVGID_102_);}
	.st46{clip-path:url(#SVGID_106_);}
	.st47{fill:#606060;}
	.st48{fill:none;stroke:#606060;stroke-miterlimit:10;}
	.st49{opacity:0.3;}
	.st50{clip-path:url(#SVGID_110_);}
	.st51{fill:#FFFFFF;}
	.st52{opacity:0.3;clip-path:url(#SVGID_114_);}
	.st53{clip-path:url(#SVGID_116_);}
	.st54{clip-path:url(#SVGID_114_);fill:#FFFFFF;}
	.st55{opacity:0.4;}
	.st56{clip-path:url(#SVGID_120_);}
	.st57{clip-path:url(#SVGID_124_);fill:url(#SVGID_125_);}
	.st58{clip-path:url(#SVGID_127_);fill:#FFFFFF;}
	.st59{clip-path:url(#SVGID_129_);fill:url(#SVGID_130_);}
	.st60{clip-path:url(#SVGID_132_);fill:url(#SVGID_133_);}
	.st61{clip-path:url(#SVGID_135_);fill:#FFFFFF;}
	.st62{clip-path:url(#SVGID_137_);fill:url(#SVGID_138_);}
	.st63{clip-path:url(#SVGID_140_);fill:url(#SVGID_141_);}
	.st64{clip-path:url(#SVGID_143_);fill:url(#SVGID_144_);}
	.st65{clip-path:url(#SVGID_146_);fill:#FFFFFF;}
	.st66{clip-path:url(#SVGID_148_);fill:url(#SVGID_149_);}
	.st67{clip-path:url(#SVGID_151_);fill:url(#SVGID_152_);}
	.st68{clip-path:url(#SVGID_154_);fill:#FFFFFF;}
	.st69{clip-path:url(#SVGID_156_);fill:url(#SVGID_157_);}
	.st70{clip-path:url(#SVGID_159_);fill:url(#SVGID_160_);}
	.st71{clip-path:url(#SVGID_162_);fill:#FFFFFF;}
	.st72{clip-path:url(#SVGID_164_);fill:url(#SVGID_165_);}
	.st73{clip-path:url(#SVGID_167_);fill:url(#SVGID_168_);}
	.st74{clip-path:url(#SVGID_170_);fill:url(#SVGID_171_);}
	.st75{clip-path:url(#SVGID_173_);fill:url(#SVGID_174_);}
	.st76{clip-path:url(#SVGID_176_);fill:url(#SVGID_177_);}
	.st77{clip-path:url(#SVGID_179_);fill:#FFFFFF;}
	.st78{clip-path:url(#SVGID_181_);fill:url(#SVGID_182_);}
</style>
<g>
	<path class="st51" d="M152.3,82.4c0,6.5,0,13,0,19.5c0,4.1-0.6,8.1-1.5,12.2c-1.5,6.3-4.1,12.1-7.8,17.4c-3,4.2-6.6,7.9-10.6,11.1
		c-6.1,4.8-13,8.4-20.3,11c-3.7,1.4-7.6,2.4-11.5,3.2c-0.9,0.2-1.8,0-2.7-0.2c-5.4-1.2-10.7-2.8-15.8-5.1c-4.9-2.2-9.6-4.8-13.9-8
		c-5.8-4.3-10.6-9.5-14.2-15.7c-2.8-4.8-4.8-10-5.8-15.5c-0.5-2.5-0.9-4.9-1-7.4c-0.1-1.5-0.2-3-0.2-4.6c0-12.8,0-25.6,0-38.5
		c0-0.2,0-0.5,0-0.7c0.1-1.1,0.7-1.7,1.7-1.9c2.4-0.4,4.8-0.7,7.1-1.2c5.5-1,11-2.3,16.4-3.8c7.1-2,14-4.5,20.8-7.3
		c1.8-0.7,3.6-1.6,5.3-2.4c0.8-0.4,1.5-0.4,2.3,0c5.4,2.6,11,4.8,16.7,6.7c6,2.1,12.2,3.9,18.4,5.3c3.4,0.8,6.9,1.4,10.3,2
		c1.4,0.3,2.8,0.4,4.1,0.7c1.4,0.2,1.9,0.8,1.9,2.2c0,6.2,0,12.4,0,18.7L152.3,82.4L152.3,82.4z M133.5,100.5
		c0-18.8-15.2-33.8-33.6-33.8C81.4,66.6,66,81.5,66,100.4c-0.1,18.8,15.2,33.8,33.7,33.9C118.2,134.3,133.4,119.3,133.5,100.5"/>
	<path class="st51" d="M107.3,108v1.3c0,2.6-0.1,5.2,0,7.7c0,1.3-0.8,2.3-2.3,2.3c-3.5-0.1-7,0-10.6,0c-1.5,0-2.1-0.7-2.2-2.1
		c0-0.2,0-0.5,0-0.7v-7.2V108h-1h-7.4c-0.3,0-0.5,0-0.8,0c-1.3,0-2-0.7-2.1-2c0,0,0-0.1,0-0.1c0-3.6,0-7.2,0-10.8
		c0-1.4,0.7-2,2.1-2.1c0.2,0,0.5,0,0.7,0h7.2h1.2c0-0.4,0.1-0.7,0.1-1c0-2.7,0-5.5,0-8.2c0-1.1,0.4-1.7,1.3-2
		c0.3-0.1,0.5-0.1,0.8-0.1c3.6,0,7.2,0,10.8,0c1.4,0,2.1,0.7,2.1,2.2c0,2.6,0,5.2,0,7.7v1.2c0.3,0,0.6,0.1,0.9,0.1
		c2.6,0,5.2,0,7.7,0c0.3,0,0.5,0,0.8,0c1,0.1,1.7,0.8,1.8,1.8c0,1.1,0,2.3,0,3.4c0,2.5,0,5,0,7.5c0,1.6-0.7,2.3-2.3,2.3
		C113.3,108,110.4,108,107.3,108"/>
</g>
</svg>
