<?xml version="1.0" encoding="utf-8"?>
<!-- Generator: Adobe Illustrator 22.0.0, SVG Export Plug-In . SVG Version: 6.00 Build 0)  -->
<svg version="1.1" id="Layer_1" xmlns="http://www.w3.org/2000/svg" xmlns:xlink="http://www.w3.org/1999/xlink" x="0px" y="0px"
	 viewBox="0 0 199.5 201" style="enable-background:new 0 0 199.5 201;" xml:space="preserve">
<style type="text/css">
	.st0{clip-path:url(#SVGID_2_);fill:#606060;}
	.st1{clip-path:url(#SVGID_4_);}
	.st2{clip-path:url(#SVGID_6_);}
	.st3{clip-path:url(#SVGID_8_);}
	.st4{opacity:0.78;}
	.st5{clip-path:url(#SVGID_12_);}
	.st6{clip-path:url(#SVGID_14_);fill:url(#SVGID_15_);}
	.st7{clip-path:url(#SVGID_17_);}
	.st8{clip-path:url(#SVGID_19_);fill:url(#SVGID_20_);}
	.st9{clip-path:url(#SVGID_22_);}
	.st10{clip-path:url(#SVGID_24_);fill:url(#SVGID_25_);}
	.st11{clip-path:url(#SVGID_27_);}
	.st12{clip-path:url(#SVGID_29_);fill:url(#SVGID_30_);}
	.st13{clip-path:url(#SVGID_32_);}
	.st14{clip-path:url(#SVGID_34_);fill:url(#SVGID_35_);}
	.st15{clip-path:url(#SVGID_37_);}
	.st16{clip-path:url(#SVGID_39_);fill:url(#SVGID_40_);}
	.st17{clip-path:url(#SVGID_42_);}
	.st18{clip-path:url(#SVGID_44_);fill:url(#SVGID_45_);}
	.st19{clip-path:url(#SVGID_47_);}
	.st20{clip-path:url(#SVGID_49_);fill:url(#SVGID_50_);}
	.st21{fill:none;}
	.st22{clip-path:url(#SVGID_52_);}
	.st23{filter:url(#Adobe_OpacityMaskFilter);}
	.st24{clip-path:url(#SVGID_54_);fill:url(#SVGID_56_);}
	.st25{clip-path:url(#SVGID_54_);mask:url(#SVGID_55_);fill:url(#SVGID_57_);}
	.st26{filter:url(#Adobe_OpacityMaskFilter_1_);}
	.st27{clip-path:url(#SVGID_59_);fill:url(#SVGID_61_);}
	.st28{clip-path:url(#SVGID_59_);mask:url(#SVGID_60_);fill:url(#SVGID_62_);}
	.st29{clip-path:url(#SVGID_64_);fill:url(#SVGID_65_);}
	.st30{clip-path:url(#SVGID_67_);fill:url(#SVGID_68_);}
	.st31{clip-path:url(#SVGID_70_);fill:url(#SVGID_71_);}
	.st32{clip-path:url(#SVGID_73_);fill:#FFFFFF;}
	.st33{clip-path:url(#SVGID_73_);fill:#EDEFEF;}
	.st34{clip-path:url(#SVGID_73_);fill:#E4E5E7;}
	.st35{opacity:0.1;clip-path:url(#SVGID_75_);}
	.st36{clip-path:url(#SVGID_77_);}
	.st37{clip-path:url(#SVGID_75_);fill:#FFFFFF;}
	.st38{opacity:0.21;clip-path:url(#SVGID_75_);}
	.st39{clip-path:url(#SVGID_83_);}
	.st40{clip-path:url(#SVGID_87_);fill:url(#SVGID_88_);}
	.st41{clip-path:url(#SVGID_90_);}
	.st42{clip-path:url(#SVGID_94_);fill:url(#SVGID_95_);}
	.st43{clip-path:url(#SVGID_97_);fill:url(#SVGID_98_);}
	.st44{opacity:0.81;clip-path:url(#SVGID_100_);}
	.st45{clip-path:url(#SVGID_102_);}
	.st46{clip-path:url(#SVGID_106_);}
	.st47{fill:#606060;}
	.st48{fill:none;stroke:#606060;stroke-miterlimit:10;}
	.st49{opacity:0.3;}
	.st50{clip-path:url(#SVGID_110_);}
	.st51{fill:#FFFFFF;}
	.st52{opacity:0.3;clip-path:url(#SVGID_114_);}
	.st53{clip-path:url(#SVGID_116_);}
	.st54{clip-path:url(#SVGID_114_);fill:#FFFFFF;}
	.st55{opacity:0.4;}
	.st56{clip-path:url(#SVGID_120_);}
	.st57{clip-path:url(#SVGID_124_);fill:url(#SVGID_125_);}
	.st58{clip-path:url(#SVGID_127_);fill:#FFFFFF;}
	.st59{clip-path:url(#SVGID_129_);fill:url(#SVGID_130_);}
	.st60{clip-path:url(#SVGID_132_);fill:url(#SVGID_133_);}
	.st61{clip-path:url(#SVGID_135_);fill:#FFFFFF;}
	.st62{clip-path:url(#SVGID_137_);fill:url(#SVGID_138_);}
	.st63{clip-path:url(#SVGID_140_);fill:url(#SVGID_141_);}
	.st64{clip-path:url(#SVGID_143_);fill:url(#SVGID_144_);}
	.st65{clip-path:url(#SVGID_146_);fill:#FFFFFF;}
	.st66{clip-path:url(#SVGID_148_);fill:url(#SVGID_149_);}
	.st67{clip-path:url(#SVGID_151_);fill:url(#SVGID_152_);}
	.st68{clip-path:url(#SVGID_154_);fill:#FFFFFF;}
	.st69{clip-path:url(#SVGID_156_);fill:url(#SVGID_157_);}
	.st70{clip-path:url(#SVGID_159_);fill:url(#SVGID_160_);}
	.st71{clip-path:url(#SVGID_162_);fill:#FFFFFF;}
	.st72{clip-path:url(#SVGID_164_);fill:url(#SVGID_165_);}
	.st73{clip-path:url(#SVGID_167_);fill:url(#SVGID_168_);}
	.st74{clip-path:url(#SVGID_170_);fill:url(#SVGID_171_);}
	.st75{clip-path:url(#SVGID_173_);fill:url(#SVGID_174_);}
	.st76{clip-path:url(#SVGID_176_);fill:url(#SVGID_177_);}
	.st77{clip-path:url(#SVGID_179_);fill:#FFFFFF;}
	.st78{clip-path:url(#SVGID_181_);fill:url(#SVGID_182_);}
</style>
<g>
	<path class="st51" d="M92.2,43.9H147c1.9,0.9,2.5,2.4,2.5,4.5c-0.1,12.6,0,25.3,0,37.9c0,0.4,0,0.9-0.1,1.3
		c-0.3,1.7-1.7,2.7-3.6,2.7c-7.2,0-14.4,0-21.6,0H123V97h1.4c9.4,0,18.8,0,28.2,0c2.4,0,3.8,1.3,3.8,3.7c0,5.1,0,10.2,0,15.2
		c0,0.3,0,0.6-0.1,0.8h-46.6v-6.6v-6.5h-6.6c0,0.9,0,1.8,0,2.7c0,2.6-1.3,3.9-3.9,3.9c-4.9,0-9.9,0-14.8,0h-1.1v6.6
		c3.3,0,6.5,0,9.7,0c5.7,0,10,4.3,10.1,10.1c0,2.1,0,4.1,0,6.2c0,2.3-1.4,3.6-3.7,3.6c-13,0-26.1,0-39.1,0c-2.3,0-3.6-1.4-3.6-3.6
		c0-2,0-4,0-6c0-6,4.3-10.3,10.3-10.3c2.8,0,5.7,0,8.5,0c0.3,0,0.6,0,1,0v-6.6h-1.3c-4.9,0-9.8,0-14.7,0c-2.6,0-3.8-1.3-3.8-3.9
		c0-0.9,0-1.8,0-2.7h-6.8v1.4c0,15.9,0,31.9,0,47.8c0,0.4,0,0.7,0,1.1c-0.1,1.5-1.1,2.7-2.6,3c-1.4,0.3-2.8-0.3-3.6-1.6
		c-0.1-0.2-0.3-0.5-0.4-0.7V99.4c0.9-1.9,2.4-2.6,4.5-2.5c2,0.1,4,0,6,0h3.1v-1.3c0-5,0-10,0-15c0-1.5,0.1-3,0.4-4.5
		C59.5,62.9,72.9,54.4,85.9,58C96,60.7,103,69.7,103,80.2c0,5.2,0,10.4,0,15.6c0,0.4,0,0.8,0,1.1h13.2v-6.6h-6.6c0-1,0-1.9,0-2.8
		c-0.1-3.3,0.1-6.7-0.2-10c-1.2-11-6.9-18.9-16.7-23.9c-0.9-0.5-1.9-0.9-2.9-1.3c0-1.8-0.1-3.5,0-5.2c0-0.6,0.3-1.3,0.6-1.7
		C90.9,44.8,91.6,44.4,92.2,43.9"/>
	<path class="st51" d="M116.3,143.9c0,3.3,0,6.5,0,9.7c0,1.5-0.6,2.6-2,3.2c-2,1-4.4-0.4-4.7-2.7c0-0.2,0-0.4,0-0.7
		c0-9.6,0-19.3,0-28.9v-0.9h46.5c0,0.2,0.1,0.5,0.1,0.7c0,9.8,0,19.5,0,29.3c0,2.1-1.4,3.5-3.3,3.6c-1.9,0-3.3-1.5-3.3-3.6
		c0-3.2,0-6.3,0-9.6H116.3z"/>
	<path class="st51" d="M76.5,143.8h6.6v6.6c0.8,0,1.6,0,2.3,0c0.5,0,1,0,1.5,0c1.7,0.3,2.9,1.8,2.8,3.5c-0.1,1.7-1.4,3.1-3.2,3.1
		c-4.5,0-9.1,0.1-13.6,0c-1.8,0-3.2-1.6-3.1-3.4c0-1.7,1.4-3.1,3.1-3.2c1.1-0.1,2.2,0,3.4,0V143.8z"/>
</g>
</svg>
