<?xml version="1.0" encoding="utf-8"?>
<!-- Generator: Adobe Illustrator 22.0.0, SVG Export Plug-In . SVG Version: 6.00 Build 0)  -->
<svg version="1.1" id="Layer_1" xmlns="http://www.w3.org/2000/svg" xmlns:xlink="http://www.w3.org/1999/xlink" x="0px" y="0px"
	 viewBox="0 0 199.5 201" style="enable-background:new 0 0 199.5 201;" xml:space="preserve">
<style type="text/css">
	.st0{clip-path:url(#SVGID_2_);fill:#606060;}
	.st1{clip-path:url(#SVGID_4_);}
	.st2{clip-path:url(#SVGID_6_);}
	.st3{clip-path:url(#SVGID_8_);}
	.st4{opacity:0.78;}
	.st5{clip-path:url(#SVGID_12_);}
	.st6{clip-path:url(#SVGID_14_);fill:url(#SVGID_15_);}
	.st7{clip-path:url(#SVGID_17_);}
	.st8{clip-path:url(#SVGID_19_);fill:url(#SVGID_20_);}
	.st9{clip-path:url(#SVGID_22_);}
	.st10{clip-path:url(#SVGID_24_);fill:url(#SVGID_25_);}
	.st11{clip-path:url(#SVGID_27_);}
	.st12{clip-path:url(#SVGID_29_);fill:url(#SVGID_30_);}
	.st13{clip-path:url(#SVGID_32_);}
	.st14{clip-path:url(#SVGID_34_);fill:url(#SVGID_35_);}
	.st15{clip-path:url(#SVGID_37_);}
	.st16{clip-path:url(#SVGID_39_);fill:url(#SVGID_40_);}
	.st17{clip-path:url(#SVGID_42_);}
	.st18{clip-path:url(#SVGID_44_);fill:url(#SVGID_45_);}
	.st19{clip-path:url(#SVGID_47_);}
	.st20{clip-path:url(#SVGID_49_);fill:url(#SVGID_50_);}
	.st21{fill:none;}
	.st22{clip-path:url(#SVGID_52_);}
	.st23{filter:url(#Adobe_OpacityMaskFilter);}
	.st24{clip-path:url(#SVGID_54_);fill:url(#SVGID_56_);}
	.st25{clip-path:url(#SVGID_54_);mask:url(#SVGID_55_);fill:url(#SVGID_57_);}
	.st26{filter:url(#Adobe_OpacityMaskFilter_1_);}
	.st27{clip-path:url(#SVGID_59_);fill:url(#SVGID_61_);}
	.st28{clip-path:url(#SVGID_59_);mask:url(#SVGID_60_);fill:url(#SVGID_62_);}
	.st29{clip-path:url(#SVGID_64_);fill:url(#SVGID_65_);}
	.st30{clip-path:url(#SVGID_67_);fill:url(#SVGID_68_);}
	.st31{clip-path:url(#SVGID_70_);fill:url(#SVGID_71_);}
	.st32{clip-path:url(#SVGID_73_);fill:#FFFFFF;}
	.st33{clip-path:url(#SVGID_73_);fill:#EDEFEF;}
	.st34{clip-path:url(#SVGID_73_);fill:#E4E5E7;}
	.st35{opacity:0.1;clip-path:url(#SVGID_75_);}
	.st36{clip-path:url(#SVGID_77_);}
	.st37{clip-path:url(#SVGID_75_);fill:#FFFFFF;}
	.st38{opacity:0.21;clip-path:url(#SVGID_75_);}
	.st39{clip-path:url(#SVGID_83_);}
	.st40{clip-path:url(#SVGID_87_);fill:url(#SVGID_88_);}
	.st41{clip-path:url(#SVGID_90_);}
	.st42{clip-path:url(#SVGID_94_);fill:url(#SVGID_95_);}
	.st43{clip-path:url(#SVGID_97_);fill:url(#SVGID_98_);}
	.st44{opacity:0.81;clip-path:url(#SVGID_100_);}
	.st45{clip-path:url(#SVGID_102_);}
	.st46{clip-path:url(#SVGID_106_);}
	.st47{fill:#606060;}
	.st48{fill:none;stroke:#606060;stroke-miterlimit:10;}
	.st49{opacity:0.3;}
	.st50{clip-path:url(#SVGID_110_);}
	.st51{fill:#FFFFFF;}
	.st52{opacity:0.3;clip-path:url(#SVGID_114_);}
	.st53{clip-path:url(#SVGID_116_);}
	.st54{clip-path:url(#SVGID_114_);fill:#FFFFFF;}
	.st55{opacity:0.4;}
	.st56{clip-path:url(#SVGID_120_);}
	.st57{clip-path:url(#SVGID_124_);fill:url(#SVGID_125_);}
	.st58{clip-path:url(#SVGID_127_);fill:#FFFFFF;}
	.st59{clip-path:url(#SVGID_129_);fill:url(#SVGID_130_);}
	.st60{clip-path:url(#SVGID_132_);fill:url(#SVGID_133_);}
	.st61{clip-path:url(#SVGID_135_);fill:#FFFFFF;}
	.st62{clip-path:url(#SVGID_137_);fill:url(#SVGID_138_);}
	.st63{clip-path:url(#SVGID_140_);fill:url(#SVGID_141_);}
	.st64{clip-path:url(#SVGID_143_);fill:url(#SVGID_144_);}
	.st65{clip-path:url(#SVGID_146_);fill:#FFFFFF;}
	.st66{clip-path:url(#SVGID_148_);fill:url(#SVGID_149_);}
	.st67{clip-path:url(#SVGID_151_);fill:url(#SVGID_152_);}
	.st68{clip-path:url(#SVGID_154_);fill:#FFFFFF;}
	.st69{clip-path:url(#SVGID_156_);fill:url(#SVGID_157_);}
	.st70{clip-path:url(#SVGID_159_);fill:url(#SVGID_160_);}
	.st71{clip-path:url(#SVGID_162_);fill:#FFFFFF;}
	.st72{clip-path:url(#SVGID_164_);fill:url(#SVGID_165_);}
	.st73{clip-path:url(#SVGID_167_);fill:url(#SVGID_168_);}
	.st74{clip-path:url(#SVGID_170_);fill:url(#SVGID_171_);}
	.st75{clip-path:url(#SVGID_173_);fill:url(#SVGID_174_);}
	.st76{clip-path:url(#SVGID_176_);fill:url(#SVGID_177_);}
	.st77{clip-path:url(#SVGID_179_);fill:#FFFFFF;}
	.st78{clip-path:url(#SVGID_181_);fill:url(#SVGID_182_);}
</style>
<g>
	<path class="st51" d="M60.2,149.4V141h6.3v-1.5c0-27.8,0-55.5,0-83.3c0-1.1,0.1-2.2,0.8-3.1c0.7-1,1.7-1.5,2.9-1.6
		c0.3,0,0.6,0,0.9,0c14.9,0,29.8,0,44.7,0c0.9,0,1.7,0,2.5,0.5c1.4,0.9,2.1,2.2,2.1,3.8c0,2.8,0,5.6,0,8.4v1.6
		c1.3,0.9,2.6,1.8,3.9,2.7c3.8,2.7,7.6,5.4,11.5,8.1c1.9,1.3,3,3,3.2,5.3c0.1,0.8,0.2,1.6,0.2,2.4c0,15.8,0,31.6,0,47.4
		c0,1.2-0.2,2.4-0.5,3.6c-0.9,3.3-3,4.7-6,5.1c-1,0.1-2.1,0.1-3.2,0c-2.2-0.3-3.7-1.6-4.6-3.6c-0.6-1.2-0.9-2.4-1-3.7
		c-0.1-1.6-0.2-3.1-0.2-4.7c0-9.1,0-18.1,0-27.2c0-1.6-0.2-1.7-1.8-1.8c-0.5,0-1,0-1.6,0V141h5.7c0.2,0.9,0.3,6.8,0.1,8.4H60.2z
		 M93.6,58.5c-5.1,0-10.2,0-15.4,0c-0.6,0-1.2,0.1-1.7,0.1c-1.6,0.2-2.8,1.4-3.1,2.9c-0.1,0.6-0.2,1.2-0.2,1.7c0,5.9,0,11.8,0,17.7
		c0,0.2,0,0.3,0,0.5c0.1,2.4,1.4,3.9,3.8,4.2c0.4,0.1,0.9,0.1,1.3,0.1c10.2,0,20.3,0,30.5,0c0.5,0,0.9,0,1.4-0.1
		c2.3-0.3,3.6-1.7,3.7-4.1c0-0.2,0-0.5,0-0.7c0-5.9,0-11.7,0-17.6c0-0.2,0-0.5,0-0.7c-0.2-2.4-1.4-3.7-3.8-4.1
		c-0.5-0.1-0.9-0.1-1.4-0.1C103.7,58.5,98.6,58.5,93.6,58.5 M120.5,93.8c0.5,0,0.9,0,1.3,0c1.5,0,3,0,4.6,0c1.9,0,2.9,0.9,3,2.6
		c0.1,1,0.2,2.1,0.2,3.1c0,10.4,0,20.9,0,31.3c0,0.9,0.1,1.7,0.2,2.6c0.2,0.9,0.8,1.3,1.7,1.2c0.8-0.1,1.5-0.5,1.6-1.3
		c0.2-0.8,0.3-1.7,0.3-2.5c0-13.2,0-26.3,0-39.5c0-0.5,0-0.9,0-1.4c-0.1-1.1-0.9-1.8-1.9-1.9c-0.3,0-0.7,0-1.1,0c-1.8,0-3.6,0-5.4,0
		c-0.3,0-0.6,0-1-0.1v-13c-1.2-0.7-2.3-1.3-3.5-2V93.8z"/>
</g>
</svg>
