<?xml version="1.0" encoding="utf-8"?>
<!-- Generator: Adobe Illustrator 22.0.0, SVG Export Plug-In . SVG Version: 6.00 Build 0)  -->
<svg version="1.1" id="Layer_1" xmlns="http://www.w3.org/2000/svg" xmlns:xlink="http://www.w3.org/1999/xlink" x="0px" y="0px"
	 viewBox="0 0 199.5 201" style="enable-background:new 0 0 199.5 201;" xml:space="preserve">
<style type="text/css">
	.st0{clip-path:url(#SVGID_2_);fill:#606060;}
	.st1{clip-path:url(#SVGID_4_);}
	.st2{clip-path:url(#SVGID_6_);}
	.st3{clip-path:url(#SVGID_8_);}
	.st4{opacity:0.78;}
	.st5{clip-path:url(#SVGID_12_);}
	.st6{clip-path:url(#SVGID_14_);fill:url(#SVGID_15_);}
	.st7{clip-path:url(#SVGID_17_);}
	.st8{clip-path:url(#SVGID_19_);fill:url(#SVGID_20_);}
	.st9{clip-path:url(#SVGID_22_);}
	.st10{clip-path:url(#SVGID_24_);fill:url(#SVGID_25_);}
	.st11{clip-path:url(#SVGID_27_);}
	.st12{clip-path:url(#SVGID_29_);fill:url(#SVGID_30_);}
	.st13{clip-path:url(#SVGID_32_);}
	.st14{clip-path:url(#SVGID_34_);fill:url(#SVGID_35_);}
	.st15{clip-path:url(#SVGID_37_);}
	.st16{clip-path:url(#SVGID_39_);fill:url(#SVGID_40_);}
	.st17{clip-path:url(#SVGID_42_);}
	.st18{clip-path:url(#SVGID_44_);fill:url(#SVGID_45_);}
	.st19{clip-path:url(#SVGID_47_);}
	.st20{clip-path:url(#SVGID_49_);fill:url(#SVGID_50_);}
	.st21{fill:none;}
	.st22{clip-path:url(#SVGID_52_);}
	.st23{filter:url(#Adobe_OpacityMaskFilter);}
	.st24{clip-path:url(#SVGID_54_);fill:url(#SVGID_56_);}
	.st25{clip-path:url(#SVGID_54_);mask:url(#SVGID_55_);fill:url(#SVGID_57_);}
	.st26{filter:url(#Adobe_OpacityMaskFilter_1_);}
	.st27{clip-path:url(#SVGID_59_);fill:url(#SVGID_61_);}
	.st28{clip-path:url(#SVGID_59_);mask:url(#SVGID_60_);fill:url(#SVGID_62_);}
	.st29{clip-path:url(#SVGID_64_);fill:url(#SVGID_65_);}
	.st30{clip-path:url(#SVGID_67_);fill:url(#SVGID_68_);}
	.st31{clip-path:url(#SVGID_70_);fill:url(#SVGID_71_);}
	.st32{clip-path:url(#SVGID_73_);fill:#FFFFFF;}
	.st33{clip-path:url(#SVGID_73_);fill:#EDEFEF;}
	.st34{clip-path:url(#SVGID_73_);fill:#E4E5E7;}
	.st35{opacity:0.1;clip-path:url(#SVGID_75_);}
	.st36{clip-path:url(#SVGID_77_);}
	.st37{clip-path:url(#SVGID_75_);fill:#FFFFFF;}
	.st38{opacity:0.21;clip-path:url(#SVGID_75_);}
	.st39{clip-path:url(#SVGID_83_);}
	.st40{clip-path:url(#SVGID_87_);fill:url(#SVGID_88_);}
	.st41{clip-path:url(#SVGID_90_);}
	.st42{clip-path:url(#SVGID_94_);fill:url(#SVGID_95_);}
	.st43{clip-path:url(#SVGID_97_);fill:url(#SVGID_98_);}
	.st44{opacity:0.81;clip-path:url(#SVGID_100_);}
	.st45{clip-path:url(#SVGID_102_);}
	.st46{clip-path:url(#SVGID_106_);}
	.st47{fill:#606060;}
	.st48{fill:none;stroke:#606060;stroke-miterlimit:10;}
	.st49{opacity:0.3;}
	.st50{clip-path:url(#SVGID_110_);}
	.st51{fill:#FFFFFF;}
	.st52{opacity:0.3;clip-path:url(#SVGID_114_);}
	.st53{clip-path:url(#SVGID_116_);}
	.st54{clip-path:url(#SVGID_114_);fill:#FFFFFF;}
	.st55{opacity:0.4;}
	.st56{clip-path:url(#SVGID_120_);}
	.st57{clip-path:url(#SVGID_124_);fill:url(#SVGID_125_);}
	.st58{clip-path:url(#SVGID_127_);fill:#FFFFFF;}
	.st59{clip-path:url(#SVGID_129_);fill:url(#SVGID_130_);}
	.st60{clip-path:url(#SVGID_132_);fill:url(#SVGID_133_);}
	.st61{clip-path:url(#SVGID_135_);fill:#FFFFFF;}
	.st62{clip-path:url(#SVGID_137_);fill:url(#SVGID_138_);}
	.st63{clip-path:url(#SVGID_140_);fill:url(#SVGID_141_);}
	.st64{clip-path:url(#SVGID_143_);fill:url(#SVGID_144_);}
	.st65{clip-path:url(#SVGID_146_);fill:#FFFFFF;}
	.st66{clip-path:url(#SVGID_148_);fill:url(#SVGID_149_);}
	.st67{clip-path:url(#SVGID_151_);fill:url(#SVGID_152_);}
	.st68{clip-path:url(#SVGID_154_);fill:#FFFFFF;}
	.st69{clip-path:url(#SVGID_156_);fill:url(#SVGID_157_);}
	.st70{clip-path:url(#SVGID_159_);fill:url(#SVGID_160_);}
	.st71{clip-path:url(#SVGID_162_);fill:#FFFFFF;}
	.st72{clip-path:url(#SVGID_164_);fill:url(#SVGID_165_);}
	.st73{clip-path:url(#SVGID_167_);fill:url(#SVGID_168_);}
	.st74{clip-path:url(#SVGID_170_);fill:url(#SVGID_171_);}
	.st75{clip-path:url(#SVGID_173_);fill:url(#SVGID_174_);}
	.st76{clip-path:url(#SVGID_176_);fill:url(#SVGID_177_);}
	.st77{clip-path:url(#SVGID_179_);fill:#FFFFFF;}
	.st78{clip-path:url(#SVGID_181_);fill:url(#SVGID_182_);}
</style>
<g>
	<path class="st51" d="M52.9,149.5v-4.1c1.8,0,3.5,0,5.2,0c0.8,0,1.1-0.2,1-1c0-2.8,0.1-5.6-0.1-8.3c0-1-0.6-1.9-1-3
		c0.1-0.1,0.4-0.3,0.6-0.4c3.4-2,6.8-4,10.3-5.9c0.4-0.2,1.1-0.3,1.5-0.2c8.3,2.5,16.6,5,24.9,7.5c0.3,0.1,0.5,0.2,0.7,0.3
		c-0.4,1.8-0.8,3.6-1,5.4c-0.2,1.8,0,3.6,0,5.6c1.4,0,2.6,0,3.9,0c0.2,0,0.4-0.4,0.4-0.6c0-3.1,0.1-6.2,0-9.3c0-0.8-0.6-1.5-1-2.3
		c0.2-0.2,0.5-0.3,0.8-0.5c3.4-2,6.8-4,10.3-5.9c0.4-0.2,1-0.3,1.4-0.2c8.3,2.5,16.7,5,25,7.6c0.3,0.1,0.5,0.2,1,0.4
		c-1.8,3.5-1.2,7.1-1.3,10.9h10.9v4.1H52.9z M76.1,136.9v8.4c0.2,0,0.3,0.1,0.4,0.1c3.9,0,7.8,0,11.7,0c0.6,0,0.7-0.3,0.7-0.8
		c0-1.3,0-2.7,0-4c0-0.3-0.4-0.7-0.7-0.8C84.2,138.8,80.2,137.9,76.1,136.9 M116.5,145.4h12.8c0-1.6,0-3.1,0-4.6
		c0-0.6-0.2-0.8-0.8-1c-2.4-0.5-4.7-1.1-7.1-1.7c-1.6-0.4-3.3-0.8-5-1.2V145.4z"/>
	<path class="st51" d="M135.6,63.5c-6.2-1.9-12.2-3.7-18.2-5.5c-1.9-0.6-3.8-1.2-5.8-1.7c-0.5-0.1-1.1,0-1.5,0.2
		c-2.8,1.6-5.6,3.2-8.4,4.8c-0.3,0.2-0.7,0.4-1.1,0.6c-0.7-1.3-1.4-2.5-2.1-3.7c0.3-0.2,0.5-0.4,0.8-0.5c3.5-2,6.9-4,10.4-6
		c0.4-0.2,0.9-0.3,1.3-0.2c8.4,2.5,16.8,5.1,25.2,7.6c0.2,0.1,0.5,0.2,0.8,0.3C136.4,60.8,136,62.1,135.6,63.5"/>
	<path class="st51" d="M136.8,111.9c-0.4,1.4-0.8,2.7-1.3,4.1c-1.5-0.5-2.9-0.9-4.4-1.3c-6.5-2-13.1-4-19.6-6
		c-0.6-0.2-1.1-0.1-1.6,0.2c-2.8,1.7-5.6,3.3-8.5,4.9c-0.3,0.2-0.6,0.3-1,0.5c-0.7-1.3-1.4-2.5-2.2-3.7c0.9-0.5,1.7-1,2.6-1.5
		c2.9-1.7,5.7-3.3,8.6-5c0.4-0.2,0.9-0.3,1.3-0.2c8.4,2.5,16.7,5.1,25.1,7.6C136.2,111.7,136.5,111.8,136.8,111.9"/>
	<path class="st51" d="M136.8,74.4c-0.4,1.3-0.8,2.6-1.2,4.1c-0.4-0.1-0.8-0.2-1.1-0.3c-7.5-2.3-15-4.5-22.5-6.9
		c-0.8-0.3-1.5-0.2-2.2,0.3c-3,1.8-6,3.5-9.1,5.3c-0.7-1.2-1.4-2.4-2.2-3.7c0.3-0.2,0.6-0.4,0.8-0.6c3.4-2,6.8-4,10.3-5.9
		c0.4-0.2,1-0.3,1.4-0.2c8.4,2.5,16.8,5.1,25.2,7.6C136.3,74.2,136.5,74.3,136.8,74.4"/>
	<path class="st51" d="M136.8,127c-0.4,1.4-0.8,2.7-1.2,4.1c-0.4-0.1-0.8-0.2-1.1-0.3c-7.4-2.3-14.9-4.5-22.3-6.8
		c-1-0.3-1.7-0.2-2.6,0.3c-2.9,1.8-5.9,3.4-9,5.2c-0.7-1.3-1.4-2.5-2.2-3.7c0.3-0.2,0.6-0.4,0.8-0.6c3.4-2,6.8-3.9,10.2-5.9
		c0.5-0.3,1-0.4,1.6-0.2c8.3,2.5,16.5,5,24.8,7.6C136.2,126.7,136.5,126.8,136.8,127"/>
	<path class="st51" d="M100.6,91.9c-0.7-1.3-1.4-2.5-2.2-3.7c0.3-0.2,0.5-0.4,0.7-0.5c3.5-2,6.9-4,10.4-6c0.4-0.2,1.1-0.3,1.6-0.1
		c8.3,2.5,16.5,5,24.8,7.5c0.3,0.1,0.5,0.2,0.9,0.3c-0.4,1.4-0.8,2.7-1.2,4.1c-2.4-0.7-4.8-1.4-7.1-2.1c-5.6-1.7-11.1-3.4-16.7-5.1
		c-0.7-0.2-1.2-0.2-1.9,0.2C106.9,88.3,103.8,90.1,100.6,91.9"/>
	<path class="st51" d="M136.8,104.5c-0.4,1.4-0.8,2.7-1.3,4.1c-2.5-0.8-5-1.5-7.4-2.2c-5.5-1.7-11-3.4-16.6-5.1
		c-0.6-0.2-1.1-0.1-1.6,0.2c-2.8,1.6-5.6,3.2-8.4,4.8c-0.3,0.2-0.7,0.4-1.1,0.6c-0.7-1.3-1.4-2.4-2.1-3.7c0.3-0.2,0.5-0.4,0.8-0.5
		c3.4-2,6.8-4,10.3-5.9c0.4-0.2,0.9-0.3,1.3-0.2c8.5,2.5,16.9,5.1,25.4,7.7C136.4,104.3,136.6,104.4,136.8,104.5"/>
	<path class="st51" d="M96.4,127c-0.4,1.4-0.8,2.7-1.3,4.1c-0.5-0.1-0.9-0.2-1.4-0.4c-7.5-2.3-15-4.5-22.5-6.8
		c-0.6-0.2-1.1-0.2-1.7,0.2c-2.8,1.7-5.6,3.3-8.5,4.9c-0.3,0.2-0.6,0.3-1,0.5c-0.7-1.3-1.4-2.5-2.1-3.7c0.4-0.2,0.6-0.4,0.9-0.6
		c3.4-2,6.8-3.9,10.2-5.9c0.4-0.2,0.9-0.3,1.3-0.2c8.5,2.5,16.9,5.1,25.4,7.7C95.9,126.8,96.1,126.9,96.4,127"/>
	<path class="st51" d="M60.1,76.9c-0.7-1.3-1.4-2.5-2.1-3.7c0.3-0.2,0.5-0.3,0.7-0.5c3.5-2,7-4,10.5-6c0.4-0.2,0.9-0.3,1.3-0.2
		c8.4,2.5,16.8,5.1,25.3,7.6c0.2,0.1,0.4,0.1,0.7,0.3c-0.4,1.3-0.8,2.7-1.2,4.1c-0.3-0.1-0.6-0.1-0.9-0.2
		c-7.6-2.3-15.1-4.6-22.7-6.9c-0.9-0.3-1.5-0.2-2.3,0.3c-2.7,1.6-5.4,3.1-8.1,4.7C60.8,76.5,60.5,76.7,60.1,76.9"/>
	<path class="st51" d="M96.4,89.4c-0.4,1.4-0.8,2.7-1.3,4.1c-2.4-0.7-4.8-1.4-7.1-2.1c-5.6-1.7-11.1-3.4-16.6-5.1
		c-0.7-0.2-1.3-0.1-2,0.2c-2.7,1.6-5.5,3.2-8.3,4.8c-0.3,0.2-0.6,0.3-1,0.5c-0.7-1.2-1.4-2.4-2.1-3.7c0.3-0.2,0.5-0.4,0.8-0.5
		c3.4-2,6.8-4,10.3-5.9c0.4-0.2,1.1-0.3,1.5-0.2c8.3,2.5,16.7,5,25,7.6C95.8,89.2,96,89.3,96.4,89.4"/>
	<path class="st51" d="M60.1,114.4c-0.7-1.3-1.4-2.5-2.1-3.7c0.3-0.2,0.5-0.4,0.8-0.5c3.4-2,6.8-4,10.3-5.9c0.4-0.2,1-0.3,1.5-0.2
		c8.3,2.5,16.5,5,24.8,7.5c0.8,0.2,1,0.5,0.7,1.3c-0.4,1-0.7,2-1,3.2c-2.3-0.7-4.6-1.4-6.8-2.1c-5.6-1.7-11.3-3.4-16.9-5.2
		c-0.7-0.2-1.2-0.2-1.9,0.2c-2.8,1.7-5.6,3.3-8.5,4.9C60.8,114.1,60.5,114.2,60.1,114.4"/>
	<path class="st51" d="M60.1,84.4c-0.7-1.3-1.4-2.5-2.1-3.7c0.3-0.2,0.5-0.3,0.7-0.5c3.5-2,7-4,10.5-6c0.4-0.2,0.9-0.3,1.3-0.2
		c8.4,2.5,16.8,5.1,25.2,7.6c0.2,0.1,0.4,0.2,0.7,0.3c-0.4,1.4-0.8,2.7-1.2,4.1c-1.6-0.5-3.1-0.9-4.6-1.4
		c-6.4-1.9-12.8-3.9-19.2-5.8c-0.7-0.2-1.2-0.1-1.8,0.2c-2.8,1.6-5.6,3.2-8.4,4.8C60.8,84,60.5,84.2,60.1,84.4"/>
	<path class="st51" d="M60.1,106.9c-0.7-1.3-1.4-2.5-2.1-3.7c0.3-0.2,0.5-0.4,0.8-0.5c3.5-2,6.9-4,10.4-6c0.3-0.2,0.9-0.3,1.2-0.2
		c8.5,2.5,17,5.1,25.5,7.7c0.1,0,0.3,0.1,0.6,0.2c-0.4,1.3-0.8,2.7-1.2,4.1c-1.4-0.4-2.7-0.8-4.1-1.2c-6.6-2-13.2-4-19.9-6.1
		c-0.6-0.2-1.1-0.1-1.6,0.2c-2.8,1.6-5.6,3.2-8.4,4.8C60.9,106.5,60.6,106.7,60.1,106.9"/>
	<path class="st51" d="M136.8,81.9c-0.4,1.4-0.8,2.7-1.2,4.1c-0.4-0.1-0.7-0.2-1.1-0.3c-7.5-2.3-15.1-4.6-22.6-6.9
		c-0.8-0.2-1.4-0.2-2.1,0.2c-2.7,1.6-5.4,3.1-8.1,4.7c-0.3,0.2-0.7,0.4-1.1,0.6c-0.7-1.2-1.4-2.4-2.1-3.7c0.3-0.2,0.5-0.4,0.8-0.5
		c3.5-2,6.9-4,10.4-6c0.4-0.2,0.9-0.3,1.3-0.2c8.4,2.5,16.8,5.1,25.3,7.6C136.4,81.7,136.5,81.8,136.8,81.9"/>
	<path class="st51" d="M60.1,99.4c-0.7-1.3-1.4-2.5-2.1-3.7c0.3-0.2,0.5-0.4,0.8-0.5c3.5-2,6.9-4,10.4-6c0.4-0.2,0.9-0.3,1.3-0.2
		c8.4,2.5,16.8,5.1,25.2,7.6c0.2,0.1,0.4,0.2,0.7,0.3c-0.4,1.3-0.8,2.7-1.2,4.1c-0.4-0.1-0.7-0.2-1.1-0.3
		c-7.6-2.3-15.2-4.6-22.8-6.9c-0.7-0.2-1.2-0.2-1.8,0.2c-2.8,1.6-5.6,3.2-8.4,4.8C60.9,99,60.5,99.2,60.1,99.4"/>
	<path class="st51" d="M136.8,96.9c-0.4,1.4-0.8,2.7-1.2,4.1c-2.5-0.8-4.9-1.5-7.3-2.2c-5.6-1.7-11.1-3.4-16.7-5.1
		c-0.6-0.2-1.1-0.1-1.6,0.2c-2.8,1.7-5.6,3.3-8.5,4.9c-0.3,0.2-0.6,0.3-1,0.5c-0.7-1.3-1.4-2.4-2.1-3.7c0.2-0.2,0.4-0.3,0.6-0.5
		c3.5-2,7-4.1,10.5-6.1c0.3-0.2,0.9-0.3,1.2-0.2c8.4,2.5,16.9,5.1,25.3,7.7C136.3,96.7,136.5,96.8,136.8,96.9"/>
	<path class="st51" d="M96.4,119.5c-0.4,1.4-0.8,2.7-1.2,4.1c-0.5-0.1-0.9-0.2-1.3-0.3c-7.5-2.3-15.1-4.6-22.6-6.9
		c-0.6-0.2-1.1-0.2-1.7,0.2c-2.8,1.6-5.6,3.2-8.4,4.8c-0.3,0.2-0.6,0.3-1,0.6c-0.7-1.2-1.4-2.4-2.1-3.7c0.3-0.2,0.5-0.4,0.8-0.5
		c3.5-2,6.9-4,10.4-6c0.4-0.2,0.9-0.3,1.3-0.2c8.4,2.5,16.9,5.1,25.3,7.7C95.9,119.3,96.1,119.4,96.4,119.5"/>
	<path class="st51" d="M136.8,66.9c-0.4,1.4-0.8,2.7-1.3,4.1c-0.9-0.3-1.7-0.5-2.5-0.7c-7-2.1-14.1-4.3-21.1-6.4
		c-0.8-0.3-1.5-0.2-2.2,0.2c-2.7,1.6-5.5,3.2-8.2,4.8c-0.3,0.2-0.6,0.3-1,0.5c-0.7-1.3-1.4-2.5-2.1-3.7c0.4-0.2,0.6-0.4,0.9-0.6
		c3.4-2,6.8-3.9,10.2-5.9c0.4-0.2,1-0.3,1.4-0.2c8.4,2.5,16.7,5.1,25.1,7.6C136.3,66.7,136.5,66.8,136.8,66.9"/>
	<path class="st51" d="M135.6,123.6c-2.8-0.8-5.5-1.7-8.2-2.5c-5.2-1.6-10.4-3.1-15.6-4.7c-0.7-0.2-1.3-0.2-2,0.2
		c-2.8,1.6-5.6,3.2-8.4,4.8c-0.3,0.2-0.6,0.3-0.9,0.5c-0.7-1.2-1.4-2.4-2.1-3.7c0.2-0.2,0.4-0.3,0.5-0.4c3.6-2.1,7.1-4.1,10.7-6.2
		c0.3-0.2,0.8-0.3,1.1-0.2c8.5,2.6,17,5.1,25.5,7.7c0.1,0,0.2,0.1,0.5,0.2C136.4,120.8,136,122.1,135.6,123.6"/>
</g>
</svg>
