<?xml version="1.0" encoding="utf-8"?>
<!-- Generator: Adobe Illustrator 22.0.0, SVG Export Plug-In . SVG Version: 6.00 Build 0)  -->
<svg version="1.1" id="Layer_1" xmlns="http://www.w3.org/2000/svg" xmlns:xlink="http://www.w3.org/1999/xlink" x="0px" y="0px"
	 viewBox="0 0 199.5 201" style="enable-background:new 0 0 199.5 201;" xml:space="preserve">
<style type="text/css">
	.st0{clip-path:url(#SVGID_2_);fill:#606060;}
	.st1{clip-path:url(#SVGID_4_);}
	.st2{clip-path:url(#SVGID_6_);}
	.st3{clip-path:url(#SVGID_8_);}
	.st4{opacity:0.78;}
	.st5{clip-path:url(#SVGID_12_);}
	.st6{clip-path:url(#SVGID_14_);fill:url(#SVGID_15_);}
	.st7{clip-path:url(#SVGID_17_);}
	.st8{clip-path:url(#SVGID_19_);fill:url(#SVGID_20_);}
	.st9{clip-path:url(#SVGID_22_);}
	.st10{clip-path:url(#SVGID_24_);fill:url(#SVGID_25_);}
	.st11{clip-path:url(#SVGID_27_);}
	.st12{clip-path:url(#SVGID_29_);fill:url(#SVGID_30_);}
	.st13{clip-path:url(#SVGID_32_);}
	.st14{clip-path:url(#SVGID_34_);fill:url(#SVGID_35_);}
	.st15{clip-path:url(#SVGID_37_);}
	.st16{clip-path:url(#SVGID_39_);fill:url(#SVGID_40_);}
	.st17{clip-path:url(#SVGID_42_);}
	.st18{clip-path:url(#SVGID_44_);fill:url(#SVGID_45_);}
	.st19{clip-path:url(#SVGID_47_);}
	.st20{clip-path:url(#SVGID_49_);fill:url(#SVGID_50_);}
	.st21{fill:none;}
	.st22{clip-path:url(#SVGID_52_);}
	.st23{filter:url(#Adobe_OpacityMaskFilter);}
	.st24{clip-path:url(#SVGID_54_);fill:url(#SVGID_56_);}
	.st25{clip-path:url(#SVGID_54_);mask:url(#SVGID_55_);fill:url(#SVGID_57_);}
	.st26{filter:url(#Adobe_OpacityMaskFilter_1_);}
	.st27{clip-path:url(#SVGID_59_);fill:url(#SVGID_61_);}
	.st28{clip-path:url(#SVGID_59_);mask:url(#SVGID_60_);fill:url(#SVGID_62_);}
	.st29{clip-path:url(#SVGID_64_);fill:url(#SVGID_65_);}
	.st30{clip-path:url(#SVGID_67_);fill:url(#SVGID_68_);}
	.st31{clip-path:url(#SVGID_70_);fill:url(#SVGID_71_);}
	.st32{clip-path:url(#SVGID_73_);fill:#FFFFFF;}
	.st33{clip-path:url(#SVGID_73_);fill:#EDEFEF;}
	.st34{clip-path:url(#SVGID_73_);fill:#E4E5E7;}
	.st35{opacity:0.1;clip-path:url(#SVGID_75_);}
	.st36{clip-path:url(#SVGID_77_);}
	.st37{clip-path:url(#SVGID_75_);fill:#FFFFFF;}
	.st38{opacity:0.21;clip-path:url(#SVGID_75_);}
	.st39{clip-path:url(#SVGID_83_);}
	.st40{clip-path:url(#SVGID_87_);fill:url(#SVGID_88_);}
	.st41{clip-path:url(#SVGID_90_);}
	.st42{clip-path:url(#SVGID_94_);fill:url(#SVGID_95_);}
	.st43{clip-path:url(#SVGID_97_);fill:url(#SVGID_98_);}
	.st44{opacity:0.81;clip-path:url(#SVGID_100_);}
	.st45{clip-path:url(#SVGID_102_);}
	.st46{clip-path:url(#SVGID_106_);}
	.st47{fill:#606060;}
	.st48{fill:none;stroke:#606060;stroke-miterlimit:10;}
	.st49{opacity:0.3;}
	.st50{clip-path:url(#SVGID_110_);}
	.st51{fill:#FFFFFF;}
	.st52{opacity:0.3;clip-path:url(#SVGID_114_);}
	.st53{clip-path:url(#SVGID_116_);}
	.st54{clip-path:url(#SVGID_114_);fill:#FFFFFF;}
	.st55{opacity:0.4;}
	.st56{clip-path:url(#SVGID_120_);}
	.st57{clip-path:url(#SVGID_124_);fill:url(#SVGID_125_);}
	.st58{clip-path:url(#SVGID_127_);fill:#FFFFFF;}
	.st59{clip-path:url(#SVGID_129_);fill:url(#SVGID_130_);}
	.st60{clip-path:url(#SVGID_132_);fill:url(#SVGID_133_);}
	.st61{clip-path:url(#SVGID_135_);fill:#FFFFFF;}
	.st62{clip-path:url(#SVGID_137_);fill:url(#SVGID_138_);}
	.st63{clip-path:url(#SVGID_140_);fill:url(#SVGID_141_);}
	.st64{clip-path:url(#SVGID_143_);fill:url(#SVGID_144_);}
	.st65{clip-path:url(#SVGID_146_);fill:#FFFFFF;}
	.st66{clip-path:url(#SVGID_148_);fill:url(#SVGID_149_);}
	.st67{clip-path:url(#SVGID_151_);fill:url(#SVGID_152_);}
	.st68{clip-path:url(#SVGID_154_);fill:#FFFFFF;}
	.st69{clip-path:url(#SVGID_156_);fill:url(#SVGID_157_);}
	.st70{clip-path:url(#SVGID_159_);fill:url(#SVGID_160_);}
	.st71{clip-path:url(#SVGID_162_);fill:#FFFFFF;}
	.st72{clip-path:url(#SVGID_164_);fill:url(#SVGID_165_);}
	.st73{clip-path:url(#SVGID_167_);fill:url(#SVGID_168_);}
	.st74{clip-path:url(#SVGID_170_);fill:url(#SVGID_171_);}
	.st75{clip-path:url(#SVGID_173_);fill:url(#SVGID_174_);}
	.st76{clip-path:url(#SVGID_176_);fill:url(#SVGID_177_);}
	.st77{clip-path:url(#SVGID_179_);fill:#FFFFFF;}
	.st78{clip-path:url(#SVGID_181_);fill:url(#SVGID_182_);}
</style>
<g>
	<path class="st51" d="M136.2,40.4c0.2,0.1,0.4,0.3,0.6,0.4c0.5,0.4,0.9,0.9,0.9,1.6c0,1.4,0,2.7,0,4.1c0,1-0.9,1.9-1.9,2
		c-1.1,0-2-0.8-2.1-1.8c-0.1-1.5-0.1-3,0-4.4c0-0.4,0.4-0.8,0.7-1.2c0.2-0.2,0.5-0.4,0.7-0.6H136.2z"/>
	<path class="st51" d="M129.6,139.6c0.2-0.9,0.5-1.9,0.7-2.8c0.3-0.9,0.9-1.7,1.4-2.5c0.6-0.9,1.4-1.5,2.2-2.1
		c0.8-0.6,1.7-1,2.6-1.3c0.9-0.3,1.9-0.5,2.9-0.5c1,0,1.9,0.2,2.9,0.4c3,0.9,5,2.8,6.2,5.6c1.1,2.8,0.9,5.6-0.4,8.4
		c3.8-0.9,6.6,0,8.3,2.7c1.5,2.2,1.9,5.8-0.8,9c0.7,0,1.3,0,1.9,0c0.7,0,1.2,0.2,1.6,0.7c0.4,0.6,0.7,1.2,0.3,2
		c-0.3,0.7-0.9,1.2-1.7,1.3c-0.3,0-0.5,0-0.8,0c-38.2,0-76.4,0-114.5,0c-0.2,0-0.5,0-0.7,0c-0.9-0.1-1.7-0.7-1.9-1.6
		c-0.2-0.7,0.2-1.6,1-2.1c0.2-0.1,0.5-0.2,0.7-0.3c0.1-0.7,0.2-1.3,0.4-1.9c0.8-2.1,2.3-3.5,4.5-3.9c0.5-0.1,1.1-0.2,1.6-0.2
		c13,0,26,0,39,0c1.6,0,3,0.4,4.2,1.4c1.3,1.1,2.1,2.4,2.2,4.2c0,0.1,0,0.2,0,0.3c0.9,0.2,7.7,0.2,9,0c-1.2-1.8-1.3-3.8-0.1-5.6
		c1.4-2.1,3.5-2.7,6-2c-2.1-4.5,0.3-8.5,3.6-9.8c1.4-0.5,2.8-0.7,4.2-0.3c1.5,0.4,2.7,1.1,3.7,2.3c0.9,1.1,1.5,2.4,1.6,4
		c1.8-0.7,3.4-0.7,4.9,0.6c1.4,1.3,1.4,3,0.8,4.7c0.3,0.1,0.7,0.2,1,0.3c2.7,0.3,4,3.1,3,5.6c0,0.1-0.1,0.1-0.1,0.3
		c0.8,0.1,1.5,0,2.2,0c0.7,0,1.4,0,2.1,0c0.3-1.6,0.3-3.2-0.2-4.7c-0.5-1.5-1.4-2.8-2.7-3.7c-0.6-0.4-0.9-0.8-1.1-1.5
		c-0.8-3.3-3-5.2-6.3-6c-0.6-0.1-0.9-0.3-1.1-0.9C125.9,138.6,127.7,138.7,129.6,139.6"/>
	<path class="st51" d="M67.7,42.5c5.9,0,11.8,0,17.7,0c1.5,0,2.9,0.2,4.1,1c2.4,1.5,3.8,3.6,4,6.5c0,0.6,0,1.2,0,1.8
		c0,11.4,0,22.8,0,34.2c0,1.1-0.1,2.2-0.5,3.3c-0.9,2.7-3.9,5.2-7.1,5.2c-2.5,0-5.1,0-7.6,0c-9.5,0-18.9,0-28.4,0
		c-1.6,0-3-0.2-4.4-1c-2.4-1.5-3.9-3.6-4-6.5c0-0.3,0-0.6,0-0.9c0-11.7,0-23.4,0-35.2c0-1.6,0.2-3,1-4.4c1.5-2.4,3.6-3.9,6.5-4
		c4.7-0.1,9.4,0,14.1,0C64.7,42.5,66.2,42.5,67.7,42.5 M47.6,68.5c0,4.6,0,9.2,0,13.8c0,1.1,0.3,2.2,0.9,3.2c1.2,2,3,3,5.3,3
		c5.4,0,10.7,0,16.1,0c3.9,0,7.7,0,11.6,0c1.1,0,2.2-0.3,3.2-0.9c2-1.2,3-3,3-5.3c0-5.6,0-11.2,0-16.8c0-3.6,0-7.3,0-10.9
		c0-1.1-0.3-2.2-0.9-3.2c-1.2-2-3-3-5.3-3c-4.9,0-9.8,0-14.8,0c-4.3,0-8.6,0-12.9,0c-1.6,0-3,0.5-4.2,1.6c-1.3,1.2-1.9,2.8-2,4.6
		C47.6,59.2,47.6,63.9,47.6,68.5"/>
	<path class="st51" d="M63.6,98.5c0.2,0,0.4-0.1,0.6-0.1c2.2,0,4.4,0,6.6,0c0.8,0,0.9,0.1,0.9,0.9c0,0.2,0,0.4,0,0.6
		c0,15.1,0,30.2,0,45.3v1.2h-8C63.5,145.6,63.5,100.3,63.6,98.5"/>
	<path class="st51" d="M135.8,54.5c5.4-0.1,10,4.7,9.9,10.1c-0.1,5.4-4.5,9.9-10.1,9.9c-5.4-0.1-9.9-4.6-9.9-10.1
		C125.7,58.7,130.4,54.3,135.8,54.5"/>
	<path class="st51" d="M116.8,51.5c0.1,0,0.4,0.1,0.7,0.2c1.2,0.7,2.4,1.3,3.6,2.1c0.9,0.6,1.2,1.5,0.8,2.5
		c-0.4,0.9-1.4,1.4-2.4,1.1c-0.5-0.2-1-0.5-1.5-0.8c-0.9-0.5-1.8-1-2.6-1.6c-0.7-0.5-0.9-1.4-0.7-2.2
		C114.9,52,115.7,51.5,116.8,51.5"/>
	<path class="st51" d="M126.6,50.8c-0.8,0.1-1.3-0.3-1.7-0.9c-0.7-1.2-1.4-2.4-2.1-3.6c-0.4-0.8-0.2-1.7,0.3-2.2
		c0.5-0.5,1.6-0.8,2.3-0.4c0.3,0.2,0.6,0.5,0.8,0.8c0.7,1.1,1.4,2.3,2.1,3.5C129.2,49.4,127.9,51,126.6,50.8"/>
	<path class="st51" d="M146.6,85.5c-0.7,0-1.3-0.3-1.7-0.9c-0.7-1.2-1.4-2.4-2.1-3.6c-0.6-1.2-0.1-2.3,1.1-2.8
		c0.7-0.3,1.8,0,2.2,0.6c0.8,1.3,1.5,2.6,2.2,3.9C149.1,84,148,85.6,146.6,85.5"/>
	<path class="st51" d="M149.3,73.5c-0.2-1.5,1.6-2.5,2.7-1.9c1.3,0.8,2.7,1.5,3.9,2.3c0.8,0.5,1,1.8,0.4,2.6
		c-0.5,0.8-1.6,1.2-2.6,0.7c-1.2-0.6-2.4-1.3-3.5-2C149.7,74.8,149.2,74.3,149.3,73.5"/>
	<path class="st51" d="M155.7,62.5c0.7,0,1.3,0,2,0c1.1,0,1.9,0.9,1.9,1.9c0,1-0.8,2-1.9,2c-1.4,0.1-2.8,0-4.2,0c-1.1,0-2-1-1.9-2.1
		c0.1-1.1,0.8-1.9,2.1-1.9C154.4,62.5,155.1,62.5,155.7,62.5L155.7,62.5z"/>
	<path class="st51" d="M114.6,75.6c0-0.8,0.3-1.4,0.9-1.8c1.2-0.7,2.4-1.3,3.5-2c1.2-0.7,2.8,0,3,1.6c0,0.4-0.2,0.8-0.4,1.2
		c-0.1,0.3-0.4,0.5-0.7,0.6c-1.2,0.7-2.4,1.4-3.6,2.1C116.1,77.9,114.6,76.9,114.6,75.6"/>
	<path class="st51" d="M124.6,85.5c-1.3,0.1-2.4-1.7-1.8-2.7c0.7-1.2,1.4-2.5,2.2-3.7c0.5-0.7,1.3-1.2,2.4-0.8
		c0.9,0.3,1.6,1.7,1.1,2.6c-0.8,1.3-1.4,2.6-2.2,3.8C125.9,85.3,125.3,85.5,124.6,85.5"/>
	<path class="st51" d="M137.6,84.5c0,0.7,0,1.3,0,2c0,1.1-0.9,2.1-2,2.1c-1,0-2-0.9-2-2c0-1.3,0-2.7,0-4c0-1,0.6-1.8,1.5-2
		c1-0.2,1.9,0.2,2.3,1.1c0.1,0.3,0.2,0.6,0.2,0.9C137.7,83.2,137.6,83.8,137.6,84.5L137.6,84.5z"/>
	<path class="st51" d="M115.8,62.5c0.6,0,1.2,0,1.8,0c1.2,0,2,0.7,2,1.8c0.1,1.4-0.7,2.1-1.8,2.2c-1.5,0.1-3,0.1-4.4,0
		c-1-0.1-1.8-1.1-1.8-2c0-0.9,0.9-1.8,1.9-1.9c0.1,0,0.2,0,0.2,0C114.4,62.5,115.1,62.5,115.8,62.5"/>
	<path class="st51" d="M149.2,55.5c0-0.9,0.5-1.4,1.1-1.8c1.2-0.7,2.3-1.4,3.5-2c1-0.5,2.1-0.2,2.6,0.7c0.5,0.8,0.2,2.2-0.7,2.7
		c-1.2,0.7-2.4,1.4-3.5,2c-1,0.5-2.1,0.2-2.6-0.5C149.5,56.3,149.4,55.9,149.2,55.5"/>
	<path class="st51" d="M144.7,50.8c-1.4,0.1-2.5-1.3-1.8-2.9c0.4-0.9,0.9-1.7,1.4-2.5c0.2-0.3,0.4-0.6,0.5-0.9
		c0.6-1,1.8-1.4,2.8-0.8c1,0.6,1.3,1.6,0.7,2.7c-0.6,1.1-1.2,2.2-1.9,3.3C146.1,50.4,145.5,50.9,144.7,50.8"/>
	<path class="st51" d="M51.6,68.4c0-4.3,0-8.7,0-13c0-0.2,0-0.5,0-0.7c0.1-1.6,1-2.1,2.2-2.2c0.2,0,0.5,0,0.7,0c8.8,0,17.5,0,26.3,0
		c0.2,0,0.5,0,0.7,0c1.5,0.1,2.1,0.9,2.2,2.2c0,0.2,0,0.5,0,0.7c0,8.8,0,17.5,0,26.3c0,0.3,0,0.6,0,0.8c-0.2,1.4-0.8,1.9-2.1,2.1
		c-0.2,0-0.5,0-0.7,0H54.4c-0.2,0-0.5,0-0.7,0c-1.3-0.2-1.9-0.7-2.1-2.1c0-0.3,0-0.5,0-0.8C51.6,77.2,51.6,72.8,51.6,68.4
		 M65.6,72.6c1.1-0.1,2-0.2,3-0.3c1.9-0.2,3.5-1,4.8-2.4c2.3-2.5,2.8-5.4,1.6-8.5c-0.9-2.3-2.6-3.9-5.1-4.6
		c-2.1-0.6-4.3-0.4-6.4-0.4c-1.2,0-1.9,0.9-1.9,2.2c0,0.1,0,0.2,0,0.4c0,6.3,0,12.6,0,18.9c0,0.3,0,0.5,0,0.8c0.1,1,1.4,2.2,2.7,1.6
		c0.8-0.4,1.3-1,1.3-2c0-1.5,0-3,0-4.6C65.6,73.4,65.6,73,65.6,72.6"/>
	<path class="st51" d="M65.7,68.3v-7.9c1.1,0,2-0.1,3,0.2c1.7,0.5,2.9,2.2,2.9,3.9c0,1.7-1.4,3.5-3,3.8
		C67.7,68.5,66.7,68.3,65.7,68.3"/>
</g>
</svg>
