<?xml version="1.0" encoding="utf-8"?>
<!-- Generator: Adobe Illustrator 22.0.0, SVG Export Plug-In . SVG Version: 6.00 Build 0)  -->
<svg version="1.1" id="Layer_1" xmlns="http://www.w3.org/2000/svg" xmlns:xlink="http://www.w3.org/1999/xlink" x="0px" y="0px"
	 viewBox="0 0 132.3 132.5" style="enable-background:new 0 0 132.3 132.5;" xml:space="preserve">
<style type="text/css">
	.st0{clip-path:url(#SVGID_2_);fill:#606060;}
	.st1{clip-path:url(#SVGID_4_);}
	.st2{clip-path:url(#SVGID_6_);}
	.st3{clip-path:url(#SVGID_8_);}
	.st4{opacity:0.78;}
	.st5{clip-path:url(#SVGID_12_);}
	.st6{clip-path:url(#SVGID_14_);fill:url(#SVGID_15_);}
	.st7{clip-path:url(#SVGID_17_);}
	.st8{clip-path:url(#SVGID_19_);fill:url(#SVGID_20_);}
	.st9{clip-path:url(#SVGID_22_);}
	.st10{clip-path:url(#SVGID_24_);fill:url(#SVGID_25_);}
	.st11{clip-path:url(#SVGID_27_);}
	.st12{clip-path:url(#SVGID_29_);fill:url(#SVGID_30_);}
	.st13{clip-path:url(#SVGID_32_);}
	.st14{clip-path:url(#SVGID_34_);fill:url(#SVGID_35_);}
	.st15{clip-path:url(#SVGID_37_);}
	.st16{clip-path:url(#SVGID_39_);fill:url(#SVGID_40_);}
	.st17{clip-path:url(#SVGID_42_);}
	.st18{clip-path:url(#SVGID_44_);fill:url(#SVGID_45_);}
	.st19{clip-path:url(#SVGID_47_);}
	.st20{clip-path:url(#SVGID_49_);fill:url(#SVGID_50_);}
	.st21{fill:none;}
	.st22{clip-path:url(#SVGID_52_);}
	.st23{filter:url(#Adobe_OpacityMaskFilter);}
	.st24{clip-path:url(#SVGID_54_);fill:url(#SVGID_56_);}
	.st25{clip-path:url(#SVGID_54_);mask:url(#SVGID_55_);fill:url(#SVGID_57_);}
	.st26{filter:url(#Adobe_OpacityMaskFilter_1_);}
	.st27{clip-path:url(#SVGID_59_);fill:url(#SVGID_61_);}
	.st28{clip-path:url(#SVGID_59_);mask:url(#SVGID_60_);fill:url(#SVGID_62_);}
	.st29{clip-path:url(#SVGID_64_);fill:url(#SVGID_65_);}
	.st30{clip-path:url(#SVGID_67_);fill:url(#SVGID_68_);}
	.st31{clip-path:url(#SVGID_70_);fill:url(#SVGID_71_);}
	.st32{clip-path:url(#SVGID_73_);fill:#FFFFFF;}
	.st33{clip-path:url(#SVGID_73_);fill:#EDEFEF;}
	.st34{clip-path:url(#SVGID_73_);fill:#E4E5E7;}
	.st35{opacity:0.1;clip-path:url(#SVGID_75_);}
	.st36{clip-path:url(#SVGID_77_);}
	.st37{clip-path:url(#SVGID_75_);fill:#FFFFFF;}
	.st38{opacity:0.21;clip-path:url(#SVGID_75_);}
	.st39{clip-path:url(#SVGID_83_);}
	.st40{clip-path:url(#SVGID_87_);fill:url(#SVGID_88_);}
	.st41{clip-path:url(#SVGID_90_);}
	.st42{clip-path:url(#SVGID_94_);fill:url(#SVGID_95_);}
	.st43{clip-path:url(#SVGID_97_);fill:url(#SVGID_98_);}
	.st44{opacity:0.81;clip-path:url(#SVGID_100_);}
	.st45{clip-path:url(#SVGID_102_);}
	.st46{clip-path:url(#SVGID_106_);}
	.st47{fill:#606060;}
	.st48{fill:none;stroke:#606060;stroke-miterlimit:10;}
	.st49{opacity:0.3;}
	.st50{clip-path:url(#SVGID_110_);}
	.st51{fill:#FFFFFF;}
	.st52{opacity:0.3;clip-path:url(#SVGID_114_);}
	.st53{clip-path:url(#SVGID_116_);}
	.st54{clip-path:url(#SVGID_114_);fill:#FFFFFF;}
	.st55{opacity:0.4;}
	.st56{clip-path:url(#SVGID_120_);}
	.st57{clip-path:url(#SVGID_124_);fill:url(#SVGID_125_);}
	.st58{clip-path:url(#SVGID_127_);fill:#FFFFFF;}
	.st59{clip-path:url(#SVGID_129_);fill:url(#SVGID_130_);}
	.st60{clip-path:url(#SVGID_132_);fill:url(#SVGID_133_);}
	.st61{clip-path:url(#SVGID_135_);fill:#FFFFFF;}
	.st62{clip-path:url(#SVGID_137_);fill:url(#SVGID_138_);}
	.st63{clip-path:url(#SVGID_140_);fill:url(#SVGID_141_);}
	.st64{clip-path:url(#SVGID_143_);fill:url(#SVGID_144_);}
	.st65{clip-path:url(#SVGID_146_);fill:#FFFFFF;}
	.st66{clip-path:url(#SVGID_148_);fill:url(#SVGID_149_);}
	.st67{clip-path:url(#SVGID_151_);fill:url(#SVGID_152_);}
	.st68{clip-path:url(#SVGID_154_);fill:#FFFFFF;}
	.st69{clip-path:url(#SVGID_156_);fill:url(#SVGID_157_);}
	.st70{clip-path:url(#SVGID_159_);fill:url(#SVGID_160_);}
	.st71{clip-path:url(#SVGID_162_);fill:#FFFFFF;}
	.st72{clip-path:url(#SVGID_164_);fill:url(#SVGID_165_);}
	.st73{clip-path:url(#SVGID_167_);fill:url(#SVGID_168_);}
	.st74{clip-path:url(#SVGID_170_);fill:url(#SVGID_171_);}
	.st75{clip-path:url(#SVGID_173_);fill:url(#SVGID_174_);}
	.st76{clip-path:url(#SVGID_176_);fill:url(#SVGID_177_);}
	.st77{clip-path:url(#SVGID_179_);fill:#FFFFFF;}
	.st78{clip-path:url(#SVGID_181_);fill:url(#SVGID_182_);}
	.st79{clip-path:url(#SVGID_184_);fill:#FFFFFF;}
</style>
<g>
	<path class="st47" d="M101,88.8c0,0.1-0.1,0.2-0.1,0.3c-0.6,1.8-1.9,3-3.8,3c-2.6,0.1-5.3,0-7.9,0c-0.2,0-0.3-0.1-0.5-0.1
		c0-0.2,0-0.5,0-0.7c0-3.5,0.1-7,0-10.5c-0.1-4.2-1-8.2-3.5-11.7c-0.7-1-1.5-1.9-2.3-2.9c1-0.9,2.2-1.5,3.6-1.8
		c2.4-0.4,4.9-0.5,7.4,0c3.7,0.7,6.5,3.8,7.1,7.5c0,0.1,0.1,0.3,0.1,0.4V88.8z"/>
	<path class="st47" d="M65.4,96.5c-4.1,0-8.2,0-12.3,0c-1.3,0-2.5-0.2-3.5-1.1c-1.1-0.9-1.7-2.1-1.8-3.5c0-3.9-0.1-7.8,0-11.7
		c0.3-6.6,3.3-11.5,9.3-14.5c2-1,4.3-1.5,6.5-1.7c2.9-0.2,5.8-0.2,8.6,0.5c6.3,1.5,11.6,7.6,12,14.1c0.3,4.5,0.1,9,0.1,13.4
		c0,0.6-0.3,1.3-0.5,1.9c-0.5,1.2-1.4,2-2.7,2.1c-2.3,0.2-4.6,0.4-6.9,0.4C71.4,96.7,68.4,96.6,65.4,96.5L65.4,96.5z"/>
	<path class="st47" d="M66.2,35.9c6.6,0,11.8,5.3,11.8,11.8c0,6.5-5.3,11.8-11.9,11.8c-6.5,0-11.8-5.3-11.8-11.8
		C54.3,41.2,59.6,35.9,66.2,35.9"/>
	<path class="st47" d="M49.5,66.2c-0.8,1-1.6,1.9-2.3,2.9c-2.1,2.9-3.2,6.2-3.3,9.8c-0.2,4.2-0.1,8.3-0.2,12.5c0,0.2,0,0.4,0,0.7
		c-0.3,0-0.6,0.1-0.9,0.1c-2.4,0-4.8,0-7.3,0c-2.6,0-4.2-1.7-4.2-4.3c0-4.8,0-9.6,0-14.3c0-5.2,3.9-9.2,9.1-9.3
		c1.9,0,3.8,0.1,5.7,0.3C47.4,64.7,48.6,65.4,49.5,66.2"/>
	<path class="st47" d="M42.3,44.6c4.1,0,7.5,3.4,7.4,7.5c0,4.1-3.4,7.5-7.5,7.4c-4.1,0-7.5-3.4-7.4-7.5
		C34.8,47.9,38.1,44.6,42.3,44.6"/>
	<path class="st47" d="M90.1,44.6c4.1,0,7.5,3.4,7.4,7.5c0,4.1-3.4,7.5-7.5,7.5c-4.1,0-7.5-3.4-7.5-7.5C82.6,47.9,86,44.6,90.1,44.6
		"/>
	<path class="st48" d="M131.3,66.3c0,36-29.2,65.1-65.1,65.1c-36,0-65.1-29.2-65.1-65.1c0-36,29.2-65.1,65.1-65.1
		C102.1,1.1,131.3,30.3,131.3,66.3z"/>
</g>
</svg>
