<?xml version="1.0" encoding="utf-8"?>
<!-- Generator: Adobe Illustrator 22.0.0, SVG Export Plug-In . SVG Version: 6.00 Build 0)  -->
<svg version="1.1" id="Layer_1" xmlns="http://www.w3.org/2000/svg" xmlns:xlink="http://www.w3.org/1999/xlink" x="0px" y="0px"
	 viewBox="0 0 132.3 132.5" style="enable-background:new 0 0 132.3 132.5;" xml:space="preserve">
<style type="text/css">
	.st0{clip-path:url(#SVGID_2_);fill:#606060;}
	.st1{clip-path:url(#SVGID_4_);}
	.st2{clip-path:url(#SVGID_6_);}
	.st3{clip-path:url(#SVGID_8_);}
	.st4{opacity:0.78;}
	.st5{clip-path:url(#SVGID_12_);}
	.st6{clip-path:url(#SVGID_14_);fill:url(#SVGID_15_);}
	.st7{clip-path:url(#SVGID_17_);}
	.st8{clip-path:url(#SVGID_19_);fill:url(#SVGID_20_);}
	.st9{clip-path:url(#SVGID_22_);}
	.st10{clip-path:url(#SVGID_24_);fill:url(#SVGID_25_);}
	.st11{clip-path:url(#SVGID_27_);}
	.st12{clip-path:url(#SVGID_29_);fill:url(#SVGID_30_);}
	.st13{clip-path:url(#SVGID_32_);}
	.st14{clip-path:url(#SVGID_34_);fill:url(#SVGID_35_);}
	.st15{clip-path:url(#SVGID_37_);}
	.st16{clip-path:url(#SVGID_39_);fill:url(#SVGID_40_);}
	.st17{clip-path:url(#SVGID_42_);}
	.st18{clip-path:url(#SVGID_44_);fill:url(#SVGID_45_);}
	.st19{clip-path:url(#SVGID_47_);}
	.st20{clip-path:url(#SVGID_49_);fill:url(#SVGID_50_);}
	.st21{fill:none;}
	.st22{clip-path:url(#SVGID_52_);}
	.st23{filter:url(#Adobe_OpacityMaskFilter);}
	.st24{clip-path:url(#SVGID_54_);fill:url(#SVGID_56_);}
	.st25{clip-path:url(#SVGID_54_);mask:url(#SVGID_55_);fill:url(#SVGID_57_);}
	.st26{filter:url(#Adobe_OpacityMaskFilter_1_);}
	.st27{clip-path:url(#SVGID_59_);fill:url(#SVGID_61_);}
	.st28{clip-path:url(#SVGID_59_);mask:url(#SVGID_60_);fill:url(#SVGID_62_);}
	.st29{clip-path:url(#SVGID_64_);fill:url(#SVGID_65_);}
	.st30{clip-path:url(#SVGID_67_);fill:url(#SVGID_68_);}
	.st31{clip-path:url(#SVGID_70_);fill:url(#SVGID_71_);}
	.st32{clip-path:url(#SVGID_73_);fill:#FFFFFF;}
	.st33{clip-path:url(#SVGID_73_);fill:#EDEFEF;}
	.st34{clip-path:url(#SVGID_73_);fill:#E4E5E7;}
	.st35{opacity:0.1;clip-path:url(#SVGID_75_);}
	.st36{clip-path:url(#SVGID_77_);}
	.st37{clip-path:url(#SVGID_75_);fill:#FFFFFF;}
	.st38{opacity:0.21;clip-path:url(#SVGID_75_);}
	.st39{clip-path:url(#SVGID_83_);}
	.st40{clip-path:url(#SVGID_87_);fill:url(#SVGID_88_);}
	.st41{clip-path:url(#SVGID_90_);}
	.st42{clip-path:url(#SVGID_94_);fill:url(#SVGID_95_);}
	.st43{clip-path:url(#SVGID_97_);fill:url(#SVGID_98_);}
	.st44{opacity:0.81;clip-path:url(#SVGID_100_);}
	.st45{clip-path:url(#SVGID_102_);}
	.st46{clip-path:url(#SVGID_106_);}
	.st47{fill:#606060;}
	.st48{fill:none;stroke:#606060;stroke-miterlimit:10;}
	.st49{opacity:0.3;}
	.st50{clip-path:url(#SVGID_110_);}
	.st51{fill:#FFFFFF;}
	.st52{opacity:0.3;clip-path:url(#SVGID_114_);}
	.st53{clip-path:url(#SVGID_116_);}
	.st54{clip-path:url(#SVGID_114_);fill:#FFFFFF;}
	.st55{opacity:0.4;}
	.st56{clip-path:url(#SVGID_120_);}
	.st57{clip-path:url(#SVGID_124_);fill:url(#SVGID_125_);}
	.st58{clip-path:url(#SVGID_127_);fill:#FFFFFF;}
	.st59{clip-path:url(#SVGID_129_);fill:url(#SVGID_130_);}
	.st60{clip-path:url(#SVGID_132_);fill:url(#SVGID_133_);}
	.st61{clip-path:url(#SVGID_135_);fill:#FFFFFF;}
	.st62{clip-path:url(#SVGID_137_);fill:url(#SVGID_138_);}
	.st63{clip-path:url(#SVGID_140_);fill:url(#SVGID_141_);}
	.st64{clip-path:url(#SVGID_143_);fill:url(#SVGID_144_);}
	.st65{clip-path:url(#SVGID_146_);fill:#FFFFFF;}
	.st66{clip-path:url(#SVGID_148_);fill:url(#SVGID_149_);}
	.st67{clip-path:url(#SVGID_151_);fill:url(#SVGID_152_);}
	.st68{clip-path:url(#SVGID_154_);fill:#FFFFFF;}
	.st69{clip-path:url(#SVGID_156_);fill:url(#SVGID_157_);}
	.st70{clip-path:url(#SVGID_159_);fill:url(#SVGID_160_);}
	.st71{clip-path:url(#SVGID_162_);fill:#FFFFFF;}
	.st72{clip-path:url(#SVGID_164_);fill:url(#SVGID_165_);}
	.st73{clip-path:url(#SVGID_167_);fill:url(#SVGID_168_);}
	.st74{clip-path:url(#SVGID_170_);fill:url(#SVGID_171_);}
	.st75{clip-path:url(#SVGID_173_);fill:url(#SVGID_174_);}
	.st76{clip-path:url(#SVGID_176_);fill:url(#SVGID_177_);}
	.st77{clip-path:url(#SVGID_179_);fill:#FFFFFF;}
	.st78{clip-path:url(#SVGID_181_);fill:url(#SVGID_182_);}
	.st79{clip-path:url(#SVGID_184_);fill:#FFFFFF;}
</style>
<g>
	<path class="st47" d="M31,88c12.6,0,25.2,0,37.8,0c0.1,0,0.3,0,0.5,0c0,1.1,0,2.2,0,3.2c-0.2,3.5,0.8,6.6,3.7,9.1
		c-0.3,0-0.4,0.1-0.6,0.1c-11.1,0-22.2,0-33.4,0c-4.1,0-7.1-2.6-7.9-6.5c0-0.1-0.1-0.2-0.1-0.3C31,91.8,31,89.9,31,88"/>
	<path class="st47" d="M41.6,85.7c0.1-15,0.2-30,0.3-45h30.8c-0.7,3.9-0.4,7.7,1.3,11.4c-0.3,0-0.6,0-0.8,0c-3.8,0-7.6,0-11.4,0
		c-0.4,0-0.9,0.2-1.2,0.5c-0.6,0.6-0.2,1.5,0.6,1.7c0.3,0.1,0.6,0.1,0.9,0.1c4.2,0,8.4,0,12.5,0c0.6,0,0.9,0.2,1.2,0.6
		c2.7,3.9,6.3,6.4,10.9,7.5c0.2,0.1,0.4,0.1,0.6,0.2c0,0.2,0,0.4,0,0.5c0,9.7,0,19.4,0,29.1c0,3.9-2.4,7-6.1,7.9
		c-4.7,1.1-9.4-2.5-9.5-7.3c-0.1-1.9,0-3.8,0-5.7c0-1.2-0.3-1.5-1.5-1.5c-9.1,0-18.3,0-27.4,0H41.6z M70.1,65.9c2.7,0,5.5,0,8.2,0
		c0.2,0,0.5,0,0.7,0c0.6-0.1,1-0.5,1-1.1c0-0.6-0.3-1-1-1.1c-0.2,0-0.4,0-0.6,0c-5.6,0-11.1,0-16.7,0c-0.2,0-0.4,0-0.7,0.1
		c-0.5,0.1-0.8,0.5-0.9,1.1c0,0.5,0.3,0.9,0.8,1.1c0.3,0.1,0.5,0.1,0.8,0.1C64.7,65.9,67.4,65.9,70.1,65.9 M70.1,77.4
		c2.7,0,5.5,0,8.2,0c1.2,0,1.7-0.4,1.7-1.2c0-0.8-0.5-1.1-1.7-1.1c-5.4,0-10.9,0-16.3,0c-0.2,0-0.5,0-0.7,0c-0.6,0.1-1,0.5-1,1.1
		c0,0.6,0.4,1,1,1.1c0.2,0,0.4,0,0.6,0C64.6,77.4,67.4,77.4,70.1,77.4 M57,53.4c0-2.1-1.8-3.9-4-3.9c-2.2,0-4,1.8-4,3.9
		c0,2.1,1.8,3.9,4,3.9C55.2,57.3,57,55.5,57,53.4 M53,72.3c-2.2,0-4,1.7-4,3.9c0,2.1,1.8,3.9,4,3.9c2.2,0,4-1.7,4-3.9
		C57,74,55.3,72.3,53,72.3 M53.1,68.6c2.2,0,4-1.7,4-3.9c0-2.2-1.8-3.9-4-3.9c-2.2,0-4,1.8-4,3.9C49,66.9,50.8,68.7,53.1,68.6"/>
	<path class="st47" d="M74.7,45c-0.4-8.7,6.7-16.2,15.4-16.6c8.8-0.4,16.5,6.6,16.8,15.3c0.4,9-6.5,16.6-15.5,16.9
		C82.5,61.1,75.1,54.1,74.7,45 M89.5,35.1c-0.2,0.1-0.5,0.2-0.7,0.3c-2.9,1.1-4.3,4.5-2.9,7.3c1,2.1,2.8,3,5.1,3.2
		c2.1,0.1,3.4,2.1,2.7,4c-0.5,1.4-1.8,2.3-3.4,2.1c-1.4-0.2-2.5-1.3-2.6-2.8c-0.1-1-0.5-1.5-1.3-1.4c-0.7,0.1-1.1,0.7-1,1.6
		c0.2,1.7,1,3.2,2.5,4c1.1,0.6,1.9,1,1.6,2.5c-0.1,0.6,0.5,1,1.1,1c0.6,0,1-0.4,1.1-1c0-0.3,0.1-0.6,0-0.9c-0.1-0.6,0.1-0.8,0.7-1
		c2.9-1,4.5-4.2,3.3-7.1c-0.9-2.2-2.6-3.3-5-3.4c-2.1-0.1-3.5-2-2.9-3.9c0.4-1.5,1.7-2.4,3.2-2.3c1.5,0.1,2.6,1.2,2.8,2.7
		c0,0.3,0,0.6,0.1,0.8c0.2,0.5,0.7,0.8,1.3,0.7c0.6-0.1,1-0.6,0.9-1.3C96,38,95,36.4,93,35.5c-1-0.4-1.4-0.8-1.3-1.9
		c0.1-0.7-0.5-1.1-1.1-1.1c-0.7,0-1.1,0.5-1.1,1.2C89.5,34.2,89.5,34.6,89.5,35.1"/>
	<path class="st47" d="M53,55c-1,0-1.7-0.7-1.7-1.6c0-0.9,0.7-1.6,1.7-1.6c1,0,1.8,0.7,1.8,1.6C54.7,54.3,54,55,53,55"/>
	<path class="st47" d="M51.3,76.1c0-0.9,0.8-1.6,1.7-1.6c0.9,0,1.7,0.7,1.7,1.6c0,0.9-0.8,1.6-1.8,1.6C52,77.7,51.3,77,51.3,76.1"/>
	<path class="st47" d="M51.3,64.8c0-0.9,0.7-1.6,1.7-1.6c1,0,1.8,0.7,1.8,1.6c0,0.9-0.8,1.6-1.7,1.6C52.1,66.4,51.3,65.7,51.3,64.8"
		/>
	<path class="st48" d="M131.3,66.3c0,36-29.2,65.1-65.1,65.1c-36,0-65.1-29.2-65.1-65.1c0-36,29.2-65.1,65.1-65.1
		C102.1,1.1,131.3,30.3,131.3,66.3z"/>
</g>
</svg>
