<?xml version="1.0" encoding="utf-8"?>
<!-- Generator: Adobe Illustrator 22.0.0, SVG Export Plug-In . SVG Version: 6.00 Build 0)  -->
<svg version="1.1" id="Layer_1" xmlns="http://www.w3.org/2000/svg" xmlns:xlink="http://www.w3.org/1999/xlink" x="0px" y="0px"
	 viewBox="0 0 132.3 132.5" style="enable-background:new 0 0 132.3 132.5;" xml:space="preserve">
<style type="text/css">
	.st0{clip-path:url(#SVGID_2_);fill:#606060;}
	.st1{clip-path:url(#SVGID_4_);}
	.st2{clip-path:url(#SVGID_6_);}
	.st3{clip-path:url(#SVGID_8_);}
	.st4{opacity:0.78;}
	.st5{clip-path:url(#SVGID_12_);}
	.st6{clip-path:url(#SVGID_14_);fill:url(#SVGID_15_);}
	.st7{clip-path:url(#SVGID_17_);}
	.st8{clip-path:url(#SVGID_19_);fill:url(#SVGID_20_);}
	.st9{clip-path:url(#SVGID_22_);}
	.st10{clip-path:url(#SVGID_24_);fill:url(#SVGID_25_);}
	.st11{clip-path:url(#SVGID_27_);}
	.st12{clip-path:url(#SVGID_29_);fill:url(#SVGID_30_);}
	.st13{clip-path:url(#SVGID_32_);}
	.st14{clip-path:url(#SVGID_34_);fill:url(#SVGID_35_);}
	.st15{clip-path:url(#SVGID_37_);}
	.st16{clip-path:url(#SVGID_39_);fill:url(#SVGID_40_);}
	.st17{clip-path:url(#SVGID_42_);}
	.st18{clip-path:url(#SVGID_44_);fill:url(#SVGID_45_);}
	.st19{clip-path:url(#SVGID_47_);}
	.st20{clip-path:url(#SVGID_49_);fill:url(#SVGID_50_);}
	.st21{fill:none;}
	.st22{clip-path:url(#SVGID_52_);}
	.st23{filter:url(#Adobe_OpacityMaskFilter);}
	.st24{clip-path:url(#SVGID_54_);fill:url(#SVGID_56_);}
	.st25{clip-path:url(#SVGID_54_);mask:url(#SVGID_55_);fill:url(#SVGID_57_);}
	.st26{filter:url(#Adobe_OpacityMaskFilter_1_);}
	.st27{clip-path:url(#SVGID_59_);fill:url(#SVGID_61_);}
	.st28{clip-path:url(#SVGID_59_);mask:url(#SVGID_60_);fill:url(#SVGID_62_);}
	.st29{clip-path:url(#SVGID_64_);fill:url(#SVGID_65_);}
	.st30{clip-path:url(#SVGID_67_);fill:url(#SVGID_68_);}
	.st31{clip-path:url(#SVGID_70_);fill:url(#SVGID_71_);}
	.st32{clip-path:url(#SVGID_73_);fill:#FFFFFF;}
	.st33{clip-path:url(#SVGID_73_);fill:#EDEFEF;}
	.st34{clip-path:url(#SVGID_73_);fill:#E4E5E7;}
	.st35{opacity:0.1;clip-path:url(#SVGID_75_);}
	.st36{clip-path:url(#SVGID_77_);}
	.st37{clip-path:url(#SVGID_75_);fill:#FFFFFF;}
	.st38{opacity:0.21;clip-path:url(#SVGID_75_);}
	.st39{clip-path:url(#SVGID_83_);}
	.st40{clip-path:url(#SVGID_87_);fill:url(#SVGID_88_);}
	.st41{clip-path:url(#SVGID_90_);}
	.st42{clip-path:url(#SVGID_94_);fill:url(#SVGID_95_);}
	.st43{clip-path:url(#SVGID_97_);fill:url(#SVGID_98_);}
	.st44{opacity:0.81;clip-path:url(#SVGID_100_);}
	.st45{clip-path:url(#SVGID_102_);}
	.st46{clip-path:url(#SVGID_106_);}
	.st47{fill:#606060;}
	.st48{fill:none;stroke:#606060;stroke-miterlimit:10;}
	.st49{opacity:0.3;}
	.st50{clip-path:url(#SVGID_110_);}
	.st51{fill:#FFFFFF;}
	.st52{opacity:0.3;clip-path:url(#SVGID_114_);}
	.st53{clip-path:url(#SVGID_116_);}
	.st54{clip-path:url(#SVGID_114_);fill:#FFFFFF;}
	.st55{opacity:0.4;}
	.st56{clip-path:url(#SVGID_120_);}
	.st57{clip-path:url(#SVGID_124_);fill:url(#SVGID_125_);}
	.st58{clip-path:url(#SVGID_127_);fill:#FFFFFF;}
	.st59{clip-path:url(#SVGID_129_);fill:url(#SVGID_130_);}
	.st60{clip-path:url(#SVGID_132_);fill:url(#SVGID_133_);}
	.st61{clip-path:url(#SVGID_135_);fill:#FFFFFF;}
	.st62{clip-path:url(#SVGID_137_);fill:url(#SVGID_138_);}
	.st63{clip-path:url(#SVGID_140_);fill:url(#SVGID_141_);}
	.st64{clip-path:url(#SVGID_143_);fill:url(#SVGID_144_);}
	.st65{clip-path:url(#SVGID_146_);fill:#FFFFFF;}
	.st66{clip-path:url(#SVGID_148_);fill:url(#SVGID_149_);}
	.st67{clip-path:url(#SVGID_151_);fill:url(#SVGID_152_);}
	.st68{clip-path:url(#SVGID_154_);fill:#FFFFFF;}
	.st69{clip-path:url(#SVGID_156_);fill:url(#SVGID_157_);}
	.st70{clip-path:url(#SVGID_159_);fill:url(#SVGID_160_);}
	.st71{clip-path:url(#SVGID_162_);fill:#FFFFFF;}
	.st72{clip-path:url(#SVGID_164_);fill:url(#SVGID_165_);}
	.st73{clip-path:url(#SVGID_167_);fill:url(#SVGID_168_);}
	.st74{clip-path:url(#SVGID_170_);fill:url(#SVGID_171_);}
	.st75{clip-path:url(#SVGID_173_);fill:url(#SVGID_174_);}
	.st76{clip-path:url(#SVGID_176_);fill:url(#SVGID_177_);}
	.st77{clip-path:url(#SVGID_179_);fill:#FFFFFF;}
	.st78{clip-path:url(#SVGID_181_);fill:url(#SVGID_182_);}
	.st79{clip-path:url(#SVGID_184_);fill:#FFFFFF;}
</style>
<g>
	<path class="st47" d="M104.7,68.7c-0.2,1.5-0.3,2.9-0.6,4.4c-1.4,8.1-5.1,15.1-10.8,20.9c-1,1.1-2.5,1.1-3.5,0.1c-1-1-1-2.4,0-3.5
		c3.9-4,6.9-8.6,8.4-14c3.7-12.6,1.1-23.9-7.6-33.8c-0.3-0.3-0.6-0.6-0.9-0.9c-1-1.1-1-2.5,0-3.5c1-0.9,2.5-0.9,3.5,0.2
		c3,3,5.4,6.4,7.3,10.2c2.3,4.5,3.6,9.4,4,14.4c0,0.2,0.1,0.4,0.1,0.7V68.7z"/>
	<path class="st47" d="M70.6,59h0.9c2.7,0,5.5,0,8.2,0c1,0,1.9,0.4,2.3,1.3c0.5,0.9,0.3,1.8-0.3,2.7c-6.8,9.3-13.6,18.5-20.4,27.8
		c-0.8,1.1-2,1.4-3.1,0.9c-1.1-0.5-1.6-1.6-1.2-3c1.5-5.9,2.9-11.7,4.4-17.6c0.1-0.2,0.1-0.5,0.2-0.9h-0.8c-2.6,0-5.1,0-7.7,0
		c-1.1,0-2-0.3-2.6-1.4c-0.5-1-0.2-1.9,0.4-2.8C56.5,58,62.2,49.9,68,41.8c0.6-0.8,1.3-1.4,2.4-1.3c0.9,0.1,1.7,0.5,2,1.4
		c0.2,0.6,0.2,1.3,0.1,2c-0.6,4.9-1.2,9.8-1.9,14.6C70.6,58.7,70.6,58.8,70.6,59"/>
	<path class="st47" d="M27.6,65.5c0.2-10,3.9-19.2,11.3-26.8c0.4-0.4,1.1-0.8,1.6-0.9c1-0.2,2,0.3,2.5,1.2c0.5,0.9,0.4,2-0.4,2.8
		c-0.9,1.1-2,2.1-2.8,3.2c-5.2,6.7-7.7,14.4-7.3,22.9c0.4,8.5,3.6,15.9,9.5,22.1c0.2,0.2,0.5,0.5,0.7,0.7c0.9,1.1,0.9,2.5-0.1,3.4
		c-0.9,0.9-2.5,1-3.4-0.1c-1.7-2-3.5-3.9-5-6.1C29.7,81.4,27.6,74.1,27.6,65.5"/>
	<path class="st47" d="M47.7,44.5c1,0,1.7,0.5,2.2,1.4c0.4,0.9,0.3,1.8-0.4,2.6c-0.7,0.8-1.5,1.6-2.1,2.4
		c-7.6,9.7-6.9,23.6,1.6,32.5c1.3,1.3,1.4,2.8,0.4,3.8c-1.1,1-2.5,0.9-3.8-0.5c-6.5-6.9-9.1-15.1-8-24.5c0.8-6.6,3.7-12.2,8.3-17
		c0.5-0.5,1.1-0.7,1.7-1C47.6,44.4,47.6,44.5,47.7,44.5"/>
	<path class="st47" d="M95.1,66.9c-0.1,7.4-2.9,14.3-8.5,20.1c-1.1,1.1-2.5,1.2-3.5,0.2c-1-1-1-2.5,0.1-3.6
		c4.9-5.1,7.3-11.2,7.1-18.2c-0.2-6.4-2.5-11.8-6.9-16.5c-0.5-0.5-0.9-1.1-1-1.8c-0.3-1,0.4-2,1.3-2.5c1-0.5,2-0.3,2.8,0.5
		c2.5,2.5,4.4,5.3,5.9,8.4C94.2,57.7,95.1,61.9,95.1,66.9"/>
	
		<ellipse transform="matrix(2.172345e-02 -0.9998 0.9998 2.172345e-02 -1.5116 130.9678)" class="st48" cx="66.2" cy="66.3" rx="65.1" ry="65.1"/>
</g>
</svg>
