<?xml version="1.0" encoding="utf-8"?>
<!-- Generator: Adobe Illustrator 22.0.0, SVG Export Plug-In . SVG Version: 6.00 Build 0)  -->
<svg version="1.1" id="Layer_1" xmlns="http://www.w3.org/2000/svg" xmlns:xlink="http://www.w3.org/1999/xlink" x="0px" y="0px"
	 viewBox="0 0 132.3 132.5" style="enable-background:new 0 0 132.3 132.5;" xml:space="preserve">
<style type="text/css">
	.st0{clip-path:url(#SVGID_2_);fill:#606060;}
	.st1{clip-path:url(#SVGID_4_);}
	.st2{clip-path:url(#SVGID_6_);}
	.st3{clip-path:url(#SVGID_8_);}
	.st4{opacity:0.78;}
	.st5{clip-path:url(#SVGID_12_);}
	.st6{clip-path:url(#SVGID_14_);fill:url(#SVGID_15_);}
	.st7{clip-path:url(#SVGID_17_);}
	.st8{clip-path:url(#SVGID_19_);fill:url(#SVGID_20_);}
	.st9{clip-path:url(#SVGID_22_);}
	.st10{clip-path:url(#SVGID_24_);fill:url(#SVGID_25_);}
	.st11{clip-path:url(#SVGID_27_);}
	.st12{clip-path:url(#SVGID_29_);fill:url(#SVGID_30_);}
	.st13{clip-path:url(#SVGID_32_);}
	.st14{clip-path:url(#SVGID_34_);fill:url(#SVGID_35_);}
	.st15{clip-path:url(#SVGID_37_);}
	.st16{clip-path:url(#SVGID_39_);fill:url(#SVGID_40_);}
	.st17{clip-path:url(#SVGID_42_);}
	.st18{clip-path:url(#SVGID_44_);fill:url(#SVGID_45_);}
	.st19{clip-path:url(#SVGID_47_);}
	.st20{clip-path:url(#SVGID_49_);fill:url(#SVGID_50_);}
	.st21{fill:none;}
	.st22{clip-path:url(#SVGID_52_);}
	.st23{filter:url(#Adobe_OpacityMaskFilter);}
	.st24{clip-path:url(#SVGID_54_);fill:url(#SVGID_56_);}
	.st25{clip-path:url(#SVGID_54_);mask:url(#SVGID_55_);fill:url(#SVGID_57_);}
	.st26{filter:url(#Adobe_OpacityMaskFilter_1_);}
	.st27{clip-path:url(#SVGID_59_);fill:url(#SVGID_61_);}
	.st28{clip-path:url(#SVGID_59_);mask:url(#SVGID_60_);fill:url(#SVGID_62_);}
	.st29{clip-path:url(#SVGID_64_);fill:url(#SVGID_65_);}
	.st30{clip-path:url(#SVGID_67_);fill:url(#SVGID_68_);}
	.st31{clip-path:url(#SVGID_70_);fill:url(#SVGID_71_);}
	.st32{clip-path:url(#SVGID_73_);fill:#FFFFFF;}
	.st33{clip-path:url(#SVGID_73_);fill:#EDEFEF;}
	.st34{clip-path:url(#SVGID_73_);fill:#E4E5E7;}
	.st35{opacity:0.1;clip-path:url(#SVGID_75_);}
	.st36{clip-path:url(#SVGID_77_);}
	.st37{clip-path:url(#SVGID_75_);fill:#FFFFFF;}
	.st38{opacity:0.21;clip-path:url(#SVGID_75_);}
	.st39{clip-path:url(#SVGID_83_);}
	.st40{clip-path:url(#SVGID_87_);fill:url(#SVGID_88_);}
	.st41{clip-path:url(#SVGID_90_);}
	.st42{clip-path:url(#SVGID_94_);fill:url(#SVGID_95_);}
	.st43{clip-path:url(#SVGID_97_);fill:url(#SVGID_98_);}
	.st44{opacity:0.81;clip-path:url(#SVGID_100_);}
	.st45{clip-path:url(#SVGID_102_);}
	.st46{clip-path:url(#SVGID_106_);}
	.st47{fill:#606060;}
	.st48{fill:none;stroke:#606060;stroke-miterlimit:10;}
	.st49{opacity:0.3;}
	.st50{clip-path:url(#SVGID_110_);}
	.st51{fill:#FFFFFF;}
	.st52{opacity:0.3;clip-path:url(#SVGID_114_);}
	.st53{clip-path:url(#SVGID_116_);}
	.st54{clip-path:url(#SVGID_114_);fill:#FFFFFF;}
	.st55{opacity:0.4;}
	.st56{clip-path:url(#SVGID_120_);}
	.st57{clip-path:url(#SVGID_124_);fill:url(#SVGID_125_);}
	.st58{clip-path:url(#SVGID_127_);fill:#FFFFFF;}
	.st59{clip-path:url(#SVGID_129_);fill:url(#SVGID_130_);}
	.st60{clip-path:url(#SVGID_132_);fill:url(#SVGID_133_);}
	.st61{clip-path:url(#SVGID_135_);fill:#FFFFFF;}
	.st62{clip-path:url(#SVGID_137_);fill:url(#SVGID_138_);}
	.st63{clip-path:url(#SVGID_140_);fill:url(#SVGID_141_);}
	.st64{clip-path:url(#SVGID_143_);fill:url(#SVGID_144_);}
	.st65{clip-path:url(#SVGID_146_);fill:#FFFFFF;}
	.st66{clip-path:url(#SVGID_148_);fill:url(#SVGID_149_);}
	.st67{clip-path:url(#SVGID_151_);fill:url(#SVGID_152_);}
	.st68{clip-path:url(#SVGID_154_);fill:#FFFFFF;}
	.st69{clip-path:url(#SVGID_156_);fill:url(#SVGID_157_);}
	.st70{clip-path:url(#SVGID_159_);fill:url(#SVGID_160_);}
	.st71{clip-path:url(#SVGID_162_);fill:#FFFFFF;}
	.st72{clip-path:url(#SVGID_164_);fill:url(#SVGID_165_);}
	.st73{clip-path:url(#SVGID_167_);fill:url(#SVGID_168_);}
	.st74{clip-path:url(#SVGID_170_);fill:url(#SVGID_171_);}
	.st75{clip-path:url(#SVGID_173_);fill:url(#SVGID_174_);}
	.st76{clip-path:url(#SVGID_176_);fill:url(#SVGID_177_);}
	.st77{clip-path:url(#SVGID_179_);fill:#FFFFFF;}
	.st78{clip-path:url(#SVGID_181_);fill:url(#SVGID_182_);}
	.st79{clip-path:url(#SVGID_184_);fill:#FFFFFF;}
</style>
<g>
	<path class="st47" d="M45.5,34.2h24.7c0,5.2,0,10.4,0,15.6c0,2.8,1.6,4.4,4.5,4.4c4.9,0,9.9,0,14.8,0h0.7V55c0,13,0,25.9,0,38.9
		c0,2.8-1.6,4.5-4.5,4.5c-13,0-26.1,0-39.1,0c-2.9,0-4.5-1.6-4.5-4.5c0-14.5,0-29.1,0-43.6c0-3.9,0-7.9,0-11.8c0-1.2,0.3-2.3,1.3-3
		C44,34.8,44.8,34.6,45.5,34.2 M74.2,90.3h7.9v-28h-7.9V90.3z M70.1,70.3h-7.9v20h7.9V70.3z M50.2,90.3h7.9V78.3h-7.9V90.3z"/>
	<path class="st47" d="M74.3,34.2c0.1,0.2,0.3,0.4,0.4,0.5c5,5,9.9,9.9,14.9,14.9c0.2,0.2,0.3,0.3,0.5,0.5h-16v-16H74.3z"/>
	
		<ellipse transform="matrix(2.172345e-02 -0.9998 0.9998 2.172345e-02 -1.5116 130.9678)" class="st48" cx="66.2" cy="66.3" rx="65.1" ry="65.1"/>
</g>
</svg>
