<?xml version="1.0" encoding="utf-8"?>
<!-- Generator: Adobe Illustrator 22.0.0, SVG Export Plug-In . SVG Version: 6.00 Build 0)  -->
<svg version="1.1" id="Layer_1" xmlns="http://www.w3.org/2000/svg" xmlns:xlink="http://www.w3.org/1999/xlink" x="0px" y="0px"
	 viewBox="0 0 132.3 132.5" style="enable-background:new 0 0 132.3 132.5;" xml:space="preserve">
<style type="text/css">
	.st0{clip-path:url(#SVGID_2_);fill:#606060;}
	.st1{clip-path:url(#SVGID_4_);}
	.st2{clip-path:url(#SVGID_6_);}
	.st3{clip-path:url(#SVGID_8_);}
	.st4{opacity:0.78;}
	.st5{clip-path:url(#SVGID_12_);}
	.st6{clip-path:url(#SVGID_14_);fill:url(#SVGID_15_);}
	.st7{clip-path:url(#SVGID_17_);}
	.st8{clip-path:url(#SVGID_19_);fill:url(#SVGID_20_);}
	.st9{clip-path:url(#SVGID_22_);}
	.st10{clip-path:url(#SVGID_24_);fill:url(#SVGID_25_);}
	.st11{clip-path:url(#SVGID_27_);}
	.st12{clip-path:url(#SVGID_29_);fill:url(#SVGID_30_);}
	.st13{clip-path:url(#SVGID_32_);}
	.st14{clip-path:url(#SVGID_34_);fill:url(#SVGID_35_);}
	.st15{clip-path:url(#SVGID_37_);}
	.st16{clip-path:url(#SVGID_39_);fill:url(#SVGID_40_);}
	.st17{clip-path:url(#SVGID_42_);}
	.st18{clip-path:url(#SVGID_44_);fill:url(#SVGID_45_);}
	.st19{clip-path:url(#SVGID_47_);}
	.st20{clip-path:url(#SVGID_49_);fill:url(#SVGID_50_);}
	.st21{fill:none;}
	.st22{clip-path:url(#SVGID_52_);}
	.st23{filter:url(#Adobe_OpacityMaskFilter);}
	.st24{clip-path:url(#SVGID_54_);fill:url(#SVGID_56_);}
	.st25{clip-path:url(#SVGID_54_);mask:url(#SVGID_55_);fill:url(#SVGID_57_);}
	.st26{filter:url(#Adobe_OpacityMaskFilter_1_);}
	.st27{clip-path:url(#SVGID_59_);fill:url(#SVGID_61_);}
	.st28{clip-path:url(#SVGID_59_);mask:url(#SVGID_60_);fill:url(#SVGID_62_);}
	.st29{clip-path:url(#SVGID_64_);fill:url(#SVGID_65_);}
	.st30{clip-path:url(#SVGID_67_);fill:url(#SVGID_68_);}
	.st31{clip-path:url(#SVGID_70_);fill:url(#SVGID_71_);}
	.st32{clip-path:url(#SVGID_73_);fill:#FFFFFF;}
	.st33{clip-path:url(#SVGID_73_);fill:#EDEFEF;}
	.st34{clip-path:url(#SVGID_73_);fill:#E4E5E7;}
	.st35{opacity:0.1;clip-path:url(#SVGID_75_);}
	.st36{clip-path:url(#SVGID_77_);}
	.st37{clip-path:url(#SVGID_75_);fill:#FFFFFF;}
	.st38{opacity:0.21;clip-path:url(#SVGID_75_);}
	.st39{clip-path:url(#SVGID_83_);}
	.st40{clip-path:url(#SVGID_87_);fill:url(#SVGID_88_);}
	.st41{clip-path:url(#SVGID_90_);}
	.st42{clip-path:url(#SVGID_94_);fill:url(#SVGID_95_);}
	.st43{clip-path:url(#SVGID_97_);fill:url(#SVGID_98_);}
	.st44{opacity:0.81;clip-path:url(#SVGID_100_);}
	.st45{clip-path:url(#SVGID_102_);}
	.st46{clip-path:url(#SVGID_106_);}
	.st47{fill:#606060;}
	.st48{fill:none;stroke:#606060;stroke-miterlimit:10;}
	.st49{opacity:0.3;}
	.st50{clip-path:url(#SVGID_110_);}
	.st51{fill:#FFFFFF;}
	.st52{opacity:0.3;clip-path:url(#SVGID_114_);}
	.st53{clip-path:url(#SVGID_116_);}
	.st54{clip-path:url(#SVGID_114_);fill:#FFFFFF;}
	.st55{opacity:0.4;}
	.st56{clip-path:url(#SVGID_120_);}
	.st57{clip-path:url(#SVGID_124_);fill:url(#SVGID_125_);}
	.st58{clip-path:url(#SVGID_127_);fill:#FFFFFF;}
	.st59{clip-path:url(#SVGID_129_);fill:url(#SVGID_130_);}
	.st60{clip-path:url(#SVGID_132_);fill:url(#SVGID_133_);}
	.st61{clip-path:url(#SVGID_135_);fill:#FFFFFF;}
	.st62{clip-path:url(#SVGID_137_);fill:url(#SVGID_138_);}
	.st63{clip-path:url(#SVGID_140_);fill:url(#SVGID_141_);}
	.st64{clip-path:url(#SVGID_143_);fill:url(#SVGID_144_);}
	.st65{clip-path:url(#SVGID_146_);fill:#FFFFFF;}
	.st66{clip-path:url(#SVGID_148_);fill:url(#SVGID_149_);}
	.st67{clip-path:url(#SVGID_151_);fill:url(#SVGID_152_);}
	.st68{clip-path:url(#SVGID_154_);fill:#FFFFFF;}
	.st69{clip-path:url(#SVGID_156_);fill:url(#SVGID_157_);}
	.st70{clip-path:url(#SVGID_159_);fill:url(#SVGID_160_);}
	.st71{clip-path:url(#SVGID_162_);fill:#FFFFFF;}
	.st72{clip-path:url(#SVGID_164_);fill:url(#SVGID_165_);}
	.st73{clip-path:url(#SVGID_167_);fill:url(#SVGID_168_);}
	.st74{clip-path:url(#SVGID_170_);fill:url(#SVGID_171_);}
	.st75{clip-path:url(#SVGID_173_);fill:url(#SVGID_174_);}
	.st76{clip-path:url(#SVGID_176_);fill:url(#SVGID_177_);}
	.st77{clip-path:url(#SVGID_179_);fill:#FFFFFF;}
	.st78{clip-path:url(#SVGID_181_);fill:url(#SVGID_182_);}
	.st79{clip-path:url(#SVGID_184_);fill:#FFFFFF;}
</style>
<path class="st47" d="M70.3,33.4c0.2,1.3,0.4,2.7,0.5,4c0,0.4,0.2,0.5,0.5,0.6c1.5,0.4,3.1,0.8,4.6,1.2c0.4,0.1,0.5,0.1,0.7-0.2
	c0.8-1.1,1.6-2.1,2.4-3.2c2.4,1.4,4.7,2.7,7.1,4.1c-0.6,1.4-1.2,2.8-1.6,3.9c1.4,1.4,2.7,2.7,4.2,4.1c1.1-0.4,2.4-1,3.9-1.6
	c1.4,2.4,2.7,4.7,4.1,7.1c-1.1,0.8-2.1,1.6-3.1,2.4c-0.4,0.3-0.4,0.5-0.3,0.9c0.4,1.4,0.8,2.9,1.2,4.3c0.1,0.4,0.2,0.6,0.7,0.6
	c1.3,0.1,2.6,0.3,3.9,0.5v8.2c-1.3,0.2-2.6,0.4-3.9,0.5c-0.4,0-0.5,0.2-0.6,0.5c-0.4,1.5-0.8,3.1-1.2,4.6c-0.1,0.4,0,0.5,0.3,0.7
	c1.1,0.8,2.1,1.6,3.2,2.4c-1.4,2.4-2.7,4.7-4.1,7.1c-1.2-0.5-2.4-1-3.6-1.5c-0.4-0.2-0.6-0.2-0.9,0.2c-1.1,1.2-2.3,2.4-3.6,3.7
	c0.5,1.2,1.1,2.6,1.7,4c-2.4,1.4-4.7,2.7-7.1,4.1c-0.8-1.1-1.6-2.1-2.4-3.2c-0.2-0.3-0.4-0.4-0.8-0.3c-1.5,0.4-3,0.8-4.5,1.2
	c-0.3,0.1-0.5,0.2-0.6,0.6c-0.1,1.3-0.3,2.6-0.5,4h-8.2c-0.2-1.3-0.4-2.6-0.5-4c0-0.4-0.2-0.5-0.6-0.6c-1.5-0.4-3-0.8-4.5-1.2
	c-0.4-0.1-0.6,0-0.8,0.3c-0.8,1.1-1.6,2.1-2.4,3.2c-1.1-0.7-2.3-1.3-3.5-2c0.2-0.2,0.3-0.4,0.5-0.5c2.6-2.6,5.1-5.1,7.7-7.7
	c0.3-0.3,0.6-0.4,1-0.3c12.3,4.3,25.4-3.1,28-16c2.3-11.5-5.6-23.1-17.2-25c-11.5-1.9-22.2,5.4-24.5,16.8c-0.8,3.8-0.5,7.5,0.8,11.2
	c0.2,0.5,0.1,0.8-0.3,1.2c-2.6,2.5-5.1,5.1-7.7,7.7c-0.1,0.1-0.3,0.3-0.5,0.5c-0.7-1.2-1.3-2.3-2-3.5c1-0.8,2-1.6,3-2.3
	c0.5-0.3,0.5-0.6,0.4-1.2c-0.4-1.3-0.8-2.7-1.1-4.1c-0.1-0.5-0.2-0.8-0.8-0.8c-1.3-0.1-2.5-0.3-3.8-0.5v-8.2
	c1.3-0.2,2.6-0.4,3.9-0.5c0.5,0,0.6-0.2,0.7-0.7c0.4-1.4,0.7-2.9,1.2-4.3c0.1-0.4,0.1-0.7-0.3-0.9c-1.1-0.8-2.1-1.6-3.1-2.4
	c1.4-2.4,2.7-4.7,4.1-7.1c1.4,0.6,2.8,1.2,3.9,1.6c1.4-1.4,2.8-2.7,4.2-4.1c-0.5-1.1-1-2.5-1.6-3.9c2.4-1.4,4.7-2.7,7.1-4.1
	c0.8,1.1,1.6,2.2,2.5,3.2c0.1,0.2,0.4,0.3,0.6,0.3c1.6-0.4,3.2-0.8,4.8-1.3c0.2-0.1,0.4-0.3,0.4-0.5c0.2-1.4,0.4-2.7,0.5-4.1H70.3z"
	/>
<path class="st47" d="M76.7,61.3c1.3,2.8,1.5,5.7,0.5,8.6c-2,6-8.4,9.3-14.5,7.4c-0.6-0.2-0.9-0.1-1.3,0.3c-6,6-12,12-18,18
	c-1.6,1.6-3.9,2-5.9,0.9c-2.5-1.4-3.2-4.7-1.4-7c0.2-0.3,0.5-0.5,0.7-0.8c5.9-5.9,11.9-11.9,17.8-17.8c0.4-0.4,0.5-0.7,0.3-1.3
	c-1.3-4.6-0.3-8.7,3.3-12c3.5-3.2,7.7-3.8,12.2-2.2c0.2,0.1,0.3,0.2,0.7,0.4c-0.2,0.1-0.5,0.2-0.6,0.4c-2.7,2.6-5.3,5.3-7.9,7.9
	c-0.2,0.2-0.4,0.6-0.4,0.9c0,0.9-0.2,1.9,0.1,2.6c0.3,0.8,1.2,1.3,1.8,1.9c0.2,0.2,0.6,0.3,0.9,0.4c0.9,0,1.9,0.2,2.7-0.1
	c0.8-0.3,1.3-1.2,1.9-1.8c2.2-2.2,4.3-4.3,6.5-6.5C76.3,61.6,76.5,61.5,76.7,61.3"/>
<ellipse transform="matrix(2.172345e-02 -0.9998 0.9998 2.172345e-02 -1.5116 130.9678)" class="st48" cx="66.2" cy="66.3" rx="65.1" ry="65.1"/>
</svg>
