<?xml version="1.0" encoding="utf-8"?>
<!-- Generator: Adobe Illustrator 26.0.0, SVG Export Plug-In . SVG Version: 6.00 Build 0)  -->
<svg version="1.1" id="Layer_1" xmlns="http://www.w3.org/2000/svg" xmlns:xlink="http://www.w3.org/1999/xlink" x="0px" y="0px"
	 viewBox="0 0 317.74 132.13" style="enable-background:new 0 0 317.74 132.13;" xml:space="preserve">
<style type="text/css">
	.st0{fill:url(#SVGID_1_);}
	.st1{fill:url(#SVGID_00000113346957160024489360000009308887179502528438_);}
	.st2{fill:#FFFFFF;}
	.st3{fill:#0731E2;}
	.st4{fill:#00C2BD;}
	.st5{opacity:0.47;fill:#E50505;}
	.st6{opacity:0.47;fill:#0AE01E;}
	.st7{opacity:0.51;fill:#3305DB;}
	.st8{fill:url(#SVGID_00000124877049464453781610000018208423658838871464_);}
	.st9{fill:url(#SVGID_00000179639611028051091760000000773682233469842615_);}
	.st10{fill:url(#SVGID_00000072252975019786826460000014566198354269021593_);}
	.st11{fill:url(#SVGID_00000130613430039687202880000006467565910306608799_);}
	.st12{fill:url(#SVGID_00000076561529974775192990000008461776264115842236_);}
	.st13{fill:url(#SVGID_00000136389708898444152090000014674983756319037626_);}
	.st14{fill:url(#SVGID_00000181075862901961058670000009469163244461952396_);}
	.st15{fill:url(#SVGID_00000045600077695051353330000012419049493315930496_);}
	.st16{fill:url(#SVGID_00000085233355009324050840000016889376597350854282_);}
	.st17{fill:url(#SVGID_00000132778706062832700950000006390812384439659147_);}
	.st18{fill:url(#SVGID_00000111870916742918631040000017436357622374967205_);}
	.st19{fill:url(#SVGID_00000000197188003550633130000009184517579005152184_);}
	.st20{fill:url(#SVGID_00000058564597474641884170000010253512139839577989_);}
	.st21{fill:url(#SVGID_00000035512516913312960810000000694774405194486658_);}
	.st22{fill:url(#SVGID_00000102546286882230381870000013474570110674247831_);}
	.st23{fill:url(#SVGID_00000096753755753627238300000012052177590312057730_);}
	.st24{fill:url(#SVGID_00000071542544349386136120000009864606696821908393_);}
	.st25{fill:url(#SVGID_00000085225771281039868310000013008711876807359121_);}
	.st26{fill:url(#SVGID_00000129906892282324800780000017066194238914848683_);}
	.st27{fill:url(#SVGID_00000030473686169914768630000013808668373994144408_);}
	.st28{fill:url(#SVGID_00000016049218819020649410000009346035233902647204_);}
	.st29{fill:url(#SVGID_00000093861225751632546570000012260414423073238948_);}
	.st30{fill:url(#SVGID_00000142863723823730665600000003667327539117532570_);}
	.st31{fill:url(#SVGID_00000030451360592910657680000009091481975965001345_);}
	.st32{fill:url(#SVGID_00000176733372233638112910000018220435350468184499_);}
	.st33{fill:url(#SVGID_00000111155500523327521020000000110807761846972318_);}
	.st34{fill:#17A9D9;}
	.st35{fill:#00CAB4;}
	.st36{fill:url(#SVGID_00000081618633475048669550000013490080987720112569_);}
	.st37{fill:url(#SVGID_00000031903116878788558420000006764781115458468484_);}
	.st38{fill:url(#SVGID_00000170271594048570940050000015670551602390615959_);}
	.st39{fill:url(#SVGID_00000148638075205783467080000004691079851018089888_);}
	.st40{fill:url(#SVGID_00000097500541867703069740000006875877217829698464_);}
	.st41{fill:url(#SVGID_00000031896528562912179710000005491087677104739516_);}
	.st42{fill:url(#SVGID_00000150786823863670551500000016256801447599599504_);}
	.st43{fill:url(#SVGID_00000049198679008035918520000008131200948470887567_);}
	.st44{fill:url(#SVGID_00000137090921251710017750000007669846437402062732_);}
	.st45{fill:url(#SVGID_00000131328337109808978980000000282020550388085416_);}
	.st46{fill:url(#SVGID_00000003097603490395774020000001915220323420775557_);}
	.st47{fill:url(#SVGID_00000026125622260292427900000017520744829291128466_);}
	.st48{fill:url(#SVGID_00000063627749163155210060000003273851934823368089_);}
</style>
<rect class="st2" width="317.74" height="132.13"/>
<g>
	<linearGradient id="SVGID_1_" gradientUnits="userSpaceOnUse" x1="46.8878" y1="66.0635" x2="267.9872" y2="66.0635">
		<stop  offset="0" style="stop-color:#17A9D9"/>
		<stop  offset="1" style="stop-color:#00CAB4"/>
	</linearGradient>
	<path class="st0" d="M230.7,67.51l-1.85-2.88h10.19l2.63,2.88l4.59,5.08l2.6,2.88h-24.9c-2.48-0.13-4.7-1.21-6.3-2.88
		c-1.32-1.37-2.22-3.12-2.52-5.08c-0.07-0.47-0.11-0.95-0.11-1.44s0.04-0.97,0.11-1.44c0.3-1.96,1.2-3.71,2.52-5.08
		c0.04-0.05,0.08-0.09,0.13-0.14c1.7-1.7,4.05-2.75,6.65-2.75h7.31l2.64,2.89h-9.95c-3.1,0-5.7,2.17-6.36,5.08
		c-0.1,0.46-0.16,0.94-0.16,1.44s0.06,0.98,0.16,1.44c0.66,2.91,3.26,5.08,6.36,5.08h17.94l-4.59-5.08H230.7"/>
	
		<linearGradient id="SVGID_00000144305001241694782360000000216556901846963351_" gradientUnits="userSpaceOnUse" x1="46.8878" y1="74.0235" x2="267.9872" y2="74.0235">
		<stop  offset="0" style="stop-color:#17A9D9"/>
		<stop  offset="1" style="stop-color:#00CAB4"/>
	</linearGradient>
	<polygon style="fill:url(#SVGID_00000144305001241694782360000000216556901846963351_);" points="269.34,72.58 269.34,75.47 
		252.83,75.47 250.22,72.58 	"/>
	
		<linearGradient id="SVGID_00000046332419658685972580000006233017268286808194_" gradientUnits="userSpaceOnUse" x1="46.8878" y1="66.0584" x2="267.9872" y2="66.0584">
		<stop  offset="0" style="stop-color:#17A9D9"/>
		<stop  offset="1" style="stop-color:#00CAB4"/>
	</linearGradient>
	<polygon style="fill:url(#SVGID_00000046332419658685972580000006233017268286808194_);" points="267.83,64.62 267.83,67.5 
		245.63,67.5 243.03,64.62 	"/>
	
		<linearGradient id="SVGID_00000031921361557921728540000016049255067114541707_" gradientUnits="userSpaceOnUse" x1="46.8878" y1="58.0985" x2="267.9872" y2="58.0985">
		<stop  offset="0" style="stop-color:#17A9D9"/>
		<stop  offset="1" style="stop-color:#00CAB4"/>
	</linearGradient>
	<polygon style="fill:url(#SVGID_00000031921361557921728540000016049255067114541707_);" points="269.34,56.66 269.34,59.54 
		238.44,59.54 235.84,56.66 	"/>
	
		<linearGradient id="SVGID_00000008130156779160193390000005992907001108563343_" gradientUnits="userSpaceOnUse" x1="46.8878" y1="74.0235" x2="267.9872" y2="74.0235">
		<stop  offset="0" style="stop-color:#17A9D9"/>
		<stop  offset="1" style="stop-color:#00CAB4"/>
	</linearGradient>
	<polygon style="fill:url(#SVGID_00000008130156779160193390000005992907001108563343_);" points="81.91,75.22 81.91,75.47 
		48.4,75.47 48.4,72.58 79.53,72.58 	"/>
	
		<linearGradient id="SVGID_00000137843884172818988640000015990735428703085988_" gradientUnits="userSpaceOnUse" x1="46.8878" y1="66.0584" x2="267.9872" y2="66.0584">
		<stop  offset="0" style="stop-color:#17A9D9"/>
		<stop  offset="1" style="stop-color:#00CAB4"/>
	</linearGradient>
	<polygon style="fill:url(#SVGID_00000137843884172818988640000015990735428703085988_);" points="74.95,67.5 48.4,67.5 48.4,64.62 
		72.35,64.62 	"/>
	
		<linearGradient id="SVGID_00000039133511140411368220000010517413281878532762_" gradientUnits="userSpaceOnUse" x1="46.8878" y1="58.0985" x2="267.9872" y2="58.0985">
		<stop  offset="0" style="stop-color:#17A9D9"/>
		<stop  offset="1" style="stop-color:#00CAB4"/>
	</linearGradient>
	<polygon style="fill:url(#SVGID_00000039133511140411368220000010517413281878532762_);" points="67.76,59.54 48.4,59.54 
		48.4,56.66 65.16,56.66 	"/>
	
		<linearGradient id="SVGID_00000003062459406716190560000014780113349187278014_" gradientUnits="userSpaceOnUse" x1="46.8878" y1="65.9235" x2="267.9872" y2="65.9235">
		<stop  offset="0" style="stop-color:#17A9D9"/>
		<stop  offset="1" style="stop-color:#00CAB4"/>
	</linearGradient>
	<polygon style="fill:url(#SVGID_00000003062459406716190560000014780113349187278014_);" points="102.78,56.66 87.99,73.04 
		86.05,75.19 84.11,73.04 69.31,56.66 73.2,56.66 86.05,70.89 98.9,56.66 	"/>
	
		<linearGradient id="SVGID_00000140706980889418783580000017694976161214458548_" gradientUnits="userSpaceOnUse" x1="46.8878" y1="66.1435" x2="267.9872" y2="66.1435">
		<stop  offset="0" style="stop-color:#17A9D9"/>
		<stop  offset="1" style="stop-color:#00CAB4"/>
	</linearGradient>
	<polygon style="fill:url(#SVGID_00000140706980889418783580000017694976161214458548_);" points="139.04,56.82 139.04,75.47 
		136.16,75.47 136.16,62.79 136.07,62.98 124.42,72.83 122.25,74.66 120.07,72.83 108.42,62.98 108.33,62.79 108.33,75.47 
		105.45,75.47 105.45,56.82 108.33,59.25 122.25,70.99 136.16,59.25 	"/>
	
		<linearGradient id="SVGID_00000172410602762038353660000014136658485274607017_" gradientUnits="userSpaceOnUse" x1="46.8878" y1="58.0985" x2="267.9872" y2="58.0985">
		<stop  offset="0" style="stop-color:#17A9D9"/>
		<stop  offset="1" style="stop-color:#00CAB4"/>
	</linearGradient>
	<polygon style="fill:url(#SVGID_00000172410602762038353660000014136658485274607017_);" points="142.52,59.54 142.52,56.66 
		175.92,56.66 175.92,59.54 	"/>
	
		<linearGradient id="SVGID_00000034795347103552609800000004898819288960309147_" gradientUnits="userSpaceOnUse" x1="46.8878" y1="74.0285" x2="267.9872" y2="74.0285">
		<stop  offset="0" style="stop-color:#17A9D9"/>
		<stop  offset="1" style="stop-color:#00CAB4"/>
	</linearGradient>
	<polygon style="fill:url(#SVGID_00000034795347103552609800000004898819288960309147_);" points="142.52,75.47 142.52,72.59 
		175.92,72.59 175.92,75.47 	"/>
	
		<linearGradient id="SVGID_00000117635794288586690990000012107077659440509373_" gradientUnits="userSpaceOnUse" x1="46.8878" y1="66.0635" x2="267.9872" y2="66.0635">
		<stop  offset="0" style="stop-color:#17A9D9"/>
		<stop  offset="1" style="stop-color:#00CAB4"/>
	</linearGradient>
	<polygon style="fill:url(#SVGID_00000117635794288586690990000012107077659440509373_);" points="142.52,67.5 142.52,64.62 
		174.42,64.62 174.42,67.5 	"/>
	
		<linearGradient id="SVGID_00000098942583670000722020000012955503201408134287_" gradientUnits="userSpaceOnUse" x1="46.8878" y1="66.0635" x2="267.9872" y2="66.0635">
		<stop  offset="0" style="stop-color:#17A9D9"/>
		<stop  offset="1" style="stop-color:#00CAB4"/>
	</linearGradient>
	<path style="fill:url(#SVGID_00000098942583670000722020000012955503201408134287_);" d="M214.19,75.47h-3.82l-7.11-7.96h-20.9
		v7.96h-2.88V64.62h23.31c0,0,0,0,0,0.01h4.73v-0.01h0.05c1.41,0,2.55-1.13,2.55-2.54c0-1.4-1.14-2.54-2.55-2.54h-28.09v-2.88h28.09
		c0.92,0,1.79,0.23,2.55,0.64c0.48,0.25,0.91,0.57,1.29,0.95s0.7,0.81,0.95,1.29c0.41,0.76,0.64,1.62,0.64,2.54
		s-0.23,1.79-0.64,2.55c-0.25,0.48-0.57,0.91-0.95,1.29c-0.38,0.38-0.81,0.7-1.29,0.95c-0.76,0.41-1.63,0.64-2.55,0.64h-0.05
		c-0.15,0-0.3-0.01-0.45-0.03l0.02,0.03L214.19,75.47z"/>
</g>
</svg>
