<?xml version="1.0" encoding="utf-8"?>
<!-- Generator: Adobe Illustrator 26.0.0, SVG Export Plug-In . SVG Version: 6.00 Build 0)  -->
<svg version="1.1" id="Layer_1" xmlns="http://www.w3.org/2000/svg" xmlns:xlink="http://www.w3.org/1999/xlink" x="0px" y="0px"
	 viewBox="0 0 317.74 132.13" style="enable-background:new 0 0 317.74 132.13;" xml:space="preserve">
<style type="text/css">
	.st0{fill:url(#SVGID_1_);}
	.st1{fill:url(#SVGID_00000066507272268103858810000005833383652480714639_);}
	.st2{fill:#FFFFFF;}
	.st3{fill:#0731E2;}
	.st4{fill:#00C2BD;}
	.st5{opacity:0.47;fill:#E50505;}
	.st6{opacity:0.47;fill:#0AE01E;}
	.st7{opacity:0.51;fill:#3305DB;}
	.st8{fill:url(#SVGID_00000070821074207363190620000002144742220024632205_);}
	.st9{fill:url(#SVGID_00000106112823574358882020000000600987124498973354_);}
	.st10{fill:url(#SVGID_00000140710645741542077980000016728191786127047088_);}
	.st11{fill:url(#SVGID_00000165926126997247420680000011587151976971501732_);}
	.st12{fill:url(#SVGID_00000119117909724852562900000003241248491032884639_);}
	.st13{fill:url(#SVGID_00000106142551973760660100000005677936707056092089_);}
	.st14{fill:url(#SVGID_00000036967925435383925340000017547246408744170418_);}
	.st15{fill:url(#SVGID_00000083810720330098442530000012028371673171141556_);}
	.st16{fill:url(#SVGID_00000042700376013876921580000016867137765595183789_);}
	.st17{fill:url(#SVGID_00000118368205196812217430000012360787315142278048_);}
	.st18{fill:url(#SVGID_00000121981615794698036200000011233716815398632343_);}
	.st19{fill:url(#SVGID_00000116220474796831424140000009230136974586684341_);}
	.st20{fill:url(#SVGID_00000060728604195584908510000013751732304678397573_);}
	.st21{fill:url(#SVGID_00000100377631231866228280000000007608360319340175_);}
	.st22{fill:url(#SVGID_00000011016138509812076460000014280302162013576333_);}
	.st23{fill:url(#SVGID_00000115492545397271715490000014771874628927412361_);}
	.st24{fill:url(#SVGID_00000088110817918917996400000018395371382801639826_);}
	.st25{fill:url(#SVGID_00000090270163403274251090000017771818521080229261_);}
	.st26{fill:url(#SVGID_00000172428028094169903480000011822564640466555283_);}
	.st27{fill:url(#SVGID_00000097495675191051836200000002526689121394374031_);}
	.st28{fill:url(#SVGID_00000126285867284467852580000014832566586192561028_);}
	.st29{fill:url(#SVGID_00000018939910058856249600000005768757944495813048_);}
	.st30{fill:url(#SVGID_00000057138006544774396880000007040193624600833465_);}
	.st31{fill:url(#SVGID_00000119797912064133143340000002717580125691367851_);}
	.st32{fill:url(#SVGID_00000090261759467955430360000001840147658514206619_);}
	.st33{fill:url(#SVGID_00000020400925014706664800000014059898733442399873_);}
	.st34{fill:#17A9D9;}
	.st35{fill:#00CAB4;}
	.st36{fill:url(#SVGID_00000152237328043906731490000011234854015078530728_);}
	.st37{fill:url(#SVGID_00000003102914987645036240000008938481298503385790_);}
	.st38{fill:url(#SVGID_00000007417473201353533150000001366365180321588634_);}
	.st39{fill:url(#SVGID_00000083779065805587485490000002489589615657796008_);}
	.st40{fill:url(#SVGID_00000140725688643034724400000004818808788028879510_);}
	.st41{fill:url(#SVGID_00000062190490078725367000000006684912256104276668_);}
	.st42{fill:url(#SVGID_00000015348566643027692900000006794569513624081571_);}
	.st43{fill:url(#SVGID_00000004514518751247918480000017168085564347085698_);}
	.st44{fill:url(#SVGID_00000147942298157146847970000012872586763512820114_);}
	.st45{fill:url(#SVGID_00000126304277576156898260000005307961138146689681_);}
	.st46{fill:url(#SVGID_00000111881119928361263170000016533817189837197450_);}
	.st47{fill:url(#SVGID_00000118385497885412166940000012216467694787986871_);}
	.st48{fill:url(#SVGID_00000144329018311959531300000008158513471153988491_);}
</style>
<g>
	<linearGradient id="SVGID_1_" gradientUnits="userSpaceOnUse" x1="46.8878" y1="66.0635" x2="267.9872" y2="66.0635">
		<stop  offset="0" style="stop-color:#17A9D9"/>
		<stop  offset="1" style="stop-color:#00CAB4"/>
	</linearGradient>
	<path class="st0" d="M230.7,67.51l-1.85-2.88h10.19l2.63,2.88l4.59,5.08l2.6,2.88h-24.9c-2.48-0.13-4.7-1.21-6.3-2.88
		c-1.32-1.37-2.22-3.12-2.52-5.08c-0.07-0.47-0.11-0.95-0.11-1.44s0.04-0.97,0.11-1.44c0.3-1.96,1.2-3.71,2.52-5.08
		c0.04-0.05,0.08-0.09,0.13-0.14c1.7-1.7,4.05-2.75,6.65-2.75h7.31l2.64,2.89h-9.95c-3.1,0-5.7,2.17-6.36,5.08
		c-0.1,0.46-0.16,0.94-0.16,1.44s0.06,0.98,0.16,1.44c0.66,2.91,3.26,5.08,6.36,5.08h17.94l-4.59-5.08H230.7"/>
	
		<linearGradient id="SVGID_00000150078089968067629100000004918028614769800101_" gradientUnits="userSpaceOnUse" x1="46.8878" y1="74.0235" x2="267.9872" y2="74.0235">
		<stop  offset="0" style="stop-color:#17A9D9"/>
		<stop  offset="1" style="stop-color:#00CAB4"/>
	</linearGradient>
	<polygon style="fill:url(#SVGID_00000150078089968067629100000004918028614769800101_);" points="269.34,72.58 269.34,75.47 
		252.83,75.47 250.22,72.58 	"/>
	
		<linearGradient id="SVGID_00000108287773376674551360000012207875691923162252_" gradientUnits="userSpaceOnUse" x1="46.8878" y1="66.0584" x2="267.9872" y2="66.0584">
		<stop  offset="0" style="stop-color:#17A9D9"/>
		<stop  offset="1" style="stop-color:#00CAB4"/>
	</linearGradient>
	<polygon style="fill:url(#SVGID_00000108287773376674551360000012207875691923162252_);" points="267.83,64.62 267.83,67.5 
		245.63,67.5 243.03,64.62 	"/>
	
		<linearGradient id="SVGID_00000160181283618365256540000017283810300161601931_" gradientUnits="userSpaceOnUse" x1="46.8878" y1="58.0985" x2="267.9872" y2="58.0985">
		<stop  offset="0" style="stop-color:#17A9D9"/>
		<stop  offset="1" style="stop-color:#00CAB4"/>
	</linearGradient>
	<polygon style="fill:url(#SVGID_00000160181283618365256540000017283810300161601931_);" points="269.34,56.66 269.34,59.54 
		238.44,59.54 235.84,56.66 	"/>
	
		<linearGradient id="SVGID_00000147935666008036505860000011587509463533342884_" gradientUnits="userSpaceOnUse" x1="46.8878" y1="74.0235" x2="267.9872" y2="74.0235">
		<stop  offset="0" style="stop-color:#17A9D9"/>
		<stop  offset="1" style="stop-color:#00CAB4"/>
	</linearGradient>
	<polygon style="fill:url(#SVGID_00000147935666008036505860000011587509463533342884_);" points="81.91,75.22 81.91,75.47 
		48.4,75.47 48.4,72.58 79.53,72.58 	"/>
	
		<linearGradient id="SVGID_00000044897030342432595320000007516701079217632905_" gradientUnits="userSpaceOnUse" x1="46.8878" y1="66.0584" x2="267.9872" y2="66.0584">
		<stop  offset="0" style="stop-color:#17A9D9"/>
		<stop  offset="1" style="stop-color:#00CAB4"/>
	</linearGradient>
	<polygon style="fill:url(#SVGID_00000044897030342432595320000007516701079217632905_);" points="74.95,67.5 48.4,67.5 48.4,64.62 
		72.35,64.62 	"/>
	
		<linearGradient id="SVGID_00000128445178707903743430000011034018826215143596_" gradientUnits="userSpaceOnUse" x1="46.8878" y1="58.0985" x2="267.9872" y2="58.0985">
		<stop  offset="0" style="stop-color:#17A9D9"/>
		<stop  offset="1" style="stop-color:#00CAB4"/>
	</linearGradient>
	<polygon style="fill:url(#SVGID_00000128445178707903743430000011034018826215143596_);" points="67.76,59.54 48.4,59.54 
		48.4,56.66 65.16,56.66 	"/>
	
		<linearGradient id="SVGID_00000157287661752930245740000009746207077422005670_" gradientUnits="userSpaceOnUse" x1="46.8878" y1="65.9235" x2="267.9872" y2="65.9235">
		<stop  offset="0" style="stop-color:#17A9D9"/>
		<stop  offset="1" style="stop-color:#00CAB4"/>
	</linearGradient>
	<polygon style="fill:url(#SVGID_00000157287661752930245740000009746207077422005670_);" points="102.78,56.66 87.99,73.04 
		86.05,75.19 84.11,73.04 69.31,56.66 73.2,56.66 86.05,70.89 98.9,56.66 	"/>
	
		<linearGradient id="SVGID_00000016759259840598889050000017042948976307978632_" gradientUnits="userSpaceOnUse" x1="46.8878" y1="66.1435" x2="267.9872" y2="66.1435">
		<stop  offset="0" style="stop-color:#17A9D9"/>
		<stop  offset="1" style="stop-color:#00CAB4"/>
	</linearGradient>
	<polygon style="fill:url(#SVGID_00000016759259840598889050000017042948976307978632_);" points="139.04,56.82 139.04,75.47 
		136.16,75.47 136.16,62.79 136.07,62.98 124.42,72.83 122.25,74.66 120.07,72.83 108.42,62.98 108.33,62.79 108.33,75.47 
		105.45,75.47 105.45,56.82 108.33,59.25 122.25,70.99 136.16,59.25 	"/>
	
		<linearGradient id="SVGID_00000106136157697147542670000009942723476154482869_" gradientUnits="userSpaceOnUse" x1="46.8878" y1="58.0985" x2="267.9872" y2="58.0985">
		<stop  offset="0" style="stop-color:#17A9D9"/>
		<stop  offset="1" style="stop-color:#00CAB4"/>
	</linearGradient>
	<polygon style="fill:url(#SVGID_00000106136157697147542670000009942723476154482869_);" points="142.52,59.54 142.52,56.66 
		175.92,56.66 175.92,59.54 	"/>
	
		<linearGradient id="SVGID_00000126290816846444141750000008173858585154068915_" gradientUnits="userSpaceOnUse" x1="46.8878" y1="74.0285" x2="267.9872" y2="74.0285">
		<stop  offset="0" style="stop-color:#17A9D9"/>
		<stop  offset="1" style="stop-color:#00CAB4"/>
	</linearGradient>
	<polygon style="fill:url(#SVGID_00000126290816846444141750000008173858585154068915_);" points="142.52,75.47 142.52,72.59 
		175.92,72.59 175.92,75.47 	"/>
	
		<linearGradient id="SVGID_00000010273489033850860460000000976993302535494303_" gradientUnits="userSpaceOnUse" x1="46.8878" y1="66.0635" x2="267.9872" y2="66.0635">
		<stop  offset="0" style="stop-color:#17A9D9"/>
		<stop  offset="1" style="stop-color:#00CAB4"/>
	</linearGradient>
	<polygon style="fill:url(#SVGID_00000010273489033850860460000000976993302535494303_);" points="142.52,67.5 142.52,64.62 
		174.42,64.62 174.42,67.5 	"/>
	
		<linearGradient id="SVGID_00000045599693635000136950000011911547732136790400_" gradientUnits="userSpaceOnUse" x1="46.8878" y1="66.0635" x2="267.9872" y2="66.0635">
		<stop  offset="0" style="stop-color:#17A9D9"/>
		<stop  offset="1" style="stop-color:#00CAB4"/>
	</linearGradient>
	<path style="fill:url(#SVGID_00000045599693635000136950000011911547732136790400_);" d="M214.19,75.47h-3.82l-7.11-7.96h-20.9
		v7.96h-2.88V64.62h23.31c0,0,0,0,0,0.01h4.73v-0.01h0.05c1.41,0,2.55-1.13,2.55-2.54c0-1.4-1.14-2.54-2.55-2.54h-28.09v-2.88h28.09
		c0.92,0,1.79,0.23,2.55,0.64c0.48,0.25,0.91,0.57,1.29,0.95s0.7,0.81,0.95,1.29c0.41,0.76,0.64,1.62,0.64,2.54
		s-0.23,1.79-0.64,2.55c-0.25,0.48-0.57,0.91-0.95,1.29c-0.38,0.38-0.81,0.7-1.29,0.95c-0.76,0.41-1.63,0.64-2.55,0.64h-0.05
		c-0.15,0-0.3-0.01-0.45-0.03l0.02,0.03L214.19,75.47z"/>
</g>
</svg>
