<?xml version="1.0" encoding="utf-8"?>
<!-- Generator: Adobe Illustrator 22.0.0, SVG Export Plug-In . SVG Version: 6.00 Build 0)  -->
<svg version="1.1" id="Layer_1" xmlns="http://www.w3.org/2000/svg" xmlns:xlink="http://www.w3.org/1999/xlink" x="0px" y="0px"
	 viewBox="0 0 140 140" style="enable-background:new 0 0 140 140;" xml:space="preserve">
<style type="text/css">
	.st0{fill:#FFFFFF;}
	.st1{clip-path:url(#SVGID_2_);}
	.st2{opacity:0.51;clip-path:url(#SVGID_6_);}
	.st3{clip-path:url(#SVGID_8_);}
	.st4{filter:url(#Adobe_OpacityMaskFilter);}
	.st5{clip-path:url(#SVGID_10_);fill:url(#SVGID_12_);}
	.st6{clip-path:url(#SVGID_10_);mask:url(#SVGID_11_);fill:url(#SVGID_13_);}
	.st7{filter:url(#Adobe_OpacityMaskFilter_1_);}
	.st8{clip-path:url(#SVGID_15_);fill:url(#SVGID_17_);}
	.st9{clip-path:url(#SVGID_15_);mask:url(#SVGID_16_);fill:url(#SVGID_18_);}
	.st10{clip-path:url(#SVGID_20_);fill:url(#SVGID_21_);}
	.st11{clip-path:url(#SVGID_23_);fill:url(#SVGID_24_);}
	.st12{clip-path:url(#SVGID_26_);fill:url(#SVGID_27_);}
	.st13{clip-path:url(#SVGID_29_);fill:#FFFFFF;}
	.st14{clip-path:url(#SVGID_29_);fill:#E9EBEB;}
	.st15{clip-path:url(#SVGID_29_);fill:#E0E1E3;}
	.st16{opacity:0.1;clip-path:url(#SVGID_31_);}
	.st17{clip-path:url(#SVGID_33_);}
	.st18{clip-path:url(#SVGID_31_);fill:#FFFFFF;}
	.st19{opacity:0.21;clip-path:url(#SVGID_31_);}
	.st20{clip-path:url(#SVGID_39_);}
	.st21{clip-path:url(#SVGID_43_);fill:url(#SVGID_44_);}
	.st22{clip-path:url(#SVGID_46_);}
	.st23{clip-path:url(#SVGID_50_);fill:url(#SVGID_51_);}
	.st24{opacity:0.81;clip-path:url(#SVGID_53_);}
	.st25{clip-path:url(#SVGID_55_);}
	.st26{clip-path:url(#SVGID_59_);}
	.st27{clip-path:url(#SVGID_63_);fill:#606060;}
	.st28{clip-path:url(#SVGID_63_);fill:none;stroke:#606060;stroke-miterlimit:10;}
	.st29{clip-path:url(#SVGID_65_);fill:url(#SVGID_66_);}
	.st30{opacity:0.3;clip-path:url(#SVGID_68_);}
	.st31{clip-path:url(#SVGID_70_);}
	.st32{clip-path:url(#SVGID_74_);}
	.st33{opacity:0.3;clip-path:url(#SVGID_78_);}
	.st34{clip-path:url(#SVGID_80_);}
	.st35{clip-path:url(#SVGID_84_);}
	.st36{opacity:0.3;clip-path:url(#SVGID_88_);}
	.st37{clip-path:url(#SVGID_90_);}
	.st38{clip-path:url(#SVGID_88_);fill:#FFFFFF;}
	.st39{clip-path:url(#SVGID_94_);fill:url(#SVGID_95_);}
	.st40{clip-path:url(#SVGID_97_);}
	.st41{clip-path:url(#SVGID_101_);}
	.st42{clip-path:url(#SVGID_105_);}
	.st43{clip-path:url(#SVGID_109_);}
	.st44{clip-path:url(#SVGID_113_);}
	.st45{clip-path:url(#SVGID_115_);}
	.st46{filter:url(#Adobe_OpacityMaskFilter_2_);}
	.st47{clip-path:url(#SVGID_117_);fill:url(#SVGID_119_);}
	.st48{clip-path:url(#SVGID_117_);mask:url(#SVGID_118_);fill:url(#SVGID_120_);}
	.st49{clip-path:url(#SVGID_122_);}
	.st50{clip-path:url(#SVGID_124_);}
	.st51{filter:url(#Adobe_OpacityMaskFilter_3_);}
	.st52{clip-path:url(#SVGID_126_);fill:url(#SVGID_128_);}
	.st53{clip-path:url(#SVGID_126_);mask:url(#SVGID_127_);fill:url(#SVGID_129_);}
	.st54{clip-path:url(#SVGID_131_);}
	.st55{clip-path:url(#SVGID_133_);}
	.st56{filter:url(#Adobe_OpacityMaskFilter_4_);}
	.st57{clip-path:url(#SVGID_135_);fill:url(#SVGID_137_);}
	.st58{clip-path:url(#SVGID_135_);mask:url(#SVGID_136_);fill:url(#SVGID_138_);}
	.st59{clip-path:url(#SVGID_140_);}
	.st60{clip-path:url(#SVGID_142_);}
	.st61{filter:url(#Adobe_OpacityMaskFilter_5_);}
	.st62{clip-path:url(#SVGID_144_);fill:url(#SVGID_146_);}
	.st63{clip-path:url(#SVGID_144_);mask:url(#SVGID_145_);fill:url(#SVGID_147_);}
	.st64{opacity:0.6;clip-path:url(#SVGID_149_);}
	.st65{clip-path:url(#SVGID_151_);}
	.st66{clip-path:url(#SVGID_155_);}
	.st67{clip-path:url(#SVGID_159_);}
	.st68{clip-path:url(#SVGID_161_);}
	.st69{filter:url(#Adobe_OpacityMaskFilter_6_);}
	.st70{clip-path:url(#SVGID_163_);fill:url(#SVGID_165_);}
	.st71{clip-path:url(#SVGID_163_);mask:url(#SVGID_164_);fill:url(#SVGID_166_);}
	.st72{clip-path:url(#SVGID_168_);fill:url(#SVGID_169_);}
	.st73{opacity:0.3;}
	.st74{clip-path:url(#SVGID_171_);}
	.st75{fill:none;}
	.st76{clip-path:url(#SVGID_175_);}
	.st77{clip-path:url(#SVGID_177_);fill:url(#SVGID_178_);}
	.st78{clip-path:url(#SVGID_180_);}
	.st79{opacity:0.67;}
	.st80{clip-path:url(#SVGID_184_);}
	.st81{clip-path:url(#SVGID_186_);fill:url(#SVGID_187_);}
	.st82{clip-path:url(#SVGID_189_);}
	.st83{clip-path:url(#SVGID_193_);}
	.st84{clip-path:url(#SVGID_197_);}
	.st85{clip-path:url(#SVGID_201_);}
</style>
<g>
	<path class="st0" d="M129.5,48.1v77.3c-0.7,1.4-1.6,2.6-3.4,2.6c-2.2,0-4.3,0.1-6.5,0c-1.7-0.1-2.9-1.2-3.2-2.8
		c-0.1-0.6-0.1-1.2-0.1-1.7c0-20.7,0-41.3,0-62c0-2-0.2-2.2-2.2-2.2c-29.4,0-58.7,0-88.1,0c-2.1,0-2.2,0.2-2.2,2.2
		c0,20.6,0,41.2,0,61.8c0,0.4,0,0.8,0,1.2c-0.1,2.2-1.5,3.6-3.7,3.6c-1.7,0-3.3,0-5,0c-3.3,0-4.5-1.2-4.5-4.5c0-24.6,0-49.1,0-73.7
		c0-2.8,1.1-4.8,3.5-6.2C31.5,33.5,49,23.2,66.5,13c2.4-1.4,4.7-1.4,7.1,0c17.3,10.2,34.7,20.4,52,30.5
		C127.5,44.6,128.9,46,129.5,48.1"/>
	<path class="st0" d="M103.8,89.5c0.6,3.1,1.3,6.1,1.8,9.1c0.3,1.6,0.3,3.2,0.4,4.7c0,4.6,0,9.2,0,13.8c0,4.2-2.4,6.7-6.6,6.6
		c-1.1,0-2.3-0.1-3.3-0.4c-2.3-0.6-3.9-2.8-4-5.2c0-1,0-2.1,0-3.2H47.9c0,0.9,0,1.8,0,2.7c-0.1,3.3-2.2,5.7-5.5,5.9
		c-1.3,0.1-2.6,0.1-3.9-0.1c-2.5-0.4-4.5-2.7-4.5-5.3c0-6.1-0.1-12.2,0.2-18.3c0.2-3,1.1-6,1.7-9c0.1-0.5,0.3-0.9,0.4-1.4
		c-3.7-2.1-5-4.3-4-7c0.9-2.5,2.7-3,7.7-2.1c0.8-2.1,1.7-4.1,2.6-6.3c0.9-2.3,2.3-4.1,4.2-5.5c2.2-1.6,4.7-2.5,7.4-2.5
		c10.4,0,20.8-0.1,31.2,0c5.5,0.1,9.4,2.8,11.6,7.8c1,2.1,1.8,4.3,2.7,6.6c2.1-0.5,4.2-1.4,6.2,0.1c0.7,0.6,1.3,1.4,1.6,2.3
		C108.6,85.5,107.2,87.7,103.8,89.5 M69.9,90c7.4,0,14.8,0,22.2,0c0.4,0,0.9,0,1.3,0c2.7-0.2,3.8-1.9,2.9-4.4
		c-1.5-3.9-3.1-7.8-4.8-11.7c-1.3-2.9-3.7-4.3-6.8-4.3c-9.7,0-19.4,0-29.1,0c-3.3,0-5.7,1.6-7,4.7c-1.6,3.6-3,7.3-4.5,10.9
		c-1.2,3,0,4.7,3.2,4.8c0.3,0,0.7,0,1,0C55.4,90,62.7,90,69.9,90 M49.2,98.4c-1.5,0-3,0-4.5,0c-0.1,0-0.2,0-0.2,0
		c-1.6,0.1-2.5,1-2.5,2.6c0,1.1,0,2.2,0,3.2c0,1.8,0.9,2.8,2.7,2.8c3.1,0.1,6.1,0.1,9.2,0c1.7,0,2.6-0.9,2.7-2.7c0-1,0-2.1,0-3.1
		c-0.1-1.9-0.9-2.7-2.8-2.8C52.2,98.4,50.7,98.4,49.2,98.4 M90.7,98.4L90.7,98.4c-1.6,0-3.2,0-4.8,0c-1.6,0.1-2.4,0.9-2.5,2.5
		c0,1.2,0,2.4,0,3.6c0,1.5,0.8,2.3,2.2,2.5c0.5,0.1,1,0,1.5,0c2.6,0,5.1,0,7.7,0c2.2,0,3-0.9,3-3c0-0.9,0-1.8,0-2.7
		c0-2.1-0.8-2.9-2.8-3C93.6,98.4,92.1,98.4,90.7,98.4"/>
</g>
</svg>
