<?xml version="1.0" encoding="utf-8"?>
<!-- Generator: Adobe Illustrator 22.0.0, SVG Export Plug-In . SVG Version: 6.00 Build 0)  -->
<svg version="1.1" id="Layer_1" xmlns="http://www.w3.org/2000/svg" xmlns:xlink="http://www.w3.org/1999/xlink" x="0px" y="0px"
	 viewBox="0 0 140 140" style="enable-background:new 0 0 140 140;" xml:space="preserve">
<style type="text/css">
	.st0{fill:#FFFFFF;}
	.st1{clip-path:url(#SVGID_2_);}
	.st2{opacity:0.51;clip-path:url(#SVGID_6_);}
	.st3{clip-path:url(#SVGID_8_);}
	.st4{filter:url(#Adobe_OpacityMaskFilter);}
	.st5{clip-path:url(#SVGID_10_);fill:url(#SVGID_12_);}
	.st6{clip-path:url(#SVGID_10_);mask:url(#SVGID_11_);fill:url(#SVGID_13_);}
	.st7{filter:url(#Adobe_OpacityMaskFilter_1_);}
	.st8{clip-path:url(#SVGID_15_);fill:url(#SVGID_17_);}
	.st9{clip-path:url(#SVGID_15_);mask:url(#SVGID_16_);fill:url(#SVGID_18_);}
	.st10{clip-path:url(#SVGID_20_);fill:url(#SVGID_21_);}
	.st11{clip-path:url(#SVGID_23_);fill:url(#SVGID_24_);}
	.st12{clip-path:url(#SVGID_26_);fill:url(#SVGID_27_);}
	.st13{clip-path:url(#SVGID_29_);fill:#FFFFFF;}
	.st14{clip-path:url(#SVGID_29_);fill:#E9EBEB;}
	.st15{clip-path:url(#SVGID_29_);fill:#E0E1E3;}
	.st16{opacity:0.1;clip-path:url(#SVGID_31_);}
	.st17{clip-path:url(#SVGID_33_);}
	.st18{clip-path:url(#SVGID_31_);fill:#FFFFFF;}
	.st19{opacity:0.21;clip-path:url(#SVGID_31_);}
	.st20{clip-path:url(#SVGID_39_);}
	.st21{clip-path:url(#SVGID_43_);fill:url(#SVGID_44_);}
	.st22{clip-path:url(#SVGID_46_);}
	.st23{clip-path:url(#SVGID_50_);fill:url(#SVGID_51_);}
	.st24{opacity:0.81;clip-path:url(#SVGID_53_);}
	.st25{clip-path:url(#SVGID_55_);}
	.st26{clip-path:url(#SVGID_59_);}
	.st27{clip-path:url(#SVGID_63_);fill:#606060;}
	.st28{clip-path:url(#SVGID_63_);fill:none;stroke:#606060;stroke-miterlimit:10;}
	.st29{clip-path:url(#SVGID_65_);fill:url(#SVGID_66_);}
	.st30{opacity:0.3;clip-path:url(#SVGID_68_);}
	.st31{clip-path:url(#SVGID_70_);}
	.st32{clip-path:url(#SVGID_74_);}
	.st33{opacity:0.3;clip-path:url(#SVGID_78_);}
	.st34{clip-path:url(#SVGID_80_);}
	.st35{clip-path:url(#SVGID_84_);}
	.st36{opacity:0.3;clip-path:url(#SVGID_88_);}
	.st37{clip-path:url(#SVGID_90_);}
	.st38{clip-path:url(#SVGID_88_);fill:#FFFFFF;}
	.st39{clip-path:url(#SVGID_94_);fill:url(#SVGID_95_);}
	.st40{clip-path:url(#SVGID_97_);}
	.st41{clip-path:url(#SVGID_101_);}
	.st42{clip-path:url(#SVGID_105_);}
	.st43{clip-path:url(#SVGID_109_);}
	.st44{clip-path:url(#SVGID_113_);}
	.st45{clip-path:url(#SVGID_115_);}
	.st46{filter:url(#Adobe_OpacityMaskFilter_2_);}
	.st47{clip-path:url(#SVGID_117_);fill:url(#SVGID_119_);}
	.st48{clip-path:url(#SVGID_117_);mask:url(#SVGID_118_);fill:url(#SVGID_120_);}
	.st49{clip-path:url(#SVGID_122_);}
	.st50{clip-path:url(#SVGID_124_);}
	.st51{filter:url(#Adobe_OpacityMaskFilter_3_);}
	.st52{clip-path:url(#SVGID_126_);fill:url(#SVGID_128_);}
	.st53{clip-path:url(#SVGID_126_);mask:url(#SVGID_127_);fill:url(#SVGID_129_);}
	.st54{clip-path:url(#SVGID_131_);}
	.st55{clip-path:url(#SVGID_133_);}
	.st56{filter:url(#Adobe_OpacityMaskFilter_4_);}
	.st57{clip-path:url(#SVGID_135_);fill:url(#SVGID_137_);}
	.st58{clip-path:url(#SVGID_135_);mask:url(#SVGID_136_);fill:url(#SVGID_138_);}
	.st59{clip-path:url(#SVGID_140_);}
	.st60{clip-path:url(#SVGID_142_);}
	.st61{filter:url(#Adobe_OpacityMaskFilter_5_);}
	.st62{clip-path:url(#SVGID_144_);fill:url(#SVGID_146_);}
	.st63{clip-path:url(#SVGID_144_);mask:url(#SVGID_145_);fill:url(#SVGID_147_);}
	.st64{opacity:0.6;clip-path:url(#SVGID_149_);}
	.st65{clip-path:url(#SVGID_151_);}
	.st66{clip-path:url(#SVGID_155_);}
	.st67{clip-path:url(#SVGID_159_);}
	.st68{clip-path:url(#SVGID_161_);}
	.st69{filter:url(#Adobe_OpacityMaskFilter_6_);}
	.st70{clip-path:url(#SVGID_163_);fill:url(#SVGID_165_);}
	.st71{clip-path:url(#SVGID_163_);mask:url(#SVGID_164_);fill:url(#SVGID_166_);}
	.st72{clip-path:url(#SVGID_168_);fill:url(#SVGID_169_);}
	.st73{opacity:0.3;}
	.st74{clip-path:url(#SVGID_171_);}
	.st75{fill:none;}
	.st76{clip-path:url(#SVGID_175_);}
	.st77{clip-path:url(#SVGID_177_);fill:url(#SVGID_178_);}
	.st78{clip-path:url(#SVGID_180_);}
	.st79{opacity:0.67;}
	.st80{clip-path:url(#SVGID_184_);}
	.st81{clip-path:url(#SVGID_186_);fill:url(#SVGID_187_);}
	.st82{clip-path:url(#SVGID_189_);}
	.st83{clip-path:url(#SVGID_193_);}
	.st84{clip-path:url(#SVGID_197_);}
	.st85{clip-path:url(#SVGID_201_);}
</style>
<g>
	<path class="st0" d="M73.6,120.1h-1.2c-13.7,0-27.3,0-41,0c-0.9,0-1.4,0.2-1.6,1.2c-1.2,4.5-5.4,7.3-10,6.7
		c-4.4-0.6-7.7-4.3-7.8-8.8c-0.1-8.1-0.1-16.1,0-24.2c0.1-5.5,2.8-9.5,7.6-12.2c0.5-0.3,0.9-0.8,1.1-1.3c1.4-4.3,2.8-8.6,4.2-12.9
		c1.7-5.2,5.4-7.9,10.8-7.9c10.8,0,21.6,0,32.4,0c5.4,0,9.1,2.7,10.7,7.9c1.4,4.2,2.7,8.4,4.1,12.6c0.2,0.7,0.6,1.2,1.3,1.6
		c4.8,2.5,7.4,6.5,7.5,11.9c0.1,8.4,0.1,16.9,0,25.3c0,4.1-3.9,7.7-8.3,8c-4.7,0.3-8.5-2.4-9.6-7.1
		C73.8,120.7,73.7,120.5,73.6,120.1 M51.9,90.4c-8.6,0-17.2,0-25.8,0c-3.3,0-5.2,1.9-5.2,5.1c0,3.5,0,7,0,10.5c0,3.1,1.9,5,5,5
		c17.2,0,34.5,0,51.7,0c3.1,0,5-1.8,5-5c0-3.4,0-6.9,0-10.3c0-3.8-1.6-5.4-5.5-5.4C68.8,90.4,60.3,90.4,51.9,90.4 M73.4,81.3
		c-1.2-3.6-2.3-7.1-3.5-10.6c-0.2-0.4-1.1-0.9-1.6-0.9c-10.9-0.1-21.8,0-32.8,0c-1,0-1.6,0.5-2,1.4c-1,3.2-2.1,6.4-3.1,9.5
		c-0.1,0.2,0,0.4,0,0.6H73.4z"/>
	<path class="st0" d="M57.1,51.8c0.4-1.3,0.8-2.6,1.3-3.8c1-2.9,2-5.9,3-8.8c1.6-4.6,5.4-7.3,10.3-7.3c11,0,22.1,0,33.1,0
		c4.8,0,8.6,2.7,10.2,7.3c1.5,4.1,2.8,8.3,4.3,12.4c0.2,0.5,0.7,1.1,1.2,1.4c4.9,2.6,7.6,6.6,7.7,12.1c0.1,8.4,0.1,16.8,0,25.2
		c0,4-3.6,7.5-7.9,8c-4.8,0.5-8.8-2.2-10-7c-0.1-0.3-0.2-0.5-0.3-0.9c-1.6,0-3.2,0-4.7,0c-1.6,0-3.1,0-4.4,0
		c-1.4-3.2-2.7-6.1-4.1-9.1h1.7c5.2,0,10.3,0,15.5,0c3.2,0,5-1.8,5-5c0-3.6,0-7.2,0-10.8c0-3.1-1.8-4.9-4.9-4.9
		c-9.3,0-18.5,0-27.8,0c-0.5,0-1.2-0.3-1.5-0.6c-3.1-4.3-7.2-7-12.5-8.1c-0.3-0.1-0.6-0.2-0.9-0.4h38.3c-0.7-2-1.3-3.8-1.9-5.6
		c-0.4-1.2-0.9-2.4-1.3-3.7c-0.3-1-0.9-1.4-2-1.4c-10.9,0-21.8,0-32.7,0c-1.1,0-1.7,0.5-2,1.5c-0.9,2.8-1.9,5.7-2.9,8.5
		c-0.1,0.3-0.5,0.9-0.8,0.9C63.2,51.9,60.2,51.8,57.1,51.8"/>
	<path class="st0" d="M39.5,31.9h14.9c-1,2.9-2,5.7-3.1,8.5c-0.1,0.3-0.8,0.5-1.1,0.5c-5,0-9.9,0-14.9,0c-3.4,0-5.2,1.9-5.2,5.2
		c0,1.7,0,3.5,0,5.2c0,0.4-0.3,0.9-0.5,1c-3.1,1-5.9,2.6-8.3,4.9C21.1,57.1,21,57,21,56.9c0-4.3-0.2-8.6,0.2-12.9
		c0.4-4.8,3.1-8.2,7.3-10.6c0.6-0.3,1.1-0.9,1.3-1.5c1.4-4.1,2.8-8.2,4.1-12.2c1.7-4.9,5.5-7.7,10.7-7.7c10.8,0,21.7,0,32.5,0
		c5.4,0,9.4,3,10.8,8.3c0.2,0.8,0.4,1.6,0.7,2.6h-5.1c-0.9,0-1.9,0-2.8,0c-1,0-2,0.1-2.4-1.2c-0.1-0.3-0.8-0.6-1.2-0.6
		c-10.9,0-21.9,0-32.8,0c-0.6,0-1.5,0.5-1.6,1C41.6,25.3,40.6,28.5,39.5,31.9"/>
	<path class="st0" d="M98.5,75.5c-2.5,0-5,0-7.4,0c-0.2,0-0.6-0.3-0.7-0.5c-0.9-2.8-1.8-5.6-2.7-8.5h10.8V75.5z"/>
	<path class="st0" d="M113.3,70.9c0,2.5-2.1,4.6-4.5,4.6c-2.5,0-4.5-2.1-4.6-4.5c0-2.5,2.1-4.5,4.5-4.6
		C111.2,66.4,113.3,68.4,113.3,70.9"/>
	<path class="st0" d="M40.5,54.8c-2.5,0-4.6-2-4.6-4.5c0-2.5,2-4.5,4.5-4.5c2.5,0,4.6,2,4.6,4.5C45,52.7,43,54.8,40.5,54.8"/>
	<rect x="41.7" y="96.1" class="st0" width="20.5" height="8.9"/>
	<path class="st0" d="M72.4,96.1c2.5,0,4.6,2,4.6,4.5c0,2.5-2,4.5-4.5,4.6c-2.5,0-4.6-2-4.6-4.5C67.9,98.2,69.9,96.1,72.4,96.1"/>
	<path class="st0" d="M26.9,100.6c0-2.5,2-4.5,4.5-4.5c2.5,0,4.5,2.1,4.5,4.6c0,2.5-2.1,4.5-4.6,4.5
		C28.9,105.1,26.9,103.1,26.9,100.6"/>
</g>
</svg>
