<?xml version="1.0" encoding="utf-8"?>
<!-- Generator: Adobe Illustrator 22.0.0, SVG Export Plug-In . SVG Version: 6.00 Build 0)  -->
<svg version="1.1" id="Layer_1" xmlns="http://www.w3.org/2000/svg" xmlns:xlink="http://www.w3.org/1999/xlink" x="0px" y="0px"
	 viewBox="0 0 140 140" style="enable-background:new 0 0 140 140;" xml:space="preserve">
<style type="text/css">
	.st0{fill:#FFFFFF;}
	.st1{clip-path:url(#SVGID_2_);}
	.st2{opacity:0.51;clip-path:url(#SVGID_6_);}
	.st3{clip-path:url(#SVGID_8_);}
	.st4{filter:url(#Adobe_OpacityMaskFilter);}
	.st5{clip-path:url(#SVGID_10_);fill:url(#SVGID_12_);}
	.st6{clip-path:url(#SVGID_10_);mask:url(#SVGID_11_);fill:url(#SVGID_13_);}
	.st7{filter:url(#Adobe_OpacityMaskFilter_1_);}
	.st8{clip-path:url(#SVGID_15_);fill:url(#SVGID_17_);}
	.st9{clip-path:url(#SVGID_15_);mask:url(#SVGID_16_);fill:url(#SVGID_18_);}
	.st10{clip-path:url(#SVGID_20_);fill:url(#SVGID_21_);}
	.st11{clip-path:url(#SVGID_23_);fill:url(#SVGID_24_);}
	.st12{clip-path:url(#SVGID_26_);fill:url(#SVGID_27_);}
	.st13{clip-path:url(#SVGID_29_);fill:#FFFFFF;}
	.st14{clip-path:url(#SVGID_29_);fill:#E9EBEB;}
	.st15{clip-path:url(#SVGID_29_);fill:#E0E1E3;}
	.st16{opacity:0.1;clip-path:url(#SVGID_31_);}
	.st17{clip-path:url(#SVGID_33_);}
	.st18{clip-path:url(#SVGID_31_);fill:#FFFFFF;}
	.st19{opacity:0.21;clip-path:url(#SVGID_31_);}
	.st20{clip-path:url(#SVGID_39_);}
	.st21{clip-path:url(#SVGID_43_);fill:url(#SVGID_44_);}
	.st22{clip-path:url(#SVGID_46_);}
	.st23{clip-path:url(#SVGID_50_);fill:url(#SVGID_51_);}
	.st24{opacity:0.81;clip-path:url(#SVGID_53_);}
	.st25{clip-path:url(#SVGID_55_);}
	.st26{clip-path:url(#SVGID_59_);}
	.st27{clip-path:url(#SVGID_63_);fill:#606060;}
	.st28{clip-path:url(#SVGID_63_);fill:none;stroke:#606060;stroke-miterlimit:10;}
	.st29{clip-path:url(#SVGID_65_);fill:url(#SVGID_66_);}
	.st30{opacity:0.3;clip-path:url(#SVGID_68_);}
	.st31{clip-path:url(#SVGID_70_);}
	.st32{clip-path:url(#SVGID_74_);}
	.st33{opacity:0.3;clip-path:url(#SVGID_78_);}
	.st34{clip-path:url(#SVGID_80_);}
	.st35{clip-path:url(#SVGID_84_);}
	.st36{opacity:0.3;clip-path:url(#SVGID_88_);}
	.st37{clip-path:url(#SVGID_90_);}
	.st38{clip-path:url(#SVGID_88_);fill:#FFFFFF;}
	.st39{clip-path:url(#SVGID_94_);fill:url(#SVGID_95_);}
	.st40{clip-path:url(#SVGID_97_);}
	.st41{clip-path:url(#SVGID_101_);}
	.st42{clip-path:url(#SVGID_105_);}
	.st43{clip-path:url(#SVGID_109_);}
	.st44{clip-path:url(#SVGID_113_);}
	.st45{clip-path:url(#SVGID_115_);}
	.st46{filter:url(#Adobe_OpacityMaskFilter_2_);}
	.st47{clip-path:url(#SVGID_117_);fill:url(#SVGID_119_);}
	.st48{clip-path:url(#SVGID_117_);mask:url(#SVGID_118_);fill:url(#SVGID_120_);}
	.st49{clip-path:url(#SVGID_122_);}
	.st50{clip-path:url(#SVGID_124_);}
	.st51{filter:url(#Adobe_OpacityMaskFilter_3_);}
	.st52{clip-path:url(#SVGID_126_);fill:url(#SVGID_128_);}
	.st53{clip-path:url(#SVGID_126_);mask:url(#SVGID_127_);fill:url(#SVGID_129_);}
	.st54{clip-path:url(#SVGID_131_);}
	.st55{clip-path:url(#SVGID_133_);}
	.st56{filter:url(#Adobe_OpacityMaskFilter_4_);}
	.st57{clip-path:url(#SVGID_135_);fill:url(#SVGID_137_);}
	.st58{clip-path:url(#SVGID_135_);mask:url(#SVGID_136_);fill:url(#SVGID_138_);}
	.st59{clip-path:url(#SVGID_140_);}
	.st60{clip-path:url(#SVGID_142_);}
	.st61{filter:url(#Adobe_OpacityMaskFilter_5_);}
	.st62{clip-path:url(#SVGID_144_);fill:url(#SVGID_146_);}
	.st63{clip-path:url(#SVGID_144_);mask:url(#SVGID_145_);fill:url(#SVGID_147_);}
	.st64{opacity:0.6;clip-path:url(#SVGID_149_);}
	.st65{clip-path:url(#SVGID_151_);}
	.st66{clip-path:url(#SVGID_155_);}
	.st67{clip-path:url(#SVGID_159_);}
	.st68{clip-path:url(#SVGID_161_);}
	.st69{filter:url(#Adobe_OpacityMaskFilter_6_);}
	.st70{clip-path:url(#SVGID_163_);fill:url(#SVGID_165_);}
	.st71{clip-path:url(#SVGID_163_);mask:url(#SVGID_164_);fill:url(#SVGID_166_);}
	.st72{clip-path:url(#SVGID_168_);fill:url(#SVGID_169_);}
	.st73{opacity:0.3;}
	.st74{clip-path:url(#SVGID_171_);}
	.st75{fill:none;}
	.st76{clip-path:url(#SVGID_175_);}
	.st77{clip-path:url(#SVGID_177_);fill:url(#SVGID_178_);}
	.st78{clip-path:url(#SVGID_180_);}
	.st79{opacity:0.67;}
	.st80{clip-path:url(#SVGID_184_);}
	.st81{clip-path:url(#SVGID_186_);fill:url(#SVGID_187_);}
	.st82{clip-path:url(#SVGID_189_);}
	.st83{clip-path:url(#SVGID_193_);}
	.st84{clip-path:url(#SVGID_197_);}
	.st85{clip-path:url(#SVGID_201_);}
</style>
<g>
	<path class="st0" d="M98.8,27c0.1,0,0.2,0,0.4,0v1.3c0,4.6,0,9.3,0,13.9c0,1.9,0.3,2.3,2.2,2.3c6.8,0,13.7,0,20.6,0
		c1.8,0,2.2-0.4,2.2-2.2c0-5.1,0-10.2,0-15.3c0.2,0,0.3,0,0.4,0.1c0.8,0.6,1.6,1.2,2.4,0.2c0.9-1.1,0-1.8-0.7-2.4
		c-4.3-3.7-8.5-7.3-12.8-11c-1.7-1.5-1.8-1.5-3.5,0c-4.3,3.7-8.5,7.3-12.8,11c-0.8,0.7-1.6,1.4-0.7,2.4C97.2,28.3,98,27.6,98.8,27"
		/>
	<path class="st0" d="M15.1,27.4c0.2-0.1,0.4-0.3,0.8-0.6c0,5.4,0,10.4,0,15.5c0,1.8,0.4,2.2,2.1,2.2c6.9,0,13.8,0,20.7,0
		c1.7,0,2.1-0.4,2.1-2.1c0-4.8,0-9.5,0-14.3c0-0.4,0.1-0.7,0.1-1.3c0.9,0.8,1.8,1.6,2.7,0.4c0.9-1.2-0.1-1.8-0.9-2.5
		c-4.3-3.7-8.6-7.4-12.9-11.2c-1-0.9-1.8-0.9-2.9,0c-2.1,1.9-4.3,3.8-6.5,5.6c-2.3,2-4.7,4-7,6.1c-0.6,0.6-0.9,1.2-0.3,2
		C13.6,27.9,14.3,27.9,15.1,27.4"/>
	<path class="st0" d="M42.9,107.6c-4.3-3.7-8.6-7.4-12.8-11.1c-1.5-1.3-1.8-1.3-3.3,0c-4.3,3.7-8.6,7.4-12.8,11.1
		c-0.7,0.6-1.5,1.3-0.8,2.3c0.8,1.1,1.7,0.5,2.5-0.2c0,0,0.2,0,0.3,0v1.3c0,4.7,0,9.4,0,14.1c0,1.7,0.4,2.1,2.1,2.1
		c6.9,0,13.8,0,20.7,0c1.8,0,2.1-0.4,2.1-2.2v-15.3c0.2,0.1,0.4,0,0.4,0.1c0.8,0.7,1.6,1.2,2.4,0.2
		C44.5,108.9,43.6,108.3,42.9,107.6"/>
	<path class="st0" d="M126.4,107.8c-4.5-3.9-9-7.7-13.4-11.6c-0.9-0.8-1.7-0.8-2.7,0c-3.6,3.2-7.3,6.3-10.9,9.5
		c-0.9,0.8-1.9,1.6-2.8,2.4c-0.6,0.5-0.8,1.2-0.2,1.9c0.5,0.6,1.2,0.7,1.9,0.2c0.2-0.2,0.5-0.4,0.9-0.7c0,5.4,0,10.5,0,15.6
		c0,1.7,0.4,2.1,2.1,2.1c6.9,0,13.8,0,20.7,0c1.7,0,2.1-0.4,2.1-2.1c0-4.7,0-9.5,0-14.2c0-0.4,0-0.8,0.1-1.3
		c0.2,0.1,0.4,0.2,0.5,0.3c0.7,0.7,1.6,1,2.3,0.1C127.6,109.1,127.1,108.4,126.4,107.8"/>
	<path class="st0" d="M70,56c-7,0-12.8,5.7-12.8,12.7c0,7.1,5.7,12.8,12.8,12.8c7,0,12.7-5.7,12.7-12.8C82.7,61.7,77,56,70,56"/>
	<path class="st0" d="M58.5,85.2v35.5c0,2-1.6,3.7-3.7,3.7c-2,0-3.7-1.6-3.7-3.7V92.6c0-2-1.6-3.7-3.7-3.7H19.3
		c-2,0-3.7-1.6-3.7-3.7v0c0-2,1.6-3.7,3.7-3.7h35.5C56.8,81.5,58.5,83.2,58.5,85.2"/>
	<path class="st0" d="M124.4,54.8L124.4,54.8c0,2-1.6,3.7-3.7,3.7H85.2c-2,0-3.7-1.6-3.7-3.7V19.3c0-2,1.6-3.7,3.7-3.7
		c2,0,3.7,1.6,3.7,3.7v28.1c0,2,1.6,3.7,3.7,3.7h28.1C122.7,51.1,124.4,52.8,124.4,54.8"/>
	<path class="st0" d="M58.5,19.3v35.5c0,2-1.6,3.7-3.7,3.7H19.3c-2,0-3.7-1.6-3.7-3.7v0c0-2,1.6-3.7,3.7-3.7h28.1
		c2,0,3.7-1.6,3.7-3.7V19.3c0-2,1.6-3.7,3.7-3.7C56.8,15.6,58.5,17.3,58.5,19.3"/>
	<path class="st0" d="M124.4,85.2L124.4,85.2c0,2-1.6,3.7-3.7,3.7H92.6c-2,0-3.7,1.6-3.7,3.7v28.1c0,2-1.6,3.7-3.7,3.7
		c-2,0-3.7-1.6-3.7-3.7V85.2c0-2,1.6-3.7,3.7-3.7h35.5C122.7,81.5,124.4,83.2,124.4,85.2"/>
</g>
</svg>
