<?xml version="1.0" encoding="utf-8"?>
<!-- Generator: Adobe Illustrator 22.0.0, SVG Export Plug-In . SVG Version: 6.00 Build 0)  -->
<svg version="1.1" id="Layer_1" xmlns="http://www.w3.org/2000/svg" xmlns:xlink="http://www.w3.org/1999/xlink" x="0px" y="0px"
	 viewBox="0 0 150 150" style="enable-background:new 0 0 150 150;" xml:space="preserve">
<style type="text/css">
	.st0{opacity:0.76;}
	.st1{clip-path:url(#SVGID_4_);fill:url(#SVGID_5_);}
	.st2{clip-path:url(#SVGID_7_);}
	.st3{opacity:0.51;clip-path:url(#SVGID_11_);}
	.st4{clip-path:url(#SVGID_13_);}
	.st5{filter:url(#Adobe_OpacityMaskFilter);}
	.st6{clip-path:url(#SVGID_15_);fill:url(#SVGID_17_);}
	.st7{clip-path:url(#SVGID_15_);mask:url(#SVGID_16_);fill:url(#SVGID_18_);}
	.st8{opacity:0.51;clip-path:url(#SVGID_20_);}
	.st9{clip-path:url(#SVGID_22_);}
	.st10{filter:url(#Adobe_OpacityMaskFilter_1_);}
	.st11{clip-path:url(#SVGID_24_);fill:url(#SVGID_26_);}
	.st12{clip-path:url(#SVGID_24_);mask:url(#SVGID_25_);fill:url(#SVGID_27_);}
	.st13{fill:#FFFFFF;}
	.st14{fill:none;}
	.st15{clip-path:url(#SVGID_29_);fill:url(#SVGID_30_);}
	.st16{filter:url(#Adobe_OpacityMaskFilter_2_);}
	.st17{clip-path:url(#SVGID_32_);fill:url(#SVGID_34_);}
	.st18{clip-path:url(#SVGID_32_);mask:url(#SVGID_33_);fill:url(#SVGID_35_);}
	.st19{fill:#E4E6E6;}
	.st20{fill:#DBDCDE;}
	.st21{opacity:0.1;clip-path:url(#SVGID_37_);}
	.st22{clip-path:url(#SVGID_39_);}
	.st23{clip-path:url(#SVGID_37_);fill:#FFFFFF;}
	.st24{opacity:0.21;clip-path:url(#SVGID_37_);}
	.st25{clip-path:url(#SVGID_45_);}
	.st26{clip-path:url(#SVGID_49_);fill:url(#SVGID_50_);}
	.st27{clip-path:url(#SVGID_54_);fill:url(#SVGID_55_);}
	.st28{clip-path:url(#SVGID_57_);fill:url(#SVGID_58_);}
	.st29{clip-path:url(#SVGID_60_);fill:url(#SVGID_61_);}
	.st30{clip-path:url(#SVGID_63_);fill:url(#SVGID_64_);}
	.st31{clip-path:url(#SVGID_66_);fill:url(#SVGID_67_);}
	.st32{clip-path:url(#SVGID_69_);fill:url(#SVGID_70_);}
	.st33{clip-path:url(#SVGID_72_);fill:url(#SVGID_73_);}
	.st34{clip-path:url(#SVGID_75_);fill:url(#SVGID_76_);}
	.st35{clip-path:url(#SVGID_78_);fill:url(#SVGID_79_);}
	.st36{clip-path:url(#SVGID_81_);fill:url(#SVGID_82_);}
	.st37{clip-path:url(#SVGID_84_);fill:url(#SVGID_85_);}
	.st38{clip-path:url(#SVGID_87_);fill:url(#SVGID_88_);}
	.st39{clip-path:url(#SVGID_90_);fill:url(#SVGID_91_);}
	.st40{clip-path:url(#SVGID_93_);fill:url(#SVGID_94_);}
	.st41{clip-path:url(#SVGID_96_);fill:url(#SVGID_97_);}
	.st42{clip-path:url(#SVGID_99_);fill:url(#SVGID_100_);}
	.st43{clip-path:url(#SVGID_102_);fill:url(#SVGID_103_);}
	.st44{clip-path:url(#SVGID_105_);fill:url(#SVGID_106_);}
	.st45{clip-path:url(#SVGID_108_);fill:url(#SVGID_109_);}
	.st46{clip-path:url(#SVGID_111_);fill:url(#SVGID_112_);}
	.st47{clip-path:url(#SVGID_114_);fill:url(#SVGID_115_);}
	.st48{fill:url(#SVGID_116_);}
	.st49{fill:url(#SVGID_117_);}
	.st50{fill:url(#SVGID_118_);}
	.st51{fill:url(#SVGID_119_);}
	.st52{fill:url(#SVGID_120_);}
	.st53{fill:url(#SVGID_121_);}
	.st54{opacity:0.3;}
	.st55{clip-path:url(#SVGID_123_);}
	.st56{clip-path:url(#SVGID_127_);fill:url(#SVGID_128_);}
	.st57{clip-path:url(#SVGID_130_);}
	.st58{clip-path:url(#SVGID_134_);}
	.st59{clip-path:url(#SVGID_138_);}
	.st60{clip-path:url(#SVGID_142_);fill:url(#SVGID_143_);}
	.st61{clip-path:url(#SVGID_145_);}
	.st62{clip-path:url(#SVGID_149_);}
	.st63{clip-path:url(#SVGID_153_);}
	.st64{clip-path:url(#SVGID_157_);fill:url(#SVGID_158_);}
	.st65{clip-path:url(#SVGID_160_);}
	.st66{clip-path:url(#SVGID_164_);}
	.st67{clip-path:url(#SVGID_168_);fill:url(#SVGID_169_);}
	.st68{clip-path:url(#SVGID_171_);fill:url(#SVGID_172_);}
	.st69{clip-path:url(#SVGID_174_);fill:url(#SVGID_175_);}
	.st70{clip-path:url(#SVGID_177_);fill:url(#SVGID_178_);}
	.st71{clip-path:url(#SVGID_180_);fill:url(#SVGID_181_);}
	.st72{clip-path:url(#SVGID_183_);fill:url(#SVGID_184_);}
	.st73{clip-path:url(#SVGID_186_);fill:url(#SVGID_187_);}
	.st74{clip-path:url(#SVGID_189_);fill:url(#SVGID_190_);}
	.st75{clip-path:url(#SVGID_192_);fill:url(#SVGID_193_);}
	.st76{clip-path:url(#SVGID_195_);fill:url(#SVGID_196_);}
	.st77{clip-path:url(#SVGID_198_);fill:url(#SVGID_199_);}
	.st78{clip-path:url(#SVGID_201_);fill:url(#SVGID_202_);}
	.st79{clip-path:url(#SVGID_204_);fill:url(#SVGID_205_);}
	.st80{clip-path:url(#SVGID_207_);fill:url(#SVGID_208_);}
	.st81{clip-path:url(#SVGID_210_);fill:url(#SVGID_211_);}
	.st82{clip-path:url(#SVGID_213_);fill:url(#SVGID_214_);}
	.st83{clip-path:url(#SVGID_216_);fill:url(#SVGID_217_);}
	.st84{clip-path:url(#SVGID_219_);fill:url(#SVGID_220_);}
	.st85{clip-path:url(#SVGID_222_);fill:url(#SVGID_223_);}
	.st86{fill:none;stroke:#606060;stroke-width:0.5;stroke-miterlimit:10;}
	.st87{clip-path:url(#SVGID_225_);}
	.st88{opacity:0.3;clip-path:url(#SVGID_229_);}
	.st89{clip-path:url(#SVGID_231_);}
	.st90{clip-path:url(#SVGID_229_);fill:#FFFFFF;}
	.st91{fill:url(#SVGID_234_);}
	.st92{fill:url(#SVGID_235_);}
	.st93{clip-path:url(#SVGID_237_);fill:url(#SVGID_238_);}
	.st94{fill:none;stroke:url(#SVGID_239_);stroke-width:0.974;stroke-miterlimit:10;}
</style>
<g>
	<g>
		<defs>
			<path id="SVGID_191_" d="M88.7,48.6c-2,1.9-4.3,3.2-7,3.8c-3.2,0.7-6.4,1.3-9.6,2c-4.4,0.9-8.4,2.5-11.2,6.1
				c-6,7.7-7,17.6-1.5,26.1c0.4,0.7,0.4,1.1,0.1,1.8c-2.1,4.1-3.7,8.4-4.3,13c-0.2,1.6,0.4,2.7,1.7,2.9c1.3,0.2,2.4-0.7,2.6-2.3
				c0.5-3.5,1.6-6.9,3.1-10.1c3.9-8.1,9.7-14.8,16.3-20.8c1-0.9,2.1-1.8,3.1-2.7c0.8-0.7,1-1.7,0.5-2.6c-0.5-0.9-1.5-1.4-2.5-1.1
				c-0.5,0.1-0.9,0.5-1.3,0.8c-5.7,4.7-10.7,10-15,16c-0.4,0.5-0.8,1.1-1.2,1.8c-0.3-0.5-0.5-0.9-0.7-1.3c-1.4-3.1-2-6.4-1.3-9.8
				c1.8-8.8,6-12.2,12.7-13.5c5.4-1,11-1.6,16.1-4.9c0.3,2.2,0.7,4.1,0.9,6c0.6,5.2,0.7,10.4-0.6,15.5c-1.4,5.8-4.5,10.3-10.3,12.2
				c-2.2,0.7-4.5,0.9-6.8,1.3c-1.3,0.2-2.2,1-2.2,2.2c0,1.2,1,2.2,2.4,2.1c1,0,1.9-0.1,2.9-0.2c7.4-1,13.1-4.4,16.4-11.3
				c1.6-3.4,2.5-6.9,2.8-10.6c0.7-7.2-0.3-14.3-2-21.2c-0.3-1.3-1.1-2.1-2.1-2.1C90,47.7,89.3,48,88.7,48.6"/>
		</defs>
		<clipPath id="SVGID_2_">
			<use xlink:href="#SVGID_191_"  style="overflow:visible;"/>
		</clipPath>
		
			<linearGradient id="SVGID_4_" gradientUnits="userSpaceOnUse" x1="-4636.9648" y1="3206.8699" x2="-4635.9648" y2="3206.8699" gradientTransform="matrix(39.9278 0 0 -39.9278 185198.7031 128119.3125)">
			<stop  offset="0" style="stop-color:#1392C2"/>
			<stop  offset="1" style="stop-color:#00B6A1"/>
		</linearGradient>
		<rect x="53.8" y="47.7" style="clip-path:url(#SVGID_2_);fill:url(#SVGID_4_);" width="41.6" height="56.8"/>
	</g>
	<g>
		<defs>
			<path id="SVGID_194_" d="M89.5,34.2c-0.5,1.2,0,2.4,1.6,3.1c0.3,0.1,0.6,0.3,0.9,0.4c18.7,8.4,28.5,30.4,21.9,49.8
				c-5.5,16.1-17,25.3-33.7,28.1c-1.2,0.2-2.4,0.2-3.6,0.3c1.4-1.4,2.9-2.6,4.2-3.8c0.5-0.4,0.9-1,1.1-1.6c0.3-0.9-0.1-1.7-0.9-2.2
				c-0.9-0.6-1.9-0.4-2.7,0.2c-3,2.5-6.1,4.9-9.1,7.4c-1.4,1.2-1.6,2.3-0.4,3.7c1.4,1.8,2.8,3.5,4.3,5.3c1.1,1.3,2.1,2.7,3.2,4
				c0.6,0.7,1.5,1.1,2.3,0.6c0.6-0.4,1.3-1.1,1.5-1.7c0.1-0.6-0.3-1.4-0.7-2c-1.3-1.8-2.8-3.5-4.2-5.2c3.3-0.5,6.4-0.7,9.5-1.4
				c22.8-4.8,38.5-27.1,35.2-50.2c-1.8-12.6-7.8-22.9-18-30.5c-2.8-2.1-6-3.6-9.2-5.3c-0.5-0.3-0.9-0.4-1.4-0.4
				C90.6,32.9,89.9,33.4,89.5,34.2"/>
		</defs>
		<clipPath id="SVGID_5_">
			<use xlink:href="#SVGID_194_"  style="overflow:visible;"/>
		</clipPath>
		
			<linearGradient id="SVGID_7_" gradientUnits="userSpaceOnUse" x1="-4658.8823" y1="3202.385" x2="-4657.8823" y2="3202.385" gradientTransform="matrix(52.3731 0 0 -52.3731 244068.1563 167800.3594)">
			<stop  offset="0" style="stop-color:#1392C2"/>
			<stop  offset="1" style="stop-color:#00B6A1"/>
		</linearGradient>
		<rect x="67.6" y="32.9" style="clip-path:url(#SVGID_5_);fill:url(#SVGID_7_);" width="55.6" height="97.2"/>
	</g>
	<g>
		<defs>
			<path id="SVGID_197_" d="M71.5,20.3c-0.6,0.3-1.4,0.9-1.5,1.5c-0.1,0.7,0.2,1.6,0.6,2.2c1.3,1.8,2.8,3.5,4.2,5.3
				c-3,0.4-5.8,0.6-8.5,1.1C43.5,35,27.1,56.1,29.9,80.3c1.5,13.3,7.9,23.9,18.8,31.7c2.5,1.8,5.4,3.2,8.1,4.6
				c1.3,0.7,2.6,0.2,3.1-0.9c0.6-1.2,0.1-2.4-1.4-3.1c-0.2-0.1-0.4-0.2-0.6-0.3c-17.9-8-27.6-27.9-22.9-47
				c4-16.4,17.4-28.5,34.2-30.9c1.3-0.2,2.7-0.2,4-0.3c-1.4,1.5-2.9,2.6-4.4,3.9c-1.2,1-1.4,2.3-0.5,3.3c0.8,1,2.1,1,3.3,0.1
				c3.1-2.4,6.1-4.9,9.1-7.4c1.4-1.1,1.5-2.2,0.4-3.6c-1.2-1.6-2.5-3.1-3.7-4.6c-1.3-1.6-2.5-3.1-3.8-4.7c-0.4-0.5-1-0.9-1.6-0.9
				C71.9,20.2,71.7,20.2,71.5,20.3"/>
		</defs>
		<clipPath id="SVGID_9_">
			<use xlink:href="#SVGID_197_"  style="overflow:visible;"/>
		</clipPath>
		
			<linearGradient id="SVGID_11_" gradientUnits="userSpaceOnUse" x1="-4658.8721" y1="3202.3862" x2="-4657.8721" y2="3202.3862" gradientTransform="matrix(52.3654 0 0 -52.3654 243993.5156 167763.1094)">
			<stop  offset="0" style="stop-color:#1392C2"/>
			<stop  offset="1" style="stop-color:#00B6A1"/>
		</linearGradient>
		<rect x="27.1" y="20.2" style="clip-path:url(#SVGID_9_);fill:url(#SVGID_11_);" width="55.2" height="97.1"/>
	</g>
</g>
</svg>
