<?xml version="1.0" encoding="utf-8"?>
<!-- Generator: Adobe Illustrator 22.0.0, SVG Export Plug-In . SVG Version: 6.00 Build 0)  -->
<svg version="1.1" id="Layer_1" xmlns="http://www.w3.org/2000/svg" xmlns:xlink="http://www.w3.org/1999/xlink" x="0px" y="0px"
	 viewBox="0 0 150 150" style="enable-background:new 0 0 150 150;" xml:space="preserve">
<style type="text/css">
	.st0{opacity:0.76;}
	.st1{clip-path:url(#SVGID_4_);fill:url(#SVGID_5_);}
	.st2{clip-path:url(#SVGID_7_);}
	.st3{opacity:0.51;clip-path:url(#SVGID_11_);}
	.st4{clip-path:url(#SVGID_13_);}
	.st5{filter:url(#Adobe_OpacityMaskFilter);}
	.st6{clip-path:url(#SVGID_15_);fill:url(#SVGID_17_);}
	.st7{clip-path:url(#SVGID_15_);mask:url(#SVGID_16_);fill:url(#SVGID_18_);}
	.st8{opacity:0.51;clip-path:url(#SVGID_20_);}
	.st9{clip-path:url(#SVGID_22_);}
	.st10{filter:url(#Adobe_OpacityMaskFilter_1_);}
	.st11{clip-path:url(#SVGID_24_);fill:url(#SVGID_26_);}
	.st12{clip-path:url(#SVGID_24_);mask:url(#SVGID_25_);fill:url(#SVGID_27_);}
	.st13{fill:#FFFFFF;}
	.st14{fill:none;}
	.st15{clip-path:url(#SVGID_29_);fill:url(#SVGID_30_);}
	.st16{filter:url(#Adobe_OpacityMaskFilter_2_);}
	.st17{clip-path:url(#SVGID_32_);fill:url(#SVGID_34_);}
	.st18{clip-path:url(#SVGID_32_);mask:url(#SVGID_33_);fill:url(#SVGID_35_);}
	.st19{fill:#E4E6E6;}
	.st20{fill:#DBDCDE;}
	.st21{opacity:0.1;clip-path:url(#SVGID_37_);}
	.st22{clip-path:url(#SVGID_39_);}
	.st23{clip-path:url(#SVGID_37_);fill:#FFFFFF;}
	.st24{opacity:0.21;clip-path:url(#SVGID_37_);}
	.st25{clip-path:url(#SVGID_45_);}
	.st26{clip-path:url(#SVGID_49_);fill:url(#SVGID_50_);}
	.st27{clip-path:url(#SVGID_54_);fill:url(#SVGID_55_);}
	.st28{clip-path:url(#SVGID_57_);fill:url(#SVGID_58_);}
	.st29{clip-path:url(#SVGID_60_);fill:url(#SVGID_61_);}
	.st30{clip-path:url(#SVGID_63_);fill:url(#SVGID_64_);}
	.st31{clip-path:url(#SVGID_66_);fill:url(#SVGID_67_);}
	.st32{clip-path:url(#SVGID_69_);fill:url(#SVGID_70_);}
	.st33{clip-path:url(#SVGID_72_);fill:url(#SVGID_73_);}
	.st34{clip-path:url(#SVGID_75_);fill:url(#SVGID_76_);}
	.st35{clip-path:url(#SVGID_78_);fill:url(#SVGID_79_);}
	.st36{clip-path:url(#SVGID_81_);fill:url(#SVGID_82_);}
	.st37{clip-path:url(#SVGID_84_);fill:url(#SVGID_85_);}
	.st38{clip-path:url(#SVGID_87_);fill:url(#SVGID_88_);}
	.st39{clip-path:url(#SVGID_90_);fill:url(#SVGID_91_);}
	.st40{clip-path:url(#SVGID_93_);fill:url(#SVGID_94_);}
	.st41{clip-path:url(#SVGID_96_);fill:url(#SVGID_97_);}
	.st42{clip-path:url(#SVGID_99_);fill:url(#SVGID_100_);}
	.st43{clip-path:url(#SVGID_102_);fill:url(#SVGID_103_);}
	.st44{clip-path:url(#SVGID_105_);fill:url(#SVGID_106_);}
	.st45{clip-path:url(#SVGID_108_);fill:url(#SVGID_109_);}
	.st46{clip-path:url(#SVGID_111_);fill:url(#SVGID_112_);}
	.st47{clip-path:url(#SVGID_114_);fill:url(#SVGID_115_);}
	.st48{fill:url(#SVGID_116_);}
	.st49{fill:url(#SVGID_117_);}
	.st50{fill:url(#SVGID_118_);}
	.st51{fill:url(#SVGID_119_);}
	.st52{fill:url(#SVGID_120_);}
	.st53{fill:url(#SVGID_121_);}
	.st54{opacity:0.3;}
	.st55{clip-path:url(#SVGID_123_);}
	.st56{clip-path:url(#SVGID_127_);fill:url(#SVGID_128_);}
	.st57{clip-path:url(#SVGID_130_);}
	.st58{clip-path:url(#SVGID_134_);}
	.st59{clip-path:url(#SVGID_138_);}
	.st60{clip-path:url(#SVGID_142_);fill:url(#SVGID_143_);}
	.st61{clip-path:url(#SVGID_145_);}
	.st62{clip-path:url(#SVGID_149_);}
	.st63{clip-path:url(#SVGID_153_);}
	.st64{clip-path:url(#SVGID_157_);fill:url(#SVGID_158_);}
	.st65{clip-path:url(#SVGID_160_);}
	.st66{clip-path:url(#SVGID_164_);}
	.st67{clip-path:url(#SVGID_168_);fill:url(#SVGID_169_);}
	.st68{clip-path:url(#SVGID_171_);fill:url(#SVGID_172_);}
	.st69{clip-path:url(#SVGID_174_);fill:url(#SVGID_175_);}
	.st70{clip-path:url(#SVGID_177_);fill:url(#SVGID_178_);}
	.st71{clip-path:url(#SVGID_180_);fill:url(#SVGID_181_);}
	.st72{clip-path:url(#SVGID_183_);fill:url(#SVGID_184_);}
	.st73{clip-path:url(#SVGID_186_);fill:url(#SVGID_187_);}
	.st74{clip-path:url(#SVGID_189_);fill:url(#SVGID_190_);}
	.st75{clip-path:url(#SVGID_192_);fill:url(#SVGID_193_);}
	.st76{clip-path:url(#SVGID_195_);fill:url(#SVGID_196_);}
	.st77{clip-path:url(#SVGID_198_);fill:url(#SVGID_199_);}
	.st78{clip-path:url(#SVGID_201_);fill:url(#SVGID_202_);}
	.st79{clip-path:url(#SVGID_204_);fill:url(#SVGID_205_);}
	.st80{clip-path:url(#SVGID_207_);fill:url(#SVGID_208_);}
	.st81{clip-path:url(#SVGID_210_);fill:url(#SVGID_211_);}
	.st82{clip-path:url(#SVGID_213_);fill:url(#SVGID_214_);}
	.st83{clip-path:url(#SVGID_216_);fill:url(#SVGID_217_);}
	.st84{clip-path:url(#SVGID_219_);fill:url(#SVGID_220_);}
	.st85{clip-path:url(#SVGID_222_);fill:url(#SVGID_223_);}
	.st86{fill:none;stroke:#606060;stroke-width:0.5;stroke-miterlimit:10;}
	.st87{clip-path:url(#SVGID_225_);}
	.st88{opacity:0.3;clip-path:url(#SVGID_229_);}
	.st89{clip-path:url(#SVGID_231_);}
	.st90{clip-path:url(#SVGID_229_);fill:#FFFFFF;}
	.st91{fill:url(#SVGID_234_);}
	.st92{fill:url(#SVGID_235_);}
	.st93{clip-path:url(#SVGID_237_);fill:url(#SVGID_238_);}
	.st94{fill:none;stroke:url(#SVGID_239_);stroke-width:0.974;stroke-miterlimit:10;}
</style>
<g>
	<g>
		<defs>
			<path id="SVGID_176_" d="M107.7,116.3h7.4c-2.4,2.4-4.9,4.9-7.4,7.4V116.3z M87.9,101.1h7.4c-2.5,2.4-5,4.8-7.4,7.2V101.1z
				 M30.4,20.2c-1,0.1-1.6,0.5-1.7,1.5c-0.1,0.4-0.1,0.8-0.1,1.2c0,17.7,0,35.4,0,53.2c0,0.4,0,0.9,0.1,1.3c0.2,0.9,0.9,1.4,1.7,1.4
				c0.8,0,1.5-0.6,1.6-1.5c0.1-0.5,0.1-0.9,0.1-1.4C32,58.9,32,42,32,25c0-0.5,0-1,0.1-1.4H98v74c-0.5,0-0.9,0-1.2,0
				c-1.1,0-2.1,0-3.2,0c-2.4,0-4.7,0-7.1,0c-1.4,0-2,0.6-2.1,2c0,0.3,0,0.6,0,0.9c0,3.2,0,6.3,0,9.5c0,0.4,0,0.8-0.1,1.3H32v-1.4
				c0-8.5,0-17,0-25.5c0-0.5,0-0.9-0.1-1.4c-0.2-0.8-0.9-1.2-1.7-1.2c-0.8,0-1.3,0.5-1.5,1.3c-0.1,0.5-0.1,1-0.1,1.5
				c0,9.1,0,18.3,0,27.4c0,0.5,0,1,0.2,1.5c0.2,0.7,0.7,1.2,1.4,1.2c0.4,0,0.8,0,1.2,0c5.2,0,10.5,0,15.7,0h1.4c0,0.5,0,0.9,0,1.3
				c0,3.9,0,7.7,0,11.6c0,1,0.2,1.8,1.1,2.2h57.1c0.3-0.3,0.7-0.6,1-0.9c4.2-4.2,8.4-8.4,12.6-12.6c0.8-0.8,1.1-1.6,1.1-2.7
				c0-18.2,0-36.4,0-54.6c0-0.5,0-0.9-0.1-1.4c-0.2-0.9-0.7-1.3-1.6-1.3c-0.8,0-1.5,0.5-1.7,1.4c-0.1,0.4-0.1,0.9-0.1,1.4
				c0,17.3,0,34.5,0,51.8c0,0.3,0,0.6,0,1c0.1,0.7-0.3,1-1,0.9c-0.2,0-0.5,0-0.7,0c-1,0-1.9,0-2.9,0c-2.2,0-4.4,0-6.6,0
				c-2.1,0-2.6,0.6-2.6,2.6c0,3.3,0,6.6,0,10c0,0.4,0,0.8-0.1,1.2H52v-11.7h1.4c10.6,0,21.1,0,31.7,0c1.3,0,2.2-0.4,3.1-1.3
				c4-4.1,8.1-8.2,12.2-12.2c0.9-0.9,1.3-1.8,1.2-3c0-19.3,0-38.7,0-58c0-0.5,0-1,0.1-1.5H118V40c0,3.6,0,7.2,0,10.8
				c0,0.5,0,0.9,0.2,1.4c0.2,0.7,0.9,1.1,1.6,1c0.7,0,1.3-0.5,1.5-1.2c0.1-0.4,0.2-0.8,0.2-1.3c0-4.3,0-8.6,0-12.9
				c0-1.9-0.6-2.5-2.5-2.5c-5.3,0-10.7,0-16,0c-0.4,0-0.8,0-1.3-0.1V34c0-3.7,0-7.3,0-11c0-2.4-0.4-2.8-2.8-2.8
				c-22.5,0-44.9,0-67.4,0c-0.2,0-0.4,0-0.5,0C30.7,20.2,30.6,20.2,30.4,20.2"/>
		</defs>
		<clipPath id="SVGID_2_">
			<use xlink:href="#SVGID_176_"  style="overflow:visible;"/>
		</clipPath>
		
			<linearGradient id="SVGID_4_" gradientUnits="userSpaceOnUse" x1="-4504.0483" y1="3196.1135" x2="-4503.0483" y2="3196.1135" gradientTransform="matrix(92.8744 0 0 -92.8744 418339.1875 296912)">
			<stop  offset="0" style="stop-color:#1392C2"/>
			<stop  offset="1" style="stop-color:#00B6A1"/>
		</linearGradient>
		<rect x="28.6" y="20.2" style="clip-path:url(#SVGID_2_);fill:url(#SVGID_4_);" width="92.9" height="109.6"/>
	</g>
	<g>
		<defs>
			<path id="SVGID_179_" d="M50.7,36.2c-0.2,0.1-0.4,0.3-0.6,0.5c-0.6,0.6-0.6,1.5-0.2,2.2c0.5,0.6,1.2,0.9,2,0.5
				c0.4-0.2,0.8-0.4,1.1-0.6c4.7-3,9.8-3.9,15.3-2.7c9.5,2,16,10.5,16,19.8c-0.1,1.4-0.2,2.8-0.5,4.1c-2.3,10.8-12.6,17.8-23.4,15.8
				c-11.5-2.1-19-13.4-16-25.2c0.7-2.6,1.9-4.9,3.4-7.1c0.7-1,0.5-2-0.3-2.5c-0.8-0.5-1.8-0.3-2.4,0.6c-3,3.9-4.6,8.4-4.8,13.3
				c-0.2,6.8,2,12.7,6.8,17.5c6,6,13.2,8.2,21.5,6.7c4.4-0.8,8.3-2.9,11.6-6c4.5-4.3,7-9.5,7.4-15.7c0.4-5.2-0.9-10-3.8-14.4
				c-4.6-7-12.2-10.8-19.9-10.8C59.4,32.1,54.7,33.5,50.7,36.2"/>
		</defs>
		<clipPath id="SVGID_5_">
			<use xlink:href="#SVGID_179_"  style="overflow:visible;"/>
		</clipPath>
		
			<linearGradient id="SVGID_7_" gradientUnits="userSpaceOnUse" x1="-4464.5327" y1="3203.8933" x2="-4463.5327" y2="3203.8933" gradientTransform="matrix(47.3784 0 0 -47.3784 211562.7656 151851.7188)">
			<stop  offset="0" style="stop-color:#1392C2"/>
			<stop  offset="1" style="stop-color:#00B6A1"/>
		</linearGradient>
		<rect x="40.1" y="32.1" style="clip-path:url(#SVGID_5_);fill:url(#SVGID_7_);" width="47.9" height="48.4"/>
	</g>
	<g>
		<defs>
			<path id="SVGID_182_" d="M62.4,59.3c3.2-3.2,6.4-6.4,9.6-9.6c0.3-0.3,0.5-0.5,0.8-0.7c0.4-0.3,0.9-0.3,1.3,0.1
				c0.4,0.4,0.5,0.8,0.2,1.2c-0.2,0.3-0.4,0.6-0.7,0.8c-3.8,3.8-7.6,7.7-11.5,11.5c-1.1,1.1-1.5,1.1-2.6,0c-1.8-1.8-3.5-3.5-5.3-5.3
				c-0.2-0.2-0.5-0.5-0.6-0.8c-0.3-0.7,0.2-1.4,1.2-1.3c0.2,0.1,0.6,0.3,0.9,0.6c1.2,1.2,2.4,2.4,3.6,3.5c0.6,0.6,1.1,0.9,1.6,0.9
				C61.4,60.2,61.9,59.9,62.4,59.3 M70,46.9c-2.7,2.7-5.5,5.5-8.2,8.2c-0.3,0.3-0.6,0.5-0.9,0.8c-0.3-0.3-0.6-0.6-0.9-0.8
				c-0.9-0.8-1.7-1.7-2.6-2.5c-1-0.9-2.2-1.2-3.6-0.9c-3.5,0.8-4.8,4.8-2.4,7.4c2.1,2.3,4.3,4.4,6.5,6.5c1.7,1.6,4.1,1.6,5.9,0.1
				c0.3-0.2,0.5-0.5,0.8-0.7c3.8-3.8,7.6-7.6,11.4-11.4c0.4-0.4,0.7-0.7,1-1.1c1.8-2.4,0.7-5.9-2.2-6.9c-0.5-0.2-1-0.2-1.4-0.2
				C72.1,45.4,71,46,70,46.9"/>
		</defs>
		<clipPath id="SVGID_9_">
			<use xlink:href="#SVGID_182_"  style="overflow:visible;"/>
		</clipPath>
		
			<linearGradient id="SVGID_11_" gradientUnits="userSpaceOnUse" x1="-4407.5317" y1="3215.1357" x2="-4406.5317" y2="3215.1357" gradientTransform="matrix(27.7613 0 0 -27.7613 122408.8359 89312.6563)">
			<stop  offset="0" style="stop-color:#1392C2"/>
			<stop  offset="1" style="stop-color:#00B6A1"/>
		</linearGradient>
		<rect x="48.9" y="45.4" style="clip-path:url(#SVGID_9_);fill:url(#SVGID_11_);" width="29.9" height="21.9"/>
	</g>
	<g>
		<defs>
			<path id="SVGID_185_" d="M65.5,84.6c-6.4,0-12.8,0-19.1,0c-0.5,0-1,0-1.5,0.2c-0.7,0.2-1.1,0.9-1.1,1.5c0,0.7,0.5,1.4,1.2,1.6
				c0.4,0.1,0.9,0.2,1.4,0.2c12.8,0,25.5,0,38.3,0c0.5,0,0.9-0.1,1.4-0.2c0.7-0.2,1.3-0.9,1.2-1.6c0-0.7-0.4-1.3-1.1-1.5
				c-0.5-0.1-1-0.2-1.5-0.2c-4,0-8,0-12,0C70.2,84.6,67.9,84.6,65.5,84.6"/>
		</defs>
		<clipPath id="SVGID_13_">
			<use xlink:href="#SVGID_185_"  style="overflow:visible;"/>
		</clipPath>
		
			<linearGradient id="SVGID_15_" gradientUnits="userSpaceOnUse" x1="-4457.2256" y1="3205.3452" x2="-4456.2256" y2="3205.3452" gradientTransform="matrix(43.443 0 0 -43.443 193679.1094 139336.2656)">
			<stop  offset="0" style="stop-color:#1392C2"/>
			<stop  offset="1" style="stop-color:#00B6A1"/>
		</linearGradient>
		<rect x="43.7" y="84.6" style="clip-path:url(#SVGID_13_);fill:url(#SVGID_15_);" width="43.5" height="3.5"/>
	</g>
	<g>
		<defs>
			<path id="SVGID_188_" d="M46.4,92.2c-0.5,0-0.9,0-1.4,0.1c-0.8,0.2-1.3,0.9-1.3,1.6c0,0.7,0.5,1.4,1.3,1.6
				c0.4,0.1,0.8,0.1,1.2,0.1c4.3,0,8.6,0,12.9,0c4.3,0,8.7,0,13,0c0.1,0,0.1,0,0.2,0c0.3,0,0.7,0,1-0.1c0.8-0.2,1.4-0.9,1.4-1.7
				c0-0.8-0.5-1.4-1.4-1.6c-0.5-0.1-1-0.1-1.5-0.1c-4.2,0-8.5,0-12.7,0C54.9,92.2,50.7,92.2,46.4,92.2"/>
		</defs>
		<clipPath id="SVGID_16_">
			<use xlink:href="#SVGID_188_"  style="overflow:visible;"/>
		</clipPath>
		
			<linearGradient id="SVGID_17_" gradientUnits="userSpaceOnUse" x1="-4421.9136" y1="3212.3074" x2="-4420.9136" y2="3212.3074" gradientTransform="matrix(30.9998 0 0 -30.9998 137122.0625 99674.7109)">
			<stop  offset="0" style="stop-color:#1392C2"/>
			<stop  offset="1" style="stop-color:#00B6A1"/>
		</linearGradient>
		<rect x="43.7" y="92.2" style="clip-path:url(#SVGID_16_);fill:url(#SVGID_17_);" width="31" height="3.5"/>
	</g>
</g>
</svg>
