<?xml version="1.0" encoding="utf-8"?>
<!-- Generator: Adobe Illustrator 22.0.0, SVG Export Plug-In . SVG Version: 6.00 Build 0)  -->
<svg version="1.1" id="Layer_1" xmlns="http://www.w3.org/2000/svg" xmlns:xlink="http://www.w3.org/1999/xlink" x="0px" y="0px"
	 viewBox="0 0 150 150" style="enable-background:new 0 0 150 150;" xml:space="preserve">
<style type="text/css">
	.st0{opacity:0.76;}
	.st1{clip-path:url(#SVGID_4_);fill:url(#SVGID_5_);}
	.st2{clip-path:url(#SVGID_7_);}
	.st3{opacity:0.51;clip-path:url(#SVGID_11_);}
	.st4{clip-path:url(#SVGID_13_);}
	.st5{filter:url(#Adobe_OpacityMaskFilter);}
	.st6{clip-path:url(#SVGID_15_);fill:url(#SVGID_17_);}
	.st7{clip-path:url(#SVGID_15_);mask:url(#SVGID_16_);fill:url(#SVGID_18_);}
	.st8{opacity:0.51;clip-path:url(#SVGID_20_);}
	.st9{clip-path:url(#SVGID_22_);}
	.st10{filter:url(#Adobe_OpacityMaskFilter_1_);}
	.st11{clip-path:url(#SVGID_24_);fill:url(#SVGID_26_);}
	.st12{clip-path:url(#SVGID_24_);mask:url(#SVGID_25_);fill:url(#SVGID_27_);}
	.st13{fill:#FFFFFF;}
	.st14{fill:none;}
	.st15{clip-path:url(#SVGID_29_);fill:url(#SVGID_30_);}
	.st16{filter:url(#Adobe_OpacityMaskFilter_2_);}
	.st17{clip-path:url(#SVGID_32_);fill:url(#SVGID_34_);}
	.st18{clip-path:url(#SVGID_32_);mask:url(#SVGID_33_);fill:url(#SVGID_35_);}
	.st19{fill:#E4E6E6;}
	.st20{fill:#DBDCDE;}
	.st21{opacity:0.1;clip-path:url(#SVGID_37_);}
	.st22{clip-path:url(#SVGID_39_);}
	.st23{clip-path:url(#SVGID_37_);fill:#FFFFFF;}
	.st24{opacity:0.21;clip-path:url(#SVGID_37_);}
	.st25{clip-path:url(#SVGID_45_);}
	.st26{clip-path:url(#SVGID_49_);fill:url(#SVGID_50_);}
	.st27{clip-path:url(#SVGID_54_);fill:url(#SVGID_55_);}
	.st28{clip-path:url(#SVGID_57_);fill:url(#SVGID_58_);}
	.st29{clip-path:url(#SVGID_60_);fill:url(#SVGID_61_);}
	.st30{clip-path:url(#SVGID_63_);fill:url(#SVGID_64_);}
	.st31{clip-path:url(#SVGID_66_);fill:url(#SVGID_67_);}
	.st32{clip-path:url(#SVGID_69_);fill:url(#SVGID_70_);}
	.st33{clip-path:url(#SVGID_72_);fill:url(#SVGID_73_);}
	.st34{clip-path:url(#SVGID_75_);fill:url(#SVGID_76_);}
	.st35{clip-path:url(#SVGID_78_);fill:url(#SVGID_79_);}
	.st36{clip-path:url(#SVGID_81_);fill:url(#SVGID_82_);}
	.st37{clip-path:url(#SVGID_84_);fill:url(#SVGID_85_);}
	.st38{clip-path:url(#SVGID_87_);fill:url(#SVGID_88_);}
	.st39{clip-path:url(#SVGID_90_);fill:url(#SVGID_91_);}
	.st40{clip-path:url(#SVGID_93_);fill:url(#SVGID_94_);}
	.st41{clip-path:url(#SVGID_96_);fill:url(#SVGID_97_);}
	.st42{clip-path:url(#SVGID_99_);fill:url(#SVGID_100_);}
	.st43{clip-path:url(#SVGID_102_);fill:url(#SVGID_103_);}
	.st44{clip-path:url(#SVGID_105_);fill:url(#SVGID_106_);}
	.st45{clip-path:url(#SVGID_108_);fill:url(#SVGID_109_);}
	.st46{clip-path:url(#SVGID_111_);fill:url(#SVGID_112_);}
	.st47{clip-path:url(#SVGID_114_);fill:url(#SVGID_115_);}
	.st48{fill:url(#SVGID_116_);}
	.st49{fill:url(#SVGID_117_);}
	.st50{fill:url(#SVGID_118_);}
	.st51{fill:url(#SVGID_119_);}
	.st52{fill:url(#SVGID_120_);}
	.st53{fill:url(#SVGID_121_);}
	.st54{opacity:0.3;}
	.st55{clip-path:url(#SVGID_123_);}
	.st56{clip-path:url(#SVGID_127_);fill:url(#SVGID_128_);}
	.st57{clip-path:url(#SVGID_130_);}
	.st58{clip-path:url(#SVGID_134_);}
	.st59{clip-path:url(#SVGID_138_);}
	.st60{clip-path:url(#SVGID_142_);fill:url(#SVGID_143_);}
	.st61{clip-path:url(#SVGID_145_);}
	.st62{clip-path:url(#SVGID_149_);}
	.st63{clip-path:url(#SVGID_153_);}
	.st64{clip-path:url(#SVGID_157_);fill:url(#SVGID_158_);}
	.st65{clip-path:url(#SVGID_160_);}
	.st66{clip-path:url(#SVGID_164_);}
	.st67{clip-path:url(#SVGID_168_);fill:url(#SVGID_169_);}
	.st68{clip-path:url(#SVGID_171_);fill:url(#SVGID_172_);}
	.st69{clip-path:url(#SVGID_174_);fill:url(#SVGID_175_);}
	.st70{clip-path:url(#SVGID_177_);fill:url(#SVGID_178_);}
	.st71{clip-path:url(#SVGID_180_);fill:url(#SVGID_181_);}
	.st72{clip-path:url(#SVGID_183_);fill:url(#SVGID_184_);}
	.st73{clip-path:url(#SVGID_186_);fill:url(#SVGID_187_);}
	.st74{clip-path:url(#SVGID_189_);fill:url(#SVGID_190_);}
	.st75{clip-path:url(#SVGID_192_);fill:url(#SVGID_193_);}
	.st76{clip-path:url(#SVGID_195_);fill:url(#SVGID_196_);}
	.st77{clip-path:url(#SVGID_198_);fill:url(#SVGID_199_);}
	.st78{clip-path:url(#SVGID_201_);fill:url(#SVGID_202_);}
	.st79{clip-path:url(#SVGID_204_);fill:url(#SVGID_205_);}
	.st80{clip-path:url(#SVGID_207_);fill:url(#SVGID_208_);}
	.st81{clip-path:url(#SVGID_210_);fill:url(#SVGID_211_);}
	.st82{clip-path:url(#SVGID_213_);fill:url(#SVGID_214_);}
	.st83{clip-path:url(#SVGID_216_);fill:url(#SVGID_217_);}
	.st84{clip-path:url(#SVGID_219_);fill:url(#SVGID_220_);}
	.st85{clip-path:url(#SVGID_222_);fill:url(#SVGID_223_);}
	.st86{fill:none;stroke:#606060;stroke-width:0.5;stroke-miterlimit:10;}
	.st87{clip-path:url(#SVGID_225_);}
	.st88{opacity:0.3;clip-path:url(#SVGID_229_);}
	.st89{clip-path:url(#SVGID_231_);}
	.st90{clip-path:url(#SVGID_229_);fill:#FFFFFF;}
	.st91{fill:url(#SVGID_234_);}
	.st92{fill:url(#SVGID_235_);}
	.st93{clip-path:url(#SVGID_237_);fill:url(#SVGID_238_);}
	.st94{fill:none;stroke:url(#SVGID_239_);stroke-width:0.974;stroke-miterlimit:10;}
</style>
<g>
	<g>
		<defs>
			<path id="SVGID_200_" d="M41.7,109.7c-1.1,0-1.7-0.7-1.7-1.8c0-1,0-2.1,0-3.2h17c0,1.2,0.1,2.3,0,3.4c-0.1,1-0.7,1.6-1.7,1.6
				c-2.3,0-4.6,0-6.9,0C46.1,109.8,43.9,109.8,41.7,109.7 M97.7,126.9c8.6-0.4,16.3-7.5,17.3-16.1c0.1-1.1,0.2-2.1,0.2-3.2
				c0-5.1,0-10.3,0-15.4c0-0.4,0-0.8,0-1.2h5.1v1.1c0,5.2,0,10.4,0,15.6c0,12.2-8.4,22-20.4,24c-12.5,2-25-6.9-27.1-19.5
				c-0.2-1.2-0.3-2.3-0.4-3.5c-0.1-1.3,0-2.6,0-4h5.1c0,1,0,2,0,3c0,10.9,8.4,19.2,19.1,19.2C97,127,97.4,127,97.7,126.9
				 M81.2,110.1c-0.2-1.8-0.2-3.6-0.3-5.4c0.9-0.3,1.7-0.4,2.5-0.7c4.8-1.8,7.9-6.2,7.9-11.4c0-11,0-22,0-33v-1.2c1.9,0,3.6,0,5.3,0
				c0.4,0,1,0.2,1.3,0.5c2.8,2.7,5.5,5.4,8.2,8.2c0.3,0.3,0.6,0.9,0.6,1.4c0,5.1,0,10.1,0,15.2c0,3.2,1.5,5.5,4.5,6.8
				c0.5,0.2,0.7,0.5,0.7,1c0,5.7,0.1,11.3,0,17c-0.1,8-6.7,14.6-14.7,14.9c-0.2,0-0.5,0-0.7,0C88.8,123.5,82.1,117.7,81.2,110.1
				 M94.9,36.2c2.8,0,5.7,0,8.5,0.2c3,0.2,5.6,1.8,7.5,4.1c2,2.4,4,4.9,5.9,7.4c2.3,3,3.4,6.4,3.4,10.2c0.1,9.6,0,19.3,0,28.9
				c0,0.1,0,0.2-0.1,0.5c-2.4,0-4.8,0.1-7.2,0c-1.8-0.1-2.9-1.7-2.9-3.6c0-5.4,0-10.7,0-16.1c0-1.1-0.3-1.9-1.1-2.6
				c-3.1-3-6.2-6.1-9.2-9.2c-0.6-0.7-1.3-1-2.3-1c-1.4,0.1-2.9,0-4.3,0c-1.3,0-2-0.6-2-2c0-4.9,0-9.8,0-14.8c0-1.2,0.6-2,1.6-2
				c0.2,0,0.4,0,0.6,0C94,36.2,94.4,36.2,94.9,36.2 M38.9,101.2c-5.6,0-9.2-3.6-9.2-9.2c0-8.9,0-17.8,0-26.8c0-8.9,0-17.8,0-26.6
				c0-5.6,3.6-9.2,9.2-9.2c13.2,0,26.5,0,39.7,0c5.6,0,9.2,3.6,9.2,9.2c0,17.8,0,35.6,0,53.4c0,5.6-3.6,9.2-9.2,9.2
				c-6.6,0-13.2,0-19.9,0S45.5,101.2,38.9,101.2 M38.2,25.9c-6.7,0-12,5.3-12,12c0,18.3,0,36.5,0,54.8c0,5.1,2.6,8.8,7.2,11
				c0.9,0.4,2,0.7,3.1,1c0,1.1,0,2.2,0,3.3c0,3,2.2,5.3,5.3,5.3c4.5,0,9,0,13.5,0c3,0,5.2-2.2,5.3-5.3c0-1.1,0-2.1,0-3.2H69
				c0,1.2,0,2.3,0,3.5c0.1,12.2,8.2,22.9,20,26.2c1.5,0.4,3.1,0.7,4.7,1h5.6c0.2-0.1,0.3-0.1,0.5-0.2c14-1.8,24.1-13.3,24.2-27.4
				c0-16.5,0-33,0-49.4c0-4.6-1.3-8.8-4-12.5c-2-2.7-4.1-5.2-6.2-7.8c-2.2-2.6-5.1-4.5-8.5-5.1c-4.9-0.8-9.8-0.6-14.8-0.1
				c0,0-0.1-0.1-0.1-0.2c-2.3-4.6-6.1-7-11.2-7c-7.2,0-14.5,0-21.7,0C50.9,25.9,44.5,25.9,38.2,25.9"/>
		</defs>
		<clipPath id="SVGID_2_">
			<use xlink:href="#SVGID_200_"  style="overflow:visible;"/>
		</clipPath>
		
			<linearGradient id="SVGID_4_" gradientUnits="userSpaceOnUse" x1="-4870.0073" y1="3195.7515" x2="-4869.0068" y2="3195.7515" gradientTransform="matrix(97.7176 0 0 -97.7176 475911.4063 312361.75)">
			<stop  offset="0" style="stop-color:#1392C2"/>
			<stop  offset="1" style="stop-color:#00B6A1"/>
		</linearGradient>
		<rect x="26.1" y="25.9" style="clip-path:url(#SVGID_2_);fill:url(#SVGID_4_);" width="97.7" height="109.6"/>
	</g>
	<g>
		<defs>
			<path id="SVGID_203_" d="M54.3,53.7c-11.8,2.2-19.8,14.2-17.5,25.9c2.5,12.5,14,20.2,26.5,17.8c2.8-0.5,5.3-1.6,7.6-3.2
				c0.9-0.6,1.1-1.6,0.6-2.4c-0.5-0.8-1.5-1.1-2.4-0.6c-0.3,0.1-0.6,0.3-0.8,0.5c-2.7,1.6-5.7,2.5-8.8,2.6
				c-11.8,0.5-21.1-9.9-19.3-21.7c1.4-9.4,10.3-16.5,19.7-15.8c10.1,0.8,17.8,9.1,17.6,18.9c-0.1,3.7-1.1,7.1-3.2,10.3
				c-0.4,0.6-0.7,1.3-0.6,1.9c0.1,0.5,0.7,1,1.3,1.2c0.8,0.3,1.5-0.2,2-0.9c2.6-3.8,4-8.1,4-13.4c-0.1-0.6-0.1-1.9-0.3-3.1
				c-2-11.1-11.3-18.6-22-18.6C57.3,53.3,55.8,53.4,54.3,53.7"/>
		</defs>
		<clipPath id="SVGID_5_">
			<use xlink:href="#SVGID_203_"  style="overflow:visible;"/>
		</clipPath>
		
			<linearGradient id="SVGID_7_" gradientUnits="userSpaceOnUse" x1="-4826.9985" y1="3204.9407" x2="-4825.9985" y2="3204.9407" gradientTransform="matrix(44.6535 0 0 -44.6535 215578.7344 143188.3281)">
			<stop  offset="0" style="stop-color:#1392C2"/>
			<stop  offset="1" style="stop-color:#00B6A1"/>
		</linearGradient>
		<rect x="34.5" y="53.3" style="clip-path:url(#SVGID_5_);fill:url(#SVGID_7_);" width="46.6" height="46.6"/>
	</g>
	<g>
		<defs>
			<path id="SVGID_206_" d="M58.1,84.1c0.2-1.1,0.4-2.2,0.6-3.3c0.3-1.6,0-2.2-1.5-2.8c-2.3-1-4.6-1.9-7.1-3
				c3.1-2.8,6.1-5.5,9.2-8.1c0.1,0,0.1,0.1,0.2,0.1c-0.2,1.1-0.4,2.2-0.6,3.3c-0.3,1.7-0.1,2.2,1.6,2.9c2.3,1,4.6,1.9,7.1,2.9
				c-3.1,2.8-6.1,5.4-9.1,8.1C58.2,84.2,58.1,84.2,58.1,84.1 M60.8,60.7c-5,4.4-10,8.9-14.9,13.3c-1.4,1.2-1.1,2.6,0.6,3.3
				c1.5,0.7,3.1,1.3,4.6,1.9c1.3,0.5,2.6,1.1,4,1.7c-0.5,2.6-0.9,5.1-1.4,7.6c-0.2,0.9-0.1,1.7,0.8,2.2c0.8,0.5,1.6,0.3,2.2-0.3
				c5-4.5,10-8.9,15-13.4c1.3-1.2,1-2.6-0.6-3.3c-1.7-0.7-3.4-1.4-5.1-2.1c-1.2-0.5-2.3-1-3.5-1.5c0.5-2.6,1-5.2,1.4-7.7
				c0.2-0.9,0-1.7-0.8-2.1c-0.3-0.2-0.6-0.3-0.9-0.3C61.7,60.1,61.2,60.3,60.8,60.7"/>
		</defs>
		<clipPath id="SVGID_9_">
			<use xlink:href="#SVGID_206_"  style="overflow:visible;"/>
		</clipPath>
		
			<linearGradient id="SVGID_11_" gradientUnits="userSpaceOnUse" x1="-4777.7104" y1="3215.5159" x2="-4776.7104" y2="3215.5159" gradientTransform="matrix(27.5243 0 0 -27.5243 131548.3281 88580.625)">
			<stop  offset="0" style="stop-color:#1392C2"/>
			<stop  offset="1" style="stop-color:#00B6A1"/>
		</linearGradient>
		<rect x="44.5" y="60.1" style="clip-path:url(#SVGID_9_);fill:url(#SVGID_11_);" width="28.5" height="31.1"/>
	</g>
	<g>
		<defs>
			<path id="SVGID_209_" d="M46.8,38h23.8v8.3H46.8V38z M45.5,34.4c-1.6,0-2.2,0.6-2.2,2.2c0,3.7,0,7.4,0,11.1
				c0,1.6,0.6,2.2,2.2,2.2c8.8,0,17.6,0,26.4,0c1.7,0,2.3-0.6,2.3-2.2c0-3.7,0-7.3,0-11c0-1.7-0.6-2.2-2.3-2.2c-4.4,0-8.8,0-13.2,0
				c-2.4,0-4.8,0-7.2,0C49.5,34.4,47.5,34.4,45.5,34.4"/>
		</defs>
		<clipPath id="SVGID_13_">
			<use xlink:href="#SVGID_209_"  style="overflow:visible;"/>
		</clipPath>
		
			<linearGradient id="SVGID_15_" gradientUnits="userSpaceOnUse" x1="-4791.7759" y1="3212.5071" x2="-4790.7759" y2="3212.5071" gradientTransform="matrix(30.9078 0 0 -30.9078 148146.4688 99333.6484)">
			<stop  offset="0" style="stop-color:#1392C2"/>
			<stop  offset="1" style="stop-color:#00B6A1"/>
		</linearGradient>
		<rect x="43.3" y="34.4" style="clip-path:url(#SVGID_13_);fill:url(#SVGID_15_);" width="30.9" height="15.5"/>
	</g>
	<g>
		<defs>
			<path id="SVGID_212_" d="M38.2,34.4c-1.1,0-1.7,0.8-1.7,2.1c0,3.7,0,7.5,0,11.2c0,1.3,0.6,2.1,1.7,2.1c1.1,0,1.8-0.8,1.8-2.2
				c0-1.9,0-3.7,0-5.6s0-3.7,0-5.6C39.9,35.2,39.3,34.4,38.2,34.4C38.2,34.4,38.2,34.4,38.2,34.4"/>
		</defs>
		<clipPath id="SVGID_16_">
			<use xlink:href="#SVGID_212_"  style="overflow:visible;"/>
		</clipPath>
		
			<linearGradient id="SVGID_17_" gradientUnits="userSpaceOnUse" x1="-3896.8716" y1="3404.1763" x2="-3895.8716" y2="3404.1763" gradientTransform="matrix(3.5039 0 0 -3.5039 13690.5361 11969.9434)">
			<stop  offset="0" style="stop-color:#1392C2"/>
			<stop  offset="1" style="stop-color:#00B6A1"/>
		</linearGradient>
		<rect x="36.4" y="34.4" style="clip-path:url(#SVGID_16_);fill:url(#SVGID_17_);" width="3.5" height="15.5"/>
	</g>
	<g>
		<defs>
			<path id="SVGID_215_" d="M79.3,34.4c-1.1,0-1.7,0.8-1.7,2.1c0,3.7,0,7.5,0,11.2c0,1.3,0.6,2.1,1.7,2.1c1.1,0,1.8-0.8,1.8-2.2
				c0-1.8,0-3.6,0-5.5c0-1.9,0-3.8,0-5.7C81,35.2,80.4,34.4,79.3,34.4C79.3,34.4,79.3,34.4,79.3,34.4"/>
		</defs>
		<clipPath id="SVGID_18_">
			<use xlink:href="#SVGID_215_"  style="overflow:visible;"/>
		</clipPath>
		
			<linearGradient id="SVGID_20_" gradientUnits="userSpaceOnUse" x1="-3896.8755" y1="3404.175" x2="-3895.8755" y2="3404.175" gradientTransform="matrix(3.5039 0 0 -3.5039 13731.7168 11969.9922)">
			<stop  offset="0" style="stop-color:#1392C2"/>
			<stop  offset="1" style="stop-color:#00B6A1"/>
		</linearGradient>
		<rect x="77.5" y="34.4" style="clip-path:url(#SVGID_18_);fill:url(#SVGID_20_);" width="3.5" height="15.5"/>
	</g>
	<g>
		<defs>
			<path id="SVGID_218_" d="M96.4,43c-0.9,0-1.7,0.8-1.7,1.7c0,1,0.7,1.8,1.7,1.8c1,0,1.8-0.8,1.8-1.7C98.2,43.8,97.4,43,96.4,43
				C96.4,43,96.4,43,96.4,43"/>
		</defs>
		<clipPath id="SVGID_22_">
			<use xlink:href="#SVGID_218_"  style="overflow:visible;"/>
		</clipPath>
		
			<linearGradient id="SVGID_24_" gradientUnits="userSpaceOnUse" x1="-3891.1975" y1="3405.3914" x2="-3890.1975" y2="3405.3914" gradientTransform="matrix(3.4843 0 0 -3.4843 13652.6914 11910.0762)">
			<stop  offset="0" style="stop-color:#1392C2"/>
			<stop  offset="1" style="stop-color:#00B6A1"/>
		</linearGradient>
		<rect x="94.6" y="43" style="clip-path:url(#SVGID_22_);fill:url(#SVGID_24_);" width="3.5" height="3.5"/>
	</g>
	<g>
		<defs>
			<path id="SVGID_221_" d="M103.2,43c-0.9,0-1.7,0.8-1.7,1.7c0,1,0.8,1.8,1.8,1.7c1,0,1.7-0.8,1.7-1.8C105,43.7,104.2,43,103.2,43
				C103.2,43,103.2,43,103.2,43"/>
		</defs>
		<clipPath id="SVGID_25_">
			<use xlink:href="#SVGID_221_"  style="overflow:visible;"/>
		</clipPath>
		
			<linearGradient id="SVGID_26_" gradientUnits="userSpaceOnUse" x1="-3891.1592" y1="3405.4004" x2="-3890.1592" y2="3405.4004" gradientTransform="matrix(3.4841 0 0 -3.4841 13658.8857 11909.6484)">
			<stop  offset="0" style="stop-color:#1392C2"/>
			<stop  offset="1" style="stop-color:#00B6A1"/>
		</linearGradient>
		<rect x="101.5" y="43" style="clip-path:url(#SVGID_25_);fill:url(#SVGID_26_);" width="3.5" height="3.5"/>
	</g>
</g>
</svg>
