<?xml version="1.0" encoding="utf-8"?>
<!-- Generator: Adobe Illustrator 22.0.0, SVG Export Plug-In . SVG Version: 6.00 Build 0)  -->
<svg version="1.1" id="Layer_1" xmlns="http://www.w3.org/2000/svg" xmlns:xlink="http://www.w3.org/1999/xlink" x="0px" y="0px"
	 viewBox="0 0 150 150" style="enable-background:new 0 0 150 150;" xml:space="preserve">
<style type="text/css">
	.st0{opacity:0.76;}
	.st1{clip-path:url(#SVGID_4_);fill:url(#SVGID_5_);}
	.st2{clip-path:url(#SVGID_7_);}
	.st3{opacity:0.51;clip-path:url(#SVGID_11_);}
	.st4{clip-path:url(#SVGID_13_);}
	.st5{filter:url(#Adobe_OpacityMaskFilter);}
	.st6{clip-path:url(#SVGID_15_);fill:url(#SVGID_17_);}
	.st7{clip-path:url(#SVGID_15_);mask:url(#SVGID_16_);fill:url(#SVGID_18_);}
	.st8{opacity:0.51;clip-path:url(#SVGID_20_);}
	.st9{clip-path:url(#SVGID_22_);}
	.st10{filter:url(#Adobe_OpacityMaskFilter_1_);}
	.st11{clip-path:url(#SVGID_24_);fill:url(#SVGID_26_);}
	.st12{clip-path:url(#SVGID_24_);mask:url(#SVGID_25_);fill:url(#SVGID_27_);}
	.st13{fill:#FFFFFF;}
	.st14{fill:none;}
	.st15{clip-path:url(#SVGID_29_);fill:url(#SVGID_30_);}
	.st16{filter:url(#Adobe_OpacityMaskFilter_2_);}
	.st17{clip-path:url(#SVGID_32_);fill:url(#SVGID_34_);}
	.st18{clip-path:url(#SVGID_32_);mask:url(#SVGID_33_);fill:url(#SVGID_35_);}
	.st19{fill:#E4E6E6;}
	.st20{fill:#DBDCDE;}
	.st21{opacity:0.1;clip-path:url(#SVGID_37_);}
	.st22{clip-path:url(#SVGID_39_);}
	.st23{clip-path:url(#SVGID_37_);fill:#FFFFFF;}
	.st24{opacity:0.21;clip-path:url(#SVGID_37_);}
	.st25{clip-path:url(#SVGID_45_);}
	.st26{clip-path:url(#SVGID_49_);fill:url(#SVGID_50_);}
	.st27{clip-path:url(#SVGID_54_);fill:url(#SVGID_55_);}
	.st28{clip-path:url(#SVGID_57_);fill:url(#SVGID_58_);}
	.st29{clip-path:url(#SVGID_60_);fill:url(#SVGID_61_);}
	.st30{clip-path:url(#SVGID_63_);fill:url(#SVGID_64_);}
	.st31{clip-path:url(#SVGID_66_);fill:url(#SVGID_67_);}
	.st32{clip-path:url(#SVGID_69_);fill:url(#SVGID_70_);}
	.st33{clip-path:url(#SVGID_72_);fill:url(#SVGID_73_);}
	.st34{clip-path:url(#SVGID_75_);fill:url(#SVGID_76_);}
	.st35{clip-path:url(#SVGID_78_);fill:url(#SVGID_79_);}
	.st36{clip-path:url(#SVGID_81_);fill:url(#SVGID_82_);}
	.st37{clip-path:url(#SVGID_84_);fill:url(#SVGID_85_);}
	.st38{clip-path:url(#SVGID_87_);fill:url(#SVGID_88_);}
	.st39{clip-path:url(#SVGID_90_);fill:url(#SVGID_91_);}
	.st40{clip-path:url(#SVGID_93_);fill:url(#SVGID_94_);}
	.st41{clip-path:url(#SVGID_96_);fill:url(#SVGID_97_);}
	.st42{clip-path:url(#SVGID_99_);fill:url(#SVGID_100_);}
	.st43{clip-path:url(#SVGID_102_);fill:url(#SVGID_103_);}
	.st44{clip-path:url(#SVGID_105_);fill:url(#SVGID_106_);}
	.st45{clip-path:url(#SVGID_108_);fill:url(#SVGID_109_);}
	.st46{clip-path:url(#SVGID_111_);fill:url(#SVGID_112_);}
	.st47{clip-path:url(#SVGID_114_);fill:url(#SVGID_115_);}
	.st48{fill:url(#SVGID_116_);}
	.st49{fill:url(#SVGID_117_);}
	.st50{fill:url(#SVGID_118_);}
	.st51{fill:url(#SVGID_119_);}
	.st52{fill:url(#SVGID_120_);}
	.st53{fill:url(#SVGID_121_);}
	.st54{opacity:0.3;}
	.st55{clip-path:url(#SVGID_123_);}
	.st56{clip-path:url(#SVGID_127_);fill:url(#SVGID_128_);}
	.st57{clip-path:url(#SVGID_130_);}
	.st58{clip-path:url(#SVGID_134_);}
	.st59{clip-path:url(#SVGID_138_);}
	.st60{clip-path:url(#SVGID_142_);fill:url(#SVGID_143_);}
	.st61{clip-path:url(#SVGID_145_);}
	.st62{clip-path:url(#SVGID_149_);}
	.st63{clip-path:url(#SVGID_153_);}
	.st64{clip-path:url(#SVGID_157_);fill:url(#SVGID_158_);}
	.st65{clip-path:url(#SVGID_160_);}
	.st66{clip-path:url(#SVGID_164_);}
	.st67{clip-path:url(#SVGID_168_);fill:url(#SVGID_169_);}
	.st68{clip-path:url(#SVGID_171_);fill:url(#SVGID_172_);}
	.st69{clip-path:url(#SVGID_174_);fill:url(#SVGID_175_);}
	.st70{clip-path:url(#SVGID_177_);fill:url(#SVGID_178_);}
	.st71{clip-path:url(#SVGID_180_);fill:url(#SVGID_181_);}
	.st72{clip-path:url(#SVGID_183_);fill:url(#SVGID_184_);}
	.st73{clip-path:url(#SVGID_186_);fill:url(#SVGID_187_);}
	.st74{clip-path:url(#SVGID_189_);fill:url(#SVGID_190_);}
	.st75{clip-path:url(#SVGID_192_);fill:url(#SVGID_193_);}
	.st76{clip-path:url(#SVGID_195_);fill:url(#SVGID_196_);}
	.st77{clip-path:url(#SVGID_198_);fill:url(#SVGID_199_);}
	.st78{clip-path:url(#SVGID_201_);fill:url(#SVGID_202_);}
	.st79{clip-path:url(#SVGID_204_);fill:url(#SVGID_205_);}
	.st80{clip-path:url(#SVGID_207_);fill:url(#SVGID_208_);}
	.st81{clip-path:url(#SVGID_210_);fill:url(#SVGID_211_);}
	.st82{clip-path:url(#SVGID_213_);fill:url(#SVGID_214_);}
	.st83{clip-path:url(#SVGID_216_);fill:url(#SVGID_217_);}
	.st84{clip-path:url(#SVGID_219_);fill:url(#SVGID_220_);}
	.st85{clip-path:url(#SVGID_222_);fill:url(#SVGID_223_);}
	.st86{fill:none;stroke:#606060;stroke-width:0.5;stroke-miterlimit:10;}
	.st87{clip-path:url(#SVGID_225_);}
	.st88{opacity:0.3;clip-path:url(#SVGID_229_);}
	.st89{clip-path:url(#SVGID_231_);}
	.st90{clip-path:url(#SVGID_229_);fill:#FFFFFF;}
	.st91{fill:url(#SVGID_234_);}
	.st92{fill:url(#SVGID_235_);}
	.st93{clip-path:url(#SVGID_237_);fill:url(#SVGID_238_);}
	.st94{fill:none;stroke:url(#SVGID_239_);stroke-width:0.974;stroke-miterlimit:10;}
</style>
<g>
	<g>
		<defs>
			<path id="SVGID_167_" d="M24.4,77.8c-0.5-0.3-0.8-0.7-0.5-1.3c0.4-0.9,1.1-1.3,1.8-1c0.8,0.3,1.3,0.9,1.7,1.6
				c0.3,0.6,0.5,1.2,0.8,2C26.6,78.8,25.4,78.4,24.4,77.8 M93.8,61.8c-0.1-1.8,0.2-3.5,0.4-5.3c0.1-0.8,0.6-1.3,1.3-1.6
				c4-1.8,8-3.5,12.3-4.6c0.6-0.1,1.1-0.2,1.7-0.3c0.7-0.1,1.2,0.1,1.3,0.8c0.2,1.5,0.4,3,0.6,4.5c-0.2,4.1-0.8,8.1-2.4,11.8
				c-0.2,0.5-0.5,1-0.8,1.5c-0.5,0.9-1.3,1.4-2.3,1.7c-0.9,0.3-1.8,0.4-2.7,0.4C98.3,70.8,94.1,67,93.8,61.8 M65.3,20.6
				c-9.8,1.8-17.4,10.2-18,20.1c-0.5,8.3,2.7,15,9.4,20c0.2,0.2,0.4,0.3,0.7,0.6c-0.3,0.1-0.4,0.2-0.6,0.2c-0.7,0.2-1.5,0.4-2.2,0.7
				c-0.9,0.4-1.3,1.3-1,2.1c0.3,0.8,1.1,1.2,2,1c0.4-0.1,0.7-0.2,1-0.3c7.9-2.4,15.8-2.6,23.8-0.5c0.9,0.2,1.9,0.6,2.8,0.8
				c0.9,0.2,1.7-0.3,2-1.1c0.3-0.8-0.1-1.6-0.9-2c-0.4-0.2-0.8-0.3-1.2-0.4c-0.5-0.2-1.1-0.3-1.6-0.5c1.3-1.1,2.5-2,3.6-3.1
				c1.1-1.1,2-2.3,3-3.5c0.9,0.2,1.8,0.4,2.8,0.7c0,0.4,0,0.6-0.1,0.8c-0.4,1.9-0.5,3.8-0.4,5.6c0.2,3,1.1,5.8,3.2,8.1
				c2.6,2.8,5.9,4.2,9.6,4.2c5.2,0,7.1-1.8,8.8-5.5c0.1-0.3,0.3-0.6,0.4-0.9c0.1,0.1,0.2,0.1,0.2,0.1c0.2,0.2,0.4,0.4,0.6,0.7
				c1.8,2.4,3.3,5,4.2,7.8c0.7,2.1,2,3.4,4.1,4c1.3,0.4,2.5,0.8,3.7,1.2c1.6,0.5,2.2,1.4,2.2,3.1c0,2.2,0,4.4,0,6.7
				c0,2.1-0.6,2.9-2.6,3.6c-2.1,0.7-4.2,1.4-6.3,2c-1.4,0.4-2.5,1.2-3.2,2.4c-3.1,5.2-7.4,9-12.7,11.8c-1.5,0.8-2.2,1.8-2.4,3.4
				c-0.6,3.6-1.3,7.1-2,10.7c-0.2,1.1-0.3,1.2-1.5,1.2c-2.1,0-4.3,0-6.4,0c-1,0-1.1-0.2-1.3-1.1c-0.4-1.9-0.7-3.9-1.1-5.8
				c-0.4-2.2-1.5-2.9-3.7-2.7c-2,0.3-4,0.5-6,0.6c-3.5,0-7-0.1-10.6-0.2c-2.1-0.1-3,0.6-3.4,2.6c-0.3,1.8-0.7,3.6-1,5.4
				c-0.2,1.2-0.3,1.2-1.4,1.2c-2.1,0-4.3,0-6.4,0c-1.1,0-1.2-0.1-1.4-1.1c-0.6-3.2-1.4-6.4-1.8-9.6c-0.3-2.1-1.3-3.3-3-4.3
				c-6.2-3.6-10.7-8.7-12.9-15.6c-1.6-5-1.9-10.2-1.2-15.4c1.2-8.9,5.6-15.8,13.2-20.5c0.4-0.3,0.8-0.5,1.2-0.8
				c0.6-0.5,0.6-1.1,0.4-1.8c-0.2-0.6-0.7-1.1-1.4-1c-0.5,0-1,0.2-1.4,0.5c-8.3,5-13.4,12.3-15.1,21.9c-0.1,0.3-0.2,0.6-0.3,1
				c-0.2-0.2-0.2-0.2-0.2-0.2c0-0.3,0-0.5-0.1-0.8c-0.3-2.5-1.4-4.7-3.7-6c-2.2-1.3-4.6-0.8-6.1,1.2c-0.2,0.3-0.4,0.6-0.6,0.9
				c-1.1,2.1-0.7,4.2,1.2,5.5c1,0.7,2.1,1.1,3.2,1.5c0.5,0.2,1,0.3,1.5,0.5c-1.2,2-3.2,3.2-5.9,3.5c-0.9,0.1-1.5,0.4-1.9,1.2v1.3
				c0.7,0.9,1.7,1.1,2.8,1c1.8-0.2,3.4-0.9,4.8-1.9c1.4-1.1,2.7-2.4,3.6-3.9c0.2-0.4,0.5-0.8,1-0.4c0,0.2,0,0.4,0,0.6
				c0,1.8,0,3.6,0.2,5.4c0.4,5.8,2.2,11.1,5.6,15.9c2.8,4,6.4,7.1,10.6,9.6c0.7,0.4,1.1,0.8,1.2,1.7c0.1,1,0.4,2.1,0.6,3.1
				c0.5,2.5,0.9,5,1.5,7.5c0.4,1.8,1.9,3,3.7,3c2.7,0.1,5.4,0.1,8.1,0c1.7,0,3.1-1.2,3.6-2.8c0.2-0.6,0.3-1.3,0.4-1.9
				c0.3-1.4,0.6-2.9,0.9-4.4c5.8,0.6,11.4,0.4,17-0.3c0.1,0.3,0.1,0.5,0.2,0.7c0.3,1.8,0.6,3.6,1,5.3c0.5,2.2,2,3.4,4.3,3.4
				c2.3,0,4.7,0,7,0c2.4,0,3.9-1.2,4.4-3.5c0.7-3.6,1.4-7.2,2-10.8c0.1-0.8,0.5-1.2,1.2-1.6c5.5-3.1,10.2-7.1,13.4-12.6
				c0.4-0.6,0.8-1,1.5-1.2c2.3-0.7,4.6-1.5,6.9-2.2c2.8-0.9,4.3-3.1,4.3-6c0-2.4,0-4.9,0-7.3c0-2.9-1.6-5.1-4.4-6.1
				c-1.3-0.4-2.6-0.9-3.9-1.3c-1-0.3-1.6-0.8-1.9-1.8c-1.3-4.2-3.6-7.9-6.6-11.1c-0.4-0.4-0.5-0.7-0.3-1.3c0.7-3.4,1-6.8,0.7-10.2
				c-0.1-1.3-0.4-2.6-0.8-3.8c-0.5-1.6-1.8-2.4-3.5-2.4c-0.9,0-1.8,0.1-2.7,0.3c-4.8,1-9.3,3-13.8,5.1c-0.3,0.1-0.6,0.4-0.8,0.3
				c-1-0.2-2-0.5-3.1-0.7c0.4-1.1,0.8-2,1-2.9c0.4-1.8,0.7-3.6,0.9-5.4c0.1-0.9-0.5-1.5-1.3-1.6c-0.9-0.1-1.6,0.3-1.8,1.2
				c-0.1,0.3-0.1,0.6-0.1,0.9c-0.7,7.5-4.5,12.8-11.3,16c-0.7,0.3-1.4,0.4-2.1,0.3c-3.6-0.5-7.3-0.5-10.9,0c-0.8,0.1-1.4,0-2.1-0.3
				c-8-3.5-12.7-12-11-20.6c1.5-7.8,6.2-13,13.8-15c7.8-2,14.4,0.3,19.5,6.5c0.9,1,1.5,2.3,2.2,3.4c0.5,0.8,1.3,1,2.1,0.6
				c0.8-0.4,1.2-1.2,0.8-2.1c-0.1-0.4-0.3-0.7-0.5-1.1c-4-7.1-11.4-11.3-19.3-11.3C68.1,20.2,66.7,20.3,65.3,20.6"/>
		</defs>
		<clipPath id="SVGID_2_">
			<use xlink:href="#SVGID_167_"  style="overflow:visible;"/>
		</clipPath>
		
			<linearGradient id="SVGID_4_" gradientUnits="userSpaceOnUse" x1="-4328.7417" y1="3194.74" x2="-4327.7417" y2="3194.74" gradientTransform="matrix(111.7968 0 0 -111.7968 483958.4063 357236.5938)">
			<stop  offset="0" style="stop-color:#1392C2"/>
			<stop  offset="1" style="stop-color:#00B6A1"/>
		</linearGradient>
		<rect x="19.1" y="20.2" style="clip-path:url(#SVGID_2_);fill:url(#SVGID_4_);" width="111.8" height="109.7"/>
	</g>
	<g>
		<defs>
			<path id="SVGID_170_" d="M71,43.9c1.7,0.7,2.5,1.7,2.3,3.3c-0.1,1.4-0.8,2.1-2.3,2.4V43.9z M66.9,37c0.1-1.3,0.9-1.9,2.6-2.1v4.8
				C67.6,39.4,66.8,38.4,66.9,37 M70.2,30.6c-1,0-0.8,0.9-0.9,1.4c-0.6,0.2-1.2,0.3-1.7,0.5c-2.8,0.9-4.1,3.4-3.5,6.3
				c0.3,1.5,1.3,2.5,2.6,3.2c0.9,0.5,1.8,0.8,2.7,1.2v3.3v3.2c-1.2,0-2-0.4-2.8-1c-0.4-0.3-0.7-0.6-1-0.8c-0.8-0.6-1.4-0.4-1.9,0.4
				c-0.4,0.7-0.3,1.5,0.3,2.2c1,1.2,2.4,1.7,3.9,2c0.5,0.1,0.9,0.2,1.3,0.2c0.2,1.1,0.4,1.4,0.9,1.5c0.6,0,0.9-0.3,1-1.6
				c0.5-0.1,0.9-0.2,1.3-0.4c1.6-0.5,2.7-1.5,3.4-3c1.3-3.2,0.1-6.4-2.9-7.9c-0.6-0.3-1.2-0.5-1.7-0.8v-5.6c1-0.1,1.7,0.3,2.5,0.7
				c0.9,0.4,1.4,0.3,1.8-0.5c0.5-0.8,0.3-1.6-0.5-2.1c-0.5-0.3-1.1-0.5-1.6-0.6c-0.7-0.2-1.5-0.3-2.2-0.4
				C71,30.9,70.7,30.6,70.2,30.6C70.2,30.6,70.2,30.6,70.2,30.6"/>
		</defs>
		<clipPath id="SVGID_5_">
			<use xlink:href="#SVGID_170_"  style="overflow:visible;"/>
		</clipPath>
		
			<linearGradient id="SVGID_7_" gradientUnits="userSpaceOnUse" x1="-4059.2886" y1="3245.9614" x2="-4058.2886" y2="3245.9614" gradientTransform="matrix(13.0004 0 0 -13.0004 52835.625 42241.1367)">
			<stop  offset="0" style="stop-color:#1392C2"/>
			<stop  offset="1" style="stop-color:#00B6A1"/>
		</linearGradient>
		<rect x="63.2" y="30.6" style="clip-path:url(#SVGID_5_);fill:url(#SVGID_7_);" width="14" height="23.6"/>
	</g>
	<g>
		<defs>
			<path id="SVGID_173_" d="M103.7,78.2c-1,0.1-1.6,1-1.4,2.2c0.3,2.7,2.6,4.8,5.3,4.8c2.8,0,5.3-2.3,5.4-5.1c0-1.1-0.5-1.8-1.5-1.9
				c-1-0.1-1.6,0.5-1.8,1.6c-0.2,1.3-0.9,2-2,2c-1.1,0-1.8-0.6-2.1-2c-0.2-1.1-0.7-1.7-1.6-1.7C103.9,78.2,103.8,78.2,103.7,78.2"/>
		</defs>
		<clipPath id="SVGID_9_">
			<use xlink:href="#SVGID_173_"  style="overflow:visible;"/>
		</clipPath>
		
			<linearGradient id="SVGID_11_" gradientUnits="userSpaceOnUse" x1="-3994.3904" y1="3258.3015" x2="-3993.3904" y2="3258.3015" gradientTransform="matrix(10.7189 0 0 -10.7189 42917.793 35007.082)">
			<stop  offset="0" style="stop-color:#1392C2"/>
			<stop  offset="1" style="stop-color:#00B6A1"/>
		</linearGradient>
		<rect x="102.1" y="78.1" style="clip-path:url(#SVGID_9_);fill:url(#SVGID_11_);" width="10.9" height="7.1"/>
	</g>
</g>
</svg>
