<?xml version="1.0" encoding="utf-8"?>
<!-- Generator: Adobe Illustrator 22.0.0, SVG Export Plug-In . SVG Version: 6.00 Build 0)  -->
<svg version="1.1" id="Layer_1" xmlns="http://www.w3.org/2000/svg" xmlns:xlink="http://www.w3.org/1999/xlink" x="0px" y="0px"
	 viewBox="0 0 91.5 91.5" style="enable-background:new 0 0 91.5 91.5;" xml:space="preserve">
<style type="text/css">
	.st0{fill:#FFFFFF;}
	.st1{opacity:0.73;}
	.st2{clip-path:url(#SVGID_5_);}
	.st3{filter:url(#Adobe_OpacityMaskFilter);}
	.st4{clip-path:url(#SVGID_8_);}
	.st5{enable-background:new    ;}
	.st6{clip-path:url(#SVGID_8_);fill:url(#SVGID_10_);}
	.st7{clip-path:url(#SVGID_8_);mask:url(#SVGID_9_);}
	.st8{clip-path:url(#SVGID_13_);}
	.st9{clip-path:url(#SVGID_16_);fill:url(#SVGID_17_);}
	.st10{fill:none;}
	.st11{opacity:0.1;clip-path:url(#SVGID_19_);}
	.st12{clip-path:url(#SVGID_21_);}
	.st13{clip-path:url(#SVGID_23_);}
	.st14{clip-path:url(#SVGID_19_);fill:#FFFFFF;}
	.st15{opacity:0.21;clip-path:url(#SVGID_19_);}
	.st16{clip-path:url(#SVGID_27_);}
	.st17{clip-path:url(#SVGID_31_);}
	.st18{clip-path:url(#SVGID_33_);}
	.st19{opacity:0.3;clip-path:url(#SVGID_37_);}
	.st20{clip-path:url(#SVGID_39_);}
	.st21{clip-path:url(#SVGID_41_);}
	.st22{clip-path:url(#SVGID_37_);fill:#FFFFFF;}
	.st23{clip-path:url(#SVGID_45_);fill:url(#SVGID_46_);}
	.st24{clip-path:url(#SVGID_48_);fill:#FFFFFF;}
	.st25{filter:url(#Adobe_OpacityMaskFilter_1_);}
	.st26{clip-path:url(#SVGID_50_);}
	.st27{clip-path:url(#SVGID_50_);fill:url(#SVGID_52_);}
	.st28{clip-path:url(#SVGID_50_);mask:url(#SVGID_51_);}
	.st29{clip-path:url(#SVGID_54_);}
	.st30{clip-path:url(#SVGID_56_);fill:url(#SVGID_57_);}
	.st31{clip-path:url(#SVGID_59_);fill:#E1E3E3;}
	.st32{clip-path:url(#SVGID_61_);fill:url(#SVGID_62_);}
	.st33{clip-path:url(#SVGID_64_);fill:url(#SVGID_65_);}
	.st34{clip-path:url(#SVGID_67_);fill:url(#SVGID_68_);}
	.st35{clip-path:url(#SVGID_70_);fill:url(#SVGID_71_);}
	.st36{clip-path:url(#SVGID_73_);fill:url(#SVGID_74_);}
	.st37{clip-path:url(#SVGID_76_);fill:url(#SVGID_77_);}
	.st38{clip-path:url(#SVGID_79_);fill:url(#SVGID_80_);}
	.st39{clip-path:url(#SVGID_82_);fill:url(#SVGID_83_);}
	.st40{clip-path:url(#SVGID_85_);fill:url(#SVGID_86_);}
	.st41{clip-path:url(#SVGID_88_);fill:url(#SVGID_89_);}
	.st42{clip-path:url(#SVGID_91_);fill:url(#SVGID_92_);}
	.st43{clip-path:url(#SVGID_94_);fill:url(#SVGID_95_);}
	.st44{clip-path:url(#SVGID_97_);fill:url(#SVGID_98_);}
	.st45{clip-path:url(#SVGID_100_);fill:url(#SVGID_101_);}
	.st46{clip-path:url(#SVGID_103_);fill:url(#SVGID_104_);}
	.st47{clip-path:url(#SVGID_106_);fill:url(#SVGID_107_);}
	.st48{clip-path:url(#SVGID_109_);fill:url(#SVGID_110_);}
	.st49{clip-path:url(#SVGID_112_);fill:url(#SVGID_113_);}
	.st50{clip-path:url(#SVGID_115_);fill:url(#SVGID_116_);}
	.st51{clip-path:url(#SVGID_118_);fill:url(#SVGID_119_);}
	.st52{clip-path:url(#SVGID_121_);fill:url(#SVGID_122_);}
	.st53{clip-path:url(#SVGID_124_);fill:url(#SVGID_125_);}
	.st54{clip-path:url(#SVGID_127_);fill:url(#SVGID_128_);}
	.st55{clip-path:url(#SVGID_130_);}
	.st56{opacity:0.76;}
	.st57{clip-path:url(#SVGID_134_);}
	.st58{clip-path:url(#SVGID_136_);fill:url(#SVGID_137_);}
	.st59{clip-path:url(#SVGID_139_);fill:#EAEBED;}
	.st60{opacity:0.3;clip-path:url(#SVGID_139_);}
	.st61{clip-path:url(#SVGID_141_);}
	.st62{clip-path:url(#SVGID_143_);}
	.st63{opacity:0.3;clip-path:url(#SVGID_147_);}
	.st64{clip-path:url(#SVGID_149_);}
	.st65{clip-path:url(#SVGID_151_);}
	.st66{clip-path:url(#SVGID_147_);fill:#FFFFFF;}
	.st67{clip-path:url(#SVGID_147_);fill:none;stroke:#606060;stroke-width:0.5;stroke-miterlimit:10;}
	.st68{clip-path:url(#SVGID_155_);}
	.st69{clip-path:url(#SVGID_159_);fill:url(#SVGID_160_);}
	.st70{clip-path:url(#SVGID_162_);fill:url(#SVGID_163_);}
	.st71{clip-path:url(#SVGID_165_);fill:url(#SVGID_166_);}
	.st72{clip-path:url(#SVGID_168_);fill:url(#SVGID_169_);}
	.st73{clip-path:url(#SVGID_171_);fill:url(#SVGID_172_);}
	.st74{clip-path:url(#SVGID_174_);fill:url(#SVGID_175_);}
	.st75{clip-path:url(#SVGID_177_);fill:url(#SVGID_178_);}
	.st76{opacity:0.3;clip-path:url(#SVGID_180_);}
	.st77{clip-path:url(#SVGID_182_);}
	.st78{clip-path:url(#SVGID_184_);}
	.st79{clip-path:url(#SVGID_188_);fill:url(#SVGID_189_);}
	.st80{opacity:0.3;clip-path:url(#SVGID_191_);}
	.st81{clip-path:url(#SVGID_193_);}
	.st82{clip-path:url(#SVGID_195_);}
	.st83{clip-path:url(#SVGID_199_);}
	.st84{opacity:0.3;clip-path:url(#SVGID_203_);}
	.st85{clip-path:url(#SVGID_205_);}
	.st86{clip-path:url(#SVGID_207_);}
	.st87{clip-path:url(#SVGID_211_);fill:url(#SVGID_212_);}
	.st88{opacity:0.3;clip-path:url(#SVGID_214_);}
	.st89{clip-path:url(#SVGID_216_);}
	.st90{clip-path:url(#SVGID_218_);}
	.st91{clip-path:url(#SVGID_222_);}
	.st92{opacity:0.3;clip-path:url(#SVGID_226_);}
	.st93{clip-path:url(#SVGID_228_);}
	.st94{clip-path:url(#SVGID_230_);}
	.st95{clip-path:url(#SVGID_234_);fill:url(#SVGID_235_);}
	.st96{opacity:0.3;clip-path:url(#SVGID_237_);}
	.st97{clip-path:url(#SVGID_239_);}
	.st98{clip-path:url(#SVGID_241_);}
	.st99{clip-path:url(#SVGID_245_);}
	.st100{opacity:0.3;clip-path:url(#SVGID_249_);}
	.st101{clip-path:url(#SVGID_251_);}
	.st102{clip-path:url(#SVGID_253_);}
	.st103{clip-path:url(#SVGID_257_);fill:url(#SVGID_258_);}
	.st104{opacity:0.3;clip-path:url(#SVGID_260_);}
	.st105{clip-path:url(#SVGID_262_);}
	.st106{clip-path:url(#SVGID_264_);}
	.st107{clip-path:url(#SVGID_268_);}
	.st108{opacity:0.51;clip-path:url(#SVGID_272_);}
	.st109{clip-path:url(#SVGID_274_);}
	.st110{filter:url(#Adobe_OpacityMaskFilter_2_);}
	.st111{clip-path:url(#SVGID_276_);}
	.st112{clip-path:url(#SVGID_276_);fill:url(#SVGID_278_);}
	.st113{clip-path:url(#SVGID_276_);mask:url(#SVGID_277_);}
	.st114{clip-path:url(#SVGID_280_);}
	.st115{clip-path:url(#SVGID_282_);fill:url(#SVGID_283_);}
	.st116{opacity:0.51;clip-path:url(#SVGID_285_);}
	.st117{clip-path:url(#SVGID_287_);}
	.st118{filter:url(#Adobe_OpacityMaskFilter_3_);}
	.st119{clip-path:url(#SVGID_289_);}
	.st120{clip-path:url(#SVGID_289_);fill:url(#SVGID_291_);}
	.st121{clip-path:url(#SVGID_289_);mask:url(#SVGID_290_);}
	.st122{clip-path:url(#SVGID_293_);}
	.st123{clip-path:url(#SVGID_295_);fill:url(#SVGID_296_);}
	.st124{opacity:0.3;clip-path:url(#SVGID_298_);}
	.st125{clip-path:url(#SVGID_300_);}
	.st126{clip-path:url(#SVGID_302_);}
	.st127{clip-path:url(#SVGID_298_);fill:#FFFFFF;}
	.st128{fill:#383838;}
	.st129{opacity:0.73;fill:url(#SVGID_307_);}
	.st130{clip-path:url(#SVGID_309_);fill:url(#SVGID_310_);}
	.st131{clip-path:url(#SVGID_312_);fill:#FFFFFF;}
	.st132{filter:url(#Adobe_OpacityMaskFilter_4_);}
	.st133{clip-path:url(#SVGID_314_);}
	.st134{clip-path:url(#SVGID_314_);fill:url(#SVGID_316_);}
	.st135{clip-path:url(#SVGID_314_);mask:url(#SVGID_315_);}
	.st136{clip-path:url(#SVGID_318_);}
	.st137{clip-path:url(#SVGID_320_);fill:url(#SVGID_321_);}
	.st138{clip-path:url(#SVGID_323_);fill:#E1E3E3;}
	.st139{clip-path:url(#SVGID_325_);fill:url(#SVGID_326_);}
	.st140{clip-path:url(#SVGID_328_);fill:url(#SVGID_329_);}
	.st141{clip-path:url(#SVGID_331_);fill:url(#SVGID_332_);}
	.st142{clip-path:url(#SVGID_334_);fill:url(#SVGID_335_);}
	.st143{clip-path:url(#SVGID_337_);fill:url(#SVGID_338_);}
	.st144{clip-path:url(#SVGID_340_);fill:url(#SVGID_341_);}
	.st145{clip-path:url(#SVGID_343_);fill:url(#SVGID_344_);}
	.st146{clip-path:url(#SVGID_346_);fill:url(#SVGID_347_);}
	.st147{clip-path:url(#SVGID_349_);fill:url(#SVGID_350_);}
	.st148{clip-path:url(#SVGID_352_);fill:url(#SVGID_353_);}
	.st149{clip-path:url(#SVGID_355_);fill:url(#SVGID_356_);}
	.st150{clip-path:url(#SVGID_358_);fill:url(#SVGID_359_);}
	.st151{clip-path:url(#SVGID_361_);fill:url(#SVGID_362_);}
	.st152{clip-path:url(#SVGID_364_);fill:url(#SVGID_365_);}
	.st153{clip-path:url(#SVGID_367_);fill:url(#SVGID_368_);}
	.st154{clip-path:url(#SVGID_370_);fill:url(#SVGID_371_);}
	.st155{clip-path:url(#SVGID_373_);fill:url(#SVGID_374_);}
	.st156{clip-path:url(#SVGID_376_);fill:url(#SVGID_377_);}
	.st157{clip-path:url(#SVGID_379_);fill:url(#SVGID_380_);}
	.st158{clip-path:url(#SVGID_382_);fill:url(#SVGID_383_);}
	.st159{clip-path:url(#SVGID_385_);fill:url(#SVGID_386_);}
	.st160{clip-path:url(#SVGID_388_);fill:url(#SVGID_389_);}
	.st161{clip-path:url(#SVGID_391_);fill:url(#SVGID_392_);}
	.st162{clip-path:url(#SVGID_394_);}
	.st163{clip-path:url(#SVGID_398_);}
	.st164{clip-path:url(#SVGID_400_);fill:url(#SVGID_401_);}
	.st165{clip-path:url(#SVGID_403_);fill:#EAEBED;}
	.st166{opacity:0.3;clip-path:url(#SVGID_403_);}
	.st167{clip-path:url(#SVGID_405_);}
	.st168{clip-path:url(#SVGID_407_);}
	.st169{clip-path:url(#SVGID_411_);fill:url(#SVGID_412_);}
	.st170{clip-path:url(#SVGID_414_);fill:url(#SVGID_415_);}
	.st171{clip-path:url(#SVGID_417_);fill:url(#SVGID_418_);}
	.st172{clip-path:url(#SVGID_420_);fill:url(#SVGID_421_);}
	.st173{clip-path:url(#SVGID_423_);fill:url(#SVGID_424_);}
	.st174{clip-path:url(#SVGID_426_);fill:url(#SVGID_427_);}
	.st175{clip-path:url(#SVGID_429_);fill:url(#SVGID_430_);}
	.st176{clip-path:url(#SVGID_432_);fill:url(#SVGID_433_);}
	.st177{clip-path:url(#SVGID_435_);fill:url(#SVGID_436_);}
	.st178{clip-path:url(#SVGID_438_);fill:url(#SVGID_439_);}
	.st179{clip-path:url(#SVGID_441_);fill:url(#SVGID_442_);}
	.st180{clip-path:url(#SVGID_444_);fill:url(#SVGID_445_);}
	.st181{clip-path:url(#SVGID_447_);fill:url(#SVGID_448_);}
	.st182{clip-path:url(#SVGID_450_);fill:url(#SVGID_451_);}
	.st183{clip-path:url(#SVGID_453_);fill:url(#SVGID_454_);}
	.st184{clip-path:url(#SVGID_456_);fill:url(#SVGID_457_);}
	.st185{clip-path:url(#SVGID_459_);fill:url(#SVGID_460_);}
	.st186{clip-path:url(#SVGID_462_);fill:url(#SVGID_463_);}
	.st187{clip-path:url(#SVGID_465_);fill:url(#SVGID_466_);}
	.st188{opacity:0.3;clip-path:url(#SVGID_468_);}
	.st189{clip-path:url(#SVGID_470_);}
	.st190{clip-path:url(#SVGID_472_);}
	.st191{clip-path:url(#SVGID_468_);fill:#FFFFFF;}
	.st192{clip-path:url(#SVGID_468_);fill:none;stroke:#606060;stroke-width:0.5;stroke-miterlimit:10;}
	.st193{clip-path:url(#SVGID_476_);}
	.st194{clip-path:url(#SVGID_480_);fill:url(#SVGID_481_);}
	.st195{clip-path:url(#SVGID_483_);fill:url(#SVGID_484_);}
	.st196{clip-path:url(#SVGID_486_);fill:url(#SVGID_487_);}
	.st197{clip-path:url(#SVGID_489_);fill:url(#SVGID_490_);}
	.st198{clip-path:url(#SVGID_492_);fill:url(#SVGID_493_);}
	.st199{clip-path:url(#SVGID_495_);fill:url(#SVGID_496_);}
	.st200{clip-path:url(#SVGID_498_);fill:url(#SVGID_499_);}
	.st201{opacity:0.3;clip-path:url(#SVGID_501_);}
	.st202{clip-path:url(#SVGID_503_);}
	.st203{clip-path:url(#SVGID_505_);}
	.st204{clip-path:url(#SVGID_509_);fill:url(#SVGID_510_);}
	.st205{opacity:0.3;clip-path:url(#SVGID_512_);}
	.st206{clip-path:url(#SVGID_514_);}
	.st207{clip-path:url(#SVGID_516_);}
	.st208{clip-path:url(#SVGID_520_);}
	.st209{opacity:0.3;clip-path:url(#SVGID_524_);}
	.st210{clip-path:url(#SVGID_526_);}
	.st211{clip-path:url(#SVGID_528_);}
	.st212{clip-path:url(#SVGID_532_);fill:url(#SVGID_533_);}
	.st213{opacity:0.3;clip-path:url(#SVGID_535_);}
	.st214{clip-path:url(#SVGID_537_);}
	.st215{clip-path:url(#SVGID_539_);}
	.st216{clip-path:url(#SVGID_543_);}
	.st217{opacity:0.3;clip-path:url(#SVGID_547_);}
	.st218{clip-path:url(#SVGID_549_);}
	.st219{clip-path:url(#SVGID_551_);}
	.st220{clip-path:url(#SVGID_555_);fill:url(#SVGID_556_);}
	.st221{opacity:0.3;clip-path:url(#SVGID_558_);}
	.st222{clip-path:url(#SVGID_560_);}
	.st223{clip-path:url(#SVGID_562_);}
	.st224{clip-path:url(#SVGID_566_);}
	.st225{opacity:0.3;clip-path:url(#SVGID_570_);}
	.st226{clip-path:url(#SVGID_572_);}
	.st227{clip-path:url(#SVGID_574_);}
	.st228{clip-path:url(#SVGID_578_);fill:url(#SVGID_579_);}
	.st229{opacity:0.3;clip-path:url(#SVGID_581_);}
	.st230{clip-path:url(#SVGID_583_);}
	.st231{clip-path:url(#SVGID_585_);}
	.st232{clip-path:url(#SVGID_589_);}
	.st233{fill:#D8D9DB;}
	.st234{clip-path:url(#SVGID_597_);fill:url(#SVGID_598_);}
	.st235{clip-path:url(#SVGID_600_);}
	.st236{fill:url(#SVGID_603_);}
	.st237{clip-path:url(#SVGID_605_);fill:#FFFFFF;}
	.st238{fill:#D0D1D2;}
	.st239{clip-path:url(#SVGID_609_);}
	.st240{fill:none;stroke:#F4EFE6;stroke-width:52;stroke-miterlimit:10;}
	.st241{fill:none;stroke:#AF8282;stroke-width:44;stroke-miterlimit:10;}
	.st242{fill:none;stroke:#93B9C6;stroke-width:30;stroke-miterlimit:10;}
	.st243{fill:none;stroke:#F4EFE6;stroke-width:9;stroke-miterlimit:10;}
	.st244{fill:none;stroke:#F4EFE6;stroke-width:2;stroke-miterlimit:10;}
	.st245{fill:#95BAA9;}
	.st246{fill:#93B9C6;}
	.st247{fill:#E18975;}
	.st248{fill:#231F20;}
	.st249{fill:#D2DBCE;}
	.st250{fill:#F7FAF7;}
	.st251{fill:#EAEAEA;}
	.st252{fill:#F4EFE6;}
	.st253{opacity:0.59;}
	.st254{fill:#4C4C4C;}
	.st255{fill:url(#SVGID_610_);}
	.st256{fill:url(#SVGID_611_);}
	.st257{fill:url(#SVGID_612_);}
	.st258{fill:url(#SVGID_613_);}
	.st259{fill:#B086CC;}
	.st260{fill:#8969C3;}
	.st261{fill:url(#SVGID_614_);}
	.st262{fill:url(#SVGID_615_);}
	.st263{fill:#E6E7E8;}
	.st264{fill:url(#SVGID_616_);}
	.st265{fill:url(#SVGID_617_);}
	.st266{fill:url(#SVGID_618_);}
	.st267{fill:url(#SVGID_619_);}
	.st268{fill:url(#SVGID_620_);}
	.st269{fill:url(#SVGID_621_);}
	.st270{fill:url(#SVGID_622_);}
	.st271{fill:url(#SVGID_623_);}
	.st272{fill:#2AF6FF;}
	.st273{fill:url(#SVGID_624_);}
	.st274{fill:url(#SVGID_625_);}
	.st275{fill:url(#SVGID_626_);}
	.st276{fill:url(#SVGID_627_);}
	.st277{opacity:0.5;fill:#FFFFFF;}
	.st278{opacity:0.2;fill:#FFFFFF;}
	.st279{fill:url(#SVGID_628_);}
	.st280{opacity:0.5;fill:url(#SVGID_629_);}
	.st281{opacity:0.5;fill:url(#SVGID_630_);}
	.st282{fill:url(#SVGID_631_);}
	.st283{clip-path:url(#SVGID_635_);fill:url(#SVGID_636_);}
	.st284{clip-path:url(#SVGID_638_);}
	.st285{fill:url(#SVGID_641_);}
	.st286{clip-path:url(#SVGID_643_);fill:#FFFFFF;}
	.st287{clip-path:url(#SVGID_645_);fill:url(#SVGID_646_);}
	.st288{fill:url(#SVGID_647_);}
	.st289{fill:url(#SVGID_648_);}
	.st290{fill:url(#SVGID_649_);}
	.st291{fill:url(#SVGID_650_);}
	.st292{fill:url(#SVGID_651_);}
	.st293{fill:url(#SVGID_652_);}
	.st294{fill:url(#SVGID_653_);}
	.st295{fill:url(#SVGID_654_);}
	.st296{fill:url(#SVGID_655_);}
	.st297{fill:url(#SVGID_656_);}
	.st298{fill:url(#SVGID_657_);}
	.st299{fill:url(#SVGID_658_);}
	.st300{fill:url(#SVGID_659_);}
	.st301{fill:url(#SVGID_660_);}
	.st302{fill:url(#SVGID_661_);}
	.st303{fill:url(#SVGID_662_);}
	.st304{fill:url(#SVGID_663_);}
	.st305{fill:url(#SVGID_664_);}
	.st306{fill:url(#SVGID_665_);}
	.st307{fill:url(#SVGID_666_);}
	.st308{fill:url(#SVGID_667_);}
	.st309{fill:url(#SVGID_668_);}
	.st310{fill:url(#SVGID_669_);}
	.st311{fill:url(#SVGID_670_);}
	.st312{fill:url(#SVGID_671_);}
	.st313{fill:url(#SVGID_672_);}
	.st314{fill:url(#SVGID_673_);}
	.st315{fill:url(#SVGID_674_);}
	.st316{fill:url(#SVGID_675_);}
	.st317{fill:url(#SVGID_676_);}
	.st318{fill:url(#SVGID_677_);}
	.st319{fill:url(#SVGID_678_);}
	.st320{fill:url(#SVGID_679_);}
	.st321{fill:url(#SVGID_680_);}
	.st322{fill:url(#SVGID_681_);}
	.st323{fill:url(#SVGID_682_);}
	.st324{fill:url(#SVGID_683_);}
	.st325{fill:url(#SVGID_684_);}
	.st326{fill:url(#SVGID_685_);}
	.st327{fill:url(#SVGID_686_);}
	.st328{fill:url(#SVGID_687_);}
	.st329{fill:url(#SVGID_688_);}
	.st330{fill:url(#SVGID_689_);}
	.st331{fill:url(#SVGID_690_);}
	.st332{fill:url(#SVGID_691_);}
	.st333{fill:url(#SVGID_692_);}
	.st334{fill:url(#SVGID_693_);}
	.st335{fill:url(#SVGID_694_);}
	.st336{fill:url(#SVGID_695_);}
	.st337{fill:url(#SVGID_696_);}
	.st338{fill:url(#SVGID_697_);}
	.st339{fill:url(#SVGID_698_);}
	.st340{fill:url(#SVGID_699_);}
	.st341{fill:url(#SVGID_700_);}
	.st342{fill:url(#SVGID_701_);}
	.st343{fill:url(#SVGID_702_);}
</style>
<g>
	<linearGradient id="SVGID_2_" gradientUnits="userSpaceOnUse" x1="-33.3785" y1="-9.7444" x2="89.017" y2="93.7445">
		<stop  offset="0" style="stop-color:#138FBF"/>
		<stop  offset="1" style="stop-color:#00B39E"/>
	</linearGradient>
	<path style="fill:url(#SVGID_2_);" d="M51.9,22.9c2.1,0,4.1,0,6.2,0c0.1-0.2,0.1-0.4,0.2-0.6c1.2-4.3,4.7-7,9.1-7
		c1.4,0,2.9,0,4.3,0c1.8,0,3.2,0.8,4.1,2.5c0.3,0.5,0.6,0.6,1,0.6c1.3,0,2.5,0,3.8,0c1.1,0,1.8,0.6,1.8,1.5c0,0.9-0.7,1.5-1.8,1.5
		c-1.4,0-2.8,0-4.2,0c0,2.1,0,4,0,6.1c1.3,0,2.6,0,3.9,0c1.4,0,2.1,0.5,2.1,1.5c0,1-0.7,1.5-2.2,1.6c-1.2,0-2.4,0-3.5,0
		c-0.3,0-0.8,0.3-0.9,0.5c-0.9,1.6-2.3,2.5-4.2,2.5c-1.8,0-3.6,0.1-5.4-0.1c-4.1-0.5-6.9-3.1-8-7.5c-2,0-4,0-6.1,0c0,4,0,8,0,12.1
		c0.8,0.3,1.8,0.6,2.7,1c3.9,1.6,7.4,3.9,10.4,6.9c2.4,2.4,4.8,4.8,7.1,7.1c1.3,1.3,2.8,2.3,4.5,2.9c2.1,0.7,4.1,1.5,6.2,2.3
		c5.3,2.1,8.6,7,8.7,12.7c0,2.3,0,4.5,0,6.8c0,4.1-3,7.3-7.1,7.6c-0.6,0-0.8,0.3-1.1,0.7c-3.2,4.8-9.1,6.7-14.5,4.6
		c-5.1-1.9-8.5-7.5-7.8-12.8c0.8-5.8,5.2-10.1,10.9-10.8c7.7-0.8,14.3,6,13.3,13.7c-0.1,0.4-0.1,0.8-0.2,1.2
		c1.6-0.3,3.1-1.6,3.2-3.4c0.2-3.4,0.4-6.8-0.2-10.2c-0.2-1-0.6-1.5-1.8-1.4c-0.8,0.1-1.7,0-2.6,0c-2.5-0.1-4.4-2-4.5-4.5
		c0-0.8,0.2-1.8-0.2-2.3c-0.4-0.5-1.4-0.7-2.1-0.9c-3.3-1-5.9-2.8-8.2-5.3c-2.6-2.7-5.3-5.4-8.1-7.9c-2.5-2.2-5.5-3.8-8.7-4.9
		c0,13.7,0,27.3,0,41c1.3,0,2.5,0,3.8,0c1.2,0,2.4,0,3.5,0c1.1,0,1.8,0.6,1.8,1.6c0,0.9-0.7,1.5-1.7,1.5c-2.1,0-4.3,0-6.4,0
		c-0.3,0-0.7,0-1.1,0c-0.1,0.3-0.2,0.5-0.3,0.8c-1,3.2-3.9,5.3-7.3,5.3c-12.2,0-24.4,0-36.6,0c-4.3,0-7.6-3.4-7.6-7.6
		C0,58.5,0,33.1,0,7.7C0,3.4,3.4,0,7.7,0C19.8,0,32,0,44.1,0c4.4,0,7.7,3.3,7.7,7.7c0,4.7,0,9.3,0,14C51.9,22.1,51.9,22.4,51.9,22.9
		z M3.1,45.8c0,12.6,0,25.2,0,37.8c0,2.9,1.9,4.9,4.7,4.9c12.1,0,24.2,0,36.3,0c2.8,0,4.7-2,4.7-4.8c0-25.3,0-50.6,0-75.9
		c0-2.9-1.9-4.8-4.8-4.8c-1.1,0-2.5-0.4-3.3,0.1c-0.8,0.5-1.2,1.9-1.7,2.9c-1,2.1-2.6,3.1-4.9,3.1c-5.4,0-10.7-0.1-16.1,0
		c-2.7,0-4.4-1-5.5-3.4c-0.4-0.9-0.7-2.1-1.4-2.5c-0.8-0.5-2-0.2-3-0.2c-3.4,0-5.2,1.8-5.2,5.2C3.1,20.7,3.1,33.3,3.1,45.8z
		 M64.1,79.3c0,5,4.1,9.2,9.1,9.2c5,0,9.1-4.1,9.2-9.1c0-5-4.1-9.2-9.1-9.2C68.2,70.2,64.1,74.3,64.1,79.3z M73.2,24.4
		c0-1.4,0-2.9,0-4.3c0-1.3-0.6-1.8-1.9-1.8c-1.4,0-2.9,0-4.3,0c-3.4,0.1-6,2.7-6,6.1c0,3.3,2.6,6,6,6.1c1.5,0,2.9,0,4.4,0
		c1.2,0,1.8-0.6,1.8-1.8C73.2,27.3,73.2,25.9,73.2,24.4z M37.2,3.1c-7.6,0-15,0-22.5,0c0.4,0.8,0.7,1.7,1.2,2.3
		c0.3,0.4,0.8,0.6,1.3,0.7c5.8,0,11.6,0,17.4,0c0.5,0,1.1-0.3,1.3-0.7C36.5,4.7,36.7,3.9,37.2,3.1z M85.7,63.8
		c-1-0.8-2.1-1.5-3.2-2.4C82.3,63.8,82.9,64.3,85.7,63.8z"/>
	<linearGradient id="SVGID_4_" gradientUnits="userSpaceOnUse" x1="-26.8706" y1="-17.4413" x2="95.5249" y2="86.0476">
		<stop  offset="0" style="stop-color:#138FBF"/>
		<stop  offset="1" style="stop-color:#00B39E"/>
	</linearGradient>
	<path style="fill:url(#SVGID_4_);" d="M66.2,58c0-0.1,0-0.2,0-0.2c-3-2.9-6.1-5.8-9.2-8.7c-0.4-0.4-1-0.7-1.5-1
		c-0.7-0.6-0.9-1.4-0.5-2.1c0.5-0.7,1.4-1,2.2-0.4c1.8,1.3,3.6,2.6,5.2,4.1c2.9,2.7,5.6,5.6,8.4,8.4c0.6,0.6,1,1.2,0.6,2
		c-0.4,0.8-1.1,0.9-1.9,0.9c-4.2,0-8.4,0-12.7,0c-0.1,0-0.1,0-0.2,0c-1.2,0-1.9-0.6-1.9-1.6c0-0.9,0.7-1.5,1.8-1.5
		c2.9,0,5.7,0,8.6,0C65.6,58,65.9,58,66.2,58z"/>
	<linearGradient id="SVGID_5_" gradientUnits="userSpaceOnUse" x1="-32.2641" y1="-11.0624" x2="90.1314" y2="92.4265">
		<stop  offset="0" style="stop-color:#138FBF"/>
		<stop  offset="1" style="stop-color:#00B39E"/>
	</linearGradient>
	<path style="fill:url(#SVGID_5_);" d="M26,18.3c10.8,0,19.8,8.9,19.8,19.8c0,11-8.9,19.9-19.8,19.9c-11,0-19.9-8.9-19.9-20
		C6.1,27.2,15.1,18.3,26,18.3z M9.2,38.2c0,9.2,7.6,16.7,16.8,16.7c9.1,0,16.7-7.5,16.7-16.7c0-9.3-7.5-16.8-16.6-16.9
		C16.7,21.3,9.2,28.8,9.2,38.2z"/>
	<linearGradient id="SVGID_7_" gradientUnits="userSpaceOnUse" x1="-49.7283" y1="9.5923" x2="72.6672" y2="113.0812">
		<stop  offset="0" style="stop-color:#138FBF"/>
		<stop  offset="1" style="stop-color:#00B39E"/>
	</linearGradient>
	<path style="fill:url(#SVGID_7_);" d="M22.9,67.2c0,0.5,0,1.1,0,1.6c-0.1,2.5-2.1,4.4-4.6,4.4c-2.5,0-4.5-1.9-4.6-4.4
		c0-1.1,0-2.2,0-3.3c0.1-2.5,2.1-4.4,4.6-4.4c2.5,0,4.5,1.9,4.6,4.4C22.9,66,22.9,66.6,22.9,67.2z M16.8,67c0,0.5,0,1.1,0,1.6
		c0.1,0.9,0.7,1.5,1.5,1.5c0.8,0,1.4-0.6,1.5-1.4c0-1,0-2.1,0-3.1c0-0.9-0.7-1.5-1.5-1.5c-0.8,0-1.4,0.6-1.5,1.5
		C16.8,66.1,16.8,66.6,16.8,67z"/>
	<linearGradient id="SVGID_8_" gradientUnits="userSpaceOnUse" x1="-45.2762" y1="4.3268" x2="77.1193" y2="107.8157">
		<stop  offset="0" style="stop-color:#138FBF"/>
		<stop  offset="1" style="stop-color:#00B39E"/>
	</linearGradient>
	<path style="fill:url(#SVGID_8_);" d="M24.3,67.1c0.1-0.9,0.1-1.9,0.3-2.7c0.5-2.2,2.7-3.6,4.9-3.4c2.2,0.2,4,2.1,4.1,4.3
		c0,1.1,0,2.3,0,3.4c-0.1,2.5-2.1,4.4-4.6,4.4c-2.5,0-4.5-2-4.5-4.5C24.4,68.2,24.4,67.7,24.3,67.1C24.4,67.1,24.4,67.1,24.3,67.1z
		 M30.5,67.1c0-0.5,0-1.1,0-1.6c-0.1-0.9-0.7-1.4-1.5-1.5c-0.8,0-1.5,0.6-1.5,1.5c0,1,0,2.1,0,3.1c0,0.8,0.7,1.4,1.5,1.5
		c0.8,0,1.5-0.6,1.5-1.5C30.5,68.2,30.5,67.7,30.5,67.1z"/>
	<linearGradient id="SVGID_9_" gradientUnits="userSpaceOnUse" x1="-41.1276" y1="-0.5796" x2="81.2679" y2="102.9093">
		<stop  offset="0" style="stop-color:#138FBF"/>
		<stop  offset="1" style="stop-color:#00B39E"/>
	</linearGradient>
	<path style="fill:url(#SVGID_9_);" d="M36.9,73.2c-1.5,0-2.2-1.2-1.6-2.3c0.8-1.6,1.6-3.2,2.4-4.9c0.7-1.3,1.3-2.7,2-4
		c0.5-1,1.3-1.3,2.1-0.9c0.9,0.4,1.1,1.3,0.6,2.3c-1.4,2.9-2.9,5.9-4.4,8.8C37.8,72.7,37.2,73,36.9,73.2z"/>
	<linearGradient id="SVGID_10_" gradientUnits="userSpaceOnUse" x1="-52.9071" y1="13.3519" x2="69.4884" y2="116.8408">
		<stop  offset="0" style="stop-color:#138FBF"/>
		<stop  offset="1" style="stop-color:#00B39E"/>
	</linearGradient>
	<path style="fill:url(#SVGID_10_);" d="M9.2,67c0-1.4,0-2.8,0-4.2c0-1.1,0.6-1.8,1.5-1.8c0.9,0,1.5,0.7,1.5,1.8c0,2.9,0,5.7,0,8.6
		c0,1.1-0.6,1.8-1.5,1.8c-0.9,0-1.5-0.7-1.5-1.8C9.1,69.9,9.2,68.5,9.2,67z"/>
	<linearGradient id="SVGID_12_" gradientUnits="userSpaceOnUse" x1="-40.2191" y1="-1.6542" x2="82.1764" y2="101.8347">
		<stop  offset="0" style="stop-color:#138FBF"/>
		<stop  offset="1" style="stop-color:#00B39E"/>
	</linearGradient>
	<path style="fill:url(#SVGID_12_);" d="M38.1,63.3c0,0.1,0,0.3,0,0.4c0,1.2-0.6,1.9-1.5,1.9c-0.9,0-1.5-0.7-1.5-1.9
		c0-0.3,0-0.7,0-1c0-1,0.7-1.6,1.5-1.6c0.9,0,1.5,0.6,1.5,1.6C38.1,62.9,38.1,63.1,38.1,63.3z"/>
	<linearGradient id="SVGID_13_" gradientUnits="userSpaceOnUse" x1="-42.073" y1="0.5384" x2="80.3226" y2="104.0273">
		<stop  offset="0" style="stop-color:#138FBF"/>
		<stop  offset="1" style="stop-color:#00B39E"/>
	</linearGradient>
	<path style="fill:url(#SVGID_13_);" d="M42.7,71c0,0.3,0,0.6,0,0.9c-0.1,0.8-0.6,1.3-1.5,1.4c-0.8,0-1.5-0.6-1.5-1.4
		c0-0.5,0-1,0-1.5c0-1,0.6-1.6,1.5-1.6c0.9,0,1.5,0.6,1.6,1.7C42.7,70.5,42.7,70.8,42.7,71C42.7,71,42.7,71,42.7,71z"/>
	<linearGradient id="SVGID_15_" gradientUnits="userSpaceOnUse" x1="-32.8544" y1="-10.3643" x2="89.5411" y2="93.1246">
		<stop  offset="0" style="stop-color:#138FBF"/>
		<stop  offset="1" style="stop-color:#00B39E"/>
	</linearGradient>
	<path style="fill:url(#SVGID_15_);" d="M79.3,79.3c0,3.4-2.7,6.1-6.1,6.1c-3.3,0-6.1-2.7-6.1-6c0-3.4,2.7-6.2,6-6.2
		C76.5,73.2,79.3,75.9,79.3,79.3z M76.3,79.3c0-1.7-1.4-3-3.1-3c-1.7,0-3.1,1.4-3,3.1c0,1.7,1.4,3,3.1,3
		C74.9,82.3,76.3,80.9,76.3,79.3z"/>
	<linearGradient id="SVGID_16_" gradientUnits="userSpaceOnUse" x1="-32.2607" y1="-11.0665" x2="90.1348" y2="92.4224">
		<stop  offset="0" style="stop-color:#138FBF"/>
		<stop  offset="1" style="stop-color:#00B39E"/>
	</linearGradient>
	<path style="fill:url(#SVGID_16_);" d="M22.7,41.2c-1,0-1.8,0-2.7,0c-1.5,0-2.1-1.2-1.4-2.4c3-5,6-10,9-15c0.4-0.7,1-1,1.8-0.8
		c0.9,0.3,1.1,1,1,1.9c-0.4,3.2-0.8,6.4-1.2,9.6c0,0.2,0,0.3,0,0.6c0.9,0,1.7,0,2.6,0c1.5,0,2.2,1.2,1.4,2.5c-3,5-6,10-9,14.9
		c-0.4,0.7-1.1,1.1-1.9,0.8c-0.9-0.3-1.1-1.1-1-1.9C21.8,48,22.2,44.7,22.7,41.2z M25.4,44.4c0.1,0,0.1,0,0.2,0.1
		c1.2-2.1,2.5-4.1,3.8-6.3c-0.5,0-0.8,0-1.1,0c-2.1,0-2.5-0.5-2.2-2.6c0.2-1.2,0.3-2.5,0.4-3.7c-0.1,0-0.1,0-0.2,0
		c-1.2,2.1-2.5,4.1-3.8,6.3c0.6,0,0.9,0,1.2,0c1.8,0,2.3,0.6,2.1,2.4C25.7,41.8,25.5,43.1,25.4,44.4z"/>
</g>
</svg>
