<?xml version="1.0" encoding="utf-8"?>
<!-- Generator: Adobe Illustrator 22.0.0, SVG Export Plug-In . SVG Version: 6.00 Build 0)  -->
<svg version="1.1" id="Layer_1" xmlns="http://www.w3.org/2000/svg" xmlns:xlink="http://www.w3.org/1999/xlink" x="0px" y="0px"
	 viewBox="0 0 242.5 443.1" style="enable-background:new 0 0 242.5 443.1;" xml:space="preserve">
<style type="text/css">
	.st0{clip-path:url(#SVGID_2_);fill:url(#SVGID_3_);}
	.st1{fill:#EDEEF0;}
	.st2{fill:#383838;}
	.st3{opacity:0.75;fill:url(#SVGID_4_);}
	.st4{opacity:0.85;fill:url(#SVGID_5_);}
	.st5{fill:url(#SVGID_6_);}
	.st6{clip-path:url(#SVGID_10_);fill:#FFFFFF;}
	.st7{clip-path:url(#SVGID_14_);fill:#FFFFFF;}
	.st8{clip-path:url(#SVGID_16_);fill:#FFFFFF;}
	.st9{clip-path:url(#SVGID_18_);fill:#FFFFFF;}
	.st10{clip-path:url(#SVGID_20_);fill:#FFFFFF;}
	.st11{clip-path:url(#SVGID_22_);fill:#FFFFFF;}
	.st12{clip-path:url(#SVGID_24_);fill:#FFFFFF;}
	.st13{clip-path:url(#SVGID_26_);fill:#FFFFFF;}
	.st14{clip-path:url(#SVGID_28_);fill:#FFFFFF;}
	.st15{clip-path:url(#SVGID_30_);fill:#FFFFFF;}
	.st16{clip-path:url(#SVGID_32_);fill:#FFFFFF;}
	.st17{clip-path:url(#SVGID_34_);fill:#FFFFFF;}
	.st18{clip-path:url(#SVGID_36_);fill:#FFFFFF;}
	.st19{clip-path:url(#SVGID_38_);fill:#FFFFFF;}
	.st20{fill:#FFFFFF;}
	.st21{clip-path:url(#SVGID_40_);fill:url(#SVGID_41_);}
	.st22{opacity:0.1;}
	.st23{clip-path:url(#SVGID_45_);}
	.st24{opacity:0.21;}
	.st25{clip-path:url(#SVGID_51_);}
	.st26{clip-path:url(#SVGID_55_);fill:url(#SVGID_56_);}
	.st27{fill:url(#SVGID_59_);}
	.st28{fill:url(#SVGID_60_);}
	.st29{fill:url(#SVGID_61_);}
	.st30{opacity:0.3;}
	.st31{clip-path:url(#SVGID_63_);}
	.st32{clip-path:url(#SVGID_67_);fill:url(#SVGID_68_);}
	.st33{clip-path:url(#SVGID_70_);}
	.st34{fill:url(#SVGID_73_);}
	.st35{clip-path:url(#SVGID_75_);}
	.st36{clip-path:url(#SVGID_79_);fill:url(#SVGID_80_);}
	.st37{clip-path:url(#SVGID_82_);}
	.st38{clip-path:url(#SVGID_86_);}
	.st39{clip-path:url(#SVGID_90_);fill:url(#SVGID_91_);}
	.st40{clip-path:url(#SVGID_93_);}
	.st41{clip-path:url(#SVGID_97_);}
	.st42{clip-path:url(#SVGID_101_);fill:url(#SVGID_102_);}
	.st43{clip-path:url(#SVGID_104_);}
	.st44{clip-path:url(#SVGID_108_);fill:url(#SVGID_109_);}
	.st45{clip-path:url(#SVGID_111_);fill:url(#SVGID_112_);}
	.st46{clip-path:url(#SVGID_114_);fill:url(#SVGID_115_);}
	.st47{clip-path:url(#SVGID_117_);fill:url(#SVGID_118_);}
	.st48{clip-path:url(#SVGID_120_);fill:url(#SVGID_121_);}
	.st49{clip-path:url(#SVGID_123_);fill:url(#SVGID_124_);}
	.st50{clip-path:url(#SVGID_126_);fill:url(#SVGID_127_);}
	.st51{clip-path:url(#SVGID_129_);fill:url(#SVGID_130_);}
	.st52{clip-path:url(#SVGID_132_);fill:url(#SVGID_133_);}
	.st53{clip-path:url(#SVGID_135_);fill:url(#SVGID_136_);}
	.st54{clip-path:url(#SVGID_138_);fill:url(#SVGID_139_);}
	.st55{clip-path:url(#SVGID_141_);fill:url(#SVGID_142_);}
	.st56{clip-path:url(#SVGID_144_);fill:url(#SVGID_145_);}
	.st57{clip-path:url(#SVGID_147_);fill:url(#SVGID_148_);}
	.st58{clip-path:url(#SVGID_150_);fill:url(#SVGID_151_);}
	.st59{clip-path:url(#SVGID_153_);fill:url(#SVGID_154_);}
	.st60{clip-path:url(#SVGID_156_);fill:url(#SVGID_157_);}
	.st61{clip-path:url(#SVGID_159_);fill:url(#SVGID_160_);}
	.st62{clip-path:url(#SVGID_162_);fill:url(#SVGID_163_);}
	.st63{fill:none;stroke:#606060;stroke-width:0.4725;stroke-miterlimit:10;}
	.st64{fill:url(#SVGID_164_);}
</style>
<g>
	
		<linearGradient id="SVGID_2_" gradientUnits="userSpaceOnUse" x1="1494.3556" y1="8471.6836" x2="1494.9545" y2="8471.6836" gradientTransform="matrix(407.482 0 0 -407.482 -608923.75 3452114.25)">
		<stop  offset="0" style="stop-color:#1392C2"/>
		<stop  offset="1" style="stop-color:#00B6A1"/>
	</linearGradient>
	<path style="fill:url(#SVGID_2_);" d="M241.7,103.9c0.3,2.3,0.6,4.7,0.8,7l-0.6,0.1c-0.2-2.4-0.5-4.7-0.8-7L241.7,103.9
		L241.7,103.9z M238.8,90c0.6,2.3,1.2,4.6,1.6,6.9l-0.6,0.1c-0.5-2.3-1-4.6-1.6-6.9L238.8,90L238.8,90z M234.4,76.6
		c0.9,2.2,1.7,4.4,2.4,6.6l-0.6,0.2c-0.7-2.2-1.5-4.4-2.4-6.6L234.4,76.6z M228.4,63.8c1.1,2.1,2.2,4.2,3.2,6.3l-0.5,0.3
		c-1-2.1-2.1-4.2-3.2-6.3L228.4,63.8L228.4,63.8z M220.9,51.8c1.4,1.9,2.7,3.9,3.9,5.9l-0.5,0.3c-1.2-2-2.5-4-3.9-5.9L220.9,51.8
		L220.9,51.8z M212.1,40.7c1.6,1.8,3.1,3.6,4.6,5.4l-0.5,0.4c-1.5-1.8-3-3.6-4.5-5.4L212.1,40.7z M202.1,30.7
		c1.8,1.6,3.5,3.2,5.2,4.9l-0.4,0.4c-1.7-1.7-3.4-3.3-5.1-4.8L202.1,30.7L202.1,30.7z M191,21.9c1.9,1.4,3.8,2.8,5.7,4.2l-0.4,0.5
		c-1.8-1.5-3.7-2.9-5.7-4.2L191,21.9L191,21.9z M179,14.5c2.1,1.1,4.1,2.3,6.1,3.5l-0.3,0.5c-2-1.2-4-2.4-6.1-3.5L179,14.5L179,14.5
		z M166.1,8.5c2.2,0.9,4.4,1.8,6.5,2.8l-0.3,0.5c-2.1-1-4.3-1.9-6.5-2.8L166.1,8.5L166.1,8.5z M152.7,4c2.3,0.6,4.5,1.3,6.8,2
		l-0.2,0.6c-2.2-0.7-4.5-1.4-6.7-2L152.7,4L152.7,4z M138.8,1.2c2.3,0.3,4.7,0.7,7,1.2L145.7,3c-2.3-0.5-4.6-0.9-6.9-1.2L138.8,1.2
		L138.8,1.2z M124.7,0c2.4,0.1,4.7,0.2,7.1,0.4L131.8,1c-2.3-0.2-4.7-0.3-7-0.4L124.7,0z M110.6,0.4c2.3-0.2,4.7-0.3,7.1-0.4l0,0.6
		c-2.4,0.1-4.7,0.2-7,0.4L110.6,0.4L110.6,0.4z M96.6,2.5c2.3-0.5,4.6-0.9,7-1.2l0.1,0.6C101.3,2.2,99,2.6,96.7,3L96.6,2.5L96.6,2.5
		z M82.9,6.1c2.2-0.7,4.5-1.4,6.8-2l0.2,0.6c-2.3,0.6-4.5,1.3-6.7,2L82.9,6.1L82.9,6.1z M69.8,11.3c2.1-1,4.3-1.9,6.5-2.8l0.2,0.6
		c-2.2,0.9-4.3,1.8-6.5,2.8L69.8,11.3L69.8,11.3z M57.4,18c2-1.2,4-2.4,6.1-3.5l0.3,0.5c-2.1,1.1-4.1,2.3-6.1,3.5L57.4,18L57.4,18z
		 M45.8,26.2c1.8-1.5,3.7-2.9,5.7-4.2l0.3,0.5c-1.9,1.3-3.8,2.8-5.6,4.2L45.8,26.2z M35.2,35.6c1.7-1.7,3.4-3.3,5.1-4.9l0.4,0.4
		c-1.8,1.6-3.5,3.2-5.1,4.8L35.2,35.6L35.2,35.6z M25.8,46.1c1.5-1.9,3-3.7,4.6-5.4l0.4,0.4c-1.6,1.8-3.1,3.6-4.5,5.4L25.8,46.1
		L25.8,46.1z M17.7,57.7c1.2-2,2.5-4,3.9-5.9l0.5,0.3c-1.3,1.9-2.6,3.9-3.9,5.9L17.7,57.7L17.7,57.7z M10.9,70.2
		c1-2.1,2.1-4.3,3.2-6.3l0.5,0.3c-1.1,2.1-2.2,4.2-3.2,6.3L10.9,70.2L10.9,70.2z M5.7,83.3c0.7-2.2,1.6-4.5,2.4-6.7l0.6,0.2
		c-0.9,2.2-1.7,4.4-2.4,6.6L5.7,83.3L5.7,83.3z M2,97c0.5-2.3,1-4.6,1.6-6.9l0.6,0.2c-0.6,2.3-1.1,4.5-1.6,6.9L2,97L2,97z M0,111
		c0.2-2.4,0.5-4.7,0.8-7l0.6,0.1c-0.3,2.3-0.6,4.6-0.8,7L0,111L0,111z"/>
	
		<linearGradient id="SVGID_3_" gradientUnits="userSpaceOnUse" x1="1492.0955" y1="8470.9004" x2="1492.6945" y2="8470.9004" gradientTransform="matrix(-407.482 0 0 407.482 608245.3125 -3451351.75)">
		<stop  offset="0" style="stop-color:#1392C2"/>
		<stop  offset="1" style="stop-color:#00B6A1"/>
	</linearGradient>
	<path style="fill:url(#SVGID_3_);" d="M0.8,339.2c-0.3-2.3-0.6-4.7-0.8-7l0.6-0.1c0.2,2.4,0.5,4.7,0.8,7L0.8,339.2L0.8,339.2z
		 M3.7,353.1c-0.6-2.3-1.2-4.6-1.6-6.9l0.6-0.1c0.5,2.3,1,4.6,1.6,6.9L3.7,353.1L3.7,353.1z M8.2,366.5c-0.9-2.2-1.7-4.4-2.4-6.6
		l0.6-0.2c0.7,2.2,1.5,4.4,2.4,6.6L8.2,366.5z M14.1,379.3c-1.1-2.1-2.2-4.2-3.2-6.3l0.5-0.3c1,2.1,2.1,4.2,3.2,6.3L14.1,379.3
		L14.1,379.3z M21.6,391.3c-1.4-1.9-2.7-3.9-3.9-5.9l0.5-0.3c1.2,2,2.5,4,3.9,5.9L21.6,391.3L21.6,391.3z M30.4,402.4
		c-1.6-1.8-3.1-3.6-4.6-5.4l0.5-0.4c1.5,1.8,3,3.6,4.5,5.4L30.4,402.4z M40.4,412.4c-1.8-1.6-3.5-3.2-5.2-4.9l0.4-0.4
		c1.7,1.7,3.4,3.3,5.1,4.8L40.4,412.4L40.4,412.4z M51.5,421.2c-1.9-1.4-3.8-2.8-5.7-4.2l0.4-0.5c1.8,1.5,3.7,2.9,5.7,4.2
		L51.5,421.2L51.5,421.2z M63.5,428.6c-2.1-1.1-4.1-2.3-6.1-3.5l0.3-0.5c2,1.2,4,2.4,6.1,3.5L63.5,428.6L63.5,428.6z M76.4,434.6
		c-2.2-0.9-4.4-1.8-6.5-2.8l0.3-0.5c2.1,1,4.3,1.9,6.5,2.8L76.4,434.6L76.4,434.6z M89.8,439.1c-2.3-0.6-4.5-1.3-6.8-2l0.2-0.6
		c2.2,0.7,4.5,1.4,6.7,2L89.8,439.1L89.8,439.1z M103.7,441.9c-2.3-0.3-4.7-0.7-7-1.2l0.1-0.6c2.3,0.5,4.6,0.9,6.9,1.2L103.7,441.9
		L103.7,441.9z M117.8,443.1c-2.4-0.1-4.7-0.2-7.1-0.4l0.1-0.6c2.3,0.2,4.7,0.3,7,0.4L117.8,443.1z M131.9,442.7
		c-2.3,0.2-4.7,0.3-7.1,0.4l0-0.6c2.4-0.1,4.7-0.2,7-0.4L131.9,442.7L131.9,442.7z M145.9,440.7c-2.3,0.5-4.6,0.9-7,1.2l-0.1-0.6
		c2.3-0.3,4.6-0.7,6.9-1.2L145.9,440.7L145.9,440.7z M159.6,437c-2.2,0.7-4.5,1.4-6.8,2l-0.2-0.6c2.3-0.6,4.5-1.3,6.7-2L159.6,437
		L159.6,437z M172.7,431.8c-2.1,1-4.3,1.9-6.5,2.8L166,434c2.2-0.9,4.3-1.8,6.5-2.8L172.7,431.8L172.7,431.8z M185.1,425.1
		c-2,1.2-4,2.4-6.1,3.5l-0.3-0.5c2.1-1.1,4.1-2.3,6.1-3.5L185.1,425.1L185.1,425.1z M196.7,417c-1.8,1.5-3.7,2.9-5.7,4.2l-0.3-0.5
		c1.9-1.3,3.8-2.8,5.6-4.2L196.7,417z M207.3,407.5c-1.7,1.7-3.4,3.3-5.1,4.9l-0.4-0.4c1.8-1.6,3.5-3.2,5.1-4.8L207.3,407.5
		L207.3,407.5z M216.7,397c-1.5,1.9-3,3.7-4.6,5.4l-0.4-0.4c1.6-1.8,3.1-3.6,4.5-5.4L216.7,397L216.7,397z M224.8,385.4
		c-1.2,2-2.5,4-3.9,5.9l-0.5-0.3c1.3-1.9,2.6-3.9,3.9-5.9L224.8,385.4L224.8,385.4z M231.6,372.9c-1,2.1-2.1,4.3-3.2,6.3l-0.5-0.3
		c1.1-2.1,2.2-4.2,3.2-6.3L231.6,372.9L231.6,372.9z M236.8,359.8c-0.7,2.2-1.6,4.5-2.4,6.7l-0.6-0.2c0.9-2.2,1.7-4.4,2.4-6.6
		L236.8,359.8L236.8,359.8z M240.5,346.1c-0.5,2.3-1,4.6-1.6,6.9l-0.6-0.2c0.6-2.3,1.1-4.5,1.6-6.9L240.5,346.1L240.5,346.1z
		 M242.5,332.1c-0.2,2.4-0.5,4.7-0.8,7l-0.6-0.1c0.3-2.3,0.6-4.6,0.8-7L242.5,332.1L242.5,332.1z"/>
</g>
</svg>
