<?xml version="1.0" encoding="utf-8"?>
<!-- Generator: Adobe Illustrator 22.0.0, SVG Export Plug-In . SVG Version: 6.00 Build 0)  -->
<svg version="1.1" id="Layer_1" xmlns="http://www.w3.org/2000/svg" xmlns:xlink="http://www.w3.org/1999/xlink" x="0px" y="0px"
	 viewBox="0 0 1076 455" style="enable-background:new 0 0 1076 455;" xml:space="preserve">
<style type="text/css">
	.st0{fill:#FFFFFF;}
	.st1{opacity:0.51;clip-path:url(#SVGID_2_);}
	.st2{clip-path:url(#SVGID_4_);}
	.st3{filter:url(#Adobe_OpacityMaskFilter);}
	.st4{clip-path:url(#SVGID_6_);fill:url(#SVGID_8_);}
	.st5{clip-path:url(#SVGID_6_);mask:url(#SVGID_7_);fill:url(#SVGID_9_);}
	.st6{opacity:0.51;clip-path:url(#SVGID_11_);}
	.st7{clip-path:url(#SVGID_13_);}
	.st8{filter:url(#Adobe_OpacityMaskFilter_1_);}
	.st9{clip-path:url(#SVGID_15_);fill:url(#SVGID_17_);}
	.st10{clip-path:url(#SVGID_15_);mask:url(#SVGID_16_);fill:url(#SVGID_18_);}
	.st11{fill:none;}
	.st12{opacity:0.1;clip-path:url(#SVGID_20_);}
	.st13{clip-path:url(#SVGID_22_);}
	.st14{clip-path:url(#SVGID_20_);fill:#FFFFFF;}
	.st15{opacity:0.21;clip-path:url(#SVGID_20_);}
	.st16{clip-path:url(#SVGID_28_);}
	.st17{opacity:0.3;clip-path:url(#SVGID_32_);}
	.st18{clip-path:url(#SVGID_34_);}
	.st19{clip-path:url(#SVGID_32_);fill:#FFFFFF;}
	.st20{clip-path:url(#SVGID_38_);}
	.st21{clip-path:url(#SVGID_42_);fill:url(#SVGID_43_);}
	.st22{filter:url(#Adobe_OpacityMaskFilter_2_);}
	.st23{clip-path:url(#SVGID_45_);fill:url(#SVGID_47_);}
	.st24{clip-path:url(#SVGID_45_);mask:url(#SVGID_46_);fill:url(#SVGID_48_);}
	.st25{fill:#E4E6E6;}
	.st26{fill:url(#SVGID_49_);}
	.st27{fill:url(#SVGID_50_);}
	.st28{fill:url(#SVGID_51_);}
	.st29{fill:url(#SVGID_52_);}
	.st30{fill:url(#SVGID_53_);}
	.st31{fill:url(#SVGID_54_);}
	.st32{fill:url(#SVGID_55_);}
	.st33{fill:url(#SVGID_56_);}
	.st34{fill:url(#SVGID_57_);}
	.st35{fill:url(#SVGID_58_);}
	.st36{fill:url(#SVGID_59_);}
	.st37{fill:url(#SVGID_60_);}
	.st38{fill:url(#SVGID_61_);}
	.st39{fill:url(#SVGID_62_);}
	.st40{fill:url(#SVGID_63_);}
	.st41{fill:url(#SVGID_64_);}
	.st42{fill:url(#SVGID_65_);}
	.st43{fill:url(#SVGID_66_);}
	.st44{fill:url(#SVGID_67_);}
	.st45{fill:url(#SVGID_68_);}
	.st46{clip-path:url(#SVGID_70_);fill:url(#SVGID_71_);}
	.st47{clip-path:url(#SVGID_73_);fill:url(#SVGID_74_);}
	.st48{clip-path:url(#SVGID_76_);fill:url(#SVGID_77_);}
	.st49{clip-path:url(#SVGID_79_);fill:url(#SVGID_80_);}
	.st50{clip-path:url(#SVGID_82_);fill:url(#SVGID_83_);}
	.st51{clip-path:url(#SVGID_85_);fill:url(#SVGID_86_);}
	.st52{clip-path:url(#SVGID_88_);fill:url(#SVGID_89_);}
	.st53{clip-path:url(#SVGID_91_);fill:url(#SVGID_92_);}
	.st54{clip-path:url(#SVGID_94_);fill:url(#SVGID_95_);}
	.st55{clip-path:url(#SVGID_97_);fill:url(#SVGID_98_);}
	.st56{clip-path:url(#SVGID_100_);fill:url(#SVGID_101_);}
	.st57{clip-path:url(#SVGID_103_);fill:url(#SVGID_104_);}
	.st58{clip-path:url(#SVGID_106_);fill:url(#SVGID_107_);}
	.st59{clip-path:url(#SVGID_109_);fill:url(#SVGID_110_);}
	.st60{clip-path:url(#SVGID_112_);fill:url(#SVGID_113_);}
	.st61{clip-path:url(#SVGID_115_);fill:url(#SVGID_116_);}
	.st62{clip-path:url(#SVGID_118_);fill:url(#SVGID_119_);}
	.st63{clip-path:url(#SVGID_121_);fill:url(#SVGID_122_);}
	.st64{clip-path:url(#SVGID_124_);fill:url(#SVGID_125_);}
	.st65{clip-path:url(#SVGID_127_);fill:url(#SVGID_128_);}
	.st66{clip-path:url(#SVGID_130_);fill:url(#SVGID_131_);}
	.st67{clip-path:url(#SVGID_133_);fill:url(#SVGID_134_);}
	.st68{fill:none;stroke:url(#SVGID_135_);stroke-width:0.974;stroke-miterlimit:10;}
	.st69{opacity:0.76;}
	.st70{clip-path:url(#SVGID_139_);fill:url(#SVGID_140_);}
	.st71{fill:#DBDCDE;}
	.st72{clip-path:url(#SVGID_142_);fill:url(#SVGID_143_);}
	.st73{fill:#EDEEF0;}
	.st74{opacity:0.3;}
	.st75{clip-path:url(#SVGID_147_);}
	.st76{clip-path:url(#SVGID_151_);fill:url(#SVGID_152_);}
	.st77{clip-path:url(#SVGID_154_);fill:url(#SVGID_155_);}
	.st78{clip-path:url(#SVGID_157_);fill:url(#SVGID_158_);}
	.st79{clip-path:url(#SVGID_160_);fill:url(#SVGID_161_);}
	.st80{clip-path:url(#SVGID_163_);fill:url(#SVGID_164_);}
	.st81{clip-path:url(#SVGID_166_);fill:url(#SVGID_167_);}
	.st82{clip-path:url(#SVGID_169_);fill:url(#SVGID_170_);}
	.st83{clip-path:url(#SVGID_172_);fill:url(#SVGID_173_);}
	.st84{clip-path:url(#SVGID_175_);fill:url(#SVGID_176_);}
	.st85{clip-path:url(#SVGID_178_);fill:url(#SVGID_179_);}
	.st86{clip-path:url(#SVGID_181_);fill:url(#SVGID_182_);}
	.st87{clip-path:url(#SVGID_184_);fill:url(#SVGID_185_);}
	.st88{clip-path:url(#SVGID_187_);fill:url(#SVGID_188_);}
	.st89{clip-path:url(#SVGID_190_);fill:url(#SVGID_191_);}
	.st90{clip-path:url(#SVGID_193_);fill:url(#SVGID_194_);}
	.st91{clip-path:url(#SVGID_196_);fill:url(#SVGID_197_);}
	.st92{clip-path:url(#SVGID_199_);fill:url(#SVGID_200_);}
	.st93{clip-path:url(#SVGID_202_);fill:url(#SVGID_203_);}
	.st94{clip-path:url(#SVGID_205_);fill:url(#SVGID_206_);}
	.st95{clip-path:url(#SVGID_208_);}
	.st96{fill:none;stroke:#606060;stroke-width:0.5;stroke-miterlimit:10;}
	.st97{clip-path:url(#SVGID_212_);}
	.st98{fill:url(#SVGID_215_);}
	.st99{fill:url(#SVGID_216_);}
	.st100{fill:url(#SVGID_217_);}
	.st101{fill:url(#SVGID_218_);}
	.st102{fill:url(#SVGID_219_);}
	.st103{fill:url(#SVGID_220_);}
	.st104{fill:url(#SVGID_221_);}
	.st105{fill:url(#SVGID_222_);}
	.st106{fill:url(#SVGID_223_);}
	.st107{clip-path:url(#SVGID_225_);}
	.st108{clip-path:url(#SVGID_229_);fill:url(#SVGID_230_);}
	.st109{clip-path:url(#SVGID_232_);}
	.st110{clip-path:url(#SVGID_236_);}
	.st111{clip-path:url(#SVGID_240_);}
	.st112{clip-path:url(#SVGID_244_);fill:url(#SVGID_245_);}
	.st113{clip-path:url(#SVGID_247_);}
	.st114{clip-path:url(#SVGID_251_);}
	.st115{clip-path:url(#SVGID_255_);}
	.st116{clip-path:url(#SVGID_259_);fill:url(#SVGID_260_);}
	.st117{clip-path:url(#SVGID_262_);}
	.st118{clip-path:url(#SVGID_266_);}
	.st119{clip-path:url(#SVGID_270_);}
	.st120{clip-path:url(#SVGID_274_);fill:url(#SVGID_275_);}
	.st121{clip-path:url(#SVGID_277_);}
	.st122{fill:url(#SVGID_282_);}
	.st123{fill:url(#SVGID_283_);}
	.st124{fill:url(#SVGID_284_);}
	.st125{fill:url(#SVGID_285_);}
	.st126{fill:url(#SVGID_286_);}
	.st127{fill:url(#SVGID_287_);}
	.st128{fill:url(#SVGID_288_);}
	.st129{clip-path:url(#SVGID_290_);}
	.st130{clip-path:url(#SVGID_294_);fill:url(#SVGID_295_);}
	.st131{clip-path:url(#SVGID_297_);}
	.st132{clip-path:url(#SVGID_301_);}
	.st133{clip-path:url(#SVGID_305_);}
	.st134{clip-path:url(#SVGID_309_);fill:url(#SVGID_310_);}
	.st135{clip-path:url(#SVGID_312_);}
	.st136{clip-path:url(#SVGID_316_);}
	.st137{clip-path:url(#SVGID_320_);}
	.st138{clip-path:url(#SVGID_324_);fill:url(#SVGID_325_);}
	.st139{clip-path:url(#SVGID_327_);}
	.st140{clip-path:url(#SVGID_331_);}
	.st141{clip-path:url(#SVGID_335_);}
	.st142{clip-path:url(#SVGID_339_);fill:url(#SVGID_340_);}
	.st143{clip-path:url(#SVGID_342_);}
	.st144{fill:url(#SVGID_347_);}
	.st145{fill:url(#SVGID_348_);}
	.st146{fill:url(#SVGID_349_);}
	.st147{fill:url(#SVGID_350_);}
	.st148{fill:url(#SVGID_351_);}
	.st149{fill:url(#SVGID_352_);}
	.st150{fill:url(#SVGID_353_);}
	.st151{clip-path:url(#SVGID_355_);}
	.st152{clip-path:url(#SVGID_359_);fill:url(#SVGID_360_);}
	.st153{clip-path:url(#SVGID_362_);}
	.st154{clip-path:url(#SVGID_366_);}
	.st155{clip-path:url(#SVGID_370_);}
	.st156{clip-path:url(#SVGID_374_);fill:url(#SVGID_375_);}
	.st157{clip-path:url(#SVGID_377_);}
	.st158{clip-path:url(#SVGID_381_);}
	.st159{clip-path:url(#SVGID_385_);}
	.st160{clip-path:url(#SVGID_389_);fill:url(#SVGID_390_);}
	.st161{clip-path:url(#SVGID_392_);}
	.st162{clip-path:url(#SVGID_396_);}
	.st163{clip-path:url(#SVGID_400_);}
	.st164{clip-path:url(#SVGID_404_);fill:url(#SVGID_405_);}
	.st165{clip-path:url(#SVGID_407_);}
</style>
<g>
	
		<linearGradient id="SVGID_2_" gradientUnits="userSpaceOnUse" x1="-5842.7759" y1="3668.9297" x2="-5841.7554" y2="3668.9297" gradientTransform="matrix(407.482 0 0 -407.482 2381156.25 1495118.5)">
		<stop  offset="0" style="stop-color:#1392C2"/>
		<stop  offset="1" style="stop-color:#00B6A1"/>
	</linearGradient>
	<path style="fill:url(#SVGID_2_);" d="M743.4,178.1c0.6,4,1,8,1.4,12l-1,0.1c-0.4-4-0.8-8-1.4-11.9L743.4,178.1L743.4,178.1z
		 M738.6,154.5c1,3.9,2,7.8,2.8,11.7l-1,0.2c-0.8-3.9-1.7-7.8-2.8-11.7L738.6,154.5L738.6,154.5z M730.9,131.6
		c1.5,3.7,2.9,7.5,4.1,11.3l-1,0.3c-1.3-3.8-2.6-7.6-4.1-11.3L730.9,131.6z M720.7,109.8c1.9,3.5,3.7,7.1,5.4,10.8l-0.9,0.4
		c-1.7-3.6-3.5-7.2-5.4-10.7L720.7,109.8L720.7,109.8z M708,89.3c2.3,3.3,4.5,6.6,6.6,10.1l-0.9,0.5c-2.1-3.4-4.3-6.7-6.6-10
		L708,89.3L708,89.3z M693.1,70.4c2.7,3,5.3,6.1,7.8,9.2l-0.8,0.6c-2.5-3.1-5.1-6.2-7.7-9.2L693.1,70.4z M676,53.4
		c3,2.7,5.9,5.4,8.8,8.3l-0.7,0.7c-2.8-2.8-5.7-5.6-8.7-8.2L676,53.4L676,53.4z M657.1,38.4c3.3,2.3,6.5,4.7,9.7,7.2l-0.6,0.8
		c-3.1-2.5-6.4-4.9-9.6-7.2L657.1,38.4L657.1,38.4z M636.5,25.8c3.5,1.9,7,3.9,10.5,6l-0.5,0.9c-3.4-2.1-6.9-4.1-10.4-6L636.5,25.8
		L636.5,25.8z M614.7,15.5c3.8,1.5,7.5,3.1,11.1,4.8l-0.4,0.9c-3.6-1.7-7.3-3.3-11-4.8L614.7,15.5L614.7,15.5z M591.7,8
		c3.9,1,7.8,2.2,11.6,3.4l-0.3,1c-3.8-1.3-7.6-2.4-11.5-3.4L591.7,8L591.7,8z M568.1,3.1c4,0.6,8,1.3,11.9,2.1l-0.2,1
		c-3.9-0.8-7.8-1.5-11.8-2.1L568.1,3.1L568.1,3.1z M544.1,1.1c4,0.1,8.1,0.3,12,0.7l-0.1,1c-4-0.3-8-0.6-12-0.7L544.1,1.1z M520,1.8
		c4-0.3,8-0.6,12-0.7l0,1c-4,0.1-8,0.3-12,0.7L520,1.8L520,1.8z M496.1,5.3C500,4.4,504,3.8,508,3.2l0.1,1c-4,0.6-7.9,1.3-11.8,2.1
		L496.1,5.3L496.1,5.3z M472.8,11.5c3.8-1.3,7.7-2.4,11.6-3.5l0.3,1c-3.9,1-7.7,2.2-11.5,3.4L472.8,11.5L472.8,11.5z M450.5,20.4
		c3.6-1.7,7.3-3.3,11.1-4.8l0.4,0.9c-3.7,1.5-7.4,3.1-11,4.8L450.5,20.4L450.5,20.4z M429.3,31.8c3.4-2.1,6.9-4.1,10.4-6l0.5,0.9
		c-3.5,1.9-7,3.9-10.4,6L429.3,31.8L429.3,31.8z M409.5,45.7c3.2-2.5,6.4-4.9,9.7-7.2l0.6,0.8c-3.3,2.3-6.5,4.7-9.6,7.2L409.5,45.7z
		 M391.5,61.7c2.8-2.8,5.8-5.6,8.8-8.3l0.7,0.8c-3,2.7-5.9,5.4-8.7,8.2L391.5,61.7L391.5,61.7z M375.5,79.7c2.5-3.2,5.1-6.2,7.8-9.2
		l0.8,0.7c-2.7,3-5.2,6.1-7.7,9.2L375.5,79.7L375.5,79.7z M361.6,99.5c2.1-3.4,4.3-6.8,6.6-10.1l0.8,0.6c-2.3,3.3-4.5,6.6-6.6,10
		L361.6,99.5L361.6,99.5z M350.1,120.7c1.7-3.7,3.5-7.3,5.4-10.8l0.9,0.5c-1.9,3.5-3.7,7.1-5.4,10.7L350.1,120.7L350.1,120.7z
		 M341.2,143.1c1.3-3.8,2.7-7.6,4.1-11.4l0.9,0.4c-1.5,3.7-2.9,7.5-4.1,11.3L341.2,143.1L341.2,143.1z M334.9,166.4
		c0.8-4,1.7-7.9,2.8-11.7l1,0.3c-1,3.9-2,7.7-2.8,11.7L334.9,166.4L334.9,166.4z M331.5,190.3c0.3-4,0.8-8,1.4-12l1,0.1
		c-0.6,3.9-1,7.9-1.4,11.9L331.5,190.3L331.5,190.3z"/>
	
		<linearGradient id="SVGID_4_" gradientUnits="userSpaceOnUse" x1="-5869.3989" y1="3666.7715" x2="-5868.3779" y2="3666.7715" gradientTransform="matrix(-407.482 0 0 407.482 -2390597.5 -1493784.125)">
		<stop  offset="0" style="stop-color:#1392C2"/>
		<stop  offset="1" style="stop-color:#00B6A1"/>
	</linearGradient>
	<path style="fill:url(#SVGID_4_);" d="M663.5,276.9c-0.6-4-1-8-1.4-12l1-0.1c0.4,4,0.8,8,1.4,11.9L663.5,276.9L663.5,276.9z
		 M668.4,300.5c-1-3.9-2-7.8-2.8-11.7l1-0.2c0.8,3.9,1.7,7.8,2.8,11.7L668.4,300.5L668.4,300.5z M676,323.4
		c-1.5-3.7-2.9-7.5-4.1-11.3l1-0.3c1.3,3.8,2.6,7.6,4.1,11.3L676,323.4L676,323.4z M686.3,345.2c-1.9-3.5-3.7-7.1-5.4-10.8l0.9-0.4
		c1.7,3.6,3.5,7.2,5.4,10.7L686.3,345.2L686.3,345.2z M698.9,365.7c-2.3-3.3-4.5-6.6-6.6-10.1l0.9-0.5c2.1,3.4,4.3,6.7,6.6,10
		L698.9,365.7L698.9,365.7z M713.9,384.6c-2.7-3-5.3-6.1-7.8-9.2l0.8-0.6c2.5,3.1,5.1,6.2,7.7,9.2L713.9,384.6z M731,401.6
		c-3-2.7-5.9-5.4-8.8-8.3l0.7-0.7c2.8,2.8,5.7,5.6,8.7,8.2L731,401.6L731,401.6z M749.9,416.6c-3.3-2.3-6.5-4.7-9.7-7.2l0.6-0.8
		c3.1,2.5,6.4,4.9,9.6,7.2L749.9,416.6L749.9,416.6z M770.4,429.2c-3.5-1.9-7-3.9-10.5-6l0.5-0.9c3.4,2.1,6.9,4.1,10.4,6
		L770.4,429.2z M792.3,439.5c-3.8-1.5-7.5-3.1-11.1-4.8l0.4-0.9c3.6,1.7,7.3,3.3,11,4.8L792.3,439.5L792.3,439.5z M815.3,447
		c-3.9-1-7.8-2.2-11.6-3.4l0.3-1c3.8,1.3,7.6,2.4,11.5,3.4L815.3,447L815.3,447z M838.9,451.9c-4-0.6-8-1.3-11.9-2.1l0.2-1
		c3.9,0.8,7.8,1.5,11.8,2.1L838.9,451.9z M862.9,453.9c-4-0.1-8.1-0.3-12-0.7l0.1-1c4,0.3,8,0.6,12,0.7L862.9,453.9z M887,453.2
		c-4,0.3-8,0.6-12,0.7l0-1c4-0.1,8-0.3,12-0.7L887,453.2z M910.9,449.7c-3.9,0.8-7.9,1.5-11.9,2.1l-0.1-1c4-0.6,7.9-1.3,11.8-2.1
		L910.9,449.7L910.9,449.7z M934.2,443.5c-3.8,1.3-7.7,2.4-11.6,3.5l-0.3-1c3.9-1,7.7-2.2,11.5-3.4L934.2,443.5z M956.5,434.6
		c-3.6,1.7-7.3,3.3-11.1,4.8l-0.4-0.9c3.7-1.5,7.4-3.1,11-4.8L956.5,434.6L956.5,434.6z M977.7,423.2c-3.4,2.1-6.9,4.1-10.4,6
		l-0.5-0.9c3.5-1.9,7-3.9,10.4-6L977.7,423.2L977.7,423.2z M997.5,409.3c-3.2,2.5-6.4,4.9-9.7,7.2l-0.6-0.8c3.3-2.3,6.5-4.7,9.6-7.2
		L997.5,409.3L997.5,409.3z M1015.5,393.3c-2.8,2.8-5.8,5.6-8.8,8.3l-0.7-0.8c3-2.7,5.9-5.4,8.7-8.2L1015.5,393.3L1015.5,393.3z
		 M1031.5,375.3c-2.5,3.2-5.1,6.2-7.8,9.2l-0.8-0.7c2.7-3,5.2-6.1,7.7-9.2L1031.5,375.3L1031.5,375.3z M1045.4,355.5
		c-2.1,3.4-4.3,6.8-6.6,10.1l-0.8-0.6c2.3-3.3,4.5-6.6,6.6-10L1045.4,355.5L1045.4,355.5z M1056.9,334.3c-1.7,3.7-3.5,7.3-5.4,10.8
		l-0.9-0.5c1.9-3.5,3.7-7.1,5.4-10.7L1056.9,334.3L1056.9,334.3z M1065.8,311.9c-1.3,3.8-2.7,7.6-4.1,11.4l-0.9-0.4
		c1.5-3.7,2.9-7.5,4.1-11.3L1065.8,311.9L1065.8,311.9z M1072.1,288.6c-0.8,4-1.7,7.9-2.8,11.7l-1-0.3c1-3.9,2-7.7,2.8-11.7
		L1072.1,288.6z M1075.5,264.7c-0.3,4-0.8,8-1.4,12l-1-0.1c0.6-3.9,1-7.9,1.4-11.9L1075.5,264.7L1075.5,264.7z"/>
	
		<linearGradient id="SVGID_6_" gradientUnits="userSpaceOnUse" x1="-5867.7749" y1="3666.7715" x2="-5866.7539" y2="3666.7715" gradientTransform="matrix(-407.482 0 0 407.482 -2390597.5 -1493784.125)">
		<stop  offset="0" style="stop-color:#1392C2"/>
		<stop  offset="1" style="stop-color:#00B6A1"/>
	</linearGradient>
	<path style="fill:url(#SVGID_6_);" d="M1.9,276.9c-0.6-4-1-8-1.4-12l1-0.1c0.4,4,0.8,8,1.4,11.9L1.9,276.9L1.9,276.9z M6.8,300.5
		c-1-3.9-2-7.8-2.8-11.7l1-0.2c0.8,3.9,1.7,7.8,2.8,11.7L6.8,300.5L6.8,300.5z M14.4,323.4c-1.5-3.7-2.9-7.5-4.1-11.3l1-0.3
		c1.3,3.8,2.6,7.6,4.1,11.3L14.4,323.4L14.4,323.4z M24.6,345.2c-1.9-3.5-3.7-7.1-5.4-10.8l0.9-0.4c1.7,3.6,3.5,7.2,5.4,10.7
		L24.6,345.2L24.6,345.2z M37.3,365.7c-2.3-3.3-4.5-6.6-6.6-10.1l0.9-0.5c2.1,3.4,4.3,6.7,6.6,10L37.3,365.7L37.3,365.7z
		 M52.2,384.6c-2.7-3-5.3-6.1-7.8-9.2l0.8-0.6c2.5,3.1,5.1,6.2,7.7,9.2L52.2,384.6z M69.3,401.6c-3-2.7-5.9-5.4-8.8-8.3l0.7-0.7
		c2.8,2.8,5.7,5.6,8.7,8.2L69.3,401.6L69.3,401.6z M88.2,416.6c-3.3-2.3-6.5-4.7-9.7-7.2l0.6-0.8c3.1,2.5,6.4,4.9,9.6,7.2
		L88.2,416.6L88.2,416.6z M108.8,429.2c-3.5-1.9-7-3.9-10.5-6l0.5-0.9c3.4,2.1,6.9,4.1,10.4,6L108.8,429.2z M130.7,439.5
		c-3.8-1.5-7.5-3.1-11.1-4.8l0.4-0.9c3.6,1.7,7.3,3.3,11,4.8L130.7,439.5L130.7,439.5z M153.6,447c-3.9-1-7.8-2.2-11.6-3.4l0.3-1
		c3.8,1.3,7.6,2.4,11.5,3.4L153.6,447L153.6,447z M177.2,451.9c-4-0.6-8-1.3-11.9-2.1l0.2-1c3.9,0.8,7.8,1.5,11.8,2.1L177.2,451.9z
		 M201.2,453.9c-4-0.1-8.1-0.3-12-0.7l0.1-1c4,0.3,8,0.6,12,0.7L201.2,453.9z M225.3,453.2c-4,0.3-8,0.6-12,0.7l0-1
		c4-0.1,8-0.3,12-0.7L225.3,453.2z M249.2,449.7c-3.9,0.8-7.9,1.5-11.9,2.1l-0.1-1c4-0.6,7.9-1.3,11.8-2.1L249.2,449.7L249.2,449.7z
		 M272.5,443.5c-3.8,1.3-7.7,2.4-11.6,3.5l-0.3-1c3.9-1,7.7-2.2,11.5-3.4L272.5,443.5z M294.9,434.6c-3.6,1.7-7.3,3.3-11.1,4.8
		l-0.4-0.9c3.7-1.5,7.4-3.1,11-4.8L294.9,434.6L294.9,434.6z M316.1,423.2c-3.4,2.1-6.9,4.1-10.4,6l-0.5-0.9c3.5-1.9,7-3.9,10.4-6
		L316.1,423.2L316.1,423.2z M335.8,409.3c-3.2,2.5-6.4,4.9-9.7,7.2l-0.6-0.8c3.3-2.3,6.5-4.7,9.6-7.2L335.8,409.3L335.8,409.3z
		 M353.8,393.3c-2.8,2.8-5.8,5.6-8.8,8.3l-0.7-0.8c3-2.7,5.9-5.4,8.7-8.2L353.8,393.3L353.8,393.3z M369.9,375.3
		c-2.5,3.2-5.1,6.2-7.8,9.2l-0.8-0.7c2.7-3,5.2-6.1,7.7-9.2L369.9,375.3L369.9,375.3z M383.7,355.5c-2.1,3.4-4.3,6.8-6.6,10.1
		l-0.8-0.6c2.3-3.3,4.5-6.6,6.6-10L383.7,355.5L383.7,355.5z M395.2,334.3c-1.7,3.7-3.5,7.3-5.4,10.8l-0.9-0.5
		c1.9-3.5,3.7-7.1,5.4-10.7L395.2,334.3L395.2,334.3z M404.1,311.9c-1.3,3.8-2.7,7.6-4.1,11.4l-0.9-0.4c1.5-3.7,2.9-7.5,4.1-11.3
		L404.1,311.9L404.1,311.9z M410.4,288.6c-0.8,4-1.7,7.9-2.8,11.7l-1-0.3c1-3.9,2-7.7,2.8-11.7L410.4,288.6z M413.9,264.7
		c-0.3,4-0.8,8-1.4,12l-1-0.1c0.6-3.9,1-7.9,1.4-11.9L413.9,264.7L413.9,264.7z"/>
</g>
</svg>
