<?xml version="1.0" encoding="utf-8"?>
<!-- Generator: Adobe Illustrator 22.0.0, SVG Export Plug-In . SVG Version: 6.00 Build 0)  -->
<svg version="1.1" id="Layer_1" xmlns="http://www.w3.org/2000/svg" xmlns:xlink="http://www.w3.org/1999/xlink" x="0px" y="0px"
	 viewBox="0 0 74 70" style="enable-background:new 0 0 74 70;" xml:space="preserve">
<style type="text/css">
	.st0{fill:#FFFFFF;}
	.st1{clip-path:url(#SVGID_2_);fill:#606060;}
	.st2{clip-path:url(#SVGID_4_);}
	.st3{clip-path:url(#SVGID_6_);}
	.st4{clip-path:url(#SVGID_8_);}
	.st5{opacity:0.78;}
	.st6{clip-path:url(#SVGID_12_);}
	.st7{clip-path:url(#SVGID_14_);fill:url(#SVGID_15_);}
	.st8{clip-path:url(#SVGID_17_);}
	.st9{clip-path:url(#SVGID_19_);fill:url(#SVGID_20_);}
	.st10{clip-path:url(#SVGID_22_);}
	.st11{clip-path:url(#SVGID_24_);fill:url(#SVGID_25_);}
	.st12{clip-path:url(#SVGID_27_);}
	.st13{clip-path:url(#SVGID_29_);fill:url(#SVGID_30_);}
	.st14{clip-path:url(#SVGID_32_);}
	.st15{clip-path:url(#SVGID_34_);fill:url(#SVGID_35_);}
	.st16{clip-path:url(#SVGID_37_);}
	.st17{clip-path:url(#SVGID_39_);fill:url(#SVGID_40_);}
	.st18{clip-path:url(#SVGID_42_);}
	.st19{clip-path:url(#SVGID_44_);fill:url(#SVGID_45_);}
	.st20{clip-path:url(#SVGID_47_);}
	.st21{clip-path:url(#SVGID_49_);fill:url(#SVGID_50_);}
	.st22{fill:none;}
	.st23{clip-path:url(#SVGID_52_);}
	.st24{filter:url(#Adobe_OpacityMaskFilter);}
	.st25{clip-path:url(#SVGID_54_);fill:url(#SVGID_56_);}
	.st26{clip-path:url(#SVGID_54_);mask:url(#SVGID_55_);fill:url(#SVGID_57_);}
	.st27{filter:url(#Adobe_OpacityMaskFilter_1_);}
	.st28{clip-path:url(#SVGID_59_);fill:url(#SVGID_61_);}
	.st29{clip-path:url(#SVGID_59_);mask:url(#SVGID_60_);fill:url(#SVGID_62_);}
	.st30{clip-path:url(#SVGID_64_);fill:url(#SVGID_65_);}
	.st31{clip-path:url(#SVGID_67_);fill:url(#SVGID_68_);}
	.st32{clip-path:url(#SVGID_70_);fill:url(#SVGID_71_);}
	.st33{clip-path:url(#SVGID_73_);fill:#FFFFFF;}
	.st34{clip-path:url(#SVGID_73_);fill:#EDEFEF;}
	.st35{clip-path:url(#SVGID_73_);fill:#E4E5E7;}
	.st36{opacity:0.1;clip-path:url(#SVGID_75_);}
	.st37{clip-path:url(#SVGID_77_);}
	.st38{clip-path:url(#SVGID_75_);fill:#FFFFFF;}
	.st39{opacity:0.21;clip-path:url(#SVGID_75_);}
	.st40{clip-path:url(#SVGID_83_);}
	.st41{clip-path:url(#SVGID_87_);fill:url(#SVGID_88_);}
	.st42{clip-path:url(#SVGID_90_);}
	.st43{clip-path:url(#SVGID_94_);fill:url(#SVGID_95_);}
	.st44{clip-path:url(#SVGID_97_);fill:url(#SVGID_98_);}
	.st45{opacity:0.81;clip-path:url(#SVGID_100_);}
	.st46{clip-path:url(#SVGID_102_);}
	.st47{clip-path:url(#SVGID_106_);}
	.st48{clip-path:url(#SVGID_110_);fill:#606060;}
	.st49{clip-path:url(#SVGID_110_);fill:none;stroke:#606060;stroke-miterlimit:10;}
	.st50{clip-path:url(#SVGID_112_);fill:url(#SVGID_113_);}
	.st51{opacity:0.3;clip-path:url(#SVGID_115_);}
	.st52{clip-path:url(#SVGID_117_);}
	.st53{opacity:0.3;}
	.st54{clip-path:url(#SVGID_121_);}
	.st55{opacity:0.3;clip-path:url(#SVGID_125_);}
	.st56{clip-path:url(#SVGID_127_);}
	.st57{clip-path:url(#SVGID_125_);fill:#FFFFFF;}
	.st58{opacity:0.4;}
	.st59{clip-path:url(#SVGID_131_);}
	.st60{clip-path:url(#SVGID_135_);fill:url(#SVGID_136_);}
	.st61{clip-path:url(#SVGID_138_);fill:#FFFFFF;}
	.st62{clip-path:url(#SVGID_140_);fill:url(#SVGID_141_);}
	.st63{clip-path:url(#SVGID_143_);fill:url(#SVGID_144_);}
	.st64{clip-path:url(#SVGID_146_);fill:#FFFFFF;}
	.st65{clip-path:url(#SVGID_148_);fill:url(#SVGID_149_);}
	.st66{clip-path:url(#SVGID_151_);fill:url(#SVGID_152_);}
	.st67{clip-path:url(#SVGID_154_);fill:url(#SVGID_155_);}
	.st68{clip-path:url(#SVGID_157_);fill:#FFFFFF;}
	.st69{clip-path:url(#SVGID_159_);fill:url(#SVGID_160_);}
	.st70{clip-path:url(#SVGID_162_);fill:url(#SVGID_163_);}
	.st71{clip-path:url(#SVGID_165_);fill:#FFFFFF;}
	.st72{clip-path:url(#SVGID_167_);fill:url(#SVGID_168_);}
	.st73{clip-path:url(#SVGID_170_);fill:url(#SVGID_171_);}
	.st74{clip-path:url(#SVGID_173_);fill:#FFFFFF;}
	.st75{clip-path:url(#SVGID_175_);fill:url(#SVGID_176_);}
	.st76{clip-path:url(#SVGID_178_);fill:url(#SVGID_179_);}
	.st77{clip-path:url(#SVGID_181_);fill:url(#SVGID_182_);}
	.st78{clip-path:url(#SVGID_184_);fill:url(#SVGID_185_);}
	.st79{clip-path:url(#SVGID_187_);fill:url(#SVGID_188_);}
	.st80{clip-path:url(#SVGID_190_);fill:#FFFFFF;}
	.st81{clip-path:url(#SVGID_192_);fill:url(#SVGID_193_);}
	.st82{clip-path:url(#SVGID_195_);fill:#FFFFFF;}
</style>
<g>
	<g>
		<defs>
			<path id="SVGID_147_" d="M38,34.5c2.2-1,3.9-2.5,5.4-4.3c1.2-1.5,2.2-3.1,3.1-4.9c0.1-0.2,0.2-0.3,0.3-0.5
				c1.5,0.5,3.2,0.6,4.6,1.5c0.3,0.2,0.6,0.5,0.9,0.8c1,1,1.5,2.3,1.5,3.7c0,1,0,2.1,0,3.1c0,0.8-0.3,1.4-1,1.9
				c-0.9,0.7-1.9,1.1-3,1.4c-2.3,0.8-4.7,1.1-7.1,1.4c-3,0.3-6,0.3-9,0.2c-3.3-0.2-6.6-0.6-9.7-1.7c-0.9-0.3-1.7-0.8-2.5-1.3
				c-0.7-0.4-1-1-0.9-1.9c0.1-1.1,0-2.2,0-3.3c0-2.4,1.6-4.4,3.9-5c1-0.3,2-0.5,2.9-0.8c1.1,1.6,2.2,3.2,3.3,4.7
				c1.1,1.5,2.4,2.9,4,4c0.6,0.4,1.3,0.7,1.9,1c0.2,0.1,0.4,0.1,0.6,0.1C37.4,34.7,37.7,34.6,38,34.5 M36.9,32
				c-1.1-0.6-2.1-1.4-2.9-2.3c-1.6-1.6-2.8-3.4-3.9-5.4c0,0,0-0.1-0.1-0.2c0.5-0.1,1.1-0.3,1.6-0.4c0.1,0,0.3,0.1,0.5,0.2
				c1.6,1.1,3.3,1.8,5.2,1.8c1.8,0,3.5-0.6,5-1.7c0.3-0.2,0.5-0.3,0.8-0.1c0.4,0.1,0.8,0.2,1.2,0.3c-0.1,0.1-0.1,0.2-0.1,0.3
				c-1.1,2.1-2.3,4.1-4.1,5.7c-0.7,0.7-1.6,1.2-2.4,1.7c-0.1,0.1-0.2,0.1-0.3,0.1C37.1,32.1,37,32,36.9,32 M33.6,22.1
				c-1.1-0.7-1.9-1.7-2.6-2.7c-1.6-2.4-2.5-5-2.6-7.9c0.1-3,1-5.5,3.5-7.2c3.6-2.5,9-2,11.9,1.2c1.5,1.7,2.1,3.8,2.1,6
				c-0.1,3.4-1.2,6.4-3.4,8.9c-0.5,0.6-1.2,1.2-1.9,1.6c-1.1,0.8-2.3,1.1-3.4,1.1C36,23.3,34.8,22.9,33.6,22.1 M35.9,0.4
				c-4.6,0.5-7.7,2.8-9.2,7.2c-1.3,3.6-0.8,7.2,0.8,10.6c0.6,1.2,1.4,2.4,2.1,3.6c-1.9,0.5-3.8,1-5.7,1.5c-3.1,0.8-5.5,3.5-5.8,6.8
				c-0.1,1.4,0,2.8-0.1,4.2c0,1.2,0.4,2.2,1.3,3c1,1,2.2,1.6,3.5,2.1c3.3,1.2,6.9,1.7,10.4,1.9c3.3,0.2,6.7,0.2,10-0.2
				c2.4-0.2,4.8-0.6,7.1-1.4c1.6-0.5,3-1.1,4.3-2.2c1.1-0.9,1.6-2,1.6-3.4c0-1.1,0-2.2,0-3.3c0-3.5-2.3-6.5-5.6-7.5
				c-0.9-0.3-1.9-0.5-2.8-0.7c-1-0.3-2-0.5-3.1-0.8c0.2-0.2,0.3-0.4,0.5-0.6c2.5-3.5,3.8-7.4,3-11.7c-0.5-3.4-2.2-6-5.2-7.7
				c-1.7-1-3.6-1.4-5.6-1.4C36.9,0.3,36.4,0.3,35.9,0.4"/>
		</defs>
		<clipPath id="SVGID_2_">
			<use xlink:href="#SVGID_147_"  style="overflow:visible;"/>
		</clipPath>
		
			<linearGradient id="SVGID_4_" gradientUnits="userSpaceOnUse" x1="859.2947" y1="2644.9219" x2="860.2947" y2="2644.9219" gradientTransform="matrix(38.1226 0 0 -38.1226 -32740.541 100852.1563)">
			<stop  offset="0" style="stop-color:#1399C9"/>
			<stop  offset="1" style="stop-color:#00BDA8"/>
		</linearGradient>
		<rect x="18" y="0.3" style="clip-path:url(#SVGID_2_);fill:url(#SVGID_4_);" width="38.2" height="41.1"/>
	</g>
	<g>
		<defs>
			<path id="SVGID_150_" d="M16.8,63.9c5.2-0.7,10.3-1.4,15.5-2.1c0.2,1.8,0.3,3.6,0.5,5.5H17.2C17.1,66.1,16.9,65,16.8,63.9
				 M17.9,60.9c-3.2-4.2-6.4-8.3-9.7-12.5c-1.1-1.5-1.7-3.2-2.1-4.9c-1-4.3-1.9-8.7-2.9-13C3,29.7,2.9,29,2.7,28.2
				c-0.1-0.4,0-0.7,0.4-0.8c0.4-0.1,0.9-0.2,1.4-0.1c1.7,0.2,3,1.4,3.4,3.1c0.6,2.5,1.1,5,1.7,7.6c0.1,0.3,0,0.4-0.2,0.6
				c-1.1,1.1-1.1,2.6-0.1,3.7c2.6,2.9,5.2,5.7,7.8,8.6c0.4,0.5,0.9,0.6,1.4,0.4c0.9-0.3,1.1-1.3,0.5-2c-1.3-1.4-2.5-2.8-3.8-4.2
				c-1.3-1.4-2.5-2.8-3.8-4.3c-0.4-0.4-0.4-0.5,0.1-0.8c1.6-1.1,4.2-1.3,5.9,0.6c1.4,1.6,2.8,3.1,4.2,4.7c0.5,0.6,1.1,1,1.7,1.4
				c1.1,0.6,2.2,1.3,3.1,2.2c1.6,1.6,2.5,3.5,2.5,5.8c0,0.9,0,1.7,0,2.6c0,0.9,0,1.8,0,2.7c-2.7,0.4-5.3,0.7-7.9,1.1
				c-0.8,0.1-1.6,0.2-2.3,0.3c0,0-0.1,0-0.1,0C18.2,61.2,18,61.1,17.9,60.9 M2.9,24.9c-1.7,0.3-3.2,1.6-2.6,3.9c1,4.4,2,8.8,3,13.2
				c0.3,1.4,0.6,2.9,1.1,4.3c0.6,1.8,1.7,3.3,2.8,4.7c2.6,3.4,5.2,6.7,7.9,10.1c0.1,0.1,0.2,0.2,0.2,0.3c-1,0.3-1.2,0.7-1.1,1.6
				c0.2,1.8,0.5,3.7,0.7,5.5c0.1,0.5,0.5,0.9,1,1c0.1,0,0.3,0,0.4,0c5.1,0,10.2,0,15.4,0c0.9,0,1.8,0,2.6-0.1c0.5,0,0.8-0.4,0.9-0.9
				c0-0.2,0-0.4,0-0.6c-0.2-2.6-0.5-5.3-0.7-7.9c-0.1-0.8-0.7-1.3-1.5-1.1c-0.6,0.1-1.3,0.2-1.9,0.3c0-0.1,0-0.2,0-0.2
				c0-1.2,0.1-2.3,0-3.5c0-1.1,0-2.2-0.2-3.3c-0.4-2.3-1.6-4.3-3.4-5.8c-1-0.9-2.3-1.6-3.4-2.4c-0.3-0.2-0.7-0.5-0.9-0.8
				c-1.4-1.5-2.8-3.1-4.2-4.6c-1.5-1.6-3.3-2.4-5.5-2.3c-0.6,0-1.2,0.2-1.8,0.3c0-0.1,0-0.2-0.1-0.3c-0.5-2.3-1-4.6-1.5-6.9
				c-0.7-3-3.2-5-6.1-5C3.7,24.8,3.3,24.8,2.9,24.9"/>
		</defs>
		<clipPath id="SVGID_6_">
			<use xlink:href="#SVGID_150_"  style="overflow:visible;"/>
		</clipPath>
		
			<linearGradient id="SVGID_8_" gradientUnits="userSpaceOnUse" x1="855.9633" y1="2644.6899" x2="856.9633" y2="2644.6899" gradientTransform="matrix(35.1363 0 0 -35.1363 -30075.2344 92971.9844)">
			<stop  offset="0" style="stop-color:#1399C9"/>
			<stop  offset="1" style="stop-color:#00BDA8"/>
		</linearGradient>
		<rect x="-0.3" y="24.8" style="clip-path:url(#SVGID_6_);fill:url(#SVGID_8_);" width="35.6" height="45"/>
	</g>
	<g>
		<defs>
			<path id="SVGID_153_" d="M41.7,61.8c5.2,0.7,10.3,1.4,15.5,2.1c-0.2,1.1-0.3,2.3-0.5,3.4H41.2C41.4,65.4,41.6,63.6,41.7,61.8
				 M56.9,50.8c1.6-1.8,3.2-3.5,4.8-5.3c1-1.2,2.1-2.4,3.1-3.5c0.6-0.7,0.7-1.4,0.5-2.3c-0.2-0.5-0.5-0.9-0.8-1.2
				c-0.1-0.2-0.2-0.3-0.1-0.5c0.6-2.5,1.1-5,1.7-7.5c0.5-2.2,2.5-3.5,4.7-3.1c0.5,0.1,0.7,0.3,0.6,0.8c-1.2,5.4-2.4,10.7-3.6,16.1
				c-0.4,1.8-1.2,3.4-2.4,4.8c-3.1,3.9-6.2,7.9-9.2,11.9c-0.1,0.2-0.3,0.3-0.5,0.2c-3.4-0.5-6.8-0.9-10.2-1.4c0,0,0,0-0.1-0.1
				c0-1.6,0.1-3.3,0-4.9c-0.1-2.5,0.9-4.5,2.6-6.2c0.8-0.8,1.8-1.4,2.9-2c0.8-0.4,1.4-1,2-1.6c1.2-1.3,2.4-2.7,3.6-4
				c0.3-0.4,0.7-0.7,1.1-1c1.6-1.3,3.9-1.2,5.4,0.1c0.2,0.2,0.2,0.4,0,0.5c-0.6,0.7-1.3,1.4-1.9,2.2C59,44.9,57,47,55.1,49.1
				c-0.6,0.7-0.5,1.5,0.3,2c0.2,0.1,0.4,0.2,0.6,0.2C56.3,51.3,56.6,51.1,56.9,50.8 M63.7,29.6c-0.3,1.4-0.6,2.9-1,4.3
				c-0.2,1-0.4,2-0.7,3c-0.1,0-0.2,0-0.2-0.1c-2.8-0.7-5.2,0-7.1,2.1c-0.8,0.9-1.6,1.7-2.3,2.6c-1.2,1.5-2.6,2.7-4.3,3.7
				c-2.5,1.5-4.2,3.8-5,6.7c-0.4,1.5-0.3,3-0.2,4.4c0,1,0,2,0,3c0,0-0.1,0-0.1,0c-0.6-0.1-1.1-0.1-1.7-0.2c-1-0.1-1.6,0.3-1.6,1.3
				c-0.1,1.5-0.3,3.1-0.4,4.6c-0.1,1.1-0.2,2.3-0.3,3.4c0,0.6,0.3,1,1,1.1c0.3,0,0.6,0.1,0.8,0.1c5.7,0,11.5,0,17.2,0
				c0.8,0,1.3-0.4,1.4-1.3c0.2-1.7,0.4-3.4,0.7-5.1c0.2-1.1,0-1.4-1.1-1.9c0.1-0.1,0.2-0.3,0.3-0.4c2.8-3.7,5.7-7.3,8.5-11
				c1.4-1.8,2.3-3.8,2.8-6c1.1-5.2,2.3-10.4,3.4-15.5c0.4-1.6-0.6-3.2-2.3-3.6c-0.5-0.1-1-0.2-1.5-0.2C67,24.8,64.4,26.7,63.7,29.6"
				/>
		</defs>
		<clipPath id="SVGID_10_">
			<use xlink:href="#SVGID_153_"  style="overflow:visible;"/>
		</clipPath>
		
			<linearGradient id="SVGID_12_" gradientUnits="userSpaceOnUse" x1="855.9486" y1="2644.689" x2="856.9486" y2="2644.689" gradientTransform="matrix(35.1249 0 0 -35.1249 -30026.4863 92941.75)">
			<stop  offset="0" style="stop-color:#1399C9"/>
			<stop  offset="1" style="stop-color:#00BDA8"/>
		</linearGradient>
		<rect x="38.6" y="24.8" style="clip-path:url(#SVGID_10_);fill:url(#SVGID_12_);" width="35.4" height="45"/>
	</g>
</g>
</svg>
