<?xml version="1.0" encoding="utf-8"?>
<!-- Generator: Adobe Illustrator 22.0.0, SVG Export Plug-In . SVG Version: 6.00 Build 0)  -->
<svg version="1.1" id="Layer_1" xmlns="http://www.w3.org/2000/svg" xmlns:xlink="http://www.w3.org/1999/xlink" x="0px" y="0px"
	 viewBox="0 0 73.9 74.1" style="enable-background:new 0 0 73.9 74.1;" xml:space="preserve">
<style type="text/css">
	.st0{fill:#FFFFFF;}
	.st1{clip-path:url(#SVGID_2_);fill:#606060;}
	.st2{clip-path:url(#SVGID_4_);}
	.st3{clip-path:url(#SVGID_6_);}
	.st4{clip-path:url(#SVGID_8_);}
	.st5{opacity:0.78;}
	.st6{clip-path:url(#SVGID_12_);}
	.st7{clip-path:url(#SVGID_14_);fill:url(#SVGID_15_);}
	.st8{clip-path:url(#SVGID_17_);}
	.st9{clip-path:url(#SVGID_19_);fill:url(#SVGID_20_);}
	.st10{clip-path:url(#SVGID_22_);}
	.st11{clip-path:url(#SVGID_24_);fill:url(#SVGID_25_);}
	.st12{clip-path:url(#SVGID_27_);}
	.st13{clip-path:url(#SVGID_29_);fill:url(#SVGID_30_);}
	.st14{clip-path:url(#SVGID_32_);}
	.st15{clip-path:url(#SVGID_34_);fill:url(#SVGID_35_);}
	.st16{clip-path:url(#SVGID_37_);}
	.st17{clip-path:url(#SVGID_39_);fill:url(#SVGID_40_);}
	.st18{clip-path:url(#SVGID_42_);}
	.st19{clip-path:url(#SVGID_44_);fill:url(#SVGID_45_);}
	.st20{clip-path:url(#SVGID_47_);}
	.st21{clip-path:url(#SVGID_49_);fill:url(#SVGID_50_);}
	.st22{fill:none;}
	.st23{clip-path:url(#SVGID_52_);}
	.st24{filter:url(#Adobe_OpacityMaskFilter);}
	.st25{clip-path:url(#SVGID_54_);fill:url(#SVGID_56_);}
	.st26{clip-path:url(#SVGID_54_);mask:url(#SVGID_55_);fill:url(#SVGID_57_);}
	.st27{filter:url(#Adobe_OpacityMaskFilter_1_);}
	.st28{clip-path:url(#SVGID_59_);fill:url(#SVGID_61_);}
	.st29{clip-path:url(#SVGID_59_);mask:url(#SVGID_60_);fill:url(#SVGID_62_);}
	.st30{clip-path:url(#SVGID_64_);fill:url(#SVGID_65_);}
	.st31{clip-path:url(#SVGID_67_);fill:url(#SVGID_68_);}
	.st32{clip-path:url(#SVGID_70_);fill:url(#SVGID_71_);}
	.st33{clip-path:url(#SVGID_73_);fill:#FFFFFF;}
	.st34{clip-path:url(#SVGID_73_);fill:#EDEFEF;}
	.st35{clip-path:url(#SVGID_73_);fill:#E4E5E7;}
	.st36{opacity:0.1;clip-path:url(#SVGID_75_);}
	.st37{clip-path:url(#SVGID_77_);}
	.st38{clip-path:url(#SVGID_75_);fill:#FFFFFF;}
	.st39{opacity:0.21;clip-path:url(#SVGID_75_);}
	.st40{clip-path:url(#SVGID_83_);}
	.st41{clip-path:url(#SVGID_87_);fill:url(#SVGID_88_);}
	.st42{clip-path:url(#SVGID_90_);}
	.st43{clip-path:url(#SVGID_94_);fill:url(#SVGID_95_);}
	.st44{clip-path:url(#SVGID_97_);fill:url(#SVGID_98_);}
	.st45{opacity:0.81;clip-path:url(#SVGID_100_);}
	.st46{clip-path:url(#SVGID_102_);}
	.st47{clip-path:url(#SVGID_106_);}
	.st48{clip-path:url(#SVGID_110_);fill:#606060;}
	.st49{clip-path:url(#SVGID_110_);fill:none;stroke:#606060;stroke-miterlimit:10;}
	.st50{clip-path:url(#SVGID_112_);fill:url(#SVGID_113_);}
	.st51{opacity:0.3;clip-path:url(#SVGID_115_);}
	.st52{clip-path:url(#SVGID_117_);}
	.st53{opacity:0.3;}
	.st54{clip-path:url(#SVGID_121_);}
	.st55{opacity:0.3;clip-path:url(#SVGID_125_);}
	.st56{clip-path:url(#SVGID_127_);}
	.st57{clip-path:url(#SVGID_125_);fill:#FFFFFF;}
	.st58{opacity:0.4;}
	.st59{clip-path:url(#SVGID_131_);}
	.st60{clip-path:url(#SVGID_135_);fill:url(#SVGID_136_);}
	.st61{clip-path:url(#SVGID_138_);fill:#FFFFFF;}
	.st62{clip-path:url(#SVGID_140_);fill:url(#SVGID_141_);}
	.st63{clip-path:url(#SVGID_143_);fill:url(#SVGID_144_);}
	.st64{clip-path:url(#SVGID_146_);fill:#FFFFFF;}
	.st65{clip-path:url(#SVGID_148_);fill:url(#SVGID_149_);}
	.st66{clip-path:url(#SVGID_151_);fill:url(#SVGID_152_);}
	.st67{clip-path:url(#SVGID_154_);fill:url(#SVGID_155_);}
	.st68{clip-path:url(#SVGID_157_);fill:#FFFFFF;}
	.st69{clip-path:url(#SVGID_159_);fill:url(#SVGID_160_);}
	.st70{clip-path:url(#SVGID_162_);fill:url(#SVGID_163_);}
	.st71{clip-path:url(#SVGID_165_);fill:#FFFFFF;}
	.st72{clip-path:url(#SVGID_167_);fill:url(#SVGID_168_);}
	.st73{clip-path:url(#SVGID_170_);fill:url(#SVGID_171_);}
	.st74{clip-path:url(#SVGID_173_);fill:#FFFFFF;}
	.st75{clip-path:url(#SVGID_175_);fill:url(#SVGID_176_);}
	.st76{clip-path:url(#SVGID_178_);fill:url(#SVGID_179_);}
	.st77{clip-path:url(#SVGID_181_);fill:url(#SVGID_182_);}
	.st78{clip-path:url(#SVGID_184_);fill:url(#SVGID_185_);}
	.st79{clip-path:url(#SVGID_187_);fill:url(#SVGID_188_);}
	.st80{clip-path:url(#SVGID_190_);fill:#FFFFFF;}
	.st81{clip-path:url(#SVGID_192_);fill:url(#SVGID_193_);}
	.st82{clip-path:url(#SVGID_195_);fill:#FFFFFF;}
</style>
<g>
	<g>
		<defs>
			<path id="SVGID_174_" d="M37,27.2c-4.8,0-8.6-3.9-8.6-8.6c0-4.8,3.8-8.5,8.6-8.6c4.8,0.1,8.6,3.8,8.6,8.6
				C45.6,23.5,41.8,27.2,37,27.2C37,27.2,37,27.2,37,27.2 M22.7,8.9c7.5-8,19.9-8.4,27.8-0.9c8,7.5,8,19.7,1.2,27.2
				c-0.5-4.2-2.6-7.3-6.3-9.4c2.3-2.9,3.1-6,2.4-9.6c-0.6-2.6-1.9-4.7-4-6.4c-4.3-3.3-10.4-3-14.3,0.7c-3.9,3.6-5,10.1-0.9,15.3
				c-1.7,1-3.2,2.2-4.3,3.9c-1.1,1.7-1.7,3.5-2,5.5C16.1,28.6,15.3,16.9,22.7,8.9 M35.3,0.3c-0.2,0-0.3,0.1-0.5,0.1
				c-2.3,0.2-4.4,0.8-6.5,1.7c-9.8,4.2-15.1,14.7-12.9,24.9c1.7,7.8,6.5,13.2,13.9,16.1c0.2,0.1,0.4,0.1,0.5,0.2
				c0.7,0.1,1.2-0.2,1.4-0.8c0.2-0.6-0.1-1.2-0.7-1.5c-0.2-0.1-0.5-0.2-0.7-0.3c-1.7-0.7-3.3-1.6-4.8-2.7c-0.2-0.2-0.4-0.3-0.4-0.6
				c0-1.2,0-2.4,0.3-3.6c0.9-2.9,2.7-4.9,5.5-6.1c0.2,0.1,0.4,0.2,0.5,0.3c1.7,1.1,3.5,1.6,5.5,1.7c2.2,0.1,4.3-0.5,6.2-1.7
				c0.4-0.3,0.7-0.3,1.1-0.1c1.7,0.8,3,2,4,3.6c1.1,1.8,1.4,3.8,1.3,5.9c0,0.3-0.2,0.4-0.4,0.6c-1.5,1.2-3.2,2.1-5.1,2.8
				c-0.2,0.1-0.5,0.2-0.6,0.3c-0.4,0.3-0.6,0.8-0.5,1.3c0.2,0.5,0.6,0.9,1.2,0.9c0.3,0,0.6-0.1,0.8-0.2c10.1-3.7,16-14.2,14.1-24.7
				C57.1,9.1,49.6,1.9,40.4,0.5c-0.5-0.1-1.1-0.2-1.6-0.3H35.3z"/>
		</defs>
		<clipPath id="SVGID_2_">
			<use xlink:href="#SVGID_174_"  style="overflow:visible;"/>
		</clipPath>
		
			<linearGradient id="SVGID_4_" gradientUnits="userSpaceOnUse" x1="871.8612" y1="2899.9104" x2="872.8612" y2="2899.9104" gradientTransform="matrix(44.1793 0 0 -44.1793 -38503.3047 128137.8906)">
			<stop  offset="0" style="stop-color:#1399C9"/>
			<stop  offset="1" style="stop-color:#00BDA8"/>
		</linearGradient>
		<rect x="13.2" y="0.3" style="clip-path:url(#SVGID_2_);fill:url(#SVGID_4_);" width="47.5" height="43.1"/>
	</g>
	<g>
		<defs>
			<path id="SVGID_177_" d="M57.9,36.3c-0.2,0.2-0.3,0.5-0.4,0.8c-0.9,1.8-1.8,3.6-2.6,5.3c-0.2,0.3-0.4,0.5-0.7,0.5
				c-0.9,0.1-1.8,0.3-2.7,0.4c-1.3,0.2-2.6,0.4-3.8,0.6c-0.8,0.1-1.2,0.7-1,1.4c0.1,0.6,0.7,1.1,1.5,1c2.4-0.3,4.8-0.7,7.2-1
				c0.7-0.1,1.2-0.4,1.5-1.1c0.9-1.9,1.8-3.7,2.7-5.5c0.1-0.2,0.2-0.3,0.3-0.5c0.1,0.2,0.2,0.4,0.3,0.6c0.9,1.9,1.9,3.7,2.8,5.6
				c0.3,0.6,0.7,0.9,1.3,1c1.2,0.2,2.5,0.4,3.7,0.5c1,0.2,2.1,0.3,3.2,0.5c-0.2,0.2-0.4,0.4-0.5,0.6c-1.4,1.4-2.8,2.8-4.3,4.1
				c-0.6,0.5-0.8,1.1-0.6,1.8c0.3,1.1,0.4,2.2,0.6,3.2c0.2,1.1,0.4,2.2,0.6,3.4c-0.3-0.1-0.5-0.2-0.7-0.3c-1.7-0.9-3.5-1.8-5.2-2.7
				c-0.7-0.4-1.4-0.4-2.1,0c-2,1.1-4,2.1-6,3.2c-0.2,0.1-0.5,0.3-0.7,0.4c-0.4,0.4-0.5,1-0.2,1.5c0.3,0.5,0.8,0.7,1.4,0.5
				c0.2-0.1,0.4-0.2,0.6-0.3c1.4-0.7,2.8-1.4,4.1-2.2c0.6-0.3,1.2-0.6,1.8-0.9c2,1.1,4,2.1,6,3.1c0.9,0.5,1.8,0.6,2.6,0
				c0.8-0.6,1-1.5,0.8-2.4c0,0,0,0,0-0.1c-0.3-2-0.7-4-1-6c-0.1-0.4,0-0.7,0.3-1c1.4-1.3,2.7-2.6,4-3.9c0.5-0.5,1-1,1.3-1.7v-1.1
				c0-0.1-0.1-0.1-0.1-0.2c-0.3-0.9-1-1.4-1.9-1.5c-1.2-0.2-2.5-0.4-3.7-0.5c-1.1-0.2-2.1-0.3-3.2-0.5c-0.1-0.3-0.3-0.5-0.4-0.7
				c-0.9-1.7-1.7-3.5-2.6-5.2c-0.1-0.2-0.2-0.4-0.3-0.6c-0.4-0.7-1.1-1-1.8-1C59,35.3,58.3,35.6,57.9,36.3"/>
		</defs>
		<clipPath id="SVGID_6_">
			<use xlink:href="#SVGID_177_"  style="overflow:visible;"/>
		</clipPath>
		
			<linearGradient id="SVGID_8_" gradientUnits="userSpaceOnUse" x1="854.3423" y1="2900.301" x2="855.3423" y2="2900.301" gradientTransform="matrix(27.3468 0 0 -27.3468 -23317.0332 79362.6875)">
			<stop  offset="0" style="stop-color:#1399C9"/>
			<stop  offset="1" style="stop-color:#00BDA8"/>
		</linearGradient>
		<rect x="46.4" y="35.3" style="clip-path:url(#SVGID_6_);fill:url(#SVGID_8_);" width="27.5" height="27"/>
	</g>
	<g>
		<defs>
			<path id="SVGID_180_" d="M28.3,69.4c0.4-2.3,0.8-4.7,1.2-7c0.1-0.7,0-1.2-0.5-1.7c-2-1.9-4-3.8-6-5.7c-0.2-0.2-0.4-0.4-0.7-0.7
				c0.6-0.1,1.1-0.2,1.5-0.2c2.4-0.4,4.9-0.7,7.3-1c0.2,0,0.4-0.1,0.6-0.1c0.5-0.1,0.8-0.3,1-0.7c0.2-0.4,0.4-0.8,0.6-1.2
				c1.1-2.2,2.2-4.3,3.2-6.5c0.1-0.2,0.2-0.4,0.4-0.7c0.1,0.2,0.2,0.4,0.3,0.5c1.2,2.5,2.5,5,3.7,7.5c0.4,0.8,0.9,1.2,1.8,1.3
				c2.8,0.4,5.6,0.8,8.4,1.2c0.1,0,0.3,0.1,0.5,0.1c-0.2,0.2-0.4,0.4-0.6,0.6c-1.9,1.9-3.9,3.8-5.9,5.6c-0.6,0.6-0.8,1.1-0.7,2
				c0.5,2.7,1,5.5,1.4,8.3c0,0.2,0,0.3,0,0.5c-0.3-0.1-0.5-0.2-0.7-0.3c-2.4-1.2-4.7-2.4-7.1-3.7c-0.1-0.1-0.2-0.1-0.3-0.2
				c-0.6-0.4-1.2-0.4-1.9,0c-1.5,0.8-3.1,1.6-4.6,2.4c-1,0.5-1.9,1-2.9,1.5c-0.2,0.1-0.4,0.2-0.7,0.3C28.1,70.6,28.2,70,28.3,69.4
				 M35.8,41.6c-0.5,0.3-0.8,0.7-1.1,1.2c-0.8,1.6-1.6,3.1-2.3,4.7c-0.5,1-1,2.1-1.6,3.1c-1.3,0.2-2.6,0.4-3.9,0.6
				c-1.7,0.2-3.3,0.5-5,0.7c-1.4,0.2-2.2,1.3-2.1,2.7c0.1,0.7,0.4,1.2,0.9,1.7c1.9,1.9,3.9,3.7,5.8,5.6c0.3,0.3,0.4,0.5,0.3,0.9
				c-0.3,1.7-0.6,3.5-0.9,5.2c-0.2,0.9-0.4,1.8-0.5,2.8c-0.1,0.5-0.1,1,0.1,1.4c0.4,1.4,2,2.1,3.4,1.4c0.8-0.4,1.6-0.8,2.4-1.2
				c1.9-1,3.7-1.9,5.6-2.9c0.2,0.1,0.4,0.2,0.5,0.3c2.3,1.2,4.7,2.4,7,3.6c0.3,0.2,0.6,0.3,0.9,0.4c1.5,0.5,3-0.6,3.1-2.1
				c0-0.3,0-0.7-0.1-1c-0.4-2.5-0.9-5.1-1.3-7.6c-0.1-0.6,0-0.9,0.4-1.3c2-1.8,3.9-3.7,5.8-5.6c0.8-0.7,1-1.6,0.7-2.6
				c-0.3-1-1.1-1.5-2.1-1.6c-2.7-0.4-5.4-0.8-8-1.1c-0.5-0.1-0.8-0.2-1.1-0.8c-1.1-2.3-2.3-4.6-3.4-6.9c-0.1-0.3-0.3-0.5-0.4-0.8
				c-0.5-0.7-1.2-1-2-1C36.6,41.2,36.2,41.3,35.8,41.6"/>
		</defs>
		<clipPath id="SVGID_10_">
			<use xlink:href="#SVGID_180_"  style="overflow:visible;"/>
		</clipPath>
		
			<linearGradient id="SVGID_12_" gradientUnits="userSpaceOnUse" x1="863.7053" y1="2900.0557" x2="864.7053" y2="2900.0557" gradientTransform="matrix(34.3392 0 0 -34.3392 -29639.0859 99643.3672)">
			<stop  offset="0" style="stop-color:#1399C9"/>
			<stop  offset="1" style="stop-color:#00BDA8"/>
		</linearGradient>
		<rect x="19.8" y="41.2" style="clip-path:url(#SVGID_10_);fill:url(#SVGID_12_);" width="34.7" height="33"/>
	</g>
	<g>
		<defs>
			<path id="SVGID_183_" d="M13.7,37.3c-0.7,0.2-1.1,0.7-1.5,1.3c-0.9,1.9-1.9,3.8-2.9,5.7c-0.2,0.3-0.3,0.5-0.7,0.6
				c-0.9,0.1-1.8,0.2-2.6,0.4c-1.3,0.2-2.7,0.4-4,0.6c-0.9,0.1-1.5,0.7-1.8,1.5c-0.3,0.8-0.1,1.6,0.5,2.2c0.1,0.1,0.3,0.3,0.4,0.4
				c1.5,1.4,2.9,2.8,4.4,4.2c0.2,0.2,0.4,0.4,0.3,0.7c-0.3,1.4-0.5,2.9-0.8,4.3C5,60,4.9,60.8,4.8,61.6c-0.1,1.2,0.7,2.2,1.9,2.4
				c0.5,0.1,1-0.1,1.5-0.3c1.5-0.8,2.9-1.5,4.4-2.3c0.6-0.3,1.2-0.6,1.8-0.9c2,1,3.9,2,5.8,3c0.2,0.1,0.4,0.2,0.6,0.3
				c0.6,0.2,1.1,0,1.4-0.5c0.3-0.5,0.2-1.1-0.2-1.5c-0.2-0.1-0.3-0.3-0.5-0.4c-2.1-1.1-4.2-2.2-6.3-3.3c-0.6-0.3-1.2-0.3-1.8,0
				c-1.8,1-3.6,1.9-5.3,2.8c-0.2,0.1-0.5,0.2-0.7,0.3c0-0.1,0-0.2,0-0.3C7.7,59,8,56.8,8.5,54.7c0.2-0.8-0.1-1.3-0.6-1.8
				c-1.4-1.3-2.8-2.7-4.2-4.1c-0.2-0.2-0.4-0.4-0.6-0.6c0.2,0,0.2-0.1,0.3-0.1c2-0.3,4-0.6,6-0.9c1-0.1,1.6-0.5,2-1.4
				c0.8-1.7,1.7-3.4,2.5-5.1c0.1-0.2,0.2-0.4,0.4-0.7c0.2,0.3,0.3,0.5,0.4,0.7c0.9,1.8,1.8,3.7,2.8,5.5c0.3,0.5,0.6,0.9,1.3,0.9
				c0.8,0.1,1.5,0.2,2.3,0.3c1.7,0.3,3.5,0.5,5.2,0.7c0.7,0.1,1.3-0.3,1.4-1c0.1-0.7-0.3-1.3-1-1.4c-0.2,0-0.4-0.1-0.6-0.1
				c-2.1-0.3-4.3-0.6-6.5-0.9c-0.1-0.3-0.3-0.5-0.4-0.7c-0.9-1.8-1.8-3.5-2.6-5.3c-0.1-0.2-0.2-0.4-0.3-0.6
				c-0.4-0.6-1.1-0.9-1.8-0.9C14.1,37.2,13.9,37.3,13.7,37.3"/>
		</defs>
		<clipPath id="SVGID_14_">
			<use xlink:href="#SVGID_183_"  style="overflow:visible;"/>
		</clipPath>
		
			<linearGradient id="SVGID_15_" gradientUnits="userSpaceOnUse" x1="854.3613" y1="2900.2319" x2="855.3613" y2="2900.2319" gradientTransform="matrix(27.3581 0 0 -27.3581 -23373.4707 79395.4531)">
			<stop  offset="0" style="stop-color:#1399C9"/>
			<stop  offset="1" style="stop-color:#00BDA8"/>
		</linearGradient>
		<rect x="0.1" y="37.2" class="st7" width="27.6" height="26.9"/>
	</g>
	<g>
		<defs>
			<path id="SVGID_186_" d="M36.8,50.7c-0.5,0.1-0.7,0.4-0.9,0.8c-0.5,1-1,2-1.5,3c-0.2,0.4-0.5,0.6-1,0.7c-1.1,0.1-2.1,0.3-3.2,0.4
				c-0.8,0.1-1.2,0.6-1.2,1.4c0.1,0.7,0.6,1.1,1.4,1.1c0.1,0,0.2,0,0.3,0c1.4-0.2,2.8-0.4,4.2-0.6c0.5-0.1,0.9-0.4,1.2-0.9
				c0.6-1.3,1.3-2.6,2-3.9c0.1-0.2,0.2-0.4,0.2-0.5c0.1-0.8-0.4-1.4-1.2-1.4C37,50.7,36.9,50.7,36.8,50.7"/>
		</defs>
		<clipPath id="SVGID_17_">
			<use xlink:href="#SVGID_186_"  style="overflow:visible;"/>
		</clipPath>
		
			<linearGradient id="SVGID_19_" gradientUnits="userSpaceOnUse" x1="762.9919" y1="2901.9111" x2="763.9919" y2="2901.9111" gradientTransform="matrix(9.1562 0 0 -9.1562 -6957.0088 26624.791)">
			<stop  offset="0" style="stop-color:#1399C9"/>
			<stop  offset="1" style="stop-color:#00BDA8"/>
		</linearGradient>
		<rect x="29" y="50.7" style="clip-path:url(#SVGID_17_);fill:url(#SVGID_19_);" width="9.3" height="7.4"/>
	</g>
</g>
</svg>
