<?xml version="1.0" encoding="utf-8"?>
<!-- Generator: Adobe Illustrator 22.0.0, SVG Export Plug-In . SVG Version: 6.00 Build 0)  -->
<svg version="1.1" id="Layer_1" xmlns="http://www.w3.org/2000/svg" xmlns:xlink="http://www.w3.org/1999/xlink" x="0px" y="0px"
	 viewBox="0 0 74.1 69.1" style="enable-background:new 0 0 74.1 69.1;" xml:space="preserve">
<style type="text/css">
	.st0{fill:#FFFFFF;}
	.st1{clip-path:url(#SVGID_2_);fill:#606060;}
	.st2{clip-path:url(#SVGID_4_);}
	.st3{clip-path:url(#SVGID_6_);}
	.st4{clip-path:url(#SVGID_8_);}
	.st5{opacity:0.78;}
	.st6{clip-path:url(#SVGID_12_);}
	.st7{clip-path:url(#SVGID_14_);fill:url(#SVGID_15_);}
	.st8{clip-path:url(#SVGID_17_);}
	.st9{clip-path:url(#SVGID_19_);fill:url(#SVGID_20_);}
	.st10{clip-path:url(#SVGID_22_);}
	.st11{clip-path:url(#SVGID_24_);fill:url(#SVGID_25_);}
	.st12{clip-path:url(#SVGID_27_);}
	.st13{clip-path:url(#SVGID_29_);fill:url(#SVGID_30_);}
	.st14{clip-path:url(#SVGID_32_);}
	.st15{clip-path:url(#SVGID_34_);fill:url(#SVGID_35_);}
	.st16{clip-path:url(#SVGID_37_);}
	.st17{clip-path:url(#SVGID_39_);fill:url(#SVGID_40_);}
	.st18{clip-path:url(#SVGID_42_);}
	.st19{clip-path:url(#SVGID_44_);fill:url(#SVGID_45_);}
	.st20{clip-path:url(#SVGID_47_);}
	.st21{clip-path:url(#SVGID_49_);fill:url(#SVGID_50_);}
	.st22{fill:none;}
	.st23{clip-path:url(#SVGID_52_);}
	.st24{filter:url(#Adobe_OpacityMaskFilter);}
	.st25{clip-path:url(#SVGID_54_);fill:url(#SVGID_56_);}
	.st26{clip-path:url(#SVGID_54_);mask:url(#SVGID_55_);fill:url(#SVGID_57_);}
	.st27{filter:url(#Adobe_OpacityMaskFilter_1_);}
	.st28{clip-path:url(#SVGID_59_);fill:url(#SVGID_61_);}
	.st29{clip-path:url(#SVGID_59_);mask:url(#SVGID_60_);fill:url(#SVGID_62_);}
	.st30{clip-path:url(#SVGID_64_);fill:url(#SVGID_65_);}
	.st31{clip-path:url(#SVGID_67_);fill:url(#SVGID_68_);}
	.st32{clip-path:url(#SVGID_70_);fill:url(#SVGID_71_);}
	.st33{clip-path:url(#SVGID_73_);fill:#FFFFFF;}
	.st34{clip-path:url(#SVGID_73_);fill:#EDEFEF;}
	.st35{clip-path:url(#SVGID_73_);fill:#E4E5E7;}
	.st36{opacity:0.1;clip-path:url(#SVGID_75_);}
	.st37{clip-path:url(#SVGID_77_);}
	.st38{clip-path:url(#SVGID_75_);fill:#FFFFFF;}
	.st39{opacity:0.21;clip-path:url(#SVGID_75_);}
	.st40{clip-path:url(#SVGID_83_);}
	.st41{clip-path:url(#SVGID_87_);fill:url(#SVGID_88_);}
	.st42{clip-path:url(#SVGID_90_);}
	.st43{clip-path:url(#SVGID_94_);fill:url(#SVGID_95_);}
	.st44{clip-path:url(#SVGID_97_);fill:url(#SVGID_98_);}
	.st45{opacity:0.81;clip-path:url(#SVGID_100_);}
	.st46{clip-path:url(#SVGID_102_);}
	.st47{clip-path:url(#SVGID_106_);}
	.st48{clip-path:url(#SVGID_110_);fill:#606060;}
	.st49{clip-path:url(#SVGID_110_);fill:none;stroke:#606060;stroke-miterlimit:10;}
	.st50{clip-path:url(#SVGID_112_);fill:url(#SVGID_113_);}
	.st51{opacity:0.3;clip-path:url(#SVGID_115_);}
	.st52{clip-path:url(#SVGID_117_);}
	.st53{opacity:0.3;}
	.st54{clip-path:url(#SVGID_121_);}
	.st55{opacity:0.3;clip-path:url(#SVGID_125_);}
	.st56{clip-path:url(#SVGID_127_);}
	.st57{clip-path:url(#SVGID_125_);fill:#FFFFFF;}
	.st58{opacity:0.4;}
	.st59{clip-path:url(#SVGID_131_);}
	.st60{clip-path:url(#SVGID_135_);fill:url(#SVGID_136_);}
	.st61{clip-path:url(#SVGID_138_);fill:#FFFFFF;}
	.st62{clip-path:url(#SVGID_140_);fill:url(#SVGID_141_);}
	.st63{clip-path:url(#SVGID_143_);fill:url(#SVGID_144_);}
	.st64{clip-path:url(#SVGID_146_);fill:#FFFFFF;}
	.st65{clip-path:url(#SVGID_148_);fill:url(#SVGID_149_);}
	.st66{clip-path:url(#SVGID_151_);fill:url(#SVGID_152_);}
	.st67{clip-path:url(#SVGID_154_);fill:url(#SVGID_155_);}
	.st68{clip-path:url(#SVGID_157_);fill:#FFFFFF;}
	.st69{clip-path:url(#SVGID_159_);fill:url(#SVGID_160_);}
	.st70{clip-path:url(#SVGID_162_);fill:url(#SVGID_163_);}
	.st71{clip-path:url(#SVGID_165_);fill:#FFFFFF;}
	.st72{clip-path:url(#SVGID_167_);fill:url(#SVGID_168_);}
	.st73{clip-path:url(#SVGID_170_);fill:url(#SVGID_171_);}
	.st74{clip-path:url(#SVGID_173_);fill:#FFFFFF;}
	.st75{clip-path:url(#SVGID_175_);fill:url(#SVGID_176_);}
	.st76{clip-path:url(#SVGID_178_);fill:url(#SVGID_179_);}
	.st77{clip-path:url(#SVGID_181_);fill:url(#SVGID_182_);}
	.st78{clip-path:url(#SVGID_184_);fill:url(#SVGID_185_);}
	.st79{clip-path:url(#SVGID_187_);fill:url(#SVGID_188_);}
	.st80{clip-path:url(#SVGID_190_);fill:#FFFFFF;}
	.st81{clip-path:url(#SVGID_192_);fill:url(#SVGID_193_);}
	.st82{clip-path:url(#SVGID_195_);fill:#FFFFFF;}
</style>
<g>
	<defs>
		<path id="SVGID_191_" d="M3.5,65.4c-0.6,0-0.7-0.2-0.8-0.9c0-3.1,0-6.2,0-9.3c0-3,0-6.1,0-9.1c0-0.2,0-0.3,0-0.5
			C2.8,45.2,3,45,3.4,45c0.1,0,0.2,0,0.4,0h7.3c0.1,0,0.2,0,0.3,0c0.5,0,0.6,0.2,0.6,0.7c0,0.1,0,0.2,0,0.4c0,6.1,0,12.2,0,18.3
			c0,0.1,0,0.2,0,0.3c0,0.6-0.2,0.8-0.8,0.8c-1.3,0-2.6,0-3.8,0C6.1,65.4,4.8,65.4,3.5,65.4 M19.9,65.8c-1.7-0.6-3.4-1.2-5.2-1.7
			c-0.1,0-0.2-0.1-0.3-0.1V46.4c1.5-0.6,3-1.2,4.5-1.8c0.8-0.3,1.6-0.6,2.4-1c1.2-0.5,2.3-0.4,3.4,0.2c2.1,1.1,4.3,2.3,6.4,3.4
			c1.2,0.7,2.5,1,3.9,1c2.1,0,4.3,0,6.4,0c1.2,0,2.5,0,3.7,0c0.7,0,1.4,0.2,1.9,0.8c0.9,1,0.8,2.5-0.3,3.3c-0.9,0.6-1.8,1.2-2.7,1.7
			c-0.5,0.3-1.1,0.4-1.7,0.4c-3.2,0-6.3,0-9.5,0c0,0-0.1,0-0.2,0c-0.2,0-0.4,0-0.6,0c-0.6,0.1-1,0.7-1,1.3c0,0.6,0.5,1.1,1.2,1.1
			c0.2,0,0.3,0,0.5,0c5,0,9.9,0,14.9,0c1.8,0,3.4-0.4,5-1.3c5-2.7,10-5.4,15-8.2c0.3-0.1,0.5-0.3,0.8-0.4c0.6-0.3,1.3-0.2,1.8,0.2
			c0.9,0.7,1.3,1.6,1.4,2.7c0,0.7-0.2,1.3-0.8,1.6c-0.9,0.6-1.7,1.1-2.6,1.7c-6.3,4-12.6,8.1-18.9,12.1c-1.1,0.7-2.2,1-3.4,1
			c-7.7,0-15.3,0-23,0c0,0,0,0,0,0C21.8,66.3,20.8,66.1,19.9,65.8 M19.6,30.4h19.5v15.3c-0.2,0-0.4,0-0.6,0c-0.4,0-0.8,0-1.3,0
			c-0.8,0-1.6,0-2.4,0c-0.9,0-1.7-0.2-2.5-0.6c-2.1-1.1-4.2-2.2-6.3-3.3c-0.7-0.4-1.3-0.6-2.1-0.8c-1.2-0.3-2.3-0.1-3.4,0.3
			c-0.3,0.1-0.6,0.2-0.9,0.4C19.5,41.1,19.5,31.2,19.6,30.4 M41.6,30.4C41.6,30.4,41.6,30.4,41.6,30.4c0.1-0.1,0.1-0.1,0.1-0.1
			c0.2,0,0.5,0,0.7,0c6.8,0,13.5,0,20.4,0c0,0.2,0.1,0.4,0.1,0.5c0,5.2,0,10.5,0,15.7c0,0.4-0.1,0.6-0.5,0.8
			c-3.8,2.1-7.6,4.1-11.4,6.2c-0.9,0.5-1.8,0.8-2.9,0.7c0.4-0.4,0.7-0.7,1-1.2c1.1-1.5,1.2-3.2,0.4-4.9c-0.8-1.7-2.3-2.6-4.2-2.6
			c-1,0-2,0-2.9,0h-0.7V30.4z M16.9,26.2c0-2.7,0-5.3,0-8c0-0.7,0.2-1.2,0.9-1.5c0.2-0.1,0.4-0.1,0.6-0.1c5.2,0,10.5,0,15.7,0
			c0.1,0,0.3,0,0.4,0c0,0.1,0,0.1-0.1,0.2c-1.5,1.5-2.6,3.3-3.9,4.9c-0.5,0.6-1,1.1-1.5,1.6c-0.1,0.1-0.3,0.3-0.4,0.4
			c-0.4,0.5-0.5,1.1-0.1,1.6c0.4,0.5,1,0.6,1.6,0.3c0.2-0.1,0.5-0.3,0.7-0.5c1.1-1,2.1-2.3,3-3.5c0.8-1,1.6-2,2.4-3
			c0.7-0.8,1.6-1.4,2.6-1.7c0.1,0,0.1,0,0.2,0v11c-0.1,0-0.3,0.1-0.4,0.1c-2,0-4,0-6,0c-4.7,0-9.5,0-14.2,0c0,0,0,0,0,0
			C17.6,27.9,16.9,27.3,16.9,26.2 M63.9,16.7c0.8-0.1,1.5,0.6,1.5,1.5c0,2.7,0,5.4,0,8.1c0,1-0.6,1.6-1.6,1.6c-0.8,0-1.6,0-2.4,0
			H42.4h-0.8c-0.1-0.6-0.2-10.1,0-11c0.7,0.1,1.3,0.5,1.9,0.9c0.8,0.6,1.4,1.3,2,2.1c0.9,1.2,1.8,2.4,2.8,3.6
			c0.5,0.7,1.2,1.2,1.8,1.8c0.2,0.2,0.5,0.4,0.9,0.4c0.5,0,0.9-0.2,1.1-0.7c0.2-0.5,0.1-0.9-0.2-1.3c0,0,0,0-0.1-0.1
			c-1.5-1.3-2.6-2.9-3.8-4.5c-0.6-0.8-1.3-1.6-2.1-2.5h0.8h16.7c0.1,0,0.2,0,0.3,0C63.8,16.7,63.9,16.7,63.9,16.7 M36,13.9
			c-1.8-0.2-3.6-0.5-5.4-1c-1.6-0.4-3.3-1-4.6-2c-1-0.8-1.9-1.7-2.2-3C23,5,25.2,2.6,28.2,3.1c1.4,0.2,2.6,0.9,3.7,1.7
			c3.1,2.4,5.2,5.6,6.8,9.4C37.6,14,36.8,14,36,13.9 M42.1,14.1c0.8-2.1,1.8-3.9,3.1-5.6c1.2-1.6,2.6-3.1,4.4-4.2
			c0.9-0.6,1.8-1,2.9-1.2c2.1-0.4,4,0.6,4.6,2.8c0.3,1.5-0.1,2.8-1.1,4c-1.1,1.2-2.4,2-3.9,2.5c-1.8,0.6-3.6,1.1-5.5,1.3
			c-1.3,0.2-2.6,0.3-3.9,0.4c0,0-0.1,0-0.1,0C42.3,14.1,42.2,14.1,42.1,14.1 M51.4,0.8c-2,0.5-3.6,1.6-5.1,2.9
			c-2.3,2.1-4.2,4.6-5.5,7.4c-0.1,0.2-0.2,0.4-0.3,0.6c-0.1,0-0.1,0-0.1,0c-0.1-0.1-0.1-0.2-0.2-0.3c-0.9-1.9-2-3.7-3.4-5.3
			c-1.4-1.7-2.9-3.1-4.9-4.2c-1.4-0.8-2.9-1.3-4.6-1.2c-2.1,0.1-3.9,0.9-5,2.7c-1.5,2.3-1.4,4.7,0,7.1c0.9,1.5,2.2,2.6,3.7,3.4
			c0.2,0.1,0.5,0.2,0.7,0.4c-0.3,0.1-0.5,0.1-0.7,0.1c-2.5,0-5.1,0-7.6,0c-2,0-3.8,1.7-3.8,3.8c0,2.8,0,5.7,0,8.5
			c0,1.3,0.6,2.3,1.5,3c0.3,0.2,0.7,0.4,1.1,0.6v12.5c-1,0.4-2,0.8-3,1.2c-0.1-0.1-0.2-0.1-0.2-0.2c-0.7-0.8-1.6-1.2-2.7-1.2
			c-2.6,0-5.2,0-7.8,0c-1.7,0-3.1,1.4-3.1,3c0,6.4,0,12.8,0,19.3c0,0.2,0,0.5,0.1,0.7c0.3,1.4,1.5,2.3,2.9,2.3c1,0,2,0,3,0
			c1.5,0,3.1,0,4.6,0c1.2,0,2.3-0.3,3-1.4c0,0,0.1,0,0.1-0.1c1.7,0.6,3.5,1.2,5.2,1.8c0.9,0.3,1.7,0.5,2.7,0.5c8.1,0,16.3,0,24.4,0
			c0.3,0,0.6,0,0.9-0.1c1.1-0.2,2.1-0.6,3.1-1.3c4.3-2.7,8.5-5.5,12.8-8.2c2.9-1.9,5.8-3.7,8.7-5.6c1-0.6,1.7-1.5,2-2.7
			c0-0.1,0.1-0.1,0.1-0.2V49c0-0.1-0.1-0.2-0.1-0.3c-0.3-1.3-0.9-2.3-1.8-3.2c-1.3-1.2-3.2-1.6-4.9-0.7c-0.4,0.2-0.8,0.5-1.3,0.7
			c-0.2,0.1-0.3,0.2-0.5,0.2c-0.1-0.7-0.1-15,0-15.6c0.1,0,0.1-0.1,0.2-0.1c1.6-0.8,2.4-2,2.4-3.8c0-2.7,0-5.3,0-8
			c0-0.3,0-0.6-0.1-0.9c-0.4-2.2-2.4-3.2-3.9-3.2c-3,0.1-6.1,0-9.1,0H54c0.8-0.5,1.6-0.9,2.3-1.5c2.1-1.6,3.3-3.7,3.1-6.4
			c-0.1-1.7-0.8-3.2-2.1-4.3c-1.2-1-2.6-1.5-4-1.5C52.7,0.5,52,0.6,51.4,0.8"/>
	</defs>
	<clipPath id="SVGID_2_">
		<use xlink:href="#SVGID_191_"  style="overflow:visible;"/>
	</clipPath>
	
		<linearGradient id="SVGID_4_" gradientUnits="userSpaceOnUse" x1="885.7607" y1="2517.9146" x2="886.7608" y2="2517.9146" gradientTransform="matrix(73.6145 0 0 -73.6145 -65204.4922 185389.5938)">
		<stop  offset="0" style="stop-color:#1399C9"/>
		<stop  offset="1" style="stop-color:#00BDA8"/>
	</linearGradient>
	<rect x="0.3" y="0.5" style="clip-path:url(#SVGID_2_);fill:url(#SVGID_4_);" width="73.6" height="68.2"/>
</g>
</svg>
