<?xml version="1.0" encoding="utf-8"?>
<!-- Generator: Adobe Illustrator 22.0.0, SVG Export Plug-In . SVG Version: 6.00 Build 0)  -->
<svg version="1.1" id="Layer_1" xmlns="http://www.w3.org/2000/svg" xmlns:xlink="http://www.w3.org/1999/xlink" x="0px" y="0px"
	 viewBox="0 0 199.5 201" style="enable-background:new 0 0 199.5 201;" xml:space="preserve">
<style type="text/css">
	.st0{clip-path:url(#SVGID_2_);fill:#606060;}
	.st1{clip-path:url(#SVGID_4_);}
	.st2{clip-path:url(#SVGID_6_);}
	.st3{clip-path:url(#SVGID_8_);}
	.st4{opacity:0.78;}
	.st5{clip-path:url(#SVGID_12_);}
	.st6{clip-path:url(#SVGID_14_);fill:url(#SVGID_15_);}
	.st7{clip-path:url(#SVGID_17_);}
	.st8{clip-path:url(#SVGID_19_);fill:url(#SVGID_20_);}
	.st9{clip-path:url(#SVGID_22_);}
	.st10{clip-path:url(#SVGID_24_);fill:url(#SVGID_25_);}
	.st11{clip-path:url(#SVGID_27_);}
	.st12{clip-path:url(#SVGID_29_);fill:url(#SVGID_30_);}
	.st13{clip-path:url(#SVGID_32_);}
	.st14{clip-path:url(#SVGID_34_);fill:url(#SVGID_35_);}
	.st15{clip-path:url(#SVGID_37_);}
	.st16{clip-path:url(#SVGID_39_);fill:url(#SVGID_40_);}
	.st17{clip-path:url(#SVGID_42_);}
	.st18{clip-path:url(#SVGID_44_);fill:url(#SVGID_45_);}
	.st19{clip-path:url(#SVGID_47_);}
	.st20{clip-path:url(#SVGID_49_);fill:url(#SVGID_50_);}
	.st21{fill:none;}
	.st22{clip-path:url(#SVGID_52_);}
	.st23{filter:url(#Adobe_OpacityMaskFilter);}
	.st24{clip-path:url(#SVGID_54_);fill:url(#SVGID_56_);}
	.st25{clip-path:url(#SVGID_54_);mask:url(#SVGID_55_);fill:url(#SVGID_57_);}
	.st26{filter:url(#Adobe_OpacityMaskFilter_1_);}
	.st27{clip-path:url(#SVGID_59_);fill:url(#SVGID_61_);}
	.st28{clip-path:url(#SVGID_59_);mask:url(#SVGID_60_);fill:url(#SVGID_62_);}
	.st29{clip-path:url(#SVGID_64_);fill:url(#SVGID_65_);}
	.st30{clip-path:url(#SVGID_67_);fill:url(#SVGID_68_);}
	.st31{clip-path:url(#SVGID_70_);fill:url(#SVGID_71_);}
	.st32{clip-path:url(#SVGID_73_);fill:#FFFFFF;}
	.st33{clip-path:url(#SVGID_73_);fill:#EDEFEF;}
	.st34{clip-path:url(#SVGID_73_);fill:#E4E5E7;}
	.st35{opacity:0.1;clip-path:url(#SVGID_75_);}
	.st36{clip-path:url(#SVGID_77_);}
	.st37{clip-path:url(#SVGID_75_);fill:#FFFFFF;}
	.st38{opacity:0.21;clip-path:url(#SVGID_75_);}
	.st39{clip-path:url(#SVGID_83_);}
	.st40{clip-path:url(#SVGID_87_);fill:url(#SVGID_88_);}
	.st41{clip-path:url(#SVGID_90_);}
	.st42{clip-path:url(#SVGID_94_);fill:url(#SVGID_95_);}
	.st43{clip-path:url(#SVGID_97_);fill:url(#SVGID_98_);}
	.st44{opacity:0.81;clip-path:url(#SVGID_100_);}
	.st45{clip-path:url(#SVGID_102_);}
	.st46{clip-path:url(#SVGID_106_);}
	.st47{fill:#606060;}
	.st48{fill:none;stroke:#606060;stroke-miterlimit:10;}
	.st49{opacity:0.3;}
	.st50{clip-path:url(#SVGID_110_);}
	.st51{fill:#FFFFFF;}
	.st52{opacity:0.3;clip-path:url(#SVGID_114_);}
	.st53{clip-path:url(#SVGID_116_);}
	.st54{clip-path:url(#SVGID_114_);fill:#FFFFFF;}
	.st55{opacity:0.4;}
	.st56{clip-path:url(#SVGID_120_);}
	.st57{clip-path:url(#SVGID_124_);fill:url(#SVGID_125_);}
	.st58{clip-path:url(#SVGID_127_);fill:#FFFFFF;}
	.st59{clip-path:url(#SVGID_129_);fill:url(#SVGID_130_);}
	.st60{clip-path:url(#SVGID_132_);fill:url(#SVGID_133_);}
	.st61{clip-path:url(#SVGID_135_);fill:#FFFFFF;}
	.st62{clip-path:url(#SVGID_137_);fill:url(#SVGID_138_);}
	.st63{clip-path:url(#SVGID_140_);fill:url(#SVGID_141_);}
	.st64{clip-path:url(#SVGID_143_);fill:url(#SVGID_144_);}
	.st65{clip-path:url(#SVGID_146_);fill:#FFFFFF;}
	.st66{clip-path:url(#SVGID_148_);fill:url(#SVGID_149_);}
	.st67{clip-path:url(#SVGID_151_);fill:url(#SVGID_152_);}
	.st68{clip-path:url(#SVGID_154_);fill:#FFFFFF;}
	.st69{clip-path:url(#SVGID_156_);fill:url(#SVGID_157_);}
	.st70{clip-path:url(#SVGID_159_);fill:url(#SVGID_160_);}
	.st71{clip-path:url(#SVGID_162_);fill:#FFFFFF;}
	.st72{clip-path:url(#SVGID_164_);fill:url(#SVGID_165_);}
	.st73{clip-path:url(#SVGID_167_);fill:url(#SVGID_168_);}
	.st74{clip-path:url(#SVGID_170_);fill:url(#SVGID_171_);}
	.st75{clip-path:url(#SVGID_173_);fill:url(#SVGID_174_);}
	.st76{clip-path:url(#SVGID_176_);fill:url(#SVGID_177_);}
	.st77{clip-path:url(#SVGID_179_);fill:#FFFFFF;}
	.st78{clip-path:url(#SVGID_181_);fill:url(#SVGID_182_);}
</style>
<g>
	<path class="st51" d="M75.7,129.8c-5.1-2.4-7.8-6.3-7.1-11.9c0.6-5.2,3.9-8.4,9.7-9.9c-0.6-1.8-1.2-3.6-1.8-5.4
		C72,89.2,67.5,75.8,63,62.4c-0.8-2.4-1.9-3.2-4.5-3.2c-1.7,0-3.4,0-5,0c-2.2,0-3.8-1.7-3.8-3.7c0-2.1,1.6-3.7,3.8-3.7
		c2.5,0,5.1-0.1,7.6,0.2c4.2,0.6,7,3.1,8.7,7c0.1,0.3,0.2,0.5,0.3,0.8c0.4,1.1,0.5,2.5,1.3,3c0.7,0.5,2.1,0.2,3.2,0.2
		c22.5,0,45,0,67.5,0c3.9,0,6.9,2.1,7.7,5.7c0.3,1.2,0.3,2.5,0,3.7c-2.8,11.5-5.7,23-8.6,34.5c-1.3,5.3-5.7,8.6-11.3,8.6
		c-16.6,0-33.2,0-49.7,0c-2.9,0-4.8,2.4-3.9,5c0.5,1.4,1.8,2.4,3.3,2.5c0.7,0,1.5,0,2.2,0c18.8,0,37.6,0,56.4,0c2.4,0,4,1.4,4.2,3.4
		c0.2,2.2-1.4,4-3.7,4.1c-0.5,0-1,0-1.8,0c2.2,2.8,3.2,5.8,2.7,9.2c-0.5,3.4-2.3,6.1-5.3,7.9c-4.5,2.8-10.4,2-14.1-1.9
		c-3.2-3.4-4.7-9.6-0.3-15.2h-28c2.1,2.8,3.2,5.8,2.6,9.4c-0.6,3.5-2.5,6.1-5.5,7.9c-4.8,2.7-10.8,1.6-14.3-2.7
		C71.5,141.3,70.8,134.9,75.7,129.8 M123.8,77.9h16.8c0.6-2.5,1.2-4.9,1.8-7.4h-18C124.2,73,124,75.4,123.8,77.9 M92.7,78
		c-0.4-2.6-0.8-5-1.2-7.4H73.6c0.7,2.2,1.5,4.4,2.1,6.5c0.2,0.7,0.6,0.9,1.3,0.9c4.6,0,9.2,0,13.8,0H92.7z M100.4,77.9h15.9
		c0.2-2.5,0.4-4.9,0.6-7.3H99.1C99.5,73,99.9,75.4,100.4,77.9 M122.5,92.9h14.3c0.6-2.5,1.2-4.9,1.8-7.4h-15.5
		C122.9,88,122.7,90.4,122.5,92.9 M81.1,92.9h14.1c-0.4-2.5-0.8-5-1.2-7.4H78.6C79.5,88.1,80.3,90.5,81.1,92.9 M115.6,85.5h-14
		c0.4,2.5,0.8,5,1.2,7.4H115C115.2,90.4,115.4,88,115.6,85.5 M83.6,100.5c0.7,2.3,1.5,4.4,2.2,6.6c0.2,0.7,0.6,0.9,1.3,0.9
		c2.4,0,4.8,0,7.1,0h3.5c-0.4-2.6-0.9-5-1.3-7.5H83.6z M134.9,100.6h-13c-0.2,2.5-0.4,4.9-0.6,7.4c3.2,0,6.3,0.1,9.4,0
		c1.4-0.1,2.4-1,2.9-2.3C134.1,104,134.5,102.3,134.9,100.6 M105.4,107.9h8.4c0.2-2.1,0.4-4.2,0.5-6.3c0-0.3,0-0.7,0.1-1.1h-10.2
		C104.5,103,104.9,105.4,105.4,107.9 M87.2,138c0-2.1-1.6-3.7-3.7-3.8c-2.1,0-3.8,1.7-3.8,3.8c0,2,1.7,3.7,3.7,3.7
		C85.4,141.8,87.1,140.1,87.2,138 M128.4,134.3c-2,0-3.7,1.7-3.7,3.7c0,2.1,1.7,3.8,3.8,3.8c2,0,3.7-1.8,3.7-3.8
		C132.2,135.9,130.5,134.3,128.4,134.3"/>
</g>
</svg>
