<?xml version="1.0" encoding="utf-8"?>
<!-- Generator: Adobe Illustrator 22.0.0, SVG Export Plug-In . SVG Version: 6.00 Build 0)  -->
<svg version="1.1" id="Layer_1" xmlns="http://www.w3.org/2000/svg" xmlns:xlink="http://www.w3.org/1999/xlink" x="0px" y="0px"
	 viewBox="0 0 199.5 201" style="enable-background:new 0 0 199.5 201;" xml:space="preserve">
<style type="text/css">
	.st0{clip-path:url(#SVGID_2_);fill:#606060;}
	.st1{clip-path:url(#SVGID_4_);}
	.st2{clip-path:url(#SVGID_6_);}
	.st3{clip-path:url(#SVGID_8_);}
	.st4{opacity:0.78;}
	.st5{clip-path:url(#SVGID_12_);}
	.st6{clip-path:url(#SVGID_14_);fill:url(#SVGID_15_);}
	.st7{clip-path:url(#SVGID_17_);}
	.st8{clip-path:url(#SVGID_19_);fill:url(#SVGID_20_);}
	.st9{clip-path:url(#SVGID_22_);}
	.st10{clip-path:url(#SVGID_24_);fill:url(#SVGID_25_);}
	.st11{clip-path:url(#SVGID_27_);}
	.st12{clip-path:url(#SVGID_29_);fill:url(#SVGID_30_);}
	.st13{clip-path:url(#SVGID_32_);}
	.st14{clip-path:url(#SVGID_34_);fill:url(#SVGID_35_);}
	.st15{clip-path:url(#SVGID_37_);}
	.st16{clip-path:url(#SVGID_39_);fill:url(#SVGID_40_);}
	.st17{clip-path:url(#SVGID_42_);}
	.st18{clip-path:url(#SVGID_44_);fill:url(#SVGID_45_);}
	.st19{clip-path:url(#SVGID_47_);}
	.st20{clip-path:url(#SVGID_49_);fill:url(#SVGID_50_);}
	.st21{fill:none;}
	.st22{clip-path:url(#SVGID_52_);}
	.st23{filter:url(#Adobe_OpacityMaskFilter);}
	.st24{clip-path:url(#SVGID_54_);fill:url(#SVGID_56_);}
	.st25{clip-path:url(#SVGID_54_);mask:url(#SVGID_55_);fill:url(#SVGID_57_);}
	.st26{filter:url(#Adobe_OpacityMaskFilter_1_);}
	.st27{clip-path:url(#SVGID_59_);fill:url(#SVGID_61_);}
	.st28{clip-path:url(#SVGID_59_);mask:url(#SVGID_60_);fill:url(#SVGID_62_);}
	.st29{clip-path:url(#SVGID_64_);fill:url(#SVGID_65_);}
	.st30{clip-path:url(#SVGID_67_);fill:url(#SVGID_68_);}
	.st31{clip-path:url(#SVGID_70_);fill:url(#SVGID_71_);}
	.st32{clip-path:url(#SVGID_73_);fill:#FFFFFF;}
	.st33{clip-path:url(#SVGID_73_);fill:#EDEFEF;}
	.st34{clip-path:url(#SVGID_73_);fill:#E4E5E7;}
	.st35{opacity:0.1;clip-path:url(#SVGID_75_);}
	.st36{clip-path:url(#SVGID_77_);}
	.st37{clip-path:url(#SVGID_75_);fill:#FFFFFF;}
	.st38{opacity:0.21;clip-path:url(#SVGID_75_);}
	.st39{clip-path:url(#SVGID_83_);}
	.st40{clip-path:url(#SVGID_87_);fill:url(#SVGID_88_);}
	.st41{clip-path:url(#SVGID_90_);}
	.st42{clip-path:url(#SVGID_94_);fill:url(#SVGID_95_);}
	.st43{clip-path:url(#SVGID_97_);fill:url(#SVGID_98_);}
	.st44{opacity:0.81;clip-path:url(#SVGID_100_);}
	.st45{clip-path:url(#SVGID_102_);}
	.st46{clip-path:url(#SVGID_106_);}
	.st47{fill:#606060;}
	.st48{fill:none;stroke:#606060;stroke-miterlimit:10;}
	.st49{opacity:0.3;}
	.st50{clip-path:url(#SVGID_110_);}
	.st51{fill:#FFFFFF;}
	.st52{opacity:0.3;clip-path:url(#SVGID_114_);}
	.st53{clip-path:url(#SVGID_116_);}
	.st54{clip-path:url(#SVGID_114_);fill:#FFFFFF;}
	.st55{opacity:0.4;}
	.st56{clip-path:url(#SVGID_120_);}
	.st57{clip-path:url(#SVGID_124_);fill:url(#SVGID_125_);}
	.st58{clip-path:url(#SVGID_127_);fill:#FFFFFF;}
	.st59{clip-path:url(#SVGID_129_);fill:url(#SVGID_130_);}
	.st60{clip-path:url(#SVGID_132_);fill:url(#SVGID_133_);}
	.st61{clip-path:url(#SVGID_135_);fill:#FFFFFF;}
	.st62{clip-path:url(#SVGID_137_);fill:url(#SVGID_138_);}
	.st63{clip-path:url(#SVGID_140_);fill:url(#SVGID_141_);}
	.st64{clip-path:url(#SVGID_143_);fill:url(#SVGID_144_);}
	.st65{clip-path:url(#SVGID_146_);fill:#FFFFFF;}
	.st66{clip-path:url(#SVGID_148_);fill:url(#SVGID_149_);}
	.st67{clip-path:url(#SVGID_151_);fill:url(#SVGID_152_);}
	.st68{clip-path:url(#SVGID_154_);fill:#FFFFFF;}
	.st69{clip-path:url(#SVGID_156_);fill:url(#SVGID_157_);}
	.st70{clip-path:url(#SVGID_159_);fill:url(#SVGID_160_);}
	.st71{clip-path:url(#SVGID_162_);fill:#FFFFFF;}
	.st72{clip-path:url(#SVGID_164_);fill:url(#SVGID_165_);}
	.st73{clip-path:url(#SVGID_167_);fill:url(#SVGID_168_);}
	.st74{clip-path:url(#SVGID_170_);fill:url(#SVGID_171_);}
	.st75{clip-path:url(#SVGID_173_);fill:url(#SVGID_174_);}
	.st76{clip-path:url(#SVGID_176_);fill:url(#SVGID_177_);}
	.st77{clip-path:url(#SVGID_179_);fill:#FFFFFF;}
	.st78{clip-path:url(#SVGID_181_);fill:url(#SVGID_182_);}
</style>
<g>
	<path class="st51" d="M92.7,105.8c-1.9,1.6-3.8,3-5.5,4.7c-1.1,1-2.2,1.4-3.7,1.3c-1.5-0.1-3,0-4.6,0c-1.6,0-2.1,0.5-2.2,2.1
		c0,0.9,0,1.7,0,2.6v24v1.5h-24V59.6h68.8V87c-0.8-0.2-1.7-0.5-2.5-0.6c-2-0.3-3.8,0.2-5.2,1.6c-1,1-2.1,1.3-3.5,1.2
		c-1.5-0.1-3,0-4.5,0c-2.7,0-4.5,1.8-4.5,4.5c0,1.3,0,2.7,0,4c0,0.5-0.1,0.8-0.5,1.1c-2,1.7-4.1,3.4-6.2,5.1
		c0.7-1.3,0.6-2.7,0.6-4.1c0-2,0-4,0-6c0-2.7-1.8-4.6-4.5-4.6c-2.5,0-5,0-7.5,0c-2.6,0-4.4,1.8-4.5,4.4c-0.1,2.5-0.1,5.1,0,7.6
		c0,2.7,1.8,4.5,4.6,4.6C86.6,105.8,89.6,105.8,92.7,105.8 M64.7,89.2L64.7,89.2c-1.3,0-2.5,0-3.8,0c-2.6,0-4.4,1.7-4.5,4.3
		c-0.1,2.7-0.1,5.3,0,8c0.1,2.4,1.7,4.2,4.1,4.3c2.8,0.1,5.6,0.1,8.3,0c2.4-0.1,4.1-2,4.1-4.4c0-2.5,0-5.1,0-7.6
		c0-2.6-1.9-4.4-4.4-4.5C67.2,89.2,66,89.2,64.7,89.2 M73,120c0-1.2,0-2.5,0-3.7c0-2.6-1.9-4.5-4.5-4.5c-2.5,0-5,0-7.5,0
		c-2.6,0-4.5,1.7-4.6,4.3c-0.1,2.7-0.1,5.3,0,8c0.1,2.4,1.8,4.2,4.3,4.3c2.7,0.1,5.4,0.1,8.1,0c2.5-0.1,4.2-2,4.2-4.4
		C73,122.6,73,121.3,73,120 M64.7,66.7c-1.3,0-2.5,0.1-3.8,0c-2-0.1-4.4,1.4-4.5,4.2c-0.1,2.7-0.1,5.4,0,8.1
		c0.1,2.5,1.9,4.1,4.3,4.2c2.7,0.1,5.3,0.1,8,0c2.5-0.1,4.2-1.9,4.3-4.4c0-2.6,0-5.2,0-7.7c0-2.5-1.9-4.3-4.4-4.4
		C67.3,66.6,66,66.7,64.7,66.7 M118.1,74.9L118.1,74.9c0-1.3,0-2.7,0-4c-0.1-2.5-1.9-4.2-4.4-4.3c-2.6,0-5.2,0-7.7,0
		c-2.6,0-4.4,1.8-4.4,4.3c0,2.6,0,5.2,0,7.9c0,2.5,1.8,4.3,4.3,4.3c2.6,0.1,5.2,0.1,7.9,0c2.6-0.1,4.3-1.8,4.4-4.4
		C118.1,77.5,118.1,76.2,118.1,74.9 M87.2,66.7c-1.3,0-2.6,0-3.9,0c-2.5,0-4.3,1.7-4.4,4.1c-0.1,2.7-0.1,5.5,0,8.2
		c0.1,2.4,1.8,4.1,4.2,4.2c2.7,0.1,5.3,0.1,8,0c2.5-0.1,4.3-1.9,4.3-4.4c0-2.5,0-5.1,0-7.6c0-2.6-1.8-4.4-4.4-4.5
		C89.8,66.6,88.5,66.7,87.2,66.7"/>
	<path class="st51" d="M127.8,149.1v-1.5c0-5.8-0.1-11.7,0-17.5c0-2.9-1.4-3.9-3.8-3.8c-3.8,0.1-7.7,0-11.5,0c-0.5,0-1.1,0-1.6,0.2
		c-1.1,0.3-1.7,1.1-1.8,2.2c0,0.4,0,0.9,0,1.3c0,5.9,0,11.8,0,17.7v1.3c-0.4,0-0.8,0.1-1.1,0.1c-3.9,0-7.8,0-11.7,0
		c-1.8,0-3.4-0.6-4.6-2c-0.9-1.1-1.3-2.3-1.3-3.7c0-5.9,0-11.7,0-17.6c0-0.6,0.2-0.9,0.6-1.3c8.6-7.2,17.1-14.4,25.7-21.5
		c1.3-1.1,2.2-1,3.6,0.2c6,5,12,10.1,18.1,15.2c2.4,2,4.8,4,7.2,6c0.6,0.5,0.9,1,0.9,1.8c0,5.8,0,11.6,0,17.4c0,2.6-1.6,4.7-3.9,5.4
		c-0.5,0.2-1.1,0.2-1.6,0.2c-4.1,0-8.3,0-12.4,0C128.3,149.2,128.1,149.1,127.8,149.1 M118.4,112.2c-2.8,0-5,2.2-5,5
		c0,2.8,2.3,5.1,5.1,5c2.7,0,4.9-2.3,4.9-4.9C123.4,114.5,121.2,112.2,118.4,112.2"/>
	<path class="st51" d="M84.9,124.9c-1.7,0-3.1-0.9-3.6-2.4c-0.6-1.5-0.3-3.1,1-4.3c1.4-1.3,2.9-2.5,4.4-3.7
		c9.6-8,19.2-16.1,28.7-24.1c1.8-1.5,4-1.6,6,0c10.7,9.1,21.5,18.1,32.3,27.2c0.4,0.3,0.7,0.6,1,0.9c1.3,1.4,1.4,3.6,0.1,5
		c-1.2,1.4-3.3,1.8-4.9,0.8c-0.3-0.2-0.6-0.4-0.9-0.7c-8.8-7.4-17.5-14.7-26.3-22.1c-0.3-0.3-0.7-0.6-1-0.8c-2.2-1.7-4.6-1.7-6.7,0
		c-3,2.5-5.9,5-8.9,7.5c-6.2,5.2-12.3,10.3-18.5,15.5C86.8,124.5,85.9,125,84.9,124.9"/>
	<path class="st51" d="M87.3,56.7c-12,0-23.9,0-35.9,0c-0.4,0-0.9,0-1.3,0c-1.3-0.1-2.2-1.1-2.2-2.4c0-1.3,0.9-2.2,2.1-2.4
		c0.4,0,0.8,0,1.2,0c24,0,48.1,0,72.1,0c0.4,0,0.8,0,1.2,0c1.3,0.1,2.2,1.2,2.2,2.5c0,1.2-1,2.2-2.2,2.3c-0.5,0-0.9,0-1.4,0
		C111.1,56.7,99.2,56.7,87.3,56.7"/>
	<path class="st51" d="M87.6,144.9c0.3,0.7,0.4,1.5,0.7,2.1c0.3,0.7,0.7,1.3,1.2,2.1h-1.3c-13.9,0-27.8,0-41.7,0c-0.3,0-0.6,0-0.9,0
		c-1-0.1-1.8-0.9-1.9-2c-0.1-1,0.6-1.9,1.6-2.2c0.4-0.1,0.8-0.1,1.2-0.1c13.4,0,26.7,0,40.1,0C86.9,144.9,87.2,144.9,87.6,144.9"/>
	<path class="st51" d="M124.5,137.1c0.5,0,1,0,1.5,0c0.7,0.1,1.3,0.6,1.3,1.2c0.1,0.7-0.4,1.4-1.2,1.5c-1.1,0.1-2.3,0.1-3.4,0
		c-0.7-0.1-1.2-0.7-1.2-1.4c0-0.7,0.5-1.3,1.4-1.3C123.5,137.1,124,137.1,124.5,137.1"/>
</g>
</svg>
