<?xml version="1.0" encoding="utf-8"?>
<!-- Generator: Adobe Illustrator 22.0.0, SVG Export Plug-In . SVG Version: 6.00 Build 0)  -->
<svg version="1.1" id="Layer_1" xmlns="http://www.w3.org/2000/svg" xmlns:xlink="http://www.w3.org/1999/xlink" x="0px" y="0px"
	 viewBox="0 0 199.5 201" style="enable-background:new 0 0 199.5 201;" xml:space="preserve">
<style type="text/css">
	.st0{clip-path:url(#SVGID_2_);fill:#606060;}
	.st1{clip-path:url(#SVGID_4_);}
	.st2{clip-path:url(#SVGID_6_);}
	.st3{clip-path:url(#SVGID_8_);}
	.st4{opacity:0.78;}
	.st5{clip-path:url(#SVGID_12_);}
	.st6{clip-path:url(#SVGID_14_);fill:url(#SVGID_15_);}
	.st7{clip-path:url(#SVGID_17_);}
	.st8{clip-path:url(#SVGID_19_);fill:url(#SVGID_20_);}
	.st9{clip-path:url(#SVGID_22_);}
	.st10{clip-path:url(#SVGID_24_);fill:url(#SVGID_25_);}
	.st11{clip-path:url(#SVGID_27_);}
	.st12{clip-path:url(#SVGID_29_);fill:url(#SVGID_30_);}
	.st13{clip-path:url(#SVGID_32_);}
	.st14{clip-path:url(#SVGID_34_);fill:url(#SVGID_35_);}
	.st15{clip-path:url(#SVGID_37_);}
	.st16{clip-path:url(#SVGID_39_);fill:url(#SVGID_40_);}
	.st17{clip-path:url(#SVGID_42_);}
	.st18{clip-path:url(#SVGID_44_);fill:url(#SVGID_45_);}
	.st19{clip-path:url(#SVGID_47_);}
	.st20{clip-path:url(#SVGID_49_);fill:url(#SVGID_50_);}
	.st21{fill:none;}
	.st22{clip-path:url(#SVGID_52_);}
	.st23{filter:url(#Adobe_OpacityMaskFilter);}
	.st24{clip-path:url(#SVGID_54_);fill:url(#SVGID_56_);}
	.st25{clip-path:url(#SVGID_54_);mask:url(#SVGID_55_);fill:url(#SVGID_57_);}
	.st26{filter:url(#Adobe_OpacityMaskFilter_1_);}
	.st27{clip-path:url(#SVGID_59_);fill:url(#SVGID_61_);}
	.st28{clip-path:url(#SVGID_59_);mask:url(#SVGID_60_);fill:url(#SVGID_62_);}
	.st29{clip-path:url(#SVGID_64_);fill:url(#SVGID_65_);}
	.st30{clip-path:url(#SVGID_67_);fill:url(#SVGID_68_);}
	.st31{clip-path:url(#SVGID_70_);fill:url(#SVGID_71_);}
	.st32{clip-path:url(#SVGID_73_);fill:#FFFFFF;}
	.st33{clip-path:url(#SVGID_73_);fill:#EDEFEF;}
	.st34{clip-path:url(#SVGID_73_);fill:#E4E5E7;}
	.st35{opacity:0.1;clip-path:url(#SVGID_75_);}
	.st36{clip-path:url(#SVGID_77_);}
	.st37{clip-path:url(#SVGID_75_);fill:#FFFFFF;}
	.st38{opacity:0.21;clip-path:url(#SVGID_75_);}
	.st39{clip-path:url(#SVGID_83_);}
	.st40{clip-path:url(#SVGID_87_);fill:url(#SVGID_88_);}
	.st41{clip-path:url(#SVGID_90_);}
	.st42{clip-path:url(#SVGID_94_);fill:url(#SVGID_95_);}
	.st43{clip-path:url(#SVGID_97_);fill:url(#SVGID_98_);}
	.st44{opacity:0.81;clip-path:url(#SVGID_100_);}
	.st45{clip-path:url(#SVGID_102_);}
	.st46{clip-path:url(#SVGID_106_);}
	.st47{fill:#606060;}
	.st48{fill:none;stroke:#606060;stroke-miterlimit:10;}
	.st49{opacity:0.3;}
	.st50{clip-path:url(#SVGID_110_);}
	.st51{fill:#FFFFFF;}
	.st52{opacity:0.3;clip-path:url(#SVGID_114_);}
	.st53{clip-path:url(#SVGID_116_);}
	.st54{clip-path:url(#SVGID_114_);fill:#FFFFFF;}
	.st55{opacity:0.4;}
	.st56{clip-path:url(#SVGID_120_);}
	.st57{clip-path:url(#SVGID_124_);fill:url(#SVGID_125_);}
	.st58{clip-path:url(#SVGID_127_);fill:#FFFFFF;}
	.st59{clip-path:url(#SVGID_129_);fill:url(#SVGID_130_);}
	.st60{clip-path:url(#SVGID_132_);fill:url(#SVGID_133_);}
	.st61{clip-path:url(#SVGID_135_);fill:#FFFFFF;}
	.st62{clip-path:url(#SVGID_137_);fill:url(#SVGID_138_);}
	.st63{clip-path:url(#SVGID_140_);fill:url(#SVGID_141_);}
	.st64{clip-path:url(#SVGID_143_);fill:url(#SVGID_144_);}
	.st65{clip-path:url(#SVGID_146_);fill:#FFFFFF;}
	.st66{clip-path:url(#SVGID_148_);fill:url(#SVGID_149_);}
	.st67{clip-path:url(#SVGID_151_);fill:url(#SVGID_152_);}
	.st68{clip-path:url(#SVGID_154_);fill:#FFFFFF;}
	.st69{clip-path:url(#SVGID_156_);fill:url(#SVGID_157_);}
	.st70{clip-path:url(#SVGID_159_);fill:url(#SVGID_160_);}
	.st71{clip-path:url(#SVGID_162_);fill:#FFFFFF;}
	.st72{clip-path:url(#SVGID_164_);fill:url(#SVGID_165_);}
	.st73{clip-path:url(#SVGID_167_);fill:url(#SVGID_168_);}
	.st74{clip-path:url(#SVGID_170_);fill:url(#SVGID_171_);}
	.st75{clip-path:url(#SVGID_173_);fill:url(#SVGID_174_);}
	.st76{clip-path:url(#SVGID_176_);fill:url(#SVGID_177_);}
	.st77{clip-path:url(#SVGID_179_);fill:#FFFFFF;}
	.st78{clip-path:url(#SVGID_181_);fill:url(#SVGID_182_);}
</style>
<g>
	<path class="st51" d="M68.1,160.5c-0.6-0.5-1.2-0.9-1.7-1.5c-2.5-3.3-5-6.5-7.4-9.8c-1.4-1.8-1.2-3,0.7-4.3
		c1.9-1.2,3.7-2.5,5.6-3.7c0.8-0.5,1.1-1,1.2-1.9c0.4-4.8,2.3-8.8,6.5-11.5c0.3-0.2,0.6-0.6,0.7-0.9c0.8-3.6,1.5-7.3,2.2-11h-1.3
		c-7.2,0-14.5,0-21.7,0c-3.5,0-6.2-2.1-7.1-5.2c-1.2-4.3,1.8-8.5,6.3-8.9c0.3,0,0.5-0.1,1-0.1c0-0.5,0-1,0-1.5
		c-0.1-4.8,0-9.5,1.2-14.2c3.6-14.6,12.2-25.2,25.7-31.8c3.9-1.9,8-3.2,12.4-3.8c0.3,0,0.6-0.2,0.9-0.2c-0.9-4-0.1-6.7,2.6-8.6
		c2.4-1.6,5.5-1.7,7.8,0c3,2.1,3.8,5.1,2.7,8.6c12.4,2,22.6,7.8,30.3,17.7c7.8,9.9,10.6,21.3,9.7,33.8c0.8,0.1,1.5,0.1,2.1,0.3
		c3.5,0.8,5.8,4.1,5.4,7.7c-0.4,3.5-3.4,6.2-7.1,6.2c-5.8,0-11.6,0-17.4,0c-1.3,0-2.6,0-3.9,0c-0.1,0.2-0.1,0.3-0.1,0.4
		c0,2.3-1,4-3,5.2c-5.9,3.7-11.8,7.6-17.6,11.3c0,0-0.1,0-0.1,0.1c-2.5,1.4-4.4,3.3-5.9,5.9c-2.8,4.8-7,8-12.1,10.1
		c-0.6,0.3-1.3,0.6-1.8,1c-5.2,3.5-10.3,7.1-15.4,10.6H68.1z M57.8,101.8h83.8v-4.6h-1.4c-4.8,0-9.7,0-14.5,0c-1.6,0-2.7-1-2.7-2.3
		c0-1.4,1-2.3,2.6-2.4c0.3,0,0.6,0,0.9,0h13.6h1.3c-1.4-19.2-18.7-38.8-43.5-37.8C75.3,55.5,55.5,74.9,57.8,101.8 M69.2,155
		c0.3-0.2,0.4-0.3,0.6-0.4c4.5-3,8.9-6.1,13.4-9.1c0.4-0.3,0.9-0.5,1.3-0.7c4.8-1.8,8.6-4.9,11-9.4c1.2-2.4,3-4,5.2-5.4
		c6.5-4.1,12.9-8.3,19.3-12.5c0.4-0.2,0.8-0.7,0.8-1.1c0-0.7-0.7-0.5-1.2-0.5c-1.5,0-3,0-4.5,0c-0.9,0-1.7,0.2-2.4,0.6
		c-7.8,4.4-15.5,8.7-23.3,13c-1.1,0.6-2.2,1.2-3.4,0.3c-1.2-0.8-1-2.1-0.8-3.3c0.3-2.4,0.7-4.9,1-7.3c0.2-1.3-0.5-2.5-1.6-3
		c-1.1-0.5-2.5-0.5-3.3,0.4c-0.5,0.6-0.9,1.4-1.1,2.1c-0.7,3.4-1.4,6.7-2,10.1c-0.2,1.2-0.9,2-1.9,2.6c-1.1,0.7-2.2,1.5-3,2.5
		c-1.6,2-2.1,4.4-2.1,6.9c0,1.5-0.5,2.5-1.8,3.3c-1.8,1.1-3.6,2.3-5.4,3.6C65.6,150.2,67.4,152.6,69.2,155 M99.8,106.6
		c-15.4,0-30.7,0-46.1,0c-0.5,0-0.9,0-1.4,0c-1.1,0.1-2,1-2.1,2.1c-0.1,1.1,0.5,2.1,1.6,2.4c0.4,0.1,0.9,0.2,1.4,0.2
		c31,0,62,0,93.1,0c0.4,0,0.9,0,1.3-0.1c1.1-0.3,1.8-1.3,1.7-2.5c-0.1-1.1-1-1.9-2.1-2c-0.4,0-0.9,0-1.3,0
		C130.5,106.6,115.1,106.6,99.8,106.6 M103.6,116.2c0-0.1,0-0.1-0.1-0.2H90.2c1.2,2.5,0.2,5,0.1,7.6
		C94.9,121.1,99.2,118.6,103.6,116.2 M102.1,47.5c0-1.3-1-2.3-2.3-2.3c-1.3,0-2.4,1.1-2.4,2.4c0,1.3,1,2.3,2.3,2.3
		C101,49.9,102.1,48.8,102.1,47.5"/>
	<path class="st51" d="M86.9,66.6c0,1.1-0.7,1.7-1.6,2.3c-1.9,1.2-3.9,2.3-5.6,3.7c-3.3,2.7-5.7,6.1-7.2,10.1
		c-0.1,0.3-0.2,0.6-0.4,0.9c-0.6,1.2-1.8,1.7-3,1.2c-1.2-0.5-1.7-1.7-1.3-3c1.1-3.1,2.7-5.9,4.7-8.5c2.9-3.7,6.5-6.6,10.8-8.7
		C85.1,63.8,86.9,64.7,86.9,66.6"/>
	<path class="st51" d="M114.8,96.8c-1.3,0-2.4-1-2.3-2.4c0-1.2,1.1-2.3,2.3-2.3c1.3,0,2.4,1.1,2.3,2.4
		C117.1,95.8,116,96.8,114.8,96.8"/>
</g>
</svg>
